<svg xmlns="http://www.w3.org/2000/svg" xmlns:xlink="http://www.w3.org/1999/xlink" width="160" height="160" viewBox="0 0 160 160">
  <defs>
    <clipPath id="clip-Artboard_1">
      <rect width="160" height="160"/>
    </clipPath>
  </defs>
  <g id="Artboard_1" data-name="Artboard – 1" clip-path="url(#clip-Artboard_1)">
    <rect width="160" height="160" fill="#fff"/>
    <g id="ADAC_logo" data-name="ADAC logo" transform="translate(30.026 19.996)">
      <path id="Path_11055" data-name="Path 11055" d="M531.316,410.933c-.28,4.962-3.755,17.2-17.1,19.232a26.088,26.088,0,0,1-3.975.292H485.376a2.578,2.578,0,0,1,0-5.155h16.13a1.725,1.725,0,0,0,.112-3.013h-23.4a2.577,2.577,0,1,1,0-5.154h20.858a1.724,1.724,0,0,0,.069-3.013H475.067a2.578,2.578,0,1,1,0-5.155h23.818a1.6,1.6,0,0,0-.156-2.677H479.418a2.578,2.578,0,1,1,0-5.155h27.117c.113,0,8.733-.881,7.99-8.586s-5.28-9.331.628-15.33l13.565,22.717S531.621,405.512,531.316,410.933Z" transform="translate(-431.56 -338.904)" fill="#d02128"/>
      <path id="Path_11056" data-name="Path 11056" d="M174.889,408.148c-4.109-2.8-12.8-12.075-7.673-24.566a26.072,26.072,0,0,1,1.808-3.558l12.8-21.309a2.578,2.578,0,1,1,4.419,2.656l-8.3,13.82a1.725,1.725,0,0,0,2.525,1.648l12.055-20.056a2.577,2.577,0,1,1,4.417,2.654L186.19,377.314a1.724,1.724,0,0,0,2.546,1.609l12.4-20.633a2.578,2.578,0,0,1,4.416,2.659l-12.264,20.414a1.6,1.6,0,0,0,2.374,1.245l9.949-16.551a2.577,2.577,0,1,1,4.418,2.655l-13.969,23.242c-.059.1-3.743,7.94,3.243,11.272s10.719.283,12.812,8.433l-26.456-.077S179.384,411.2,174.889,408.148Z" transform="translate(-165.67 -320.108)" fill="#f1e610"/>
      <path id="Path_11057" data-name="Path 11057" d="M332.888,92.182c4.407-2.3,16.7-5.562,25.272,4.864a26.12,26.12,0,0,1,2.284,3.267l12.711,21.368a2.577,2.577,0,1,1-4.43,2.635l-8.245-13.864a1.725,1.725,0,0,0-2.646,1.445L369.8,132.014a2.577,2.577,0,1,1-4.43,2.635L354.7,116.722a1.724,1.724,0,0,0-2.624,1.481l12.307,20.689a2.577,2.577,0,1,1-4.43,2.635l-12.178-20.469a1.6,1.6,0,0,0-2.221,1.5l9.873,16.6a2.577,2.577,0,1,1-4.43,2.635l-13.864-23.306c-.057-.1-5.222-7.055-11.464-2.477s-5.322,9.309-13.493,7.3l12.585-23.27S328.073,94.692,332.888,92.182Z" transform="translate(-292.672 -89.82)" fill="#1e419b"/>
      <path id="Path_11058" data-name="Path 11058" d="M191.547,813.167h-4.92l-2.567-4.3h-8.91l2.133-3.723h4.552l-2.619-4.384-7.388,12.405H166.92l.089-.143,10.531-17.454a1.988,1.988,0,0,1,3.406,0Z" transform="translate(-166.776 -700.652)"/>
      <path id="Path_11059" data-name="Path 11059" d="M584.4,812.167h-4.92l-2.567-4.3H568l2.133-3.723h4.552l-2.619-4.384-7.388,12.406H559.77l.089-.143,10.531-17.454a1.988,1.988,0,0,1,3.406,0Z" transform="translate(-507.257 -699.785)"/>
      <path id="Path_11060" data-name="Path 11060" d="M791.164,813.467h-9.653a9.291,9.291,0,1,1,0-18.582h9.653v4.532h-9.653a4.759,4.759,0,1,0,0,9.517h9.653Z" transform="translate(-691.386 -700.892)"/>
      <path id="Path_11061" data-name="Path 11061" d="M395.658,814.052H385.34V795.47h10.318a9.291,9.291,0,1,1,0,18.582Zm-5.785-4.532h5.785a4.759,4.759,0,1,0,0-9.517h-5.785Z" transform="translate(-356.079 -701.399)"/>
      <path id="Path_11062" data-name="Path 11062" d="M175.087,963.208h-.763l-.545-1.113h-2.225l-.512,1.113h-.763l2.036-4.068h.739Zm-1.522-1.573-.8-1.692a1.518,1.518,0,0,1-.083-.284h-.017a1.276,1.276,0,0,1-.087.284l-.8,1.692Z" transform="translate(-169.688 -843.251)"/>
      <path id="Path_11063" data-name="Path 11063" d="M216.494,963.191h-.817l-2.687-3.165a1.458,1.458,0,0,1-.183-.267h-.021a3.561,3.561,0,0,1,.028.569v2.861h-.684v-4.067H213l2.615,3.11a2.733,2.733,0,0,1,.22.281h.013a3.38,3.38,0,0,1-.035-.595v-2.8h.683Z" transform="translate(-205.959 -843.233)"/>
      <path id="Path_11064" data-name="Path 11064" d="M254.93,959.607h-1.541v3.6H252.7v-3.6H251.16v-.467h3.77Z" transform="translate(-239.786 -843.251)"/>
      <path id="Path_11065" data-name="Path 11065" d="M286.291,959.14v4.068H285.6V959.14Z" transform="translate(-269.635 -843.251)"/>
      <path id="Path_11066" data-name="Path 11066" d="M302.038,976.46H300v-.4h2.033Z" transform="translate(-282.116 -857.915)"/>
      <path id="Path_11067" data-name="Path 11067" d="M324.11,963.208V959.14h1.525a3.586,3.586,0,0,1,2.02.533,1.653,1.653,0,0,1,.806,1.448,1.77,1.77,0,0,1-.806,1.516,3.5,3.5,0,0,1-2.074.569Zm.691-3.6v3.138h.776a2.621,2.621,0,0,0,1.589-.424,1.39,1.39,0,0,0,.571-1.185,1.278,1.278,0,0,0-.587-1.145,2.775,2.775,0,0,0-1.542-.384Z" transform="translate(-303.012 -843.251)"/>
      <path id="Path_11068" data-name="Path 11068" d="M368.391,963.208h-.814l-.885-1.129a1.743,1.743,0,0,0-.487-.461,1.064,1.064,0,0,0-.527-.123h-.5v1.713h-.691V959.14h1.628a2.236,2.236,0,0,1,1.221.285.9.9,0,0,1,.441.8q0,.846-1.186,1.1v.013a1.156,1.156,0,0,1,.381.2,3.261,3.261,0,0,1,.416.449Zm-3.211-3.61v1.437h.814a1.29,1.29,0,0,0,.767-.209.646.646,0,0,0,.3-.552.564.564,0,0,0-.267-.5,1.413,1.413,0,0,0-.784-.18Z" transform="translate(-338.009 -843.251)"/>
      <path id="Path_11069" data-name="Path 11069" d="M402.616,961.551q0,1.725-2.056,1.726-1.97,0-1.97-1.666V959.14h.691v2.447q0,1.221,1.345,1.222,1.3,0,1.3-1.182V959.14h.689Z" transform="translate(-367.563 -843.251)"/>
      <path id="Path_11070" data-name="Path 11070" d="M440.5,962.471a4.5,4.5,0,0,1-1.808.348,2.923,2.923,0,0,1-1.866-.559,1.8,1.8,0,0,1-.709-1.492,1.877,1.877,0,0,1,.784-1.549,3.176,3.176,0,0,1,2.008-.608,4.471,4.471,0,0,1,1.466.211v.568a3.5,3.5,0,0,0-1.529-.308,2.228,2.228,0,0,0-1.438.455,1.585,1.585,0,0,0-.044,2.389,2.166,2.166,0,0,0,1.406.425,2.7,2.7,0,0,0,1.038-.179v-1.1h-1.158v-.465h1.85Z" transform="translate(-400.084 -842.792)"/>
      <path id="Path_11071" data-name="Path 11071" d="M493.978,963.208h-.763l-.545-1.113h-2.225l-.513,1.113h-.763l2.036-4.068h.741Zm-1.521-1.573-.808-1.692a1.628,1.628,0,0,1-.083-.284h-.02a1.287,1.287,0,0,1-.085.284l-.8,1.692Z" transform="translate(-446.068 -843.251)"/>
      <path id="Path_11072" data-name="Path 11072" d="M531,963.192v-4.069h1.569a2.152,2.152,0,0,1,1.125.256.769.769,0,0,1,.421.679.83.83,0,0,1-.251.595,1.407,1.407,0,0,1-.688.365v.009a1.558,1.558,0,0,1,.87.315.835.835,0,0,1,.327.676.981.981,0,0,1-.495.851,2.277,2.277,0,0,1-1.268.324Zm.69-3.61v1.274h.628a1.42,1.42,0,0,0,.784-.185.578.578,0,0,0,.3-.513q0-.576-1.008-.576Zm0,1.733v1.418h.828a1.542,1.542,0,0,0,.836-.189.6.6,0,0,0,.295-.533q0-.7-1.245-.7Z" transform="translate(-482.322 -843.235)"/>
      <path id="Path_11073" data-name="Path 11073" d="M567.826,961.551q0,1.725-2.056,1.726-1.969,0-1.97-1.666V959.14h.693v2.447q0,1.221,1.345,1.222,1.3,0,1.3-1.182V959.14h.687Z" transform="translate(-510.75 -843.251)"/>
      <path id="Path_11074" data-name="Path 11074" d="M602,962a2.17,2.17,0,0,0,.656.267,3.18,3.18,0,0,0,.78.105q1.124,0,1.124-.611a.452.452,0,0,0-.12-.307,1.089,1.089,0,0,0-.332-.241,8.151,8.151,0,0,0-.789-.324,3.179,3.179,0,0,1-1.06-.567.828.828,0,0,1-.255-.6.889.889,0,0,1,.533-.8,2.756,2.756,0,0,1,1.349-.3,3.38,3.38,0,0,1,1.169.148v.567a2.612,2.612,0,0,0-1.221-.255,1.772,1.772,0,0,0-.8.156.48.48,0,0,0-.309.436.473.473,0,0,0,.213.4,4.7,4.7,0,0,0,.933.424,3.429,3.429,0,0,1,1.1.572.856.856,0,0,1,.315.644.9.9,0,0,1-.51.823,2.923,2.923,0,0,1-1.418.287,4.729,4.729,0,0,1-.74-.068,2.157,2.157,0,0,1-.616-.167Z" transform="translate(-543.857 -842.806)"/>
      <path id="Path_11075" data-name="Path 11075" d="M637.323,963.208H634.45V959.14H637.2v.467h-2.062v1.3h1.916v.465h-1.916v1.369h2.182Z" transform="translate(-571.981 -843.251)"/>
      <path id="Path_11076" data-name="Path 11076" d="M680.687,962.607a4.013,4.013,0,0,1-1.481.237,2.829,2.829,0,0,1-1.834-.556,1.8,1.8,0,0,1-.686-1.466,1.9,1.9,0,0,1,.772-1.581,3.112,3.112,0,0,1,1.964-.6,4.088,4.088,0,0,1,1.266.167v.547a3.236,3.236,0,0,0-1.26-.241,2.245,2.245,0,0,0-1.456.453,1.491,1.491,0,0,0-.563,1.222,1.423,1.423,0,0,0,.524,1.161,2.11,2.11,0,0,0,1.373.429,3.239,3.239,0,0,0,1.381-.267Z" transform="translate(-608.585 -842.817)"/>
      <path id="Path_11077" data-name="Path 11077" d="M711.38,960.771a1.937,1.937,0,0,1,.7-1.568,2.872,2.872,0,0,1,1.9-.584,2.694,2.694,0,0,1,1.793.571,1.845,1.845,0,0,1,.68,1.485,1.934,1.934,0,0,1-.7,1.57,2.828,2.828,0,0,1-1.866.581,2.764,2.764,0,0,1-1.825-.571A1.84,1.84,0,0,1,711.38,960.771Zm.724-.041a1.514,1.514,0,0,0,.5,1.184,1.867,1.867,0,0,0,1.292.445,1.972,1.972,0,0,0,1.344-.427,1.509,1.509,0,0,0,.488-1.2,1.553,1.553,0,0,0-.477-1.217,1.881,1.881,0,0,0-1.309-.428,1.916,1.916,0,0,0-1.325.452A1.51,1.51,0,0,0,712.1,960.73Z" transform="translate(-638.655 -842.8)"/>
      <path id="Path_11078" data-name="Path 11078" d="M760.706,961.551q0,1.725-2.057,1.726-1.97,0-1.969-1.666V959.14h.689v2.447q0,1.221,1.346,1.222,1.3,0,1.3-1.182V959.14h.691Z" transform="translate(-677.917 -843.251)"/>
      <path id="Path_11079" data-name="Path 11079" d="M801.1,963.191h-.818l-2.687-3.165a1.528,1.528,0,0,1-.183-.267h-.02a3.8,3.8,0,0,1,.027.569v2.861h-.682v-4.067h.865l2.616,3.11a3.05,3.05,0,0,1,.221.281h.013a3.516,3.516,0,0,1-.035-.595v-2.8h.684Z" transform="translate(-712.637 -843.233)"/>
      <path id="Path_11080" data-name="Path 11080" d="M841.237,962.607a4.008,4.008,0,0,1-1.48.237,2.831,2.831,0,0,1-1.836-.556,1.8,1.8,0,0,1-.687-1.466,1.9,1.9,0,0,1,.773-1.581,3.1,3.1,0,0,1,1.962-.6,4.088,4.088,0,0,1,1.266.167v.547a3.226,3.226,0,0,0-1.26-.241,2.248,2.248,0,0,0-1.456.453,1.49,1.49,0,0,0-.562,1.222,1.42,1.42,0,0,0,.525,1.161,2.107,2.107,0,0,0,1.373.429,3.239,3.239,0,0,0,1.38-.267Z" transform="translate(-747.733 -842.817)"/>
      <path id="Path_11081" data-name="Path 11081" d="M875.971,959.14v4.068h-.69V959.14Z" transform="translate(-780.707 -843.251)"/>
      <path id="Path_11082" data-name="Path 11082" d="M893.678,963.208H890.86V959.14h.685v3.6h2.133Z" transform="translate(-794.21 -843.251)"/>
    </g>
  </g>
</svg>
