<svg id="Layer_1" data-name="Layer 1" xmlns="http://www.w3.org/2000/svg" xmlns:xlink="http://www.w3.org/1999/xlink" viewBox="0 0 1063.22 1063.22"><defs><style>.cls-1{fill:#f9e99e;}.cls-2{fill:#f7d418;}.cls-3{fill:#c8251e;}.cls-4{fill:url(#linear-gradient);}.cls-5{fill:#007abe;}.cls-6{fill:url(#linear-gradient-2);}.cls-7{fill:url(#linear-gradient-3);}.cls-8{fill:#f7eb00;}.cls-9{fill:#29166f;}.cls-10{fill:#fbf002;}.cls-11{fill:url(#linear-gradient-4);}.cls-12{fill:url(#linear-gradient-5);}.cls-13{fill:url(#linear-gradient-6);}.cls-14{fill:url(#linear-gradient-7);}.cls-15{fill:url(#linear-gradient-8);}.cls-16{fill:url(#linear-gradient-9);}.cls-17{fill:url(#linear-gradient-10);}.cls-18{fill:url(#linear-gradient-11);}.cls-19{fill:#fcf103;}.cls-20{fill:#e9e000;}.cls-21{fill:#cfc700;}.cls-22{fill:#f1e900;}.cls-23{fill:#e4da00;}.cls-24{fill:#d8d001;}.cls-25{fill:#e0da00;}.cls-26{fill:#d1c904;}.cls-27{fill:#d7d100;}.cls-28{fill:#e5da06;}.cls-29{fill:#dbd400;}.cls-30{fill:#e8de00;}.cls-31{fill:#e6d805;}.cls-32{fill:#ded702;}.cls-33{fill:#d3cd00;}.cls-34{fill:#e2d701;}</style><linearGradient id="linear-gradient" x1="171.57" y1="736.34" x2="840.66" y2="736.34" gradientUnits="userSpaceOnUse"><stop offset="0" stop-color="#b8251d"/><stop offset="0.54" stop-color="#c8251e"/><stop offset="1" stop-color="#b8251d"/></linearGradient><linearGradient id="linear-gradient-2" x1="281.54" y1="587.14" x2="870.68" y2="587.14" gradientUnits="userSpaceOnUse"><stop offset="0" stop-color="#026ca6"/><stop offset="1" stop-color="#0079bc"/></linearGradient><linearGradient id="linear-gradient-3" x1="940.32" y1="448.95" x2="763.73" y2="713.46" gradientUnits="userSpaceOnUse"><stop offset="0" stop-color="#026ca6"/><stop offset="0.48" stop-color="#026ea9"/><stop offset="0.89" stop-color="#0074b4"/><stop offset="1" stop-color="#0077b8"/></linearGradient><linearGradient id="linear-gradient-4" x1="287.48" y1="550.25" x2="491.48" y2="550.25" gradientUnits="userSpaceOnUse"><stop offset="0" stop-color="#d2cb00"/><stop offset="0.33" stop-color="#d7d000"/><stop offset="0.73" stop-color="#e7de00"/><stop offset="1" stop-color="#f5eb00"/></linearGradient><linearGradient id="linear-gradient-5" x1="718.24" y1="285.51" x2="501.8" y2="582.43" xlink:href="#linear-gradient-4"/><linearGradient id="linear-gradient-6" x1="534.55" y1="247.86" x2="550.14" y2="544.41" xlink:href="#linear-gradient-4"/><linearGradient id="linear-gradient-7" x1="368.8" y1="311.98" x2="488.07" y2="481.28" xlink:href="#linear-gradient-4"/><linearGradient id="linear-gradient-8" x1="660.26" y1="272.62" x2="569.41" y2="443.21" gradientUnits="userSpaceOnUse"><stop offset="0" stop-color="#d2cb00"/><stop offset="0.63" stop-color="#f0e601"/><stop offset="1" stop-color="#fbf002"/></linearGradient><linearGradient id="linear-gradient-9" x1="475.29" y1="276.25" x2="505.27" y2="426.47" gradientUnits="userSpaceOnUse"><stop offset="0" stop-color="#d2cb00"/><stop offset="0.06" stop-color="#d7cf00"/><stop offset="0.37" stop-color="#ebe101"/><stop offset="0.69" stop-color="#f7ec02"/><stop offset="1" stop-color="#fbf002"/></linearGradient><linearGradient id="linear-gradient-10" x1="325.28" y1="353.64" x2="472.42" y2="496.45" gradientUnits="userSpaceOnUse"><stop offset="0" stop-color="#d2cb00"/><stop offset="1" stop-color="#fbf002"/></linearGradient><linearGradient id="linear-gradient-11" x1="261.15" y1="494.29" x2="417.25" y2="500.47" xlink:href="#linear-gradient-10"/></defs><title>dangal</title><path class="cls-1" d="M999.07,600.44,1071.61,540l-72.54-60.44,54.43-77.15-85.72-39.6,32.61-88.62-93-16.06,8.57-94-94,8.57-16.06-93-88.62,32.61L677.59,26.5,600.44,80.93,540,8.39,479.56,80.93,402.41,26.5l-39.6,85.72L274.19,79.61l-16.06,93.05-94-8.57,8.57,94-93,16.06,32.61,88.62L26.5,402.41l54.43,77.15L8.39,540l72.54,60.44L26.5,677.59l85.72,39.6L79.61,805.81l93.05,16.06-8.57,94,94-8.57,16.06,93,88.62-32.61,39.6,85.72,77.15-54.43L540,1071.61l60.44-72.54,77.15,54.43,39.6-85.72,88.62,32.61,16.06-93,94,8.57-8.57-94,93-16.06-32.61-88.62,85.72-39.6Zm-728,145.94L226.8,669.73l-22.91-85.48v-88.5l22.91-85.48,44.25-76.65,62.57-62.57,76.65-44.25,85.48-22.91h88.5l85.48,22.91,76.65,44.25L809,333.62l44.25,76.65,22.91,85.48v88.5L853.2,669.73,809,746.38,746.38,809,669.73,853.2l-85.48,22.91h-88.5L410.27,853.2,333.62,809Z" transform="translate(-8.39 -8.39)"/><circle class="cls-2" cx="531.61" cy="531.61" r="433.86"/><path class="cls-3" d="M840.66,684c-27.45,44-61.26,89-99.21,121.73-98.1,84.62-136.29,36.69-238.14-38.94S170.23,755.88,171.58,751c29.37-105.34,69.25-160.55,110-210.69,52.19-17,147.09-45.9,243.71,17.49C646.38,637.32,739.47,780.67,840.66,684Z" transform="translate(-8.39 -8.39)"/><path class="cls-4" d="M840.66,684c-27.45,44-61.26,89-99.21,121.73-98.1,84.62-136.29,36.69-238.14-38.94S170.23,755.88,171.58,751c0,0,138.54-130.5,206.36-128.86C540,626.1,632.86,890.18,840.66,684Z" transform="translate(-8.39 -8.39)"/><path class="cls-5" d="M951.12,466.48s-24.88,40.06-36.69,67.4C909.22,546,884.15,614.2,840.66,684c-101.19,96.69-194.28-46.66-315.41-126.14-96.62-63.39-191.52-34.5-243.71-17.49,28.13-34.67,57.87-63.75,88.48-95.58,74.88-77.88,192.79-56.58,274.83,25.46,68.34,78.17,173,35.94,192.45,31.45S951.12,466.48,951.12,466.48Z" transform="translate(-8.39 -8.39)"/><path class="cls-6" d="M870.68,631.09c-8.76,16.9-18.77,34.84-30,52.89-101.19,96.69-194.28-46.66-315.41-126.14-96.62-63.39-191.52-34.5-243.71-17.49,7.38-9.1,14.88-17.82,22.48-26.3,88.39-46,225.82-94.77,304.49-8.76C729.92,638,815.14,639.31,870.68,631.09Z" transform="translate(-8.39 -8.39)"/><path class="cls-7" d="M951.12,466.48s-24.88,40.06-36.69,67.4C909.22,546,884.15,614.2,840.66,684c-17.2,16.43-34.16,25.93-51.07,30l-22.17-91.8s66.46-50.95,105.52-89.48a708.41,708.41,0,0,1,78.16-66.19Z" transform="translate(-8.39 -8.39)"/><g id="stars"><polygon class="cls-8" points="205.28 683.1 212.46 660.25 226.43 676.27 247.06 674.48 236.35 691.59 253.98 713.52 225.65 708.69 202.54 724.35 202.02 704.64 183.48 688.97 205.28 683.1"/><polygon class="cls-8" points="463.65 661.03 484.15 670.04 503.73 656.99 505.3 678.53 522.14 688.97 504.12 695.37 504.38 723.18 485.45 702.42 456.86 700.59 468.87 685.06 463.65 661.03"/><path class="cls-8" d="M665,788.36l3.92-23,16.27,14.43s20-5.16,20-4.64-8.61,17.63-8.61,17.63l19.45,19.71L687.46,811l-20.37,18.27-3.39-19.58L644,797.3Z" transform="translate(-8.39 -8.39)"/></g><g id="letters"><path class="cls-9" d="M128.39,456l4.4-14.73q4.26-14.28,7.07-18.91a15.43,15.43,0,0,1,6.59-6.37,14.17,14.17,0,0,1,7.64-1.28q3.87.44,14.63,3.65l26.53,7.91q10.2,3,13.36,5a10.77,10.77,0,0,1,4.38,4.95,14.47,14.47,0,0,1,.95,6.71,55,55,0,0,1-2.38,10.8l-7.41,24.85Zm18.84-15.83L197.06,455q1.27-4.25-.14-5.75t-9-3.75l-29.43-8.78a40.76,40.76,0,0,0-6.7-1.64,3.26,3.26,0,0,0-2.58.86A10.26,10.26,0,0,0,147.23,440.17Z" transform="translate(-8.39 -8.39)"/><path class="cls-9" d="M241.88,281.23l68.86,40.58-13.22,16.34-11.74-8.08-4.62,5.71,10.27,9.9L278.06,362.2,223.2,304.33Zm32.67,40.44q-11.43-7.23-27.78-18.45,15.68,16.72,23.33,23.95Z" transform="translate(-8.39 -8.39)"/><path class="cls-9" d="M665.22,143.22l-7.29,79.59-20.41-5,2.29-14.06L632.67,202l-4.57,13.52-20.65-5,28.9-74.33ZM642.6,190q1.67-13.41,4.82-33-8.43,21.32-11.69,31.33Z" transform="translate(-8.39 -8.39)"/><path class="cls-9" d="M366,177.19l41.43,67.33L392.09,254l-27.94-25L383,259.57l-14.63,9-41.44-67.33,14.64-9L370,216.52,351.36,186.2Z" transform="translate(-8.39 -8.39)"/><path class="cls-9" d="M520.77,161.09l-20.24,3.55-1.24-7.07c-.79-4.45-1.47-7.21-2.05-8.26a3.07,3.07,0,0,0-5.33.69c-.28,1-.08,3.55.62,7.52l6.57,37.37c.62,3.49,1.24,5.75,1.89,6.78a2.67,2.67,0,0,0,3,1.19,3,3,0,0,0,2.68-2.41c.31-1.34.14-3.82-.49-7.45l-1.63-9.23-4.08.72-2.08-11.83,23.71-4.17,7.34,41.79-12.72,2.24-2.85-5.25a14.39,14.39,0,0,1-4.28,6.33,14.94,14.94,0,0,1-7.11,3.11,19.6,19.6,0,0,1-10-.8,18.62,18.62,0,0,1-7.84-4.94,19.83,19.83,0,0,1-4.24-7.17,94.53,94.53,0,0,1-2.69-11.94l-4.07-23.13q-2-11.16-1.64-16.42t5.27-10.47q5-5.21,14-6.8t15.41,1.06q6.51,2.63,9.17,7.34t4.34,14.28Z" transform="translate(-8.39 -8.39)"/><path class="cls-9" d="M791,194.86l-32.12,54.47,10.77,6.35-8,13.63-28.47-16.79,40.15-68.1Z" transform="translate(-8.39 -8.39)"/><path class="cls-9" d="M416.55,876l-21.26,59.56-13.57-4.84,1.6-30-9.66,27.07-13-4.62L382,863.67l12.95,4.62L394,898.21l9.57-26.82Z" transform="translate(-8.39 -8.39)"/><path class="cls-9" d="M832.29,762.36l47.25,42L870,815.16,842.8,802.44l21.48,19.11-9.14,10.27-47.25-42L817,779.52l27.4,12-21.28-18.93Z" transform="translate(-8.39 -8.39)"/><path class="cls-9" d="M490.67,910.14l-16.33-1.93.67-5.7q.64-5.38.33-6.81a2.45,2.45,0,0,0-4.24-.69c-.46.73-.87,2.7-1.25,5.91l-3.55,30.14a18,18,0,0,0-.11,5.63,2.12,2.12,0,0,0,2,1.6,2.4,2.4,0,0,0,2.6-1.23,17.84,17.84,0,0,0,1.34-5.82l.88-7.45-3.3-.39,1.12-9.54L490,916.11l-4,33.71-10.27-1.21-1-4.67A11.57,11.57,0,0,1,470,947.8a12,12,0,0,1-6.17.75,15.64,15.64,0,0,1-7.48-2.91,14.81,14.81,0,0,1-4.87-5.59,15.82,15.82,0,0,1-1.6-6.46,75.78,75.78,0,0,1,.68-9.77l2.2-18.66q1.06-9,2.51-13t6.45-6.81q5-2.85,12.29-2a22.25,22.25,0,0,1,11.56,4.35q4.39,3.51,5.34,7.73c.64,2.81.66,6.8.05,11.94Z" transform="translate(-8.39 -8.39)"/><path class="cls-9" d="M567.57,893.57,583.9,892a43.58,43.58,0,0,1,11.84.06,11.71,11.71,0,0,1,6.91,4.25q2.8,3.44,3.61,11.59.54,5.52-1,7.86t-6.5,4c3.87.49,6.57,1.65,8.12,3.51s2.51,4.82,2.91,8.92l.57,5.83q.63,6.39-.53,9.6a7.93,7.93,0,0,1-4.24,4.66q-3.08,1.44-13,2.4l-18.93,1.85ZM585,902.74l1.37,14c.7-.1,1.24-.16,1.63-.2,1.61-.16,2.59-.66,3-1.49s.36-3.12,0-6.85a11,11,0,0,0-1-4.09,2.62,2.62,0,0,0-1.56-1.35A12.64,12.64,0,0,0,585,902.74Zm2.33,23.79L589,944.14c2.3-.3,3.74-.81,4.31-1.52s.73-2.33.48-4.87l-.57-5.87c-.26-2.7-.71-4.3-1.34-4.82S589.76,926.37,587.32,926.53Z" transform="translate(-8.39 -8.39)"/><path class="cls-9" d="M665.53,874.76,694.1,932l-16,5.22-4.37-10.53-5.59,1.82,2.59,11.12-16.16,5.28-11.67-62.73Zm4.34,41.37q-4.53-9.84-10.63-24.48,3.25,18.06,5.25,26.23Z" transform="translate(-8.39 -8.39)"/><path class="cls-9" d="M774.55,817.23l50,39.88-12.3,11.45-8.39-7.71-4.31,4,7,9-12.44,11.58-37-52Zm21.33,35.7q-8.24-7-19.93-17.73,10.53,15,15.79,21.59Z" transform="translate(-8.39 -8.39)"/><path class="cls-9" d="M733.18,847.06l9.65,41,11.38,19.86L741,915.47l-11.37-19.86-30.1-29.26,13.11-7.51q12.29,14.29,15.86,19.63-3.86-9.45-8.42-23.9Z" transform="translate(-8.39 -8.39)"/></g><path id="sun" class="cls-10" d="M827.18,409.72l-35,74.16L642,538.5,473.68,630.62l-126,108.75L271,725.15,299.93,654l149.93-52.33a101.36,101.36,0,0,1-11.73-44.87L295.87,585.47l-38.1-55.37,44.7-54.35L444,518.63A112.83,112.83,0,0,1,458.66,490c.15-.22.31-.44.47-.65L349.2,410.73,336,322.86l82.28,11.68,63,131.6a108.79,108.79,0,0,1,33.06-17.72L466.17,313.19l37.49-87.48,58,62.48-13.28,155a95.55,95.55,0,0,1,33.92,6.85L630.6,295.43l72.64-12.19,8.13,80.26L610.14,467.44a94.58,94.58,0,0,1,24.05,34L750.48,399.05Z" transform="translate(-8.39 -8.39)"/><g id="gradient"><polygon class="cls-11" points="287.48 577.08 309.88 523.42 435.76 529.43 491.48 540.26 429.74 548.45 287.48 577.08"/><polygon class="cls-12" points="694.85 274.85 655.43 322.99 655.43 338.69 552.29 500.79 603.25 457.52 702.98 355.11 694.85 274.85"/><path class="cls-13" d="M561.69,288.19s-44.22,14.12-44.56,15.48-4,12.07-4,12.07l29.38,195.07Z" transform="translate(-8.39 -8.39)"/><polygon class="cls-14" points="409.89 326.15 380.84 365.88 382.44 375.5 499.89 528.13 472.88 457.75 409.89 326.15"/><polygon class="cls-15" points="622.21 287.04 655.43 322.99 655.43 338.69 552.29 500.79 573.94 441.69 622.21 287.04"/><polyline class="cls-16" points="504.71 307.35 457.78 304.8 523.25 487.42 525.18 443.3 504.71 307.35"/><polygon class="cls-17" points="382.44 375.5 340.81 402.34 468.54 495.39 464.11 481.63 382.44 375.5"/><polygon class="cls-18" points="294.08 467.36 309.88 523.42 435.76 529.43 435.59 510.24 294.08 467.36"/></g><g id="shadow"><polygon class="cls-19" points="294.08 467.36 309.88 523.42 249.38 521.71 294.08 467.36"/><polygon class="cls-20" points="287.48 577.08 309.88 523.42 249.38 521.71 287.48 577.08"/><path class="cls-21" d="M347.68,739.37l-13.37-49.22L453,621.6s18.57-10.67,26.93-39.2,41.22-61.81,53.65-67.83,22.09-10.39,71.76,4.41c0,0,29.26,8.42,46.1-6s109-64.54,109-64.54l2.81-4.41,63.94-34.3-35,74.16L642,538.5,475.38,629.69Z" transform="translate(-8.39 -8.39)"/><polygon class="cls-22" points="742.09 390.66 754.85 435.63 818.79 401.33 742.09 390.66"/><path class="cls-22" d="M630.6,295.43s31.22,35.94,33.22,35.94,39.42-48.13,39.42-48.13Z" transform="translate(-8.39 -8.39)"/><polygon class="cls-23" points="495.27 217.32 508.74 295.29 553.3 279.8 495.27 217.32"/><path class="cls-19" d="M466.17,313.19s45.72,2.55,46.93,2.55,4-12.07,4-12.07l-13.47-78Z" transform="translate(-8.39 -8.39)"/><polygon class="cls-22" points="340.81 402.34 327.61 314.47 409.89 326.15 380.84 365.88 382.44 375.5 340.81 402.34"/><path class="cls-24" d="M334.31,690.15s-65.38,34.62-63.33,35l76.7,14.22Z" transform="translate(-8.39 -8.39)"/><polygon class="cls-25" points="503.73 656.99 489.5 686.16 522.14 688.97 505.3 678.53 503.73 656.99"/><polygon class="cls-26" points="504.38 723.18 489.5 686.16 522.14 688.97 504.12 695.37 504.38 723.18"/><polygon class="cls-27" points="456.86 700.59 485.67 686.16 489.5 686.16 504.38 723.18 485.45 702.42 456.86 700.59"/><polygon class="cls-28" points="212.46 660.25 219.88 692.3 247.06 674.48 226.43 676.27 212.46 660.25"/><polygon class="cls-29" points="253.98 713.52 225.65 708.69 202.54 724.35 215.47 694.85 247.06 674.48 236.35 691.59 253.98 713.52"/><polygon class="cls-30" points="183.48 688.97 215.47 694.85 202.54 724.35 202.02 704.64 183.48 688.97"/><polygon class="cls-31" points="660.53 756.99 671.63 786.62 696.83 766.78 676.8 771.43 660.53 756.99"/><polygon class="cls-32" points="707.66 804.12 671.63 786.62 696.83 766.78 688.21 784.41 707.66 804.12"/><polygon class="cls-33" points="658.7 820.84 668.81 790.07 671.63 786.62 707.66 804.12 679.07 802.56 658.7 820.84"/><polygon class="cls-34" points="635.59 788.91 668.28 791.68 658.7 820.84 655.31 801.25 635.59 788.91"/></g></svg>