<svg xmlns="http://www.w3.org/2000/svg" xmlns:xlink="http://www.w3.org/1999/xlink" viewBox="0 0 946.31 584.18"><defs><style>.cls-1{fill:#fff601;}.cls-2{fill:#011136;}.cls-10,.cls-11,.cls-12,.cls-13,.cls-14,.cls-15,.cls-16,.cls-17,.cls-18,.cls-19,.cls-2,.cls-20,.cls-21,.cls-22,.cls-23,.cls-24,.cls-25,.cls-26,.cls-27,.cls-28,.cls-29,.cls-3,.cls-30,.cls-4,.cls-6,.cls-7,.cls-8,.cls-9{stroke:#fff;stroke-width:3px;}.cls-10,.cls-11,.cls-12,.cls-13,.cls-14,.cls-15,.cls-16,.cls-17,.cls-18,.cls-19,.cls-2,.cls-20,.cls-21,.cls-22,.cls-23,.cls-24,.cls-25,.cls-26,.cls-27,.cls-28,.cls-29,.cls-3,.cls-30,.cls-6,.cls-7,.cls-8,.cls-9{stroke-miterlimit:10;}.cls-3{fill:#213151;}.cls-5{fill:silver;}.cls-6{fill:url(#linear-gradient);}.cls-7{fill:url(#linear-gradient-2);}.cls-8{fill:url(#linear-gradient-3);}.cls-9{fill:url(#linear-gradient-4);}.cls-10{fill:url(#linear-gradient-5);}.cls-11{fill:url(#linear-gradient-6);}.cls-12{fill:url(#linear-gradient-7);}.cls-13{fill:url(#linear-gradient-8);}.cls-14{fill:url(#linear-gradient-9);}.cls-15{fill:url(#linear-gradient-10);}.cls-16{fill:url(#linear-gradient-11);}.cls-17{fill:url(#linear-gradient-12);}.cls-18{fill:url(#linear-gradient-13);}.cls-19{fill:url(#linear-gradient-14);}.cls-20{fill:url(#linear-gradient-15);}.cls-21{fill:url(#linear-gradient-16);}.cls-22{fill:url(#linear-gradient-17);}.cls-23{fill:url(#linear-gradient-18);}.cls-24{fill:url(#linear-gradient-19);}.cls-25{fill:url(#linear-gradient-20);}.cls-26{fill:url(#linear-gradient-21);}.cls-27{fill:url(#linear-gradient-22);}.cls-28{fill:url(#linear-gradient-23);}.cls-29{fill:url(#linear-gradient-24);}.cls-30{fill:url(#linear-gradient-25);}.cls-31{fill:#ffd203;}</style><linearGradient id="linear-gradient" x1="188.85" y1="392.1" x2="619.32" y2="408.38" gradientUnits="userSpaceOnUse"><stop offset="0" stop-color="#021235"/><stop offset="0.99" stop-color="#243352"/></linearGradient><linearGradient id="linear-gradient-2" x1="188.39" y1="404.08" x2="618.86" y2="420.36" xlink:href="#linear-gradient"/><linearGradient id="linear-gradient-3" x1="188.51" y1="401.13" x2="618.98" y2="417.41" xlink:href="#linear-gradient"/><linearGradient id="linear-gradient-4" x1="189.19" y1="383.1" x2="619.66" y2="399.38" xlink:href="#linear-gradient"/><linearGradient id="linear-gradient-5" x1="188.76" y1="394.53" x2="619.23" y2="410.81" xlink:href="#linear-gradient"/><linearGradient id="linear-gradient-6" x1="189.43" y1="376.68" x2="619.91" y2="392.96" xlink:href="#linear-gradient"/><linearGradient id="linear-gradient-7" x1="173.15" y1="506.86" x2="583.43" y2="495.79" xlink:href="#linear-gradient"/><linearGradient id="linear-gradient-8" x1="173.62" y1="524.5" x2="583.91" y2="513.43" xlink:href="#linear-gradient"/><linearGradient id="linear-gradient-9" x1="173.68" y1="526.7" x2="583.97" y2="515.63" xlink:href="#linear-gradient"/><linearGradient id="linear-gradient-10" x1="173.35" y1="514.28" x2="583.63" y2="503.21" xlink:href="#linear-gradient"/><linearGradient id="linear-gradient-11" x1="134.73" y1="353.3" x2="486.4" y2="348.09" gradientUnits="userSpaceOnUse"><stop offset="0" stop-color="#de1314"/><stop offset="0.99" stop-color="#9a0d0c"/></linearGradient><linearGradient id="linear-gradient-12" x1="215.08" y1="628.04" x2="566.75" y2="622.83" xlink:href="#linear-gradient-11"/><linearGradient id="linear-gradient-13" x1="215.1" y1="629.28" x2="566.77" y2="624.07" xlink:href="#linear-gradient-11"/><linearGradient id="linear-gradient-14" x1="215.11" y1="630.27" x2="566.79" y2="625.06" xlink:href="#linear-gradient-11"/><linearGradient id="linear-gradient-15" x1="214.9" y1="616.08" x2="566.58" y2="610.87" xlink:href="#linear-gradient-11"/><linearGradient id="linear-gradient-16" x1="137.85" y1="722.57" x2="1190.62" y2="719.41" gradientUnits="userSpaceOnUse"><stop offset="0" stop-color="#de1314"/><stop offset="0.43" stop-color="#c31111"/><stop offset="0.99" stop-color="#9a0d0c"/></linearGradient><linearGradient id="linear-gradient-17" x1="137.89" y1="738.07" x2="1190.67" y2="734.92" xlink:href="#linear-gradient-16"/><linearGradient id="linear-gradient-18" x1="57.78" y1="479.91" x2="1110.56" y2="476.76" xlink:href="#linear-gradient-16"/><linearGradient id="linear-gradient-19" x1="137.89" y1="738.53" x2="1190.67" y2="735.38" xlink:href="#linear-gradient-16"/><linearGradient id="linear-gradient-20" x1="137.89" y1="738.21" x2="1190.67" y2="735.06" xlink:href="#linear-gradient-16"/><linearGradient id="linear-gradient-21" x1="137.89" y1="738.47" x2="1190.67" y2="735.32" xlink:href="#linear-gradient-16"/><linearGradient id="linear-gradient-22" x1="137.9" y1="739.19" x2="1190.67" y2="736.04" xlink:href="#linear-gradient-16"/><linearGradient id="linear-gradient-23" x1="137.9" y1="738.96" x2="1190.67" y2="735.81" xlink:href="#linear-gradient-16"/><linearGradient id="linear-gradient-24" x1="137.9" y1="739.7" x2="1190.67" y2="736.55" xlink:href="#linear-gradient-16"/><linearGradient id="linear-gradient-25" x1="137.9" y1="739.92" x2="1190.67" y2="736.77" xlink:href="#linear-gradient-16"/></defs><title>seal</title><g id="sun"><path class="cls-1" d="M270.91,392.92a57.76,57.76,0,0,1-1,5.93l46.37,6.49-7.19,7.18L269.14,402a62.61,62.61,0,0,1-7.68,17.25l19.89,11.59,17,9.92v10.16l-38.62-29.14q-1.74,2.43-3.69,4.7l42.31,33.66,1.09,18.53-17.75-1.87-34-42.28a57.66,57.66,0,0,1-4.93,3.56l29.44,39H262.05l-21.81-37.42A62.67,62.67,0,0,1,224,446.34l5.78,21.92,5,19.06-7.19,7.18L220.92,447q-2.91.59-5.92.89l6.05,53.1-12.33,13.87L197.49,501l5.74-53c-2-.17-4.06-.43-6-.79l-6.61,47.23-7.19-7.18,10.72-40.69a62.21,62.21,0,0,1-17.39-6.93l-11.3,19.39-9.92,17H145.33l28.72-38.07a57.61,57.61,0,0,1-4.86-3.51l-33.08,41.58-18.52,1.09,1.86-17.75,41.2-33.15a60.35,60.35,0,0,1-3.75-4.82L119.17,450V439.8l36-21a62.12,62.12,0,0,1-7.56-17.34L126.74,407l-19,5-7.19-7.18,46.33-6.49c-.41-1.94-.73-3.93-1-5.94L94,398.31,80.11,386,94,374.75l51.69,5.6q.26-3.09.78-6.09l-45.95-6.43,7.19-7.19L147.11,371a62.51,62.51,0,0,1,7.22-17.91l-35.09-20.45V322.52l36.87,27.81c1.12-1.68,2.32-3.29,3.58-4.85L119.24,313.3l-1.09-18.52,17.75,1.87,32.36,40.22a61.08,61.08,0,0,1,4.91-3.69L145.4,296.36h10.16l20.42,35a62.57,62.57,0,0,1,17.35-7.18l-10.1-38.29,7.19-7.19,6.27,44.76a56.41,56.41,0,0,1,6-.83l-5.74-50.45,12.32-13.87,11.23,13.87L215,322.74a61,61,0,0,1,6.1.93l6.29-44.94,7.18,7.19-10.16,38.53a62.48,62.48,0,0,1,17.74,7.75l20.35-34.92h10.16L245,334.06c1.63,1.17,3.22,2.41,4.73,3.73l32.23-40.51,18.52-1.09-1.86,17.75L258,346.56c1.26,1.61,2.44,3.29,3.54,5l37.29-28.14V333.6l-35.62,20.76a62,62,0,0,1,6.61,17.14l39.25-10.35,7.19,7.19-45.8,6.41a60.84,60.84,0,0,1,.73,6.1l51.58-5.59,13.87,11.23-13.87,12.33Z" transform="translate(-80.11 -258.34)"/></g><g id="leters"><path class="cls-2" d="M288.89,390.62a89.29,89.29,0,0,0-16.89-4.8q-.44-.07-.84-.18a7.35,7.35,0,0,0-.84-.19,5.59,5.59,0,0,0-.59-.11,4,4,0,0,1-.58-.11,101.25,101.25,0,0,1-10.91-2.63,15.7,15.7,0,0,1-6.52-3.92,9.91,9.91,0,0,1-2.64-7.29v-.07a9.48,9.48,0,0,1,5-8.54q5.06-3,14.29-3a39,39,0,0,1,12.85,2.35,53.75,53.75,0,0,1,12.85,6.59l8.5-17a64.76,64.76,0,0,0-10.84-6,63.49,63.49,0,0,0-11.68-3.81,54,54,0,0,0-11.68-1.31q-12.47,0-21.24,3.84a29.15,29.15,0,0,0-13.41,11.17q-4.61,7.32-4.61,17.65v.07q0,11.65,4.91,18A26.16,26.16,0,0,0,246,400.14a99.21,99.21,0,0,0,17.73,4.21l1.61.22a1.25,1.25,0,0,0,.4.07,1.34,1.34,0,0,1,.41.08,76,76,0,0,1,10,2.12,14.45,14.45,0,0,1,6.3,3.66,9.27,9.27,0,0,1,2.41,6.74v.07a10.45,10.45,0,0,1-5.42,9.41q-5.41,3.34-15.23,3.34a50.94,50.94,0,0,1-16.55-2.75,44.91,44.91,0,0,1-14.21-7.8l-9.31,16.55a51.9,51.9,0,0,0,11.47,7.14,63.91,63.91,0,0,0,13.69,4.51l7.29,1.54h7.62q12.81,0,21.93-3.81A29.77,29.77,0,0,0,300,434.38q4.77-7.26,4.76-17.43v-.15q0-10.85-4.54-17.1A26.28,26.28,0,0,0,288.89,390.62Z" transform="translate(-80.11 -258.34)"/><path class="cls-2" d="M369.93,376a29,29,0,0,0-17.07-5q-10.62,0-18.12,4.18a27.27,27.27,0,0,0-11.43,12.16q-3.92,8-3.92,19.26v8.57q0,10.77,4.1,18.42a27.33,27.33,0,0,0,11.91,11.64l7.8,4h11a39.79,39.79,0,0,0,14.94-3,43.53,43.53,0,0,0,13.33-8.39l-13.11-11.64a24.22,24.22,0,0,1-7.17,4.06,23.2,23.2,0,0,1-8,1.43q-7.83,0-12.19-4.25a14.69,14.69,0,0,1-4.18-9.15h46.62v-5q0-13.41-3.7-22.89T369.93,376Zm-32.27,28.79c.17-4.77,1.48-8.52,4-11.21q4-4.32,11.24-4.32a11.57,11.57,0,0,1,8.9,3.59q3.33,3.58,4.14,10.18l.22,1.76Z" transform="translate(-80.11 -258.34)"/><path class="cls-2" d="M447.64,374.36a39.44,39.44,0,0,0-17-3.34,45.52,45.52,0,0,0-16.56,2.9,29.93,29.93,0,0,0-12,8.09l12.45,12.23a25,25,0,0,1,7.4-3.88,26.4,26.4,0,0,1,8.42-1.39q6.45,0,10,2.85a9.9,9.9,0,0,1,3.51,8.13v3.23H425.45q-13.56,0-20.33,5.64t-6.77,16.92q0,11.86,6,17.68t18.27,5.83a38.64,38.64,0,0,0,10.59-1.43,21.72,21.72,0,0,0,8.35-4.29,11.54,11.54,0,0,0,2.23-2.55v7.17h18.24V399.3a29.89,29.89,0,0,0-3.7-15.28A23.93,23.93,0,0,0,447.64,374.36Zm-7.73,56.87q-3.92,1.83-12,1.83-5.79,0-8.65-1.79a6.08,6.08,0,0,1-2.85-5.53,6.54,6.54,0,0,1,2.27-5.46q2.27-1.8,6.81-1.8h18.31v7C443.83,428.1,442.52,430,439.91,431.23Z" transform="translate(-80.11 -258.34)"/><path class="cls-2" d="M503.49,427.31a5.64,5.64,0,0,1-1.58-4.28V341.65H481.84V428q0,9.58,5.06,14.86t14.21,5.28h10.25V428.81H508A6.27,6.27,0,0,1,503.49,427.31Z" transform="translate(-80.11 -258.34)"/><path class="cls-2" d="M619.14,374.87Q611.78,371,601.38,371t-17.77,3.85a25.86,25.86,0,0,0-11.2,11.21q-3.85,7.35-3.85,17.68v12.38q0,10.47,3.85,17.91a25.93,25.93,0,0,0,11.2,11.31q7.36,3.88,17.77,3.89t17.76-3.89a26,26,0,0,0,11.2-11.24q3.85-7.37,3.85-17.76v-12.6q0-10.32-3.85-17.68A25.86,25.86,0,0,0,619.14,374.87Zm-5,41.49q0,6.45-3.37,10c-2.25,2.37-5.39,3.55-9.45,3.55s-7.17-1.18-9.37-3.55-3.3-5.7-3.3-10v-12.6q0-6.36,3.33-9.88t9.34-3.52c4.06,0,7.2,1.17,9.45,3.52s3.37,5.64,3.37,9.88Z" transform="translate(-80.11 -258.34)"/><path class="cls-2" d="M675.86,361.14a3.66,3.66,0,0,1,3.23-1.62h8.49V341.65H673.67q-9.67,0-14.32,5T654.7,361.8v10.32h-8.06v17.14h8.06v58.89h20.06V389.26h12.82V372.12H674.76v-6.81A7.26,7.26,0,0,1,675.86,361.14Z" transform="translate(-80.11 -258.34)"/><path class="cls-3" d="M272.76,517.27h16.11V519a21.63,21.63,0,0,1-2.19,10,15.21,15.21,0,0,1-6.27,6.48,19.37,19.37,0,0,1-9.48,2.24,21.77,21.77,0,0,1-9.67-2,15,15,0,0,1-6.44-5.86,16.78,16.78,0,0,1-2.27-8.79V489.66a21.37,21.37,0,0,1,2.23-10,15.92,15.92,0,0,1,6.3-6.67,18.53,18.53,0,0,1,9.41-2.34,19.8,19.8,0,0,1,7.07,1.28,17,17,0,0,1,5.93,3.73,14.24,14.24,0,0,1,3.63,5.83H308.8a40.87,40.87,0,0,0-7.29-16.63,36.71,36.71,0,0,0-13.44-11.1,39.67,39.67,0,0,0-17.58-3.91,40.77,40.77,0,0,0-20.36,4.94,34.07,34.07,0,0,0-13.59,13.95,43.77,43.77,0,0,0-4.8,20.88v31.42a38.87,38.87,0,0,0,4.88,19.7,33.21,33.21,0,0,0,13.77,13.15,43.71,43.71,0,0,0,20.54,4.65,40.8,40.8,0,0,0,20.36-5,33.93,33.93,0,0,0,13.59-14,44.06,44.06,0,0,0,4.79-20.91v-20.8H272.76Z" transform="translate(-80.11 -258.34)"/><path class="cls-3" d="M377.83,484.2q-7.36-3.84-17.77-3.85T342.3,484.2a25.86,25.86,0,0,0-11.2,11.21q-3.86,7.35-3.85,17.68v12.38q0,10.49,3.85,17.91a26,26,0,0,0,11.2,11.32q7.36,3.87,17.76,3.88t17.77-3.88A26.11,26.11,0,0,0,389,543.45q3.86-7.35,3.85-17.76v-12.6q0-10.32-3.85-17.68A25.86,25.86,0,0,0,377.83,484.2Zm-5,41.49q0,6.45-3.37,10T360,539.24q-6.08,0-9.37-3.55t-3.3-10v-12.6q0-6.36,3.33-9.88t9.34-3.52q6.08,0,9.45,3.52t3.37,9.88Z" transform="translate(-80.11 -258.34)"/><path class="cls-3" d="M459.56,484.2q-7.35-3.84-17.76-3.85T424,484.2a25.86,25.86,0,0,0-11.2,11.21Q409,502.76,409,513.09v12.38q0,10.49,3.85,17.91A26,26,0,0,0,424,554.7q7.36,3.87,17.76,3.88t17.76-3.88a26.08,26.08,0,0,0,11.21-11.25q3.84-7.35,3.85-17.76v-12.6q0-10.32-3.85-17.68A25.83,25.83,0,0,0,459.56,484.2Zm-5,41.49q0,6.45-3.37,10t-9.45,3.55q-6.08,0-9.38-3.55t-3.29-10v-12.6q0-6.36,3.33-9.88t9.34-3.52q6.07,0,9.45,3.52t3.37,9.88Z" transform="translate(-80.11 -258.34)"/><path class="cls-3" d="M533.94,451v40.36a24,24,0,0,0-6.55-7.36,18.53,18.53,0,0,0-11.1-3.63,22.81,22.81,0,0,0-22.56,15.24,48.11,48.11,0,0,0-3,17.94v12.16a47,47,0,0,0,3,17.76,22.87,22.87,0,0,0,22.56,15.13,19.46,19.46,0,0,0,11.5-3.41,19.26,19.26,0,0,0,6.15-7.31v9.62H554V451Zm-1.32,83.57a9.13,9.13,0,0,1-3.84,4,12.52,12.52,0,0,1-6.12,1.39q-5.64,0-8.75-3.73t-3.11-10.55V513.61q0-7,3.11-10.81a10.62,10.62,0,0,1,8.75-3.84,12.2,12.2,0,0,1,6.12,1.43,9.32,9.32,0,0,1,3.84,4.13,15,15,0,0,1,1.32,6.6v17.06A14.08,14.08,0,0,1,532.62,534.55Z" transform="translate(-80.11 -258.34)"/><polygon class="cls-4" points="183.93 299.09 163.86 299.09 163.86 405.58 172.8 405.58 183.93 405.58 235.2 405.58 235.2 386.25 183.93 386.25 183.93 299.09"/><path class="cls-4" d="M376.87,590.64q-7.37-3.84-17.76-3.84t-17.76,3.84a25.94,25.94,0,0,0-11.21,11.21q-3.84,7.36-3.84,17.69v12.38q0,10.47,3.84,17.9a26,26,0,0,0,11.21,11.32q7.36,3.89,17.76,3.88t17.76-3.88a26.11,26.11,0,0,0,11.21-11.24q3.84-7.36,3.84-17.76v-12.6q0-10.34-3.84-17.69A25.88,25.88,0,0,0,376.87,590.64Zm-5,41.5c0,4.29-1.12,7.63-3.36,10s-5.4,3.56-9.45,3.56-7.18-1.19-9.38-3.56-3.29-5.7-3.29-10v-12.6q0-6.37,3.33-9.89t9.34-3.52q6.07,0,9.45,3.52t3.36,9.89Z" transform="translate(-80.11 -258.34)"/><path class="cls-4" d="M432.28,610.2q4.17-4.07,11.79-4.07a21.8,21.8,0,0,1,7.84,1.43,20.29,20.29,0,0,1,6.52,4l13-12.59a26.25,26.25,0,0,0-7.32-6.59,35.7,35.7,0,0,0-9.93-4.14,46.88,46.88,0,0,0-11.75-1.43q-10.84,0-18.57,4.1a27.47,27.47,0,0,0-11.76,11.9q-4,7.8-4,18.86v8.13q0,11.13,4,19a27.45,27.45,0,0,0,11.76,12l7.73,4.14h10.84a47.53,47.53,0,0,0,11.72-1.39,35.93,35.93,0,0,0,9.88-4.06,27.65,27.65,0,0,0,7.4-6.49l-13-13.33a18.51,18.51,0,0,1-6.45,4.4,20.68,20.68,0,0,1-7.91,1.54q-7.62,0-11.79-4.14t-4.18-11.76v-8.13Q428.1,614.27,432.28,610.2Z" transform="translate(-80.11 -258.34)"/><path class="cls-4" d="M530.57,590.13q-7-3.33-17-3.33A45.43,45.43,0,0,0,497,589.69a30,30,0,0,0-12,8.1L497.47,610a24.79,24.79,0,0,1,7.39-3.89,26.74,26.74,0,0,1,8.43-1.39q6.44,0,10,2.86a9.87,9.87,0,0,1,3.51,8.13V619H508.38q-13.56,0-20.33,5.64t-6.77,16.92q0,11.87,6,17.69T505.6,665a38.19,38.19,0,0,0,10.58-1.43,21.85,21.85,0,0,0,8.35-4.28,11.29,11.29,0,0,0,2.23-2.55v7.16H545V615.07a29.73,29.73,0,0,0-3.7-15.27A24,24,0,0,0,530.57,590.13ZM522.84,647q-3.92,1.83-12,1.83c-3.86,0-6.74-.59-8.64-1.79a6.07,6.07,0,0,1-2.86-5.53,6.55,6.55,0,0,1,2.27-5.46q2.26-1.78,6.81-1.79h18.31v7C526.76,643.88,525.46,645.78,522.84,647Z" transform="translate(-80.11 -258.34)"/><path class="cls-4" d="M590.92,644.59a6.23,6.23,0,0,1-4.5-1.51,5.62,5.62,0,0,1-1.58-4.28V557.43H564.77v86.35q0,9.6,5.06,14.87T584,663.92h10.25V644.59Z" transform="translate(-80.11 -258.34)"/><path class="cls-4" d="M282.79,735.17h16.12v1.76a21.64,21.64,0,0,1-2.2,10,15.19,15.19,0,0,1-6.26,6.48,19.4,19.4,0,0,1-9.49,2.23,21.67,21.67,0,0,1-9.67-2,15,15,0,0,1-6.44-5.86,16.78,16.78,0,0,1-2.27-8.79V707.56a21.37,21.37,0,0,1,2.23-10,16,16,0,0,1,6.3-6.66,18.44,18.44,0,0,1,9.41-2.35,19.81,19.81,0,0,1,7.07,1.29,16.83,16.83,0,0,1,5.93,3.73,14.07,14.07,0,0,1,3.63,5.82h21.68a40.64,40.64,0,0,0-7.29-16.62,36.52,36.52,0,0,0-13.44-11.1,39.68,39.68,0,0,0-17.58-3.92,40.8,40.8,0,0,0-20.36,5,34,34,0,0,0-13.59,14,43.81,43.81,0,0,0-4.79,20.87V739a38.93,38.93,0,0,0,4.87,19.71,33.19,33.19,0,0,0,13.77,13.14A43.71,43.71,0,0,0,281,776.48a40.77,40.77,0,0,0,20.36-4.94,34,34,0,0,0,13.59-14,44,44,0,0,0,4.8-20.91v-20.8H282.79Z" transform="translate(-80.11 -258.34)"/><path class="cls-4" d="M387.86,702.11q-7.37-3.86-17.76-3.85t-17.76,3.85a25.81,25.81,0,0,0-11.21,11.2q-3.84,7.37-3.85,17.69v12.38q0,10.47,3.85,17.91a26,26,0,0,0,11.21,11.31q7.35,3.89,17.76,3.88t17.76-3.88a26,26,0,0,0,11.2-11.24q3.85-7.36,3.85-17.76V731q0-10.32-3.85-17.69A25.79,25.79,0,0,0,387.86,702.11Zm-5,41.49q0,6.43-3.37,10T370,757.15q-6.07,0-9.37-3.55t-3.3-10V731q0-6.37,3.34-9.89T370,717.6q6.09,0,9.45,3.51t3.37,9.89Z" transform="translate(-80.11 -258.34)"/><polygon class="cls-4" points="365.79 488.7 350.12 441.02 330.12 441.02 358.69 517.04 372.9 517.04 401.46 441.02 381.47 441.02 365.79 488.7"/><path class="cls-4" d="M540.17,703.24a29,29,0,0,0-17.07-5q-10.62,0-18.13,4.18a27.27,27.27,0,0,0-11.42,12.15q-3.93,8-3.92,19.27v8.57q0,10.76,4.1,18.42a27.26,27.26,0,0,0,11.9,11.64l7.8,4h11a40,40,0,0,0,14.94-3,43.77,43.77,0,0,0,13.33-8.39l-13.11-11.64a24.36,24.36,0,0,1-7.18,4.06,23.38,23.38,0,0,1-8,1.43q-7.84,0-12.2-4.25a14.73,14.73,0,0,1-4.17-9.15h46.62v-5q0-13.4-3.7-22.88T540.17,703.24ZM507.9,732c.16-4.78,1.47-8.52,4-11.21q4-4.32,11.24-4.32a11.57,11.57,0,0,1,8.9,3.59q3.33,3.58,4.14,10.18l.22,1.76Z" transform="translate(-80.11 -258.34)"/><path class="cls-4" d="M611.43,698.26a18,18,0,0,0-11,3.77,25.44,25.44,0,0,0-6.63,7.64V699.36H572.25v76h21.53v-43q0-7,3.33-10.87t9.41-3.92a15,15,0,0,1,4.91.73,9.24,9.24,0,0,1,3.59,2.2l11.72-16.34a18.9,18.9,0,0,0-6.7-4.43A23.57,23.57,0,0,0,611.43,698.26Z" transform="translate(-80.11 -258.34)"/><path class="cls-4" d="M675.08,698.26A19.57,19.57,0,0,0,663,701.85a25.74,25.74,0,0,0-6.7,7.87V699.36H636.26v76h20.07V729.46c0-3.76,1-6.67,3-8.75s4.89-3.11,8.6-3.11q5.87,0,9,3.07c2.12,2.05,3.18,4.94,3.18,8.65v46.06h20.07V729.24q0-14.79-6.59-22.89T675.08,698.26Z" transform="translate(-80.11 -258.34)"/><path class="cls-4" d="M765.68,701.59q-7-3.33-17-3.33a45.69,45.69,0,0,0-16.56,2.89,30,30,0,0,0-12,8.1l12.45,12.23a24.72,24.72,0,0,1,7.4-3.88,26.4,26.4,0,0,1,8.42-1.39q6.45,0,10,2.85a9.88,9.88,0,0,1,3.52,8.13v3.22H743.49q-13.56,0-20.33,5.64T716.39,753q0,11.87,6,17.69t18.27,5.82a38.26,38.26,0,0,0,10.59-1.43,21.92,21.92,0,0,0,8.35-4.28,11.81,11.81,0,0,0,2.23-2.55v7.16h18.24V726.53a29.88,29.88,0,0,0-3.7-15.27A24,24,0,0,0,765.68,701.59ZM758,758.47q-3.91,1.83-12,1.83-5.79,0-8.65-1.8a6.07,6.07,0,0,1-2.85-5.53,6.49,6.49,0,0,1,2.27-5.45q2.26-1.8,6.81-1.8h18.31v7Q761.87,756.64,758,758.47Z" transform="translate(-80.11 -258.34)"/><path class="cls-4" d="M838.7,698.26a19.59,19.59,0,0,0-12.05,3.59,26,26,0,0,0-6.7,7.87V699.36H799.88v76H820V729.46c0-3.76,1-6.67,3-8.75s4.89-3.11,8.61-3.11q5.85,0,9,3.07c2.12,2.05,3.19,4.94,3.19,8.65v46.06H863.9V729.24q0-14.79-6.6-22.89T838.7,698.26Z" transform="translate(-80.11 -258.34)"/><path class="cls-4" d="M905.72,721.66q4.17-4.06,11.79-4.06a21.62,21.62,0,0,1,7.84,1.43,20,20,0,0,1,6.51,4l13-12.6a26.29,26.29,0,0,0-7.33-6.59,35.63,35.63,0,0,0-9.92-4.14,47,47,0,0,0-11.76-1.43q-10.83,0-18.56,4.1a27.47,27.47,0,0,0-11.76,11.9q-4,7.8-4,18.86v8.13q0,11.14,4,19a27.55,27.55,0,0,0,11.76,12.05l7.72,4.13h10.84a47.48,47.48,0,0,0,11.72-1.39,35.57,35.57,0,0,0,9.89-4.06,27.48,27.48,0,0,0,7.4-6.49l-13-13.33a18.38,18.38,0,0,1-6.44,4.4,20.68,20.68,0,0,1-7.91,1.54q-7.62,0-11.79-4.14t-4.18-11.76v-8.13Q901.54,725.73,905.72,721.66Z" transform="translate(-80.11 -258.34)"/><path class="cls-4" d="M1021.22,740.59q0-13.4-3.7-22.88t-10.8-14.47a29,29,0,0,0-17.07-5q-10.62,0-18.13,4.18a27.27,27.27,0,0,0-11.42,12.15q-3.92,8-3.92,19.27v8.57q0,10.76,4.1,18.42a27.31,27.31,0,0,0,11.9,11.64l7.8,4h11a40,40,0,0,0,14.94-3,43.65,43.65,0,0,0,13.33-8.39l-13.11-11.64a24.36,24.36,0,0,1-7.18,4.06,23.34,23.34,0,0,1-8,1.43q-7.83,0-12.19-4.25a14.69,14.69,0,0,1-4.18-9.15h46.62ZM974.45,732c.17-4.78,1.48-8.52,4-11.21q4-4.32,11.24-4.32a11.57,11.57,0,0,1,8.9,3.59q3.33,3.58,4.14,10.18l.22,1.76Z" transform="translate(-80.11 -258.34)"/><path class="cls-5" d="M94,823.9A9.26,9.26,0,0,1,99,825a4.7,4.7,0,0,1,2.18,4.2c0,4.06-3.44,5.77-6.44,5.8a6.61,6.61,0,0,1-.84-.06l-1.62-.42v3.81c0,2.35.19,2.47,2.63,2.69v1H86v-1c2.1-.25,2.38-.34,2.38-2.69V827.68c0-2.36-.28-2.61-2.38-2.75v-1Zm-1.68,9.49a3.54,3.54,0,0,0,1.48.28c1.29,0,3.39-.76,3.39-4.45,0-3.14-1.71-4.18-3.53-4.18a1.7,1.7,0,0,0-1.09.28c-.2.17-.25.45-.25.87Z" transform="translate(-80.11 -258.34)"/><path class="cls-5" d="M110.5,842.1v-1c1.76-.25,1.76-.56,1.37-1.76-.28-.84-.73-2.1-1.15-3.22h-5.46c-.31.86-.7,1.93-1,2.8-.59,1.76.08,2,2.3,2.18v1H99.66v-1c1.76-.22,2.21-.48,3.17-2.83l5.82-14.47,1.34-.26c1.8,4.88,3.7,9.86,5.52,14.54,1,2.6,1.29,2.8,3.11,3v1ZM108,828.71c-.81,2-1.59,3.89-2.29,5.94h4.45Z" transform="translate(-80.11 -258.34)"/><path class="cls-5" d="M138.19,834.42c-1.6.28-1.79.4-1.79,2.3v2.16a15.86,15.86,0,0,0,.16,2.71,42.57,42.57,0,0,1-6.77.93c-6.58,0-10.36-4-10.36-9.55,0-6.3,5.12-9.47,11.09-9.47a43.15,43.15,0,0,1,5.65.65c.06,1.23.28,3.36.48,4.9l-1.09.19c-.68-2.38-1.71-3.58-3.45-4.17a8.55,8.55,0,0,0-2.38-.33c-3.39,0-5.93,2.94-5.93,7.75s1.73,8.82,6.32,8.82a3.66,3.66,0,0,0,1.8-.39c.42-.25.64-.73.64-1.6v-2.46c0-2-.39-2.16-2.74-2.44v-1h8.37Z" transform="translate(-80.11 -258.34)"/><path class="cls-5" d="M140.15,823.9h8.48v1c-2,.25-2.32.39-2.32,2.75v4.7a5.87,5.87,0,0,0,2.18-1.48,44.78,44.78,0,0,0,4-4.46c.67-.86.5-1.28-.79-1.45l-.53-.06v-1h7.34v1a6.14,6.14,0,0,0-4.73,2.3c-1.1,1.15-2.47,2.55-3.7,3.89,1.76,2.46,3.95,5.46,6.1,8.18a3.41,3.41,0,0,0,2.83,1.76v1h-5.57c-1.18-1.6-3.64-5-5.63-7.82-.59-.84-1-1-1.48-.92v5c0,2.38.19,2.46,2.35,2.74v1h-8.51v-1c2.1-.22,2.38-.36,2.38-2.74V827.68c0-2.36-.28-2.55-2.38-2.75Z" transform="translate(-80.11 -258.34)"/><path class="cls-5" d="M160,842.1v-1c2.13-.2,2.38-.36,2.38-2.72V827.68c0-2.36-.28-2.58-2.38-2.75v-1h8.65v1c-2.1.2-2.38.39-2.38,2.75v10.66c0,2.33.25,2.5,2.38,2.72v1Z" transform="translate(-80.11 -258.34)"/><path class="cls-5" d="M185.87,837.17c-.22,1.2-1,4.17-1.26,4.93H170.72v-1c2.47-.17,2.69-.36,2.69-2.72V827.68c0-2.36-.28-2.58-2.38-2.75v-1h8.74v1c-2.19.2-2.47.39-2.47,2.75v10.86c0,1.54.06,2.24,1.6,2.27.06,0,1.34,0,1.45,0a2.82,2.82,0,0,0,2.69-1.1,11.57,11.57,0,0,0,1.77-2.91Z" transform="translate(-80.11 -258.34)"/><path class="cls-5" d="M197.77,842.1v-1c1.76-.25,1.76-.56,1.37-1.76-.28-.84-.72-2.1-1.15-3.22h-5.46c-.3.86-.7,1.93-1,2.8-.58,1.76.09,2,2.3,2.18v1h-6.91v-1c1.76-.22,2.21-.48,3.16-2.83l5.82-14.47,1.35-.26c1.79,4.88,3.69,9.86,5.51,14.54,1,2.6,1.29,2.8,3.11,3v1Zm-2.46-13.39c-.81,2-1.6,3.89-2.3,5.94h4.45Z" transform="translate(-80.11 -258.34)"/><path class="cls-5" d="M221.74,837.17c-.23,1.2-1,4.17-1.26,4.93H206.59v-1c2.46-.17,2.69-.36,2.69-2.72V827.68c0-2.36-.28-2.58-2.38-2.75v-1h8.73v1c-2.18.2-2.46.39-2.46,2.75v10.86c0,1.54.06,2.24,1.6,2.27,0,0,1.34,0,1.45,0a2.82,2.82,0,0,0,2.69-1.1,11.57,11.57,0,0,0,1.76-2.91Z" transform="translate(-80.11 -258.34)"/><path class="cls-5" d="M233.64,842.1v-1c1.76-.25,1.76-.56,1.37-1.76-.28-.84-.73-2.1-1.15-3.22H228.4c-.31.86-.7,1.93-1,2.8-.59,1.76.09,2,2.3,2.18v1H222.8v-1c1.77-.22,2.21-.48,3.17-2.83l5.82-14.47,1.34-.26c1.8,4.88,3.7,9.86,5.52,14.54,1,2.6,1.29,2.8,3.11,3v1Zm-2.47-13.39c-.81,2-1.59,3.89-2.29,5.94h4.45Z" transform="translate(-80.11 -258.34)"/><path class="cls-5" d="M258.73,828.52c-.56-1.8-1.35-3.84-3.92-3.84a2.58,2.58,0,0,0-2.69,2.72c0,1.54,1,2.46,3.5,3.69,3,1.49,4.9,2.94,4.9,5.71,0,3.31-2.75,5.72-6.75,5.72a16.2,16.2,0,0,1-4.7-.87c-.17-.65-.65-3.56-.84-4.87l1.09-.26c.56,1.77,2.13,4.82,4.87,4.82a2.57,2.57,0,0,0,2.74-2.86c0-1.62-1-2.57-3.36-3.83-2.91-1.57-4.81-3-4.81-5.88s2.29-5.27,6.49-5.27a20.11,20.11,0,0,1,4,.51c.11,1,.31,2.49.53,4.25Z" transform="translate(-80.11 -258.34)"/><path class="cls-5" d="M271.61,842.1v-1c1.76-.25,1.76-.56,1.37-1.76-.28-.84-.73-2.1-1.15-3.22h-5.46c-.31.86-.7,1.93-1,2.8-.59,1.76.08,2,2.3,2.18v1h-6.92v-1c1.76-.22,2.21-.48,3.16-2.83l5.83-14.47,1.34-.26c1.79,4.88,3.7,9.86,5.52,14.54,1,2.6,1.29,2.8,3.11,3v1Zm-2.47-13.39c-.81,2-1.59,3.89-2.29,5.94h4.45Z" transform="translate(-80.11 -258.34)"/><path class="cls-5" d="M286.22,823.9h8.49v1c-2,.25-2.33.39-2.33,2.75v4.7a6,6,0,0,0,2.19-1.48,45.71,45.71,0,0,0,4-4.46c.67-.86.51-1.28-.78-1.45l-.53-.06v-1h7.33v1a6.14,6.14,0,0,0-4.73,2.3c-1.09,1.15-2.46,2.55-3.7,3.89,1.77,2.46,3.95,5.46,6.11,8.18a3.39,3.39,0,0,0,2.83,1.76v1h-5.58c-1.17-1.6-3.64-5-5.62-7.82-.59-.84-1-1-1.49-.92v5c0,2.38.2,2.46,2.35,2.74v1h-8.51v-1c2.1-.22,2.38-.36,2.38-2.74V827.68c0-2.36-.28-2.55-2.38-2.75Z" transform="translate(-80.11 -258.34)"/><path class="cls-5" d="M315.87,842.1v-1c1.77-.25,1.77-.56,1.38-1.76-.28-.84-.73-2.1-1.15-3.22h-5.46c-.31.86-.7,1.93-1,2.8-.59,1.76.08,2,2.29,2.18v1H305v-1c1.76-.22,2.21-.48,3.16-2.83L314,823.76l1.34-.26c1.79,4.88,3.7,9.86,5.52,14.54,1,2.6,1.28,2.8,3.1,3v1Zm-2.46-13.39c-.81,2-1.6,3.89-2.3,5.94h4.46Z" transform="translate(-80.11 -258.34)"/><path class="cls-5" d="M338.25,828.74A8.58,8.58,0,0,0,337,826c-.5-.59-.73-.82-2.38-.82h-1.79v13.16c0,2.36.28,2.52,2.77,2.72v1h-9.29v-1c2.38-.2,2.63-.36,2.63-2.72V825.18h-1.71c-1.57,0-2,.26-2.55.93a10.92,10.92,0,0,0-1.15,2.66h-1.06c.2-2,.39-4.23.45-5.57h.84c.42.64.75.7,1.59.7h11.2a1.87,1.87,0,0,0,1.63-.7H339c0,1.17.14,3.64.28,5.46Z" transform="translate(-80.11 -258.34)"/><path class="cls-5" d="M348.86,842.1v-1c1.76-.25,1.76-.56,1.37-1.76-.28-.84-.73-2.1-1.15-3.22h-5.46c-.31.86-.7,1.93-1,2.8-.59,1.76.09,2,2.3,2.18v1H338v-1c1.77-.22,2.21-.48,3.17-2.83L347,823.76l1.34-.26c1.8,4.88,3.7,9.86,5.52,14.54,1,2.6,1.29,2.8,3.11,3v1Zm-2.47-13.39c-.81,2-1.59,3.89-2.29,5.94h4.45Z" transform="translate(-80.11 -258.34)"/><path class="cls-5" d="M365.94,823.9a9.26,9.26,0,0,1,5,1.14,4.7,4.7,0,0,1,2.18,4.2c0,4.06-3.44,5.77-6.44,5.8a6.61,6.61,0,0,1-.84-.06l-1.62-.42v3.81c0,2.35.19,2.47,2.63,2.69v1H358v-1c2.1-.25,2.38-.34,2.38-2.69V827.68c0-2.36-.28-2.61-2.38-2.75v-1Zm-1.68,9.49a3.51,3.51,0,0,0,1.48.28c1.29,0,3.39-.76,3.39-4.45,0-3.14-1.71-4.18-3.53-4.18a1.7,1.7,0,0,0-1.09.28c-.2.17-.25.45-.25.87Z" transform="translate(-80.11 -258.34)"/><path class="cls-5" d="M382.49,842.1v-1c1.76-.25,1.76-.56,1.37-1.76-.28-.84-.73-2.1-1.15-3.22h-5.46c-.31.86-.7,1.93-1,2.8-.59,1.76.08,2,2.3,2.18v1h-6.92v-1c1.76-.22,2.21-.48,3.16-2.83l5.83-14.47,1.34-.26c1.79,4.88,3.7,9.86,5.52,14.54,1,2.6,1.29,2.8,3.1,3v1ZM380,828.71c-.81,2-1.59,3.89-2.29,5.94h4.45Z" transform="translate(-80.11 -258.34)"/><path class="cls-5" d="M404.86,828.74a8.58,8.58,0,0,0-1.21-2.74c-.5-.59-.72-.82-2.38-.82h-1.79v13.16c0,2.36.28,2.52,2.77,2.72v1H393v-1c2.38-.2,2.63-.36,2.63-2.72V825.18h-1.71c-1.57,0-2,.26-2.55.93a10.59,10.59,0,0,0-1.14,2.66h-1.07c.2-2,.39-4.23.45-5.57h.84c.42.64.76.7,1.6.7h11.2a1.86,1.86,0,0,0,1.62-.7h.81c0,1.17.14,3.64.28,5.46Z" transform="translate(-80.11 -258.34)"/><path class="cls-5" d="M415.47,842.1v-1c1.76-.25,1.76-.56,1.37-1.76-.28-.84-.73-2.1-1.15-3.22h-5.46c-.3.86-.7,1.93-1,2.8-.58,1.76.09,2,2.3,2.18v1h-6.92v-1c1.77-.22,2.22-.48,3.17-2.83l5.82-14.47,1.35-.26c1.79,4.88,3.69,9.86,5.51,14.54,1,2.6,1.29,2.8,3.11,3v1ZM413,828.71c-.82,2-1.6,3.89-2.3,5.94h4.45Z" transform="translate(-80.11 -258.34)"/><path class="cls-5" d="M444.11,824.93c-1.71.23-2.24.59-2.32,1.85-.08,1.09-.17,2-.17,4.48V842.4h-1.57l-11.67-14v6.33a40.66,40.66,0,0,0,.14,4.34c.11,1.23.7,1.88,2.77,2v1h-6.94v-1c1.59-.14,2.29-.56,2.46-1.88a37.78,37.78,0,0,0,.17-4.45V828.1a3.36,3.36,0,0,0-.59-2.27c-.5-.7-1.18-.79-2.35-.9v-1h5.46l10.67,12.4v-5c0-2.44,0-3.36-.12-4.4-.08-1.2-.53-1.79-2.85-1.93v-1h6.91Z" transform="translate(-80.11 -258.34)"/><path class="cls-5" d="M460.66,842.1v-1c1.76-.25,1.76-.56,1.37-1.76-.28-.84-.72-2.1-1.15-3.22h-5.46c-.3.86-.69,1.93-1,2.8-.58,1.76.09,2,2.3,2.18v1h-6.91v-1c1.76-.22,2.21-.48,3.16-2.83l5.82-14.47,1.35-.26c1.79,4.88,3.69,9.86,5.51,14.54,1,2.6,1.29,2.8,3.11,3v1Zm-2.46-13.39c-.82,2-1.6,3.89-2.3,5.94h4.45Z" transform="translate(-80.11 -258.34)"/><path class="cls-5" d="M483,828.74a8.39,8.39,0,0,0-1.2-2.74c-.5-.59-.73-.82-2.38-.82h-1.79v13.16c0,2.36.28,2.52,2.77,2.72v1h-9.3v-1c2.38-.2,2.64-.36,2.64-2.72V825.18h-1.71c-1.57,0-2,.26-2.55.93a10.92,10.92,0,0,0-1.15,2.66H467.3c.19-2,.39-4.23.45-5.57h.84c.42.64.75.7,1.59.7h11.2a1.87,1.87,0,0,0,1.63-.7h.81c0,1.17.14,3.64.28,5.46Z" transform="translate(-80.11 -258.34)"/><path class="cls-5" d="M492.1,823.9h8.49v1c-2,.25-2.33.39-2.33,2.75v4.7a6,6,0,0,0,2.19-1.48,45.71,45.71,0,0,0,4-4.46c.68-.86.51-1.28-.78-1.45l-.53-.06v-1h7.33v1a6.16,6.16,0,0,0-4.73,2.3c-1.09,1.15-2.46,2.55-3.69,3.89,1.76,2.46,3.94,5.46,6.1,8.18a3.41,3.41,0,0,0,2.83,1.76v1h-5.57c-1.18-1.6-3.64-5-5.63-7.82-.59-.84-1-1-1.49-.92v5c0,2.38.2,2.46,2.36,2.74v1H492.1v-1c2.1-.22,2.38-.36,2.38-2.74V827.68c0-2.36-.28-2.55-2.38-2.75Z" transform="translate(-80.11 -258.34)"/><path class="cls-5" d="M521.76,842.1v-1c1.76-.25,1.76-.56,1.37-1.76-.28-.84-.73-2.1-1.15-3.22h-5.46c-.31.86-.7,1.93-1,2.8-.59,1.76.08,2,2.3,2.18v1h-6.92v-1c1.76-.22,2.21-.48,3.16-2.83l5.83-14.47,1.34-.26c1.79,4.88,3.7,9.86,5.52,14.54,1,2.6,1.29,2.8,3.11,3v1Zm-2.47-13.39c-.81,2-1.59,3.89-2.29,5.94h4.45Z" transform="translate(-80.11 -258.34)"/><path class="cls-5" d="M551,824.93c-2.19.23-2.38.39-2.38,2.72v10.72c0,2.33.22,2.49,2.38,2.69v1h-8.65v-1c2.21-.28,2.38-.36,2.38-2.69v-5.26h-7.56v5.26c0,2.33.25,2.47,2.35,2.69v1h-8.63v-1c2.08-.22,2.38-.36,2.38-2.69V827.65c0-2.33-.25-2.55-2.38-2.72v-1h8.63v1c-2.13.2-2.35.39-2.35,2.72v4h7.56v-4c0-2.33-.28-2.49-2.38-2.72v-1H551Z" transform="translate(-80.11 -258.34)"/><path class="cls-5" d="M572.24,824.93c-1.79.17-2.27.7-2.38,1.71a36.67,36.67,0,0,0-.14,3.75v3.67c0,2.41-.39,4.84-2,6.52a7.22,7.22,0,0,1-5.26,1.94,8,8,0,0,1-5-1.46c-1.63-1.23-2.41-2.94-2.41-6.08V827.9c0-2.58-.26-2.77-2.38-3v-1h8.65v1c-2.1.2-2.35.39-2.35,3v7.45c0,3.13,1.54,5.21,4.53,5.21,3.33,0,4.79-2.47,4.79-6.67v-3.5c0-1.93-.08-2.94-.14-3.78-.11-1.29-.9-1.57-2.86-1.68v-1h7Z" transform="translate(-80.11 -258.34)"/><path class="cls-5" d="M584.14,828.52c-.56-1.8-1.34-3.84-3.92-3.84a2.59,2.59,0,0,0-2.69,2.72c0,1.54,1,2.46,3.5,3.69,3,1.49,4.9,2.94,4.9,5.71,0,3.31-2.74,5.72-6.75,5.72a16.26,16.26,0,0,1-4.7-.87c-.17-.65-.64-3.56-.84-4.87l1.09-.26c.56,1.77,2.13,4.82,4.87,4.82a2.58,2.58,0,0,0,2.75-2.86c0-1.62-1-2.57-3.36-3.83-2.91-1.57-4.82-3-4.82-5.88s2.3-5.27,6.5-5.27a20,20,0,0,1,4,.51c.11,1,.31,2.49.53,4.25Z" transform="translate(-80.11 -258.34)"/><path class="cls-5" d="M597,842.1v-1c1.76-.25,1.76-.56,1.37-1.76-.28-.84-.73-2.1-1.15-3.22h-5.46c-.3.86-.7,1.93-1,2.8-.58,1.76.09,2,2.3,2.18v1h-6.92v-1c1.77-.22,2.22-.48,3.17-2.83l5.82-14.47,1.35-.26c1.79,4.88,3.69,9.86,5.51,14.54,1,2.6,1.29,2.8,3.11,3v1Zm-2.46-13.39c-.82,2-1.6,3.89-2.3,5.94h4.45Z" transform="translate(-80.11 -258.34)"/><path class="cls-5" d="M620.74,824.93c-1.8.2-2.44.59-3.45,2.3s-1.87,3.27-3.25,6.07a2.93,2.93,0,0,0-.3,1.49v3.47c0,2.44.22,2.52,2.52,2.8v1h-8.85v-1c2.21-.28,2.41-.36,2.41-2.8V835a2.48,2.48,0,0,0-.31-1.29c-.81-1.65-1.85-3.53-3.53-6.47-1-1.82-1.46-2.18-3.08-2.35v-1h8.2v1c-1.87.25-1.82.62-1.34,1.6.92,1.82,2.13,4.06,3.19,6.1.84-1.57,2.19-4.25,3-6,.53-1.12.31-1.49-1.71-1.74v-1h6.53Z" transform="translate(-80.11 -258.34)"/><path class="cls-5" d="M629,842.1v-1c1.76-.25,1.76-.56,1.37-1.76-.28-.84-.73-2.1-1.15-3.22h-5.46c-.31.86-.7,1.93-1,2.8-.59,1.76.08,2,2.3,2.18v1h-6.92v-1c1.76-.22,2.21-.48,3.16-2.83l5.83-14.47,1.34-.26c1.79,4.88,3.7,9.86,5.52,14.54,1,2.6,1.29,2.8,3.11,3v1Zm-2.47-13.39c-.81,2-1.59,3.89-2.29,5.94h4.45Z" transform="translate(-80.11 -258.34)"/><path class="cls-5" d="M657.64,824.93c-1.71.23-2.24.59-2.32,1.85-.09,1.09-.17,2-.17,4.48V842.4h-1.57l-11.68-14v6.33c0,2.44.06,3.53.14,4.34.12,1.23.7,1.88,2.78,2v1h-7v-1c1.6-.14,2.3-.56,2.47-1.88a38.53,38.53,0,0,0,.16-4.45V828.1a3.35,3.35,0,0,0-.58-2.27c-.51-.7-1.18-.79-2.36-.9v-1H643l10.67,12.4v-5c0-2.44,0-3.36-.11-4.4-.08-1.2-.53-1.79-2.86-1.93v-1h6.92Z" transform="translate(-80.11 -258.34)"/><path class="cls-5" d="M684.83,824.93c-1.71.23-2.24.59-2.33,1.85-.08,1.09-.17,2-.17,4.48V842.4h-1.56l-11.68-14v6.33c0,2.44.06,3.53.14,4.34.11,1.23.7,1.88,2.77,2v1h-6.94v-1c1.6-.14,2.3-.56,2.46-1.88a35.63,35.63,0,0,0,.17-4.45V828.1a3.31,3.31,0,0,0-.59-2.27c-.5-.7-1.17-.79-2.35-.9v-1h5.46l10.67,12.4v-5c0-2.44,0-3.36-.11-4.4-.09-1.2-.53-1.79-2.86-1.93v-1h6.92Z" transform="translate(-80.11 -258.34)"/><path class="cls-5" d="M705.46,834.42c-1.59.28-1.79.4-1.79,2.3v2.16a15.78,15.78,0,0,0,.17,2.71,42.88,42.88,0,0,1-6.78.93c-6.58,0-10.36-4-10.36-9.55,0-6.3,5.13-9.47,11.09-9.47a43.35,43.35,0,0,1,5.66.65c0,1.23.28,3.36.47,4.9l-1.09.19c-.67-2.38-1.71-3.58-3.44-4.17a8.6,8.6,0,0,0-2.38-.33c-3.39,0-5.94,2.94-5.94,7.75s1.74,8.82,6.33,8.82a3.6,3.6,0,0,0,1.79-.39c.42-.25.64-.73.64-1.6v-2.46c0-2-.39-2.16-2.74-2.44v-1h8.37Z" transform="translate(-80.11 -258.34)"/><path class="cls-5" d="M721.56,823.9a9.21,9.21,0,0,1,5,1.14,4.7,4.7,0,0,1,2.19,4.2c0,4.06-3.45,5.77-6.44,5.8a6.47,6.47,0,0,1-.84-.06l-1.63-.42v3.81c0,2.35.2,2.47,2.64,2.69v1h-8.91v-1c2.1-.25,2.38-.34,2.38-2.69V827.68c0-2.36-.28-2.61-2.38-2.75v-1Zm-1.68,9.49a3.59,3.59,0,0,0,1.49.28c1.29,0,3.38-.76,3.38-4.45,0-3.14-1.7-4.18-3.52-4.18a1.74,1.74,0,0,0-1.1.28,1.11,1.11,0,0,0-.25.87Z" transform="translate(-80.11 -258.34)"/><path class="cls-5" d="M738.11,842.1v-1c1.77-.25,1.77-.56,1.37-1.76-.28-.84-.73-2.1-1.15-3.22h-5.45c-.31.86-.71,1.93-1,2.8-.59,1.76.08,2,2.29,2.18v1h-6.91v-1c1.76-.22,2.21-.48,3.16-2.83l5.82-14.47,1.35-.26c1.79,4.88,3.69,9.86,5.51,14.54,1,2.6,1.29,2.8,3.11,3v1Zm-2.46-13.39c-.82,2-1.6,3.89-2.3,5.94h4.45Z" transform="translate(-80.11 -258.34)"/><path class="cls-5" d="M761.63,842.1v-1c2.13-.22,2.27-.42,2.27-2.94l0-10.92c-2,4.82-4.23,10.14-6.24,14.9h-.93c-1.82-4.57-3.81-9.78-5.82-14.68-.37,8.8-.37,10.53-.37,11.54,0,1.51.59,1.9,2.69,2.1v1h-6.94v-1c1.59-.14,2.32-.45,2.55-2.13.11-.84.22-2.43.86-11.67.09-1.35-.11-2.1-2.51-2.33v-1h6l5.41,12.34L764,823.9H770v1c-2.24.23-2.49.45-2.44,2.69l.22,10.5c0,2.52.15,2.63,2.41,2.94v1Z" transform="translate(-80.11 -258.34)"/><path class="cls-5" d="M781.73,842.1v-1c1.77-.25,1.77-.56,1.38-1.76-.28-.84-.73-2.1-1.15-3.22H776.5c-.31.86-.7,1.93-1,2.8-.59,1.76.08,2,2.29,2.18v1H770.9v-1c1.76-.22,2.21-.48,3.16-2.83l5.83-14.47,1.34-.26c1.79,4.88,3.7,9.86,5.52,14.54,1,2.6,1.28,2.8,3.1,3v1Zm-2.46-13.39c-.81,2-1.6,3.89-2.3,5.94h4.46Z" transform="translate(-80.11 -258.34)"/><path class="cls-5" d="M811,824.93c-2.19.23-2.38.39-2.38,2.72v10.72c0,2.33.22,2.49,2.38,2.69v1h-8.66v-1c2.22-.28,2.38-.36,2.38-2.69v-5.26h-7.56v5.26c0,2.33.26,2.47,2.36,2.69v1h-8.63v-1c2.07-.22,2.38-.36,2.38-2.69V827.65c0-2.33-.25-2.55-2.38-2.72v-1h8.63v1c-2.13.2-2.36.39-2.36,2.72v4h7.56v-4c0-2.33-.28-2.49-2.38-2.72v-1H811Z" transform="translate(-80.11 -258.34)"/><path class="cls-5" d="M822.64,842.1v-1c1.77-.25,1.77-.56,1.37-1.76-.28-.84-.72-2.1-1.14-3.22h-5.46c-.31.86-.7,1.93-1,2.8-.59,1.76.08,2,2.29,2.18v1h-6.91v-1c1.76-.22,2.21-.48,3.16-2.83l5.82-14.47,1.35-.26c1.79,4.88,3.69,9.86,5.51,14.54,1,2.6,1.29,2.8,3.11,3v1Zm-2.46-13.39c-.81,2-1.6,3.89-2.3,5.94h4.45Z" transform="translate(-80.11 -258.34)"/><path class="cls-5" d="M846.61,837.17c-.22,1.2-1,4.17-1.26,4.93H831.46v-1c2.47-.17,2.69-.36,2.69-2.72V827.68c0-2.36-.28-2.58-2.38-2.75v-1h8.74v1c-2.19.2-2.47.39-2.47,2.75v10.86c0,1.54.06,2.24,1.6,2.27.05,0,1.34,0,1.45,0a2.82,2.82,0,0,0,2.69-1.1,11.57,11.57,0,0,0,1.76-2.91Z" transform="translate(-80.11 -258.34)"/><path class="cls-5" d="M858.51,842.1v-1c1.76-.25,1.76-.56,1.37-1.76-.28-.84-.73-2.1-1.15-3.22h-5.46c-.31.86-.7,1.93-1,2.8-.58,1.76.09,2,2.3,2.18v1h-6.92v-1c1.77-.22,2.21-.48,3.17-2.83l5.82-14.47,1.34-.26c1.8,4.88,3.7,9.86,5.52,14.54,1,2.6,1.29,2.8,3.11,3v1ZM856,828.71c-.81,2-1.59,3.89-2.29,5.94h4.45Z" transform="translate(-80.11 -258.34)"/><path class="cls-5" d="M877.24,842.1v-1c1.76-.25,1.76-.56,1.37-1.76-.28-.84-.73-2.1-1.15-3.22H872c-.3.86-.7,1.93-1,2.8-.58,1.76.09,2,2.3,2.18v1H866.4v-1c1.77-.22,2.22-.48,3.17-2.83l5.82-14.47,1.35-.26c1.79,4.88,3.69,9.86,5.51,14.54,1,2.6,1.29,2.8,3.11,3v1Zm-2.46-13.39c-.82,2-1.6,3.89-2.3,5.94h4.45Z" transform="translate(-80.11 -258.34)"/><path class="cls-5" d="M905.88,824.93c-1.7.23-2.24.59-2.32,1.85-.08,1.09-.17,2-.17,4.48V842.4h-1.57l-11.67-14v6.33a40.66,40.66,0,0,0,.14,4.34c.11,1.23.7,1.88,2.77,2v1h-6.94v-1c1.59-.14,2.29-.56,2.46-1.88a37.78,37.78,0,0,0,.17-4.45V828.1a3.36,3.36,0,0,0-.59-2.27c-.5-.7-1.18-.79-2.35-.9v-1h5.46l10.67,12.4v-5c0-2.44,0-3.36-.12-4.4-.08-1.2-.53-1.79-2.85-1.93v-1h6.91Z" transform="translate(-80.11 -258.34)"/><path class="cls-5" d="M926.52,834.42c-1.6.28-1.79.4-1.79,2.3v2.16a15.78,15.78,0,0,0,.17,2.71,42.88,42.88,0,0,1-6.78.93c-6.58,0-10.36-4-10.36-9.55,0-6.3,5.12-9.47,11.09-9.47a42.93,42.93,0,0,1,5.65.65c.06,1.23.28,3.36.48,4.9l-1.09.19c-.67-2.38-1.71-3.58-3.45-4.17a8.55,8.55,0,0,0-2.38-.33c-3.38,0-5.93,2.94-5.93,7.75s1.73,8.82,6.33,8.82a3.63,3.63,0,0,0,1.79-.39c.42-.25.64-.73.64-1.6v-2.46c0-2-.39-2.16-2.74-2.44v-1h8.37Z" transform="translate(-80.11 -258.34)"/><path class="cls-5" d="M949.51,837.17c-.23,1.2-1,4.17-1.26,4.93H934.36v-1c2.46-.17,2.69-.36,2.69-2.72V827.68c0-2.36-.28-2.58-2.38-2.75v-1h8.73v1c-2.18.2-2.46.39-2.46,2.75v10.86c0,1.54.06,2.24,1.6,2.27.05,0,1.34,0,1.45,0a2.82,2.82,0,0,0,2.69-1.1,11.57,11.57,0,0,0,1.76-2.91Z" transform="translate(-80.11 -258.34)"/><path class="cls-5" d="M961,823.5a9.13,9.13,0,0,1,9.41,9.3,9.61,9.61,0,1,1-9.41-9.3Zm-.42,1.24c-2.86,0-5,2.8-5,7.75,0,4.73,1.88,8.79,5.66,8.79,2.66,0,4.73-2.57,4.73-7.7C966,828,963.79,824.74,960.54,824.74Z" transform="translate(-80.11 -258.34)"/><path class="cls-5" d="M972.8,823.9h8.49v1c-2,.25-2.33.39-2.33,2.75v4.7a6,6,0,0,0,2.19-1.48,45.71,45.71,0,0,0,4-4.46c.67-.86.51-1.28-.78-1.45l-.53-.06v-1h7.33v1a6.14,6.14,0,0,0-4.73,2.3c-1.09,1.15-2.46,2.55-3.7,3.89,1.77,2.46,3.95,5.46,6.11,8.18a3.39,3.39,0,0,0,2.83,1.76v1h-5.58c-1.17-1.6-3.64-5-5.62-7.82-.59-.84-1-1-1.49-.92v5c0,2.38.2,2.46,2.35,2.74v1H972.8v-1c2.1-.22,2.38-.36,2.38-2.74V827.68c0-2.36-.28-2.55-2.38-2.75Z" transform="translate(-80.11 -258.34)"/><path class="cls-5" d="M1002.45,842.1v-1c1.77-.25,1.77-.56,1.38-1.76-.28-.84-.73-2.1-1.15-3.22h-5.46c-.31.86-.7,1.93-1,2.8-.59,1.76.08,2,2.29,2.18v1h-6.91v-1c1.76-.22,2.21-.48,3.16-2.83l5.83-14.47,1.34-.26c1.79,4.88,3.7,9.86,5.52,14.54,1,2.6,1.28,2.8,3.1,3v1ZM1000,828.71c-.81,2-1.6,3.89-2.3,5.94h4.46Z" transform="translate(-80.11 -258.34)"/><path class="cls-5" d="M1026.42,837.17c-.22,1.2-1,4.17-1.26,4.93h-13.89v-1c2.47-.17,2.69-.36,2.69-2.72V827.68c0-2.36-.28-2.58-2.38-2.75v-1h8.74v1c-2.19.2-2.47.39-2.47,2.75v10.86c0,1.54.06,2.24,1.6,2.27.06,0,1.34,0,1.46,0a2.81,2.81,0,0,0,2.68-1.1,11.57,11.57,0,0,0,1.77-2.91Z" transform="translate(-80.11 -258.34)"/></g><g id="gradient"><path class="cls-6" d="M288.89,390.62a89.29,89.29,0,0,0-16.89-4.8q-.44-.07-.84-.18a7.35,7.35,0,0,0-.84-.19,5.59,5.59,0,0,0-.59-.11,4,4,0,0,1-.58-.11,101.25,101.25,0,0,1-10.91-2.63,15.7,15.7,0,0,1-6.52-3.92,9.91,9.91,0,0,1-2.64-7.29v-.07a9.48,9.48,0,0,1,5-8.54q5.06-3,14.29-3a39,39,0,0,1,12.85,2.35,53.75,53.75,0,0,1,12.85,6.59l8.5-17a64.76,64.76,0,0,0-10.84-6,63.49,63.49,0,0,0-11.68-3.81,54,54,0,0,0-11.68-1.31q-12.47,0-21.24,3.84a29.15,29.15,0,0,0-13.41,11.17q-4.61,7.32-4.61,17.65v.07q0,11.65,4.91,18A26.16,26.16,0,0,0,246,400.14a99.21,99.21,0,0,0,17.73,4.21l1.61.22a1.25,1.25,0,0,0,.4.07,1.34,1.34,0,0,1,.41.08,76,76,0,0,1,10,2.12,14.45,14.45,0,0,1,6.3,3.66,9.27,9.27,0,0,1,2.41,6.74v.07a10.45,10.45,0,0,1-5.42,9.41q-5.41,3.34-15.23,3.34a50.94,50.94,0,0,1-16.55-2.75,44.91,44.91,0,0,1-14.21-7.8l-9.31,16.55a51.9,51.9,0,0,0,11.47,7.14,63.91,63.91,0,0,0,13.69,4.51l7.29,1.54h7.62q12.81,0,21.93-3.81A29.77,29.77,0,0,0,300,434.38q4.77-7.26,4.76-17.43v-.15q0-10.85-4.54-17.1A26.28,26.28,0,0,0,288.89,390.62Z" transform="translate(-80.11 -258.34)"/><path class="cls-7" d="M369.93,376a29,29,0,0,0-17.07-5q-10.62,0-18.12,4.18a27.27,27.27,0,0,0-11.43,12.16q-3.92,8-3.92,19.26v8.57q0,10.77,4.1,18.42a27.33,27.33,0,0,0,11.91,11.64l7.8,4h11a39.79,39.79,0,0,0,14.94-3,43.53,43.53,0,0,0,13.33-8.39l-13.11-11.64a24.22,24.22,0,0,1-7.17,4.06,23.2,23.2,0,0,1-8,1.43q-7.83,0-12.19-4.25a14.69,14.69,0,0,1-4.18-9.15h46.62v-5q0-13.41-3.7-22.89T369.93,376Zm-32.27,28.79c.17-4.77,1.48-8.52,4-11.21q4-4.32,11.24-4.32a11.57,11.57,0,0,1,8.9,3.59q3.33,3.58,4.14,10.18l.22,1.76Z" transform="translate(-80.11 -258.34)"/><path class="cls-8" d="M447.64,374.36a39.44,39.44,0,0,0-17-3.34,45.52,45.52,0,0,0-16.56,2.9,29.93,29.93,0,0,0-12,8.09l12.45,12.23a25,25,0,0,1,7.4-3.88,26.4,26.4,0,0,1,8.42-1.39q6.45,0,10,2.85a9.9,9.9,0,0,1,3.51,8.13v3.23H425.45q-13.56,0-20.33,5.64t-6.77,16.92q0,11.86,6,17.68t18.27,5.83a38.64,38.64,0,0,0,10.59-1.43,21.72,21.72,0,0,0,8.35-4.29,11.54,11.54,0,0,0,2.23-2.55v7.17h18.24V399.3a29.89,29.89,0,0,0-3.7-15.28A23.93,23.93,0,0,0,447.64,374.36Zm-7.73,56.87q-3.92,1.83-12,1.83-5.79,0-8.65-1.79a6.08,6.08,0,0,1-2.85-5.53,6.54,6.54,0,0,1,2.27-5.46q2.27-1.8,6.81-1.8h18.31v7C443.83,428.1,442.52,430,439.91,431.23Z" transform="translate(-80.11 -258.34)"/><path class="cls-9" d="M503.49,427.31a5.64,5.64,0,0,1-1.58-4.28V341.65H481.84V428q0,9.58,5.06,14.86t14.21,5.28h10.25V428.81H508A6.27,6.27,0,0,1,503.49,427.31Z" transform="translate(-80.11 -258.34)"/><path class="cls-10" d="M619.14,374.87Q611.78,371,601.38,371t-17.77,3.85a25.86,25.86,0,0,0-11.2,11.21q-3.85,7.35-3.85,17.68v12.38q0,10.47,3.85,17.91a25.93,25.93,0,0,0,11.2,11.31q7.36,3.88,17.77,3.89t17.76-3.89a26,26,0,0,0,11.2-11.24q3.85-7.37,3.85-17.76v-12.6q0-10.32-3.85-17.68A25.86,25.86,0,0,0,619.14,374.87Zm-5,41.49q0,6.45-3.37,10c-2.25,2.37-5.39,3.55-9.45,3.55s-7.17-1.18-9.37-3.55-3.3-5.7-3.3-10v-12.6q0-6.36,3.33-9.88t9.34-3.52c4.06,0,7.2,1.17,9.45,3.52s3.37,5.64,3.37,9.88Z" transform="translate(-80.11 -258.34)"/><path class="cls-11" d="M675.86,361.14a3.66,3.66,0,0,1,3.23-1.62h8.49V341.65H673.67q-9.67,0-14.32,5T654.7,361.8v10.32h-8.06v17.14h8.06v58.89h20.06V389.26h12.82V372.12H674.76v-6.81A7.26,7.26,0,0,1,675.86,361.14Z" transform="translate(-80.11 -258.34)"/><path class="cls-12" d="M272.76,517.27h16.11V519a21.63,21.63,0,0,1-2.19,10,15.21,15.21,0,0,1-6.27,6.48,19.37,19.37,0,0,1-9.48,2.24,21.77,21.77,0,0,1-9.67-2,15,15,0,0,1-6.44-5.86,16.78,16.78,0,0,1-2.27-8.79V489.66a21.37,21.37,0,0,1,2.23-10,15.92,15.92,0,0,1,6.3-6.67,18.53,18.53,0,0,1,9.41-2.34,19.8,19.8,0,0,1,7.07,1.28,17,17,0,0,1,5.93,3.73,14.24,14.24,0,0,1,3.63,5.83H308.8a40.87,40.87,0,0,0-7.29-16.63,36.71,36.71,0,0,0-13.44-11.1,39.67,39.67,0,0,0-17.58-3.91,40.77,40.77,0,0,0-20.36,4.94,34.07,34.07,0,0,0-13.59,13.95,43.77,43.77,0,0,0-4.8,20.88v31.42a38.87,38.87,0,0,0,4.88,19.7,33.21,33.21,0,0,0,13.77,13.15,43.71,43.71,0,0,0,20.54,4.65,40.8,40.8,0,0,0,20.36-5,33.93,33.93,0,0,0,13.59-14,44.06,44.06,0,0,0,4.79-20.91v-20.8H272.76Z" transform="translate(-80.11 -258.34)"/><path class="cls-13" d="M377.83,484.2q-7.36-3.84-17.77-3.85T342.3,484.2a25.86,25.86,0,0,0-11.2,11.21q-3.86,7.35-3.85,17.68v12.38q0,10.49,3.85,17.91a26,26,0,0,0,11.2,11.32q7.36,3.87,17.76,3.88t17.77-3.88A26.11,26.11,0,0,0,389,543.45q3.86-7.35,3.85-17.76v-12.6q0-10.32-3.85-17.68A25.86,25.86,0,0,0,377.83,484.2Zm-5,41.49q0,6.45-3.37,10T360,539.24q-6.08,0-9.37-3.55t-3.3-10v-12.6q0-6.36,3.33-9.88t9.34-3.52q6.08,0,9.45,3.52t3.37,9.88Z" transform="translate(-80.11 -258.34)"/><path class="cls-14" d="M459.56,484.2q-7.35-3.84-17.76-3.85T424,484.2a25.86,25.86,0,0,0-11.2,11.21Q409,502.76,409,513.09v12.38q0,10.49,3.85,17.91A26,26,0,0,0,424,554.7q7.36,3.87,17.76,3.88t17.76-3.88a26.08,26.08,0,0,0,11.21-11.25q3.84-7.35,3.85-17.76v-12.6q0-10.32-3.85-17.68A25.83,25.83,0,0,0,459.56,484.2Zm-5,41.49q0,6.45-3.37,10t-9.45,3.55q-6.08,0-9.38-3.55t-3.29-10v-12.6q0-6.36,3.33-9.88t9.34-3.52q6.07,0,9.45,3.52t3.37,9.88Z" transform="translate(-80.11 -258.34)"/><path class="cls-15" d="M533.94,451v40.36a24,24,0,0,0-6.55-7.36,18.53,18.53,0,0,0-11.1-3.63,22.81,22.81,0,0,0-22.56,15.24,48.11,48.11,0,0,0-3,17.94v12.16a47,47,0,0,0,3,17.76,22.87,22.87,0,0,0,22.56,15.13,19.46,19.46,0,0,0,11.5-3.41,19.26,19.26,0,0,0,6.15-7.31v9.62H554V451Zm-1.32,83.57a9.13,9.13,0,0,1-3.84,4,12.52,12.52,0,0,1-6.12,1.39q-5.64,0-8.75-3.73t-3.11-10.55V513.61q0-7,3.11-10.81a10.62,10.62,0,0,1,8.75-3.84,12.2,12.2,0,0,1,6.12,1.43,9.32,9.32,0,0,1,3.84,4.13,15,15,0,0,1,1.32,6.6v17.06A14.08,14.08,0,0,1,532.62,534.55Z" transform="translate(-80.11 -258.34)"/><polygon class="cls-16" points="183.93 299.09 163.86 299.09 163.86 405.58 172.8 405.58 183.93 405.58 235.2 405.58 235.2 386.25 183.93 386.25 183.93 299.09"/><path class="cls-17" d="M376.87,590.64q-7.37-3.84-17.76-3.84t-17.76,3.84a25.94,25.94,0,0,0-11.21,11.21q-3.84,7.36-3.84,17.69v12.38q0,10.47,3.84,17.9a26,26,0,0,0,11.21,11.32q7.36,3.89,17.76,3.88t17.76-3.88a26.11,26.11,0,0,0,11.21-11.24q3.84-7.36,3.84-17.76v-12.6q0-10.34-3.84-17.69A25.88,25.88,0,0,0,376.87,590.64Zm-5,41.5c0,4.29-1.12,7.63-3.36,10s-5.4,3.56-9.45,3.56-7.18-1.19-9.38-3.56-3.29-5.7-3.29-10v-12.6q0-6.37,3.33-9.89t9.34-3.52q6.07,0,9.45,3.52t3.36,9.89Z" transform="translate(-80.11 -258.34)"/><path class="cls-18" d="M432.28,610.2q4.17-4.07,11.79-4.07a21.8,21.8,0,0,1,7.84,1.43,20.29,20.29,0,0,1,6.52,4l13-12.59a26.25,26.25,0,0,0-7.32-6.59,35.7,35.7,0,0,0-9.93-4.14,46.88,46.88,0,0,0-11.75-1.43q-10.84,0-18.57,4.1a27.47,27.47,0,0,0-11.76,11.9q-4,7.8-4,18.86v8.13q0,11.13,4,19a27.45,27.45,0,0,0,11.76,12l7.73,4.14h10.84a47.53,47.53,0,0,0,11.72-1.39,35.93,35.93,0,0,0,9.88-4.06,27.65,27.65,0,0,0,7.4-6.49l-13-13.33a18.51,18.51,0,0,1-6.45,4.4,20.68,20.68,0,0,1-7.91,1.54q-7.62,0-11.79-4.14t-4.18-11.76v-8.13Q428.1,614.27,432.28,610.2Z" transform="translate(-80.11 -258.34)"/><path class="cls-19" d="M530.57,590.13q-7-3.33-17-3.33A45.43,45.43,0,0,0,497,589.69a30,30,0,0,0-12,8.1L497.47,610a24.79,24.79,0,0,1,7.39-3.89,26.74,26.74,0,0,1,8.43-1.39q6.44,0,10,2.86a9.87,9.87,0,0,1,3.51,8.13V619H508.38q-13.56,0-20.33,5.64t-6.77,16.92q0,11.87,6,17.69T505.6,665a38.19,38.19,0,0,0,10.58-1.43,21.85,21.85,0,0,0,8.35-4.28,11.29,11.29,0,0,0,2.23-2.55v7.16H545V615.07a29.73,29.73,0,0,0-3.7-15.27A24,24,0,0,0,530.57,590.13ZM522.84,647q-3.92,1.83-12,1.83c-3.86,0-6.74-.59-8.64-1.79a6.07,6.07,0,0,1-2.86-5.53,6.55,6.55,0,0,1,2.27-5.46q2.26-1.78,6.81-1.79h18.31v7C526.76,643.88,525.46,645.78,522.84,647Z" transform="translate(-80.11 -258.34)"/><path class="cls-20" d="M590.92,644.59a6.23,6.23,0,0,1-4.5-1.51,5.62,5.62,0,0,1-1.58-4.28V557.43H564.77v86.35q0,9.6,5.06,14.87T584,663.92h10.25V644.59Z" transform="translate(-80.11 -258.34)"/><path class="cls-21" d="M282.79,735.17h16.12v1.76a21.64,21.64,0,0,1-2.2,10,15.19,15.19,0,0,1-6.26,6.48,19.4,19.4,0,0,1-9.49,2.23,21.67,21.67,0,0,1-9.67-2,15,15,0,0,1-6.44-5.86,16.78,16.78,0,0,1-2.27-8.79V707.56a21.37,21.37,0,0,1,2.23-10,16,16,0,0,1,6.3-6.66,18.44,18.44,0,0,1,9.41-2.35,19.81,19.81,0,0,1,7.07,1.29,16.83,16.83,0,0,1,5.93,3.73,14.07,14.07,0,0,1,3.63,5.82h21.68a40.64,40.64,0,0,0-7.29-16.62,36.52,36.52,0,0,0-13.44-11.1,39.68,39.68,0,0,0-17.58-3.92,40.8,40.8,0,0,0-20.36,5,34,34,0,0,0-13.59,14,43.81,43.81,0,0,0-4.79,20.87V739a38.93,38.93,0,0,0,4.87,19.71,33.19,33.19,0,0,0,13.77,13.14A43.71,43.71,0,0,0,281,776.48a40.77,40.77,0,0,0,20.36-4.94,34,34,0,0,0,13.59-14,44,44,0,0,0,4.8-20.91v-20.8H282.79Z" transform="translate(-80.11 -258.34)"/><path class="cls-22" d="M387.86,702.11q-7.37-3.86-17.76-3.85t-17.76,3.85a25.81,25.81,0,0,0-11.21,11.2q-3.84,7.37-3.85,17.69v12.38q0,10.47,3.85,17.91a26,26,0,0,0,11.21,11.31q7.35,3.89,17.76,3.88t17.76-3.88a26,26,0,0,0,11.2-11.24q3.85-7.36,3.85-17.76V731q0-10.32-3.85-17.69A25.79,25.79,0,0,0,387.86,702.11Zm-5,41.49q0,6.43-3.37,10T370,757.15q-6.07,0-9.37-3.55t-3.3-10V731q0-6.37,3.34-9.89T370,717.6q6.09,0,9.45,3.51t3.37,9.89Z" transform="translate(-80.11 -258.34)"/><polygon class="cls-23" points="365.79 488.7 350.12 441.02 330.12 441.02 358.69 517.04 372.9 517.04 401.46 441.02 381.47 441.02 365.79 488.7"/><path class="cls-24" d="M540.17,703.24a29,29,0,0,0-17.07-5q-10.62,0-18.13,4.18a27.27,27.27,0,0,0-11.42,12.15q-3.93,8-3.92,19.27v8.57q0,10.76,4.1,18.42a27.26,27.26,0,0,0,11.9,11.64l7.8,4h11a40,40,0,0,0,14.94-3,43.77,43.77,0,0,0,13.33-8.39l-13.11-11.64a24.36,24.36,0,0,1-7.18,4.06,23.38,23.38,0,0,1-8,1.43q-7.84,0-12.2-4.25a14.73,14.73,0,0,1-4.17-9.15h46.62v-5q0-13.4-3.7-22.88T540.17,703.24ZM507.9,732c.16-4.78,1.47-8.52,4-11.21q4-4.32,11.24-4.32a11.57,11.57,0,0,1,8.9,3.59q3.33,3.58,4.14,10.18l.22,1.76Z" transform="translate(-80.11 -258.34)"/><path class="cls-25" d="M611.43,698.26a18,18,0,0,0-11,3.77,25.44,25.44,0,0,0-6.63,7.64V699.36H572.25v76h21.53v-43q0-7,3.33-10.87t9.41-3.92a15,15,0,0,1,4.91.73,9.24,9.24,0,0,1,3.59,2.2l11.72-16.34a18.9,18.9,0,0,0-6.7-4.43A23.57,23.57,0,0,0,611.43,698.26Z" transform="translate(-80.11 -258.34)"/><path class="cls-26" d="M675.08,698.26A19.57,19.57,0,0,0,663,701.85a25.74,25.74,0,0,0-6.7,7.87V699.36H636.26v76h20.07V729.46c0-3.76,1-6.67,3-8.75s4.89-3.11,8.6-3.11q5.87,0,9,3.07c2.12,2.05,3.18,4.94,3.18,8.65v46.06h20.07V729.24q0-14.79-6.59-22.89T675.08,698.26Z" transform="translate(-80.11 -258.34)"/><path class="cls-27" d="M765.68,701.59q-7-3.33-17-3.33a45.69,45.69,0,0,0-16.56,2.89,30,30,0,0,0-12,8.1l12.45,12.23a24.72,24.72,0,0,1,7.4-3.88,26.4,26.4,0,0,1,8.42-1.39q6.45,0,10,2.85a9.88,9.88,0,0,1,3.52,8.13v3.22H743.49q-13.56,0-20.33,5.64T716.39,753q0,11.87,6,17.69t18.27,5.82a38.26,38.26,0,0,0,10.59-1.43,21.92,21.92,0,0,0,8.35-4.28,11.81,11.81,0,0,0,2.23-2.55v7.16h18.24V726.53a29.88,29.88,0,0,0-3.7-15.27A24,24,0,0,0,765.68,701.59ZM758,758.47q-3.91,1.83-12,1.83-5.79,0-8.65-1.8a6.07,6.07,0,0,1-2.85-5.53,6.49,6.49,0,0,1,2.27-5.45q2.26-1.8,6.81-1.8h18.31v7Q761.87,756.64,758,758.47Z" transform="translate(-80.11 -258.34)"/><path class="cls-28" d="M838.7,698.26a19.59,19.59,0,0,0-12.05,3.59,26,26,0,0,0-6.7,7.87V699.36H799.88v76H820V729.46c0-3.76,1-6.67,3-8.75s4.89-3.11,8.61-3.11q5.85,0,9,3.07c2.12,2.05,3.19,4.94,3.19,8.65v46.06H863.9V729.24q0-14.79-6.6-22.89T838.7,698.26Z" transform="translate(-80.11 -258.34)"/><path class="cls-29" d="M905.72,721.66q4.17-4.06,11.79-4.06a21.62,21.62,0,0,1,7.84,1.43,20,20,0,0,1,6.51,4l13-12.6a26.29,26.29,0,0,0-7.33-6.59,35.63,35.63,0,0,0-9.92-4.14,47,47,0,0,0-11.76-1.43q-10.83,0-18.56,4.1a27.47,27.47,0,0,0-11.76,11.9q-4,7.8-4,18.86v8.13q0,11.14,4,19a27.55,27.55,0,0,0,11.76,12.05l7.72,4.13h10.84a47.48,47.48,0,0,0,11.72-1.39,35.57,35.57,0,0,0,9.89-4.06,27.48,27.48,0,0,0,7.4-6.49l-13-13.33a18.38,18.38,0,0,1-6.44,4.4,20.68,20.68,0,0,1-7.91,1.54q-7.62,0-11.79-4.14t-4.18-11.76v-8.13Q901.54,725.73,905.72,721.66Z" transform="translate(-80.11 -258.34)"/><path class="cls-30" d="M1021.22,740.59q0-13.4-3.7-22.88t-10.8-14.47a29,29,0,0,0-17.07-5q-10.62,0-18.13,4.18a27.27,27.27,0,0,0-11.42,12.15q-3.92,8-3.92,19.27v8.57q0,10.76,4.1,18.42a27.31,27.31,0,0,0,11.9,11.64l7.8,4h11a40,40,0,0,0,14.94-3,43.65,43.65,0,0,0,13.33-8.39l-13.11-11.64a24.36,24.36,0,0,1-7.18,4.06,23.34,23.34,0,0,1-8,1.43q-7.83,0-12.19-4.25a14.69,14.69,0,0,1-4.18-9.15h46.62ZM974.45,732c.17-4.78,1.48-8.52,4-11.21q4-4.32,11.24-4.32a11.57,11.57,0,0,1,8.9,3.59q3.33,3.58,4.14,10.18l.22,1.76Z" transform="translate(-80.11 -258.34)"/></g><g id="star"><polygon class="cls-31" points="78.45 291.51 86.84 317.31 113.97 317.31 92.02 333.26 100.4 359.06 78.45 343.12 56.51 359.06 64.89 333.26 42.94 317.31 70.07 317.31 78.45 291.51"/><polygon class="cls-31" points="124.59 394.02 132.97 419.82 160.1 419.82 138.16 435.77 146.54 461.57 124.59 445.63 102.64 461.57 111.03 435.77 89.08 419.82 116.21 419.82 124.59 394.02"/><polygon class="cls-31" points="308.42 434.64 315.11 455.21 336.74 455.21 319.24 467.93 325.93 488.51 308.42 475.79 290.92 488.51 297.61 467.93 280.1 455.21 301.74 455.21 308.42 434.64"/></g></svg>