<svg xmlns="http://www.w3.org/2000/svg" width="480.203" height="543.314" viewBox="0 0 480.203 543.314">
  <g id="Logo_Seal" data-name="Logo Seal" transform="translate(-329.011 -172.465)">
    <g id="Group_529" data-name="Group 529" transform="matrix(0.848, 0.53, -0.53, 0.848, 431.854, -225.004)">
      <path id="Path_661" data-name="Path 661" d="M1262.525,1566.7h-19.393a2.556,2.556,0,0,0-2.525,2.526v13.39a2.565,2.565,0,0,0,2.525,2.526h1.487v4.338a2.61,2.61,0,0,0,.739,1.787,2.532,2.532,0,0,0,3.575,0,2.618,2.618,0,0,0,.739-1.787v-4.341h6.87v4.455a2.608,2.608,0,0,0,.739,1.787,2.531,2.531,0,0,0,3.574,0,2.619,2.619,0,0,0,.74-1.787v-4.455h.931a2.565,2.565,0,0,0,2.526-2.526v-13.39A2.565,2.565,0,0,0,1262.525,1566.7Zm-16.867,13.392v-8.336H1260v8.336h-14.341Z" transform="translate(-578.839 -956.475)" fill="#e4e4e4"/>
      <path id="Path_662" data-name="Path 662" d="M1261.8,1498.066a15.694,15.694,0,0,0-1.168-2.381,30.57,30.57,0,0,0-3.255-4.278,62.108,62.108,0,0,0-6.343-6.12c-.474-.4-.947-.8-1.437-1.184a2.538,2.538,0,0,0-1.787-.739,2.577,2.577,0,0,0-1.788.739c-1.367,1.077-2.674,2.236-3.949,3.417a42.516,42.516,0,0,0-6.772,7.673,14.015,14.015,0,0,0-1.14,2.068,10.561,10.561,0,0,0-.881,3.135,2.51,2.51,0,0,0,.738,1.787,2.625,2.625,0,0,0,1.788.739h24.011a2.577,2.577,0,0,0,1.788-.739,2.434,2.434,0,0,0,.739-1.787A9.066,9.066,0,0,0,1261.8,1498.066Zm-22.222-.192c.279-.433.575-.852.881-1.263a52.552,52.552,0,0,1,7.36-7.461,64.164,64.164,0,0,1,4.888,4.642c.849.893,1.667,1.822,2.431,2.791.315.42.619.849.9,1.292h-16.463Z" transform="translate(-573.824 -899.452)" fill="#e4e4e4"/>
      <path id="Path_663" data-name="Path 663" d="M1373.1,1566.7h-19.393a2.564,2.564,0,0,0-2.526,2.526v13.391a2.564,2.564,0,0,0,2.526,2.525h1.209v4.456a2.608,2.608,0,0,0,.739,1.787,2.532,2.532,0,0,0,3.574,0,2.616,2.616,0,0,0,.739-1.787v-4.456h6.871v4.339a2.606,2.606,0,0,0,.739,1.787,2.529,2.529,0,0,0,3.574,0,2.615,2.615,0,0,0,.739-1.787v-4.341h1.209a2.565,2.565,0,0,0,2.526-2.526v-13.391A2.556,2.556,0,0,0,1373.1,1566.7Zm-16.867,13.391v-8.337h14.341v8.337h-14.341Z" transform="translate(-654.502 -956.47)" fill="#e4e4e4"/>
      <path id="Path_664" data-name="Path 664" d="M1372.374,1498.066a15.737,15.737,0,0,0-1.168-2.381,30.624,30.624,0,0,0-3.255-4.278,62.236,62.236,0,0,0-6.343-6.12c-.474-.4-.947-.8-1.436-1.184a2.539,2.539,0,0,0-1.788-.739,2.574,2.574,0,0,0-1.787.739c-1.367,1.077-2.674,2.236-3.95,3.417a42.536,42.536,0,0,0-6.773,7.673,14.06,14.06,0,0,0-1.14,2.068,10.574,10.574,0,0,0-.88,3.135,2.506,2.506,0,0,0,.739,1.787,2.624,2.624,0,0,0,1.787.739h24.012a2.573,2.573,0,0,0,1.786-.739,2.428,2.428,0,0,0,.739-1.787A9.052,9.052,0,0,0,1372.374,1498.066Zm-22.221-.192c.277-.433.574-.852.881-1.263a52.5,52.5,0,0,1,7.359-7.461,64.166,64.166,0,0,1,4.888,4.642c.849.893,1.667,1.822,2.431,2.791.316.42.619.849.9,1.292h-16.463Z" transform="translate(-649.482 -899.452)" fill="#e4e4e4"/>
      <path id="Path_665" data-name="Path 665" d="M1483.665,1566.7h-19.392a2.557,2.557,0,0,0-2.526,2.526v13.39a2.565,2.565,0,0,0,2.526,2.526h1.209v4.338a2.609,2.609,0,0,0,.739,1.787,2.531,2.531,0,0,0,3.574,0,2.616,2.616,0,0,0,.739-1.787v-4.341h6.871v4.455a2.606,2.606,0,0,0,.739,1.787,2.531,2.531,0,0,0,3.574,0,2.616,2.616,0,0,0,.739-1.787v-4.455h1.209a2.565,2.565,0,0,0,2.526-2.526v-13.39A2.565,2.565,0,0,0,1483.665,1566.7Zm-16.867,13.392v-8.336h14.341v8.336H1466.8Z" transform="translate(-730.155 -956.475)" fill="#e4e4e4"/>
      <path id="Path_666" data-name="Path 666" d="M1482.934,1498.066a15.74,15.74,0,0,0-1.168-2.381,30.656,30.656,0,0,0-3.256-4.278,62.13,62.13,0,0,0-6.343-6.12c-.474-.4-.947-.8-1.437-1.184a2.538,2.538,0,0,0-1.787-.739,2.574,2.574,0,0,0-1.787.739c-1.367,1.077-2.675,2.236-3.95,3.417a42.491,42.491,0,0,0-6.772,7.673,14,14,0,0,0-1.141,2.068,10.556,10.556,0,0,0-.881,3.135,2.507,2.507,0,0,0,.739,1.787,2.623,2.623,0,0,0,1.787.739h24.013a2.574,2.574,0,0,0,1.787-.739,2.431,2.431,0,0,0,.739-1.787A8.976,8.976,0,0,0,1482.934,1498.066Zm-22.219-.192c.278-.433.575-.852.881-1.263a52.519,52.519,0,0,1,7.36-7.461,64.21,64.21,0,0,1,4.888,4.642c.849.893,1.667,1.822,2.431,2.791.315.42.619.849.9,1.292h-16.464Z" transform="translate(-725.134 -899.452)" fill="#e4e4e4"/>
    </g>
    <path id="Path_668" data-name="Path 668" d="M610.741,1637.158c-.032-.007.016.009.211.066l-.054-.019Z" transform="translate(-147.843 -1004.685)" fill="#e4e4e4"/>
    <path id="Path_669" data-name="Path 669" d="M655.473,1646.171c.053.023.107.042.161.064l-.234-.1c.022.01.041.02.063.029A.013.013,0,0,1,655.473,1646.171Z" transform="translate(-178.408 -1010.834)" fill="#e4e4e4"/>
    <g id="Group_530" data-name="Group 530" transform="translate(-3 40)">
      <path id="Path_667" data-name="Path 667" d="M868.055,1635.88c-6.574-.78-12.853,1.529-19.111,3.145a47.48,47.48,0,0,1-4.932,1.026,34.378,34.378,0,0,1-8.392-.085,83.8,83.8,0,0,1-9.226-1.983c-3.17-.831-6.347-1.828-9.583-2.375a33.718,33.718,0,0,0-6.119-.476,2.526,2.526,0,1,0,0,5.052,32,32,0,0,1,4.218.215,81.955,81.955,0,0,1,8.841,2.113c3.015.8,6.04,1.585,9.115,2.109a40.129,40.129,0,0,0,9.737.632,50.24,50.24,0,0,0,9.6-1.869,80.745,80.745,0,0,1,9.879-2.4,25.439,25.439,0,0,1,5.968-.051,2.527,2.527,0,0,0,1.787-4.313A2.93,2.93,0,0,0,868.055,1635.88Z" transform="translate(-291.937 -989.298)" fill="#e4e4e4"/>
      <path id="Path_670" data-name="Path 670" d="M541.41,1472.457a124.3,124.3,0,0,1-12.472,2.564,50.759,50.759,0,0,1-12.778.161,34.8,34.8,0,0,1-7.991-2.1c.1.044-.063-.019-.161-.063,0,0-.006,0-.009,0-.063-.024-.126-.054-.192-.079l.126.051c-.133-.057-.262-.117-.392-.174-.353-.161-.7-.328-1.051-.505-.65-.328-1.288-.685-1.914-1.064a41.312,41.312,0,0,1-3.514-2.488,30.324,30.324,0,0,0-3.489-2.412,13.666,13.666,0,0,0-5.09-1.686c-3.315-.41-6.6.688-9.662,1.841-1.686.634-3.362,1.275-5.1,1.761a39.007,39.007,0,0,1-4.916,1.03,39.868,39.868,0,0,1-9.848,0,38.9,38.9,0,0,1-4.524-.925c-.379-.1-.758-.212-1.137-.326-.155-.047-.306-.1-.461-.145q-.18-.133-.369-.256a12.025,12.025,0,0,1-1.064-1.137,15.093,15.093,0,0,1-1.547-2.7,34.183,34.183,0,0,1-1.936-8.013,61.584,61.584,0,0,1-.325-12.646c.085-1.1.2-2.2.344-3.29a65.413,65.413,0,0,1,3.116-12.706c.388-1.092.808-2.169,1.253-3.24a64.133,64.133,0,0,1,5.952-10.864c.609-.891,1.244-1.762,1.9-2.621q1.463-1.875,3.069-3.628a49.269,49.269,0,0,1-.328,8.494,50.039,50.039,0,0,1-3.3,12.074,48.668,48.668,0,0,1-4.142,7.625,2.546,2.546,0,0,0,.906,3.457,2.588,2.588,0,0,0,3.457-.907,50.7,50.7,0,0,0,6.252-13.255,51.921,51.921,0,0,0,2.273-14.5c0-.193,0-.382,0-.575a31.92,31.92,0,0,1,3.281,5.8,32.488,32.488,0,0,1,2.068,7.558,30.717,30.717,0,0,1,.013,7.382,29.391,29.391,0,0,1-.581,2.914A2.527,2.527,0,0,0,482,1434.2a33.1,33.1,0,0,0,.224-14.947,33.632,33.632,0,0,0-5.866-13.09q-1.085-1.449-2.3-2.779a15.5,15.5,0,0,1,2.138.676,16,16,0,0,1,2.886,1.686,15.021,15.021,0,0,1,2.188,2.178,13.706,13.706,0,0,1,1.519,2.627,2.528,2.528,0,0,0,1.509,1.162,2.53,2.53,0,0,0,3.107-1.765,2.931,2.931,0,0,0-.256-1.945,16.631,16.631,0,0,0-5.848-6.864,17.943,17.943,0,0,0-8.5-3.053,15.411,15.411,0,0,0-4.225.186,23.026,23.026,0,0,0-21.151-4.225,22.96,22.96,0,0,0-6.29,2.962,2.7,2.7,0,0,0-1.162,1.51,2.528,2.528,0,0,0,3.713,2.851,20.673,20.673,0,0,1,3.306-1.825,21.47,21.47,0,0,1,4.679-1.272,20.611,20.611,0,0,1,4.708,0,21.341,21.341,0,0,1,4.625,1.266c.1.044.2.085.294.129-.17.028-.338.054-.508.088a24.588,24.588,0,0,0-7.748,2.975,24.181,24.181,0,0,0-5.819,4.872,31.615,31.615,0,0,0-4.48,6.545,20.372,20.372,0,0,0-2.422,8.487,2.546,2.546,0,0,0,2.526,2.526,2.575,2.575,0,0,0,2.526-2.526c.01-.316.035-.632.07-.947a17.9,17.9,0,0,1,1.07-3.72,28.257,28.257,0,0,1,3.353-5.67,24.688,24.688,0,0,1,3.868-3.96,22.327,22.327,0,0,1,4.244-2.466,22.99,22.99,0,0,1,4.48-1.3,65.649,65.649,0,0,0-5.4,7.192,67.3,67.3,0,0,0-10.2,28.348,62.038,62.038,0,0,0-.117,14.6c.6,5.371,1.569,11.038,5.071,15.351a11.534,11.534,0,0,0,1.269,1.327,2.438,2.438,0,0,0,.262.2,3,3,0,0,0,.249.189l.6.411a5.259,5.259,0,0,0,1.471.628c1.152.36,2.324.663,3.5.912a42.8,42.8,0,0,0,7.862.916,41.471,41.471,0,0,0,15.045-2.488,43.1,43.1,0,0,1,7.755-2.457,12.089,12.089,0,0,1,2.283-.025,16.009,16.009,0,0,1,1.736.477l.158.047c.063.019.126.042.193.061-.054-.016-.1-.029-.139-.042.06.023.123.045.17.067.168.079.332.164.5.25.37.2.733.41,1.086.634,1.342.85,2.573,1.857,3.843,2.807a31.622,31.622,0,0,0,9.141,4.691c6.937,2.267,14.322,2.226,21.48,1.229a123.724,123.724,0,0,0,12.484-2.57,2.553,2.553,0,0,0,1.765-3.106A2.6,2.6,0,0,0,541.41,1472.457Z" transform="translate(-72.943 -815.681)" fill="#e4e4e4"/>
      <path id="Path_671" data-name="Path 671" d="M708.588,1558.212c-5.216-.951-10.372-.285-15.528.726-2.438.476-4.863,1.01-7.313,1.42-.568.1-1.14.186-1.711.269l-.332.047c-.032,0-.066.009-.107.012-.332.042-.66.079-.991.117-1.156.123-2.318.205-3.483.23a28.049,28.049,0,0,1-3.454-.132c-.136-.013-.272-.032-.411-.048a.028.028,0,0,1-.016,0c-.281-.051-.565-.091-.846-.145-.6-.117-1.2-.259-1.784-.429-2.343-.683-4.632-1.566-6.962-2.289a62.589,62.589,0,0,0-14.761-2.977,34.154,34.154,0,0,0-14.139,2.2c-1.02.385-2.024.8-3.028,1.218q-.947.4-1.894.8c-.249.107-.5.211-.752.318-.268.114.025-.01.066-.028-.18.075-.357.151-.537.225a46.922,46.922,0,0,1-6.21,2.19c-.518.137-1.042.256-1.566.361-.227.044-.452.085-.679.123-.129.022-.259.041-.388.06l-.085.01a23.505,23.505,0,0,1-3.621.1c-.543-.029-1.083-.08-1.626-.139l-.082-.01-.37-.057c-.331-.054-.663-.111-.991-.176a36.417,36.417,0,0,1-3.562-.894c-1.14-.344-2.264-.739-3.375-1.162-.556-.211-1.108-.433-1.658-.661-.117-.047-.233-.1-.354-.145l-.044-.019-.057-.025-.922-.4c-2.179-.955-4.329-1.964-6.514-2.9a44.7,44.7,0,0,0-13.893-3.988,22.03,22.03,0,0,0-12.626,2.5,18.391,18.391,0,0,0-2.757,1.971,2.536,2.536,0,0,0,0,3.571,2.592,2.592,0,0,0,3.571,0c.094-.079.193-.158.287-.237.183-.133.366-.265.553-.391.407-.272.83-.525,1.263-.755.215-.114.436-.224.657-.328.117-.054.442-.186.442-.19.4-.151.8-.3,1.212-.423a18.881,18.881,0,0,1,2.7-.6c.07-.006.407-.044.5-.054.249-.021.5-.044.752-.057.5-.028,1.007-.043,1.509-.041s1.011.022,1.512.054c.253.015.5.037.755.063.107.01.215.022.322.032l.3.034c.12.02.36.054.417.063.246.042.492.087.739.13.587.114,1.175.246,1.755.392a48.634,48.634,0,0,1,6.6,2.238l.531.222c.2.085.395.167.59.252q.862.374,1.718.758c1.067.476,2.128.96,3.2,1.44,2.276,1.02,4.572,2.014,6.924,2.848a31.224,31.224,0,0,0,14.783,1.885,30.6,30.6,0,0,0,6.226-1.629c1.017-.373,2.024-.777,3.025-1.194.631-.262,1.263-.53,1.894-.8l.644-.275.429-.183c.019-.009.041-.016.057-.025a56.688,56.688,0,0,1,6.094-2.248,28.562,28.562,0,0,1,3.325-.751c.152-.026.306-.047.461-.07.294-.031.587-.067.881-.094q.881-.081,1.765-.11a34.367,34.367,0,0,1,3.666.07c.55.037,1.1.088,1.645.147.126.013.253.029.379.045l.319.041c.066.01.142.02.149.02.211.031.423.063.632.1a63.144,63.144,0,0,1,7.047,1.579c2.337.65,4.642,1.4,6.94,2.172a33.321,33.321,0,0,0,7.164,1.752c4.828.524,9.756-.316,14.483-1.247,2.4-.474,4.79-1,7.205-1.4.3-.05.6-.1.9-.141l.388-.057.164-.022.328-.042c.129-.015.259-.032.388-.044.347-.038.692-.073,1.039-.1a31.5,31.5,0,0,1,3.621-.117c.6.019,1.2.057,1.8.117.076.006.4.044.464.05.3.045.606.1.906.152a2.583,2.583,0,0,0,3.107-1.765A2.546,2.546,0,0,0,708.588,1558.212Zm-92.234,4.231c-.385-.044-.111-.016,0,0Zm5.427.037Zm13.321.808Zm48.659-2.624Z" transform="translate(-148.939 -930.368)" fill="#e4e4e4"/>
      <path id="Path_672" data-name="Path 672" d="M650.822,1430.155c.35.028.7.069,1.048.114a21.76,21.76,0,0,1,4.878,1.345c2.681,1.18,5.222,2.718,8.052,3.536a21.786,21.786,0,0,0,7.625.749c5.036-.373,9.785-2.062,14.571-3.527a51.261,51.261,0,0,1,7.578-1.831,22.7,22.7,0,0,1,5.241-.051,18.917,18.917,0,0,1,2.826.66,2.546,2.546,0,0,0,3.107-1.765,2.583,2.583,0,0,0-1.765-3.106,25.1,25.1,0,0,0-12.74-.262,78.215,78.215,0,0,0-7.688,2.138c.414-.906.787-1.831,1.146-2.753a47.887,47.887,0,0,0,2.365-8.036,34.569,34.569,0,0,0,.6-10.991,24.536,24.536,0,0,0-1.383-5.875,22.9,22.9,0,0,0-3.394-5.952c-3.129-3.969-7.688-6.549-12.406-8.174-.682-.238-1.374-.449-2.068-.645a2.542,2.542,0,0,0-2.854,3.713,18.264,18.264,0,0,1,1.652,3.113,24.592,24.592,0,0,1,1.55,5.589,20.733,20.733,0,0,1,.012,4.764,19.636,19.636,0,0,1-1.162,4.246,21.531,21.531,0,0,1-2.4,4.086,28.181,28.181,0,0,1-3.994,4.083,2.436,2.436,0,0,0-.65,1.115,2.562,2.562,0,0,0,2.434,3.2,26.064,26.064,0,0,1,2.9.227,28.489,28.489,0,0,1,6.58,1.686,16.012,16.012,0,0,1,3.056,1.74,11.074,11.074,0,0,1,1.471,1.462,9.325,9.325,0,0,1,.837,1.427,9.479,9.479,0,0,1,.477,1.794,4.739,4.739,0,0,0,.082.534,2.394,2.394,0,0,0,.483,1.07,42.673,42.673,0,0,1-5.245,1.152,22.5,22.5,0,0,1-5.238.051,18.262,18.262,0,0,1-3.994-1.1c-2.122-.928-4.155-2.046-6.3-2.93a24.43,24.43,0,0,0-7.3-1.646,2.528,2.528,0,0,0-1.787,4.313A2.874,2.874,0,0,0,650.822,1430.155Zm24.931-12.649a27.89,27.89,0,0,0-7.25-2.318,23.683,23.683,0,0,0,3.107-4.7,22.5,22.5,0,0,0,2.324-8.778,24.308,24.308,0,0,0-1.288-8.973,24.691,24.691,0,0,1,3.357,2.081,20.067,20.067,0,0,1,3.2,3.167,19,19,0,0,1,2.15,3.71,21.736,21.736,0,0,1,1.269,4.78,30.588,30.588,0,0,1-.066,7.408,44.318,44.318,0,0,1-1.781,7.521c-.069-.088-.136-.177-.208-.262A14.63,14.63,0,0,0,675.753,1417.506Z" transform="translate(1947.841 1178.263) rotate(137)" fill="#e4e4e4"/>
    </g>
    <g id="Group_538" data-name="Group 538" transform="translate(14 50)">
      <path id="Path_673" data-name="Path 673" d="M979,291.246a25.592,25.592,0,0,0-14.821-25.089,26.968,26.968,0,0,0-8.011-2.21,25.6,25.6,0,0,0-28.031,21.319,28.348,28.348,0,0,0-.354,4.164,25.571,25.571,0,0,0,4.648,14.711,26.243,26.243,0,0,0,12.352,9.431,25.582,25.582,0,0,0,28.3-7.688,27.031,27.031,0,0,0,4.158-6.975A25.333,25.333,0,0,0,979,291.246Zm-5.146.941a20.588,20.588,0,0,1-17.66,17.659,23.726,23.726,0,0,1-5.519,0,20.587,20.587,0,0,1-17.66-17.662,22.868,22.868,0,0,1,0-5.519A20.588,20.588,0,0,1,950.671,269a23.726,23.726,0,0,1,5.519,0,20.589,20.589,0,0,1,17.66,17.659A23.819,23.819,0,0,1,973.85,292.187Z" transform="translate(-364.786 -64.947)" fill="#e4e4e4"/>
      <path id="Path_674" data-name="Path 674" d="M1003.526,191.265a2.571,2.571,0,0,0,2.526-2.526V171.4a2.526,2.526,0,1,0-5.051,0v17.337A2.552,2.552,0,0,0,1003.526,191.265Z" transform="translate(-414.888 0)" fill="#e4e4e4"/>
      <path id="Path_675" data-name="Path 675" d="M1085.385,234.728l4.155-4.155,6.589-6.59,1.516-1.516a2.525,2.525,0,1,0-3.571-3.571l-4.155,4.155-6.589,6.589-1.515,1.516a2.525,2.525,0,1,0,3.571,3.571Z" transform="translate(-469.688 -33.735)" fill="#e4e4e4"/>
      <path id="Path_676" data-name="Path 676" d="M1130.449,336.99h-13.737a2.526,2.526,0,1,0,0,5.052h13.737a2.526,2.526,0,1,0,0-5.052Z" transform="translate(-492.334 -115.035)" fill="#e4e4e4"/>
      <path id="Path_677" data-name="Path 677" d="M1093.493,425.889,1086.9,419.3l-1.516-1.516a2.525,2.525,0,0,0-3.571,3.571l4.156,4.155,6.589,6.589,1.516,1.516a2.525,2.525,0,0,0,3.571-3.571Z" transform="translate(-469.694 -169.822)" fill="#e4e4e4"/>
      <path id="Path_678" data-name="Path 678" d="M1003.526,450.176A2.571,2.571,0,0,0,1001,452.7v17.337a2.526,2.526,0,1,0,5.051,0V452.7A2.554,2.554,0,0,0,1003.526,450.176Z" transform="translate(-414.888 -192.482)" fill="#e4e4e4"/>
      <path id="Path_679" data-name="Path 679" d="M895.164,417.807l-4.155,4.155-6.589,6.59-1.515,1.516a2.525,2.525,0,0,0,3.571,3.571l4.155-4.155,6.589-6.59,1.515-1.516a2.525,2.525,0,0,0-3.571-3.571Z" transform="translate(-333.582 -169.841)" fill="#e4e4e4"/>
      <path id="Path_680" data-name="Path 680" d="M852.759,342.042a2.526,2.526,0,0,0,0-5.052H835.421a2.526,2.526,0,0,0,0,5.052h17.338Z" transform="translate(-299.859 -115.035)" fill="#e4e4e4"/>
      <path id="Path_681" data-name="Path 681" d="M887.072,226.62l6.589,6.59,1.516,1.516a2.525,2.525,0,1,0,3.571-3.571L894.593,227,888,220.41l-1.516-1.516a2.525,2.525,0,1,0-3.571,3.571Q885,224.539,887.072,226.62Z" transform="translate(-333.595 -33.729)" fill="#e4e4e4"/>
    </g>
    <g id="Group_535" data-name="Group 535" transform="matrix(0.848, 0.53, -0.53, 0.848, 347.274, -288.085)">
      <path id="Path_682" data-name="Path 682" d="M1394.219,669.976q-1.658-4.215-3.318-8.433-2.649-6.721-5.292-13.438l-1.213-3.082c-.01-.025-.022-.051-.031-.073a2.6,2.6,0,0,0-.224-.531,2.686,2.686,0,0,0-.474-.578,1.824,1.824,0,0,0-.17-.145h0c-.044-.035-.094-.07-.142-.1s-.07-.048-.1-.067l-.016-.009-.019-.01a2.054,2.054,0,0,0-.584-.243c-.082-.019-.164-.035-.25-.047a2.439,2.439,0,0,0-.957.013,2.06,2.06,0,0,0-.742.291c-.038.025-.076.053-.11.079a2.224,2.224,0,0,0-.8.827,3.4,3.4,0,0,0-.22.524c-.01.025-.023.051-.032.079q-1.657,4.215-3.318,8.433-2.648,6.72-5.292,13.438-.606,1.539-1.213,3.082a2.382,2.382,0,0,0,.452,2.2,2.477,2.477,0,0,0,1.983.995h7.3v28.638c0,1.431-.029,2.861,0,4.291v.06a2.526,2.526,0,1,0,5.052,0V675.341c0-.717.006-1.436.009-2.156h7.288a2.473,2.473,0,0,0,1.982-.995A2.416,2.416,0,0,0,1394.219,669.976Zm-9.081-1.856h-9.308q1.033-2.619,2.062-5.235,2.032-5.167,4.067-10.334c.293.748.591,1.5.885,2.245q2.623,6.66,5.244,13.321C1387.106,668.12,1386.12,668.12,1385.139,668.12Z" transform="translate(-667.096 -324.548)" fill="#e4e4e4"/>
      <path id="Path_683" data-name="Path 683" d="M1322.34,770.146q-2.643-6.721-5.291-13.438-.607-1.539-1.213-3.081c-.01-.025-.022-.05-.031-.073a2.578,2.578,0,0,0-.224-.53,2.676,2.676,0,0,0-.474-.578c-.054-.051-.111-.1-.171-.145h0c-.044-.035-.094-.07-.142-.1l-.1-.07-.016-.009-.019-.009a2.031,2.031,0,0,0-.584-.243c-.082-.019-.164-.035-.249-.047a2.446,2.446,0,0,0-.957.013,2.07,2.07,0,0,0-.742.29c-.038.026-.072.054-.11.079a2.222,2.222,0,0,0-.8.828,3.375,3.375,0,0,0-.221.524c-.009.025-.022.05-.032.079q-1.658,4.215-3.318,8.434-2.648,6.721-5.292,13.438-.606,1.539-1.212,3.081a2.383,2.383,0,0,0,.451,2.2,2.478,2.478,0,0,0,1.983.994h7.3v28.638c0,1.43-.028,2.861,0,4.291v.06a2.526,2.526,0,0,0,5.052,0V783.941c0-.716.006-1.436.01-2.157h7.287a2.474,2.474,0,0,0,1.983-.994,2.385,2.385,0,0,0,.451-2.2Q1324,774.355,1322.34,770.146Zm-5.762,6.577h-9.308q1.033-2.619,2.062-5.235,2.032-5.167,4.067-10.334c.293.748.591,1.5.884,2.245q2.624,6.659,5.245,13.321Q1318.054,776.724,1316.578,776.723Z" transform="translate(-620.184 -398.859)" fill="#e4e4e4"/>
    </g>
    <g id="Group_537" data-name="Group 537" transform="matrix(0.839, -0.545, 0.545, 0.839, -107.867, 315.605)">
      <path id="Path_684" data-name="Path 684" d="M641.042,244.274a2.836,2.836,0,0,0,1.847.268,10.97,10.97,0,0,1,2.3-.009,11.8,11.8,0,0,1,2.276.625,12.093,12.093,0,0,1,2.011,1.171,11.1,11.1,0,0,1,1.471,1.465c.1.139.2.275.3.417a2.585,2.585,0,0,0,2.182,1.25,2.539,2.539,0,0,0,2.182-1.25c.139-.243.3-.477.458-.7a9.2,9.2,0,0,1,1.111-1.105,7.226,7.226,0,0,1,3.442-1.43,9.7,9.7,0,0,1,1.765,0,8.878,8.878,0,0,1,1.3.344,2.54,2.54,0,0,0,3.107-1.765,2.585,2.585,0,0,0-1.765-3.107,11.882,11.882,0,0,0-11.654,2.6,13.006,13.006,0,0,0-3.568-2.349,15.217,15.217,0,0,0-4.269-1.178,13.163,13.163,0,0,0-3.887.142,2.521,2.521,0,0,0-1.509,1.162,2.583,2.583,0,0,0-.256,1.945A2.531,2.531,0,0,0,641.042,244.274Z" transform="translate(-167.727 -48.277)" fill="#e4e4e4"/>
      <path id="Path_685" data-name="Path 685" d="M731.8,282.164a2.731,2.731,0,0,0,1.6.3c-.035,0-.069.009-.1.013a3.335,3.335,0,0,1,1.917.208,6.209,6.209,0,0,1,.676.388,5.628,5.628,0,0,1,.631.628c0,.006.01.013.013.019a2.59,2.59,0,0,0,2.181,1.25,2.551,2.551,0,0,0,2.182-1.25c.041-.069.088-.136.133-.2a4.9,4.9,0,0,1,.362-.363,2.415,2.415,0,0,1,1.14-.48,4.915,4.915,0,0,1,.527,0,4.587,4.587,0,0,1,.534.145,2.545,2.545,0,0,0,3.107-1.765,2.587,2.587,0,0,0-1.765-3.107,7.159,7.159,0,0,0-6.233.944,7.148,7.148,0,0,0-1.228-.7,8.146,8.146,0,0,0-2.141-.672,9.055,9.055,0,0,0-2.933.031,2.522,2.522,0,0,0-1.509,1.162,2.582,2.582,0,0,0-.256,1.945A2.539,2.539,0,0,0,731.8,282.164Z" transform="translate(-229.831 -74.267)" fill="#e4e4e4"/>
      <path id="Path_686" data-name="Path 686" d="M476.007,419.005a16.389,16.389,0,0,0,6.719,1.3c4.733-.006,9.469-.013,14.205-.069q4-.047,8-.133c2.674-.057,5.355-.079,8.029-.205a16.543,16.543,0,0,0,5.825-1.184,8.09,8.09,0,0,0,4.067-3.928,9.6,9.6,0,0,0-3.151-12.2,8.719,8.719,0,0,0-3.5-1.5,10.034,10.034,0,0,0-2.3-.2c-.2.009-.385.028-.578.05a10.08,10.08,0,0,0-.976-1.964,9.677,9.677,0,0,0-10.533-4.079c-.092.022-.18.057-.268.082-.155-.382-.319-.761-.5-1.127a12.231,12.231,0,0,0-1.825-2.6,11.262,11.262,0,0,0-1.541-1.411q.4-2.1.805-4.2.63-3.287,1.263-6.574.767-3.988,1.531-7.979.838-4.362,1.673-8.724.843-4.4,1.686-8.787.782-4.083,1.566-8.168.663-3.443,1.323-6.889.469-2.434.935-4.866c.139-.729.284-1.462.42-2.191q.043-.218.1-.426c.013-.022.022-.044.035-.066s.038-.044.06-.066.066-.044.1-.063.088-.025.133-.035.063,0,.095,0,.07.022.1.035c.373.205.723.458,1.093.672a5.576,5.576,0,0,0,5.336.107c.938-.464,1.828-1.048,2.732-1.572.325-.19.65-.395.988-.575.044-.013.091-.028.139-.041s.073,0,.107,0,.095.025.142.041c.8.423,1.519,1.023,2.3,1.474a5.487,5.487,0,0,0,4.887.284,12.62,12.62,0,0,0,1.595-.875c.42-.253.837-.531,1.272-.761.041-.013.082-.022.123-.035s.066,0,.1,0,.066.016.1.025a2.864,2.864,0,0,1,.294.189l.991.792a6.972,6.972,0,0,0,1.692,1.064,5.521,5.521,0,0,0,3.192.3,8.429,8.429,0,0,0,2.128-.859l2.071-1.01c.382-.186.761-.373,1.143-.556.066-.022.132-.044.2-.063.028,0,.057,0,.085,0l.113.028a2.683,2.683,0,0,1,.3.193l.837.663a11.494,11.494,0,0,0,1.97,1.452,5.517,5.517,0,0,0,5.415-.212c.442-.29.871-.606,1.3-.906a16.445,16.445,0,0,1,1.446-.979l.079-.022c.035,0,.069-.006.1,0s.07.016.1.025a3.394,3.394,0,0,1,.3.189c.508.408,1.017.818,1.531,1.225a6.286,6.286,0,0,0,1.165.805,6.01,6.01,0,0,0,2.292.6,4.848,4.848,0,0,0,1.765-.224,5.809,5.809,0,0,0,1.752-.925s.006,0,.009,0c-.088.066-.177.136-.262.2a3.516,3.516,0,0,1,.379-.243.794.794,0,0,1,.085-.022H563a3.666,3.666,0,0,1,.47.151c-.041-.019-.085-.035-.126-.054a2.991,2.991,0,0,0,.672.167c.31.783.622,1.566.932,2.346q2.5,6.308,5,12.617.4,1.013.805,2.03l-4.4,7.71a2.5,2.5,0,0,0,0,2.551l7.521,10.448q5.986,8.312,11.97,16.624c.414.578.831,1.152,1.244,1.73q-3.533,2.084-7.069,4.165l-1.352.8a2.556,2.556,0,0,0-.906,3.457q1.956,2.965,3.915,5.93l-2.962,2.1a2.568,2.568,0,0,0,0,4.363q1.653,1.151,3.306,2.3.455,7.829.906,15.661-7.45-.156-14.9-.309c-.837-.019-1.67-.035-2.507-.054a2.6,2.6,0,0,0-2.435,1.854q-3.045,7.862-6.087,15.727c-.284.729-.565,1.462-.85,2.191a2.537,2.537,0,0,0,1.765,3.107,2.6,2.6,0,0,0,3.107-1.765q3.046-7.862,6.088-15.727c.038-.1.079-.2.117-.3l15.872.332c.837.019,1.67.035,2.507.054a2.546,2.546,0,0,0,2.526-2.526q-.289-4.992-.578-9.984-.194-3.367-.388-6.738-.062-1.084-.126-2.169a3.7,3.7,0,0,0-.584-2.245,5.882,5.882,0,0,0-1.336-1.089l-.748-.521c.675-.48,1.354-.96,2.03-1.44a2.568,2.568,0,0,0,.906-3.457q-1.895-2.87-3.792-5.74l7.158-4.215,1.351-.8a2.548,2.548,0,0,0,.906-3.457L585.4,376.67q-5.986-8.312-11.97-16.624-.957-1.326-1.91-2.652l3.031-5.3c.635-1.111,1.841-2.655,1.424-3.994-.133-.426-.335-.843-.5-1.26q-3.334-8.412-6.672-16.82c-.546-1.38-1.02-4.326-2.674-4.67-1.8-.376-5.065.995-6.476,2.04l-.012,0,.253-.2a3.945,3.945,0,0,1-.363.234.954.954,0,0,1-.1.025c-.035,0-.069,0-.1,0s-.066-.016-.1-.025a2.906,2.906,0,0,1-.293-.189c-.287-.227-.571-.458-.859-.685l-.65-.521a6.766,6.766,0,0,0-1.888-1.118,5.358,5.358,0,0,0-4.733.562c-.432.29-.856.6-1.282.894a15.63,15.63,0,0,1-1.424.96c-.029.009-.057.012-.085.019s-.063,0-.095,0-.063-.016-.095-.022c-.1-.06-.205-.123-.3-.192-.376-.3-.755-.6-1.13-.9l-.587-.464a5.762,5.762,0,0,0-2.9-1.307,5.676,5.676,0,0,0-3.271.571c-.136.063-.272.133-.4.2-.723.35-1.443.7-2.166,1.055-.448.218-.9.442-1.348.657-.066.022-.13.044-.2.063-.035,0-.069,0-.1,0s-.066-.022-.1-.031c-.1-.057-.193-.12-.287-.186-.328-.262-.657-.527-.989-.789a6.777,6.777,0,0,0-1.973-1.184,5.5,5.5,0,0,0-2.9-.183c-1.462.253-2.589,1.294-3.871,1.964-.051.016-.1.028-.152.041-.035,0-.069,0-.1,0s-.063-.016-.095-.025c-.515-.275-1-.632-1.487-.941-.24-.155-.477-.313-.72-.461a5.753,5.753,0,0,0-2.51-.8c-1.983-.212-3.694,1.051-5.323,1.992-.442.256-.881.54-1.339.777-.047.016-.1.032-.145.044s-.076,0-.113,0l-.1-.032c-.218-.12-.429-.256-.641-.392a8.159,8.159,0,0,0-1.456-.736,5.43,5.43,0,0,0-7.11,4.133q-.26,1.373-.527,2.747-.549,2.851-1.1,5.705-.748,3.889-1.493,7.78-.872,4.537-1.743,9.078-.91,4.75-1.822,9.5-.872,4.537-1.74,9.071-.744,3.884-1.49,7.767-.545,2.842-1.093,5.683c-.006.038-.013.073-.022.11a12.336,12.336,0,0,0-11.291,3.246,11.788,11.788,0,0,0-2.122,2.848,12.224,12.224,0,0,0-1.013,2.636,11.647,11.647,0,0,0-3.7,1.553,12.2,12.2,0,0,0-4.2,4.547,12.359,12.359,0,0,0,.455,12.175A11.291,11.291,0,0,0,476.007,419.005Zm86.873-87.8h0l.057-.044C562.917,331.172,562.9,331.188,562.879,331.2Zm0,0h0c-.016.013-.032.025-.051.038h0C562.842,331.229,562.861,331.216,562.877,331.2Zm-.066.051h0c-.01.009-.019.016-.028.025h0A.227.227,0,0,1,562.81,331.254Zm-.082.063.022-.019h0c-.006.006-.013.009-.019.016A.011.011,0,0,0,562.728,331.317Zm-3.252-3.817h0c-.013.012-.028.025-.044.038h0A.493.493,0,0,1,559.476,327.5Zm.01-.006.038-.028h.006a.17.17,0,0,0-.044.028Zm-.063.048h0c-.019.016-.038.028-.057.044C559.384,327.573,559.4,327.557,559.422,327.541Zm.161-.12-.032.022h-.006l.022-.019A.058.058,0,0,0,559.583,327.421ZM477.02,402.542a10.239,10.239,0,0,1,1.6-.935,10.124,10.124,0,0,1,1.869-.508c.063-.006.126-.016.186-.019a2.675,2.675,0,0,0,1.787-.739,2.836,2.836,0,0,0,.726-1.68,10.2,10.2,0,0,1,.527-1.961,7.026,7.026,0,0,1,2.179-2.823,7.245,7.245,0,0,1,3.46-1.446,9.991,9.991,0,0,1,1.866,0,10.315,10.315,0,0,1,1.815.5,9.975,9.975,0,0,1,1.6.935,10.112,10.112,0,0,1,1.247,1.247,10,10,0,0,1,.925,1.576,7.121,7.121,0,0,0,1.25,2.864,3.44,3.44,0,0,0,2.447,1.036,4.409,4.409,0,0,0,1.872-.559,7.6,7.6,0,0,1,1.263-.354,7.9,7.9,0,0,1,1.222,0,4.7,4.7,0,0,1,2.226.935,7.675,7.675,0,0,1,.818.818,7.444,7.444,0,0,1,.609,1.042,6.6,6.6,0,0,0,1.2,2.772,3.369,3.369,0,0,0,2.441,1,8.823,8.823,0,0,0,1.531-.271,4.474,4.474,0,0,1,2.352.325,7.626,7.626,0,0,1,1.007.587,7.533,7.533,0,0,1,.808.808,7.24,7.24,0,0,1,.606,1.039,4.529,4.529,0,0,1-.016,3.6,7.112,7.112,0,0,1-.436.774,6.022,6.022,0,0,1-.666.666,6.818,6.818,0,0,1-.736.423,10.567,10.567,0,0,1-2.09.537c-.518.06-1.036.1-1.556.126-4.291.205-8.6.227-12.895.294-4.332.066-8.664.092-13,.1a57.839,57.839,0,0,1-6.406-.095,11.791,11.791,0,0,1-2.34-.616,9.2,9.2,0,0,1-1.364-.8,9.8,9.8,0,0,1-1.169-1.174,7.266,7.266,0,0,1-1.449-3.483,10.069,10.069,0,0,1,0-1.9,9.967,9.967,0,0,1,.492-1.8,10.12,10.12,0,0,1,.916-1.569A10.427,10.427,0,0,1,477.02,402.542Z" transform="translate(-51.051 -106.411)" fill="#e4e4e4"/>
      <path id="Path_687" data-name="Path 687" d="M681.135,481.152a2.571,2.571,0,0,0,2.526-2.526V454.4c0-1.114.022-2.232,0-3.347V451a2.526,2.526,0,0,0-5.052,0v24.227c0,1.115-.022,2.232,0,3.347v.05A2.556,2.556,0,0,0,681.135,481.152Z" transform="translate(-194.282 -191.319)" fill="#e4e4e4"/>
      <path id="Path_688" data-name="Path 688" d="M681.156,386.841a2.571,2.571,0,0,0,2.526-2.526V373.491a2.526,2.526,0,0,0-5.052,0v10.824A2.552,2.552,0,0,0,681.156,386.841Z" transform="translate(-194.303 -138.282)" fill="#e4e4e4"/>
      <path id="Path_689" data-name="Path 689" d="M743.728,548.345a2.438,2.438,0,0,0-.739,1.787q.284,2.448.565,4.9c.029.233.054.47.082.7a1.908,1.908,0,0,0,.218.972,1.876,1.876,0,0,0,.521.812,2.531,2.531,0,0,0,3.574,0,2.435,2.435,0,0,0,.739-1.787q-.284-2.449-.565-4.9c-.029-.234-.054-.47-.082-.7a1.911,1.911,0,0,0-.218-.972,1.876,1.876,0,0,0-.521-.812,2.531,2.531,0,0,0-3.574,0Z" transform="translate(-238.335 -259.15)" fill="#e4e4e4"/>
      <path id="Path_690" data-name="Path 690" d="M739.732,478.21q-.085-.739-.171-1.478a2.746,2.746,0,0,0-.739-1.787,2.53,2.53,0,0,0-3.574,0,2.436,2.436,0,0,0-.739,1.787q.6,5.158,1.19,10.318.086.739.171,1.478a2.748,2.748,0,0,0,.739,1.787,2.531,2.531,0,0,0,3.574,0,2.438,2.438,0,0,0,.739-1.787Q740.33,483.366,739.732,478.21Z" transform="translate(-232.533 -208.926)" fill="#e4e4e4"/>
      <path id="Path_691" data-name="Path 691" d="M729.166,386.7q-.621-5.366-1.241-10.735c-.095-.824-.19-1.645-.284-2.469a2.749,2.749,0,0,0-.739-1.787,2.531,2.531,0,0,0-3.574,0,2.437,2.437,0,0,0-.739,1.787q.389,3.367.776,6.735.621,5.366,1.241,10.735c.095.824.189,1.645.284,2.469a2.748,2.748,0,0,0,.739,1.787,2.53,2.53,0,0,0,3.574,0,2.435,2.435,0,0,0,.739-1.787Q729.555,390.064,729.166,386.7Z" transform="translate(-224.376 -138.283)" fill="#e4e4e4"/>
      <path id="Path_692" data-name="Path 692" d="M617.738,466.075c-.132.171-.262.341-.394.511a2.51,2.51,0,0,0-.344,1.276q-.53,4.068-1.057,8.133c-.051.385-.1.77-.152,1.159a2.527,2.527,0,0,0,.739,1.787,2.531,2.531,0,0,0,3.574,0c.133-.171.262-.341.395-.512a2.508,2.508,0,0,0,.344-1.276q.531-4.068,1.058-8.134c.05-.385.1-.771.152-1.159a2.525,2.525,0,0,0-.739-1.787,2.531,2.531,0,0,0-3.574,0Z" transform="translate(-151.298 -202.856)" fill="#e4e4e4"/>
      <path id="Path_693" data-name="Path 693" d="M628.788,394.064a2.509,2.509,0,0,0,.344-1.276q.412-3.173.824-6.349.658-5.058,1.313-10.12c.1-.774.2-1.544.3-2.318a2.523,2.523,0,0,0-.739-1.787,2.531,2.531,0,0,0-3.574,0c-.133.17-.262.341-.395.511a2.514,2.514,0,0,0-.344,1.276l-.824,6.35q-.659,5.058-1.314,10.12c-.1.774-.2,1.544-.3,2.317a2.525,2.525,0,0,0,.739,1.787,2.531,2.531,0,0,0,3.574,0C628.526,394.405,628.656,394.235,628.788,394.064Z" transform="translate(-156.971 -138.632)" fill="#e4e4e4"/>
    </g>
    <g id="Group_533" data-name="Group 533" transform="translate(306.909 -230.443) rotate(31)">
      <path id="Path_694" data-name="Path 694" d="M900.579,742.9q-3.135-1.672-6.268-3.343l-9.943-5.3c-.341-.183-.685-.366-1.026-.546V664.937c0-3.233.082-6.476,0-9.706V655.1a2.556,2.556,0,0,0-2.526-2.526H864.322V637.594H869.5a2.524,2.524,0,0,0,1.272-4.7q-2.988-1.592-5.974-3.186-7.119-3.793-14.234-7.59-8.6-4.584-17.2-9.172-7.435-3.969-14.874-7.934c-2.112-1.128-4.215-2.28-6.337-3.391V589.794h22.358c1.134,0,2.267.022,3.4,0h.05a2.565,2.565,0,0,0,2.526-2.526V571.282a2.565,2.565,0,0,0-2.526-2.526h-24.83c-1.152,0-2.3-.025-3.457,0h-.047a2.565,2.565,0,0,0-2.526,2.526v28.031c0,.773-.01,1.547-.01,2.321q-2.467,1.317-4.938,2.633-7.118,3.794-14.234,7.59-8.6,4.585-17.2,9.172-7.436,3.969-14.874,7.934c-2.415,1.288-4.907,2.492-7.268,3.877-.032.019-.067.035-.1.054a2.551,2.551,0,0,0-1.162,2.851,2.6,2.6,0,0,0,2.434,1.854h5.178v14.979H744.214c-1.844,0-3.691-.026-5.538,0h-.243a2.564,2.564,0,0,0-2.526,2.526v70.284c0,2.775-.054,5.56-.019,8.336q-2.5,1.33-5,2.665l-9.943,5.3c-.758.4-1.519.808-2.276,1.216a2.516,2.516,0,0,0-1.251,2.182v26.193a2.565,2.565,0,0,0,2.526,2.526h61.594c.834,0,1.668.01,2.5,0h.107a2.526,2.526,0,0,0,0-5.052H722.472v-19.1H889.884c2.276,0,4.556.035,6.833,0h.057v19.093H834.412c-.878,0-1.756-.01-2.633,0h-.114a2.526,2.526,0,1,0,0,5.052h64.888c.878,0,1.756.01,2.634,0h.113a2.564,2.564,0,0,0,2.526-2.526V745.088A2.516,2.516,0,0,0,900.579,742.9ZM812.152,583.2v-7.979q0-.71.01-1.421h22.295c.325,0,.654,0,.982.006v10.934H813.525c-.455,0-.913,0-1.37-.007C812.152,584.221,812.152,583.709,812.152,583.2Zm-40.913,43.266q8.6-4.584,17.2-9.172,7.436-3.969,14.875-7.935c2.105-1.121,4.243-2.2,6.33-3.356l4.9,2.614q7.118,3.794,14.234,7.591,8.6,4.584,17.2,9.172,7.17,3.822,14.338,7.647a2.544,2.544,0,0,0-1.054,2.034v17.5H759.982v-17.5a2.54,2.54,0,0,0-1.054-2.034Q765.089,629.751,771.238,626.467ZM740.962,727.245V664.934c0-2.428.079-4.875.057-7.312h134.01c1.083,0,2.169.009,3.252.009v67.748c0,2.428-.079,4.879-.057,7.313H842.343V698.333c0-1.651.029-3.3,0-4.954v-.073a11.055,11.055,0,0,0-1.942-6.28,11.67,11.67,0,0,0-5.5-4.234,11.181,11.181,0,0,0-10.025,1.314,15.452,15.452,0,0,0-27.873-6.523,15.09,15.09,0,0,0-2.646,6.574,12.371,12.371,0,0,0-2.39-1.282,11.173,11.173,0,0,0-11.954,2.69,11.457,11.457,0,0,0-3.123,8v37.507c0,.537,0,1.074,0,1.611H744.211c-1.083,0-2.169-.013-3.253-.019Q740.964,729.962,740.962,727.245Zm40.989-33.927c0-.281.019-.562.045-.84a6.106,6.106,0,0,1,1.222-2.911,9.173,9.173,0,0,1,1.1-1.1,8.893,8.893,0,0,1,1.367-.8,9,9,0,0,1,1.541-.423,6.138,6.138,0,0,1,3.208.423,8.9,8.9,0,0,1,1.351.789,6.122,6.122,0,0,1,1.9,2.457,8.82,8.82,0,0,1,.429,1.575c.022.253.041.509.041.765a2.526,2.526,0,0,0,5.051,0v-6.444c0-.546.019-1.089.073-1.633a10.427,10.427,0,0,1,2.077-5.014,13.618,13.618,0,0,1,1.907-1.907,13.257,13.257,0,0,1,2.308-1.345,10.429,10.429,0,0,1,5.459-.723,10.415,10.415,0,0,1,4.954,2.068,13.62,13.62,0,0,1,1.907,1.907,13.4,13.4,0,0,1,1.345,2.305,13.167,13.167,0,0,1,.72,2.63,29.625,29.625,0,0,1,.085,2.994v5.162a2.526,2.526,0,0,0,5.052,0c0-.256.019-.512.041-.768a6.109,6.109,0,0,1,2.327-4.032,8.939,8.939,0,0,1,1.351-.79,6.11,6.11,0,0,1,6.116.8,9.206,9.206,0,0,1,1.1,1.1,8.856,8.856,0,0,1,.8,1.367,9.081,9.081,0,0,1,.423,1.547c.025.275.044.55.044.824v35.654c0,.833-.009,1.664-.016,2.5H781.936v-33.6C781.951,696.344,781.945,694.831,781.951,693.319ZM892.287,744.6H728.474c-.748,0-1.5,0-2.251-.007.423-.224.846-.452,1.269-.676l9.943-5.3q.814-.436,1.632-.871H875.035c1.717,0,3.438.022,5.156,0q2.808,1.5,5.617,3,3.619,1.927,7.234,3.858Z" transform="translate(-220.845 -273.615)" fill="#e4e4e4"/>
      <path id="Path_695" data-name="Path 695" d="M1156.209,908.58h-12.323a2.564,2.564,0,0,0-2.526,2.526v12.324a2.565,2.565,0,0,0,2.526,2.526h12.323a2.556,2.556,0,0,0,2.526-2.526V911.106A2.562,2.562,0,0,0,1156.209,908.58Zm-2.526,12.323h-7.271v-7.271h7.271Z" transform="translate(-510.93 -506.151)" fill="#e4e4e4"/>
      <path id="Path_696" data-name="Path 696" d="M1156.209,998.29h-12.323a2.564,2.564,0,0,0-2.526,2.526v12.323a2.565,2.565,0,0,0,2.526,2.526h12.323a2.556,2.556,0,0,0,2.526-2.526v-12.323A2.56,2.56,0,0,0,1156.209,998.29Zm-2.526,12.32h-7.271v-7.271h7.271Z" transform="translate(-510.93 -567.536)" fill="#e4e4e4"/>
      <path id="Path_697" data-name="Path 697" d="M835.669,908.58H823.346a2.565,2.565,0,0,0-2.526,2.526v12.324a2.565,2.565,0,0,0,2.526,2.526h12.323a2.556,2.556,0,0,0,2.526-2.526V911.106A2.562,2.562,0,0,0,835.669,908.58ZM833.143,920.9h-7.271v-7.271h7.271Z" transform="translate(-291.598 -506.151)" fill="#e4e4e4"/>
      <path id="Path_698" data-name="Path 698" d="M835.669,998.29H823.346a2.565,2.565,0,0,0-2.526,2.526v12.323a2.565,2.565,0,0,0,2.526,2.526h12.323a2.556,2.556,0,0,0,2.526-2.526v-12.323A2.56,2.56,0,0,0,835.669,998.29Zm-2.526,12.32h-7.271v-7.271h7.271Z" transform="translate(-291.598 -567.536)" fill="#e4e4e4"/>
      <path id="Path_699" data-name="Path 699" d="M970.9,791.481H916.543c-.739,0-1.478-.01-2.217,0h-.095a2.526,2.526,0,1,0,0,5.052h54.355c.739,0,1.477.009,2.217,0h.095a2.526,2.526,0,0,0,0-5.052Z" transform="translate(-353.785 -426.022)" fill="#e4e4e4"/>
    </g>
    <path id="Path_700" data-name="Path 700" d="M1120.559,1604.641q-.947-6.354-1.9-12.708-.748-5.026-1.5-10.054a3.5,3.5,0,0,0-.89-2.428c-.963-.855-1.986-1.652-2.978-2.475l-8.4-6.981-.177-.149a2.64,2.64,0,0,0-1.787-.738,2.767,2.767,0,0,0-1.787.738l-2,1.791c-.164.146-.325.294-.49.439V1544.63c.35.226.695.467,1.03.716a20.956,20.956,0,0,1,3.4,3.395,21.311,21.311,0,0,1,2.343,4.033,24.808,24.808,0,0,1,1.519,5.673q.156,1.3.2,2.618a2.526,2.526,0,1,0,5.052,0,28.815,28.815,0,0,0-1.642-8.983,24.824,24.824,0,0,0-3.862-6.877,22.332,22.332,0,0,0-3.994-3.9,17.435,17.435,0,0,1,1.765.1,13.526,13.526,0,0,1,2.82.749,11.309,11.309,0,0,1,1.9,1.108,11.6,11.6,0,0,1,1.474,1.469,2.536,2.536,0,0,0,1.786.738,2.578,2.578,0,0,0,1.788-.738,2.541,2.541,0,0,0,.739-1.788,2.868,2.868,0,0,0-.739-1.787c-4.026-4.824-10.729-5.588-16.558-4.366a2.288,2.288,0,0,0-1.544-.536,2.755,2.755,0,0,0-1.516.536c-.823-.164-1.655-.281-2.479-.382a17.675,17.675,0,0,0-8.768.972,13.553,13.553,0,0,0-5.343,3.776,2.711,2.711,0,0,0-.739,1.787,2.581,2.581,0,0,0,.739,1.788,2.554,2.554,0,0,0,3.571,0,11.537,11.537,0,0,1,1.475-1.469,11.32,11.32,0,0,1,1.9-1.108,13.552,13.552,0,0,1,2.82-.749c.439-.048.881-.079,1.323-.091a22.312,22.312,0,0,0-3.536,3.3,24.69,24.69,0,0,0-4,6.589,28.273,28.273,0,0,0-1.989,9.861,2.545,2.545,0,0,0,2.526,2.526,2.579,2.579,0,0,0,2.526-2.526q.047-1.313.2-2.618a24.669,24.669,0,0,1,1.518-5.673,18.266,18.266,0,0,1,5.744-7.427q.725-.535,1.5-1.01V1576.6l-5.112,4.578q-2.52,2.256-5.036,4.512c-.786.7-1.6,1.393-2.368,2.119a2.1,2.1,0,0,0-.271.262,2.535,2.535,0,0,0-.521,2.254c0,.022.007.041.01.063q.383,2.061.765,4.125.776,4.195,1.553,8.392.635,3.419,1.266,6.841a5.249,5.249,0,0,0,.442,1.6c.356.68.776,1.33,1.162,1.993q1.942,3.325,3.881,6.649a2.826,2.826,0,0,0,2.074,1.6,4.707,4.707,0,0,0,.7.044H1103.2c1.806,0,3.622.067,5.428,0a3.8,3.8,0,0,0,2.292-1.058q1.511-1.094,3.019-2.188,3.012-2.183,6.024-4.363c.127-.092.25-.183.375-.272a2.765,2.765,0,0,0,1.033-1.209,2.8,2.8,0,0,0,.127-1.644Q1121.026,1607.769,1120.559,1604.641Zm-11.882,11.348c-.271.2-.543.394-.817.59h-14.632l-3.887-6.662c-.151-.256-.3-.514-.452-.77l-1.231-6.649q-1.013-5.47-2.027-10.941c-.057-.3-.111-.6-.167-.9q.526-.473,1.051-.941l4.834-4.329c.745-.669,1.494-1.338,2.238-2-.009,1.383-.018,2.769.007,4.152v.082a2.526,2.526,0,1,0,5.052,0v-8.762q1.781-1.6,3.562-3.19c.262-.233.524-.463.786-.694l2.065,1.714,6.252,5.195.881.732c.116.789.236,1.579.354,2.365q.54,3.609,1.076,7.218.653,4.38,1.307,8.769.564,3.774,1.127,7.549c.094.644.183,1.288.278,1.932Q1112.513,1613.209,1108.678,1615.99Z" transform="matrix(0.951, -0.309, 0.309, 0.951, -913.204, -493.615)" fill="#e4e4e4"/>
    <g id="Group_539" data-name="Group 539" transform="matrix(0.309, -0.951, 0.951, 0.309, 103.128, 1026.803)">
      <path id="Path_702" data-name="Path 702" d="M1441.2,1010.808H1438v-2.986a2.526,2.526,0,1,0-5.052,0v2.986h-2.879a2.526,2.526,0,0,0,0,5.052h2.879v8.181a2.526,2.526,0,0,0,5.052,0v-8.184h3.195a2.525,2.525,0,1,0,0-5.049Z" transform="translate(-706.754 -572.328)" fill="#e4e4e4"/>
      <g id="Group_534" data-name="Group 534">
        <path id="Path_701" data-name="Path 701" d="M1317.324,1047.427h9.056a2.565,2.565,0,0,0,2.526-2.526v-24.565a2.541,2.541,0,0,0-4.313-1.787q-2.311,2.259-4.625,4.521-3.69,3.6-7.376,7.205c-.565.552-1.13,1.1-1.693,1.654a2.313,2.313,0,0,0-.467.66,2.422,2.422,0,0,0-.272,1.127V1044.9a2.565,2.565,0,0,0,2.526,2.526Zm6.529-21.091v16.04h-8.645v-7.594q1.941-1.9,3.887-3.8Q1321.473,1028.663,1323.854,1026.336Z" transform="translate(-626.433 -580.906)" fill="#e4e4e4"/>
        <path id="Path_703" data-name="Path 703" d="M1379.831,933.743h29.607c1.371,0,2.744.029,4.114,0h.057a2.565,2.565,0,0,0,2.527-2.526V894.257c0-.884.012-1.771.016-2.656h3.647a2.546,2.546,0,0,0,2.182-3.8q-1.151-1.738-2.305-3.479-2.756-4.158-5.509-8.317-3.339-5.044-6.681-10.091l-5.754-8.689c-.931-1.406-1.847-2.823-2.793-4.218-.013-.019-.025-.038-.038-.06a.189.189,0,0,0-.019-.025,2.29,2.29,0,0,0-.887-.881,2.868,2.868,0,0,0-.635-.243l-.073-.019a.078.078,0,0,1-.022-.006,2.255,2.255,0,0,0-1.822.265,2.818,2.818,0,0,0-.465.382,2.883,2.883,0,0,0-.442.524l-2.3,3.48q-2.756,4.158-5.51,8.316-3.339,5.044-6.681,10.091l-5.752,8.689c-.932,1.405-1.9,2.791-2.795,4.219-.012.019-.025.037-.037.06a2.546,2.546,0,0,0,2.181,3.8h3.663v34.435c0,1.7-.031,3.41,0,5.112v.069A2.573,2.573,0,0,0,1379.831,933.743Zm22.364-5.052H1384c-.55,0-1.1-.006-1.646-.01V894.257c0-.884.01-1.771.013-2.656h27.069c.55,0,1.1,0,1.645.006v34.429c0,.884-.013,1.771-.016,2.655h-8.875Zm-18.559-50.136q3.339-5.044,6.681-10.091l5.753-8.689c.218-.328.436-.654.653-.979.042.06.079.12.12.18q2.752,4.159,5.51,8.317,3.339,5.044,6.681,10.091l5.753,8.689c.1.158.208.319.313.477H1384c-1.371,0-2.744-.029-4.115,0h-1.547Q1380.987,882.552,1383.635,878.555Z" transform="translate(-668.12 -467.222)" fill="#e4e4e4"/>
      </g>
    </g>
    <path id="Path_704" data-name="Path 704" d="M1506.715,821.249q1.511,5.371,3.024,10.741l1.743,6.195q2.008,7.128,4.013,14.256,2.084,7.4,4.168,14.8c.673,2.387,1.292,4.8,2.008,7.177q-.778,2.008-1.55,4.016l-4.263,11.045q-2.58,6.683-5.159,13.362l-4.461,11.556c-.72,1.869-1.522,3.726-2.169,5.623-.01.029-.022.054-.031.079a2.535,2.535,0,0,0,1.765,3.107,2.6,2.6,0,0,0,3.107-1.765q1-2.6,2.009-5.2,2.363-6.119,4.723-12.241,2.738-7.1,5.479-14.2,2.158-5.6,4.319-11.193c.376-.973.752-1.942,1.125-2.915a3.188,3.188,0,0,0,.135-2.1q-1.079-3.832-2.156-7.666-1.951-6.939-3.906-13.88-1.946-6.919-3.9-13.836-1.042-3.7-2.081-7.4l-2.68-9.52c-.133-.467-.262-.935-.4-1.4a2.526,2.526,0,1,0-4.869,1.349Z" transform="translate(-724.013 -415.193)" fill="#e4e4e4"/>
    <g id="Group_532" data-name="Group 532" transform="translate(-153.381 218.443) rotate(-20)">
      <path id="Path_705" data-name="Path 705" d="M580.76,812.159v17.65a2.526,2.526,0,1,0,5.052,0V803.132a2.526,2.526,0,1,0-5.052,0Z" transform="translate(-127.334 -432.267)" fill="#e4e4e4"/>
      <path id="Path_706" data-name="Path 706" d="M583.286,726.555a2.571,2.571,0,0,0,2.526-2.526V711.352a2.526,2.526,0,0,0-5.052,0v12.677A2.556,2.556,0,0,0,583.286,726.555Z" transform="translate(-127.334 -369.466)" fill="#e4e4e4"/>
      <path id="Path_707" data-name="Path 707" d="M527.12,837.855v1.3a2.526,2.526,0,1,0,5.052,0v-10.5a2.526,2.526,0,1,0-5.052,0Z" transform="translate(-90.631 -449.729)" fill="#e4e4e4"/>
      <path id="Path_708" data-name="Path 708" d="M529.646,750.208a2.571,2.571,0,0,0,2.526-2.526V728.3a2.526,2.526,0,1,0-5.052,0v19.38A2.556,2.556,0,0,0,529.646,750.208Z" transform="translate(-90.631 -381.064)" fill="#e4e4e4"/>
      <path id="Path_709" data-name="Path 709" d="M634.39,831.351v1.658a2.526,2.526,0,1,0,5.052,0V819.672a2.526,2.526,0,1,0-5.052,0Z" transform="translate(-164.031 -443.585)" fill="#e4e4e4"/>
      <path id="Path_710" data-name="Path 710" d="M636.916,749.111a2.57,2.57,0,0,0,2.526-2.526V728.292a2.526,2.526,0,1,0-5.052,0v18.294A2.556,2.556,0,0,0,636.916,749.111Z" transform="translate(-164.031 -381.057)" fill="#e4e4e4"/>
      <path id="Path_711" data-name="Path 711" d="M417.579,817.613c.6.543,1.206,1.089,1.809,1.632a2.525,2.525,0,1,0,3.571-3.571q-2.486-2.245-4.976-4.487-3.945-3.557-7.89-7.117c-.272-.246-.546-.492-.818-.736l1.042-4.746q1.1-5.03,2.2-10.057c.167-.77.338-1.541.505-2.308l1.042-4.746q1.241-5.66,2.482-11.316,1.511-6.882,3.019-13.76l2.6-11.831q.44-2,.884-4.007h22.336a2.565,2.565,0,0,0,2.526-2.526,19.673,19.673,0,0,0-1.1-6.5,21,21,0,0,0-3.372-6.018,19.612,19.612,0,0,0-10.593-6.738,19.985,19.985,0,0,0-4.9-.552c.234-1.064.468-2.125.7-3.189q.791-3.609,1.585-7.221.966-4.4,1.932-8.812,1.056-4.826,2.115-9.652,1.07-4.874,2.138-9.744.995-4.542,1.992-9.084.844-3.841,1.683-7.679.606-2.761,1.209-5.519c.158-.723.322-1.449.477-2.172a27.7,27.7,0,0,1,9.6-6.713,31.076,31.076,0,0,1,7.234-1.973,31.735,31.735,0,0,1,3.713-.234,28.254,28.254,0,0,1,25.989,17.24,32.5,32.5,0,0,1,2.059,7.78c.117.824.23,1.645.347,2.469q.355,2.505.707,5.014.483,3.41.963,6.823l1.108,7.862q.582,4.125,1.162,8.247.554,3.936,1.108,7.868.473,3.363.947,6.725c.126.9.256,1.8.382,2.706a20.051,20.051,0,0,0-5.415-.767,19.735,19.735,0,0,0-11.307,3.546,20.392,20.392,0,0,0-7.363,9.592,19.53,19.53,0,0,0-1.168,6.7,2.565,2.565,0,0,0,2.526,2.526h25.818a2.565,2.565,0,0,0,2.526-2.526V722.963a2.591,2.591,0,0,0-.092-.673c-.13-.912-.259-1.828-.385-2.741q-.5-3.557-1-7.11-.687-4.883-1.377-9.766-.763-5.413-1.525-10.827-.715-5.077-1.43-10.151-.554-3.941-1.111-7.878-.275-1.947-.549-3.9a33.241,33.241,0,0,0-29.32-28.524,31,31,0,0,0-3.508-.215c-.016,0-.029,0-.044,0h-.108c-.022,0-.044,0-.066,0a33.2,33.2,0,0,0-19.92,6.763,34.478,34.478,0,0,0-4.537,4.123,2.154,2.154,0,0,0-.717,1.188c-.133.6-.262,1.2-.395,1.793q-.535,2.439-1.07,4.881-.791,3.609-1.585,7.221l-1.932,8.812q-1.056,4.826-2.115,9.652-1.07,4.873-2.137,9.744-.995,4.542-1.992,9.084-.843,3.841-1.683,7.679-.607,2.761-1.209,5.519c-.193.872-.388,1.743-.575,2.614-.006.035-.016.07-.022.1,0,0,0,.007,0,.01q-.63,2.865-1.257,5.731-1,4.575-2,9.147c-.145.666-.291,1.329-.439,2a2.234,2.234,0,0,0-.1.477q-.483,2.193-.963,4.389-1.241,5.66-2.482,11.316-1.511,6.881-3.018,13.76l-2.6,11.831c-.423,1.926-.865,3.852-1.269,5.781-.006.025-.013.054-.019.079l-1.383,6.309q-1.1,5.029-2.2,10.056c-.167.77-.338,1.541-.505,2.308a2.933,2.933,0,0,0-.063.5,2.308,2.308,0,0,0,.647,1.9,2.158,2.158,0,0,0,.376.344q2.33,2.1,4.663,4.209Q413.639,814.053,417.579,817.613ZM491.434,735.5H477.106a14.549,14.549,0,0,1,2.864-6.514,17.875,17.875,0,0,1,2.677-2.677,14.707,14.707,0,0,1,7.051-2.955,18.932,18.932,0,0,1,1.989-.117,18.3,18.3,0,0,1,1.91.107,17.657,17.657,0,0,1,3.846,1.048l.224.1v11Zm-61.367-12.143a14.716,14.716,0,0,1,7.047,2.955,17.893,17.893,0,0,1,2.678,2.677,17.687,17.687,0,0,1,1.964,3.378,17.509,17.509,0,0,1,.9,3.135h-18.5c.186-.843.37-1.689.556-2.532q1-4.575,2-9.147c.038-.177.079-.357.117-.534A17.56,17.56,0,0,1,430.067,723.361Z" transform="translate(-6.371 -323.18)" fill="#e4e4e4"/>
    </g>
    <g id="Group_531" data-name="Group 531" transform="translate(1059.279 240.901) rotate(110)">
      <path id="Path_712" data-name="Path 712" d="M624.925,1083.78a13.761,13.761,0,0,0-2.684-7.764,14.207,14.207,0,0,0-6.928-5,13.753,13.753,0,0,0-8.358-.012A14.194,14.194,0,0,0,600,1076a13.845,13.845,0,0,0-.524,15.633,14.255,14.255,0,0,0,6.605,5.405,12.638,12.638,0,0,0,2.507.733v30.061c0,1.491-.029,2.984,0,4.474v.064a2.526,2.526,0,0,0,5.052,0v-32.3c0-.771.006-1.541.009-2.311.253-.047.5-.094.751-.154a13.807,13.807,0,0,0,9.166-7.452,14.935,14.935,0,0,0,1.273-4.516A12.67,12.67,0,0,0,624.925,1083.78Zm-5.1,1.522a8.8,8.8,0,0,1-5.292,6.962,11.433,11.433,0,0,1-2.235.609,11.86,11.86,0,0,1-2.371,0,8.784,8.784,0,0,1-6.893-5.279,11.42,11.42,0,0,1-.609-2.236,8.771,8.771,0,0,1,.609-4.594,8.812,8.812,0,0,1,2.725-3.533,11.592,11.592,0,0,1,1.945-1.136,11.358,11.358,0,0,1,2.235-.61,11.914,11.914,0,0,1,2.371,0,11.747,11.747,0,0,1,2.223.61,8.786,8.786,0,0,1,4.67,4.669,11.505,11.505,0,0,1,.619,2.29c.022.239.044.48.054.723A12.347,12.347,0,0,1,619.823,1085.3Z" transform="translate(-138.663 -616.851)" fill="#e4e4e4"/>
      <path id="Path_713" data-name="Path 713" d="M510.717,1033.236a11.67,11.67,0,0,0,2.128.638v30.548c0,1.491-.029,2.984,0,4.474v.063a2.526,2.526,0,1,0,5.052,0v-32.3c0-.931.009-1.863.009-2.791.167-.031.338-.07.505-.107a12.673,12.673,0,0,0,6.422-3.808,12.545,12.545,0,0,0,2.093-3.107,14.039,14.039,0,0,0,1.184-4.219,11.249,11.249,0,0,0,.079-1.7,12.735,12.735,0,0,0-2.472-7.183,13.24,13.24,0,0,0-6.428-4.66,12.751,12.751,0,0,0-7.733-.035,12.862,12.862,0,0,0-6.984,19.166A13.293,13.293,0,0,0,510.717,1033.236Zm-3.059-12.98a7.806,7.806,0,0,1,2.968-5.121,10.86,10.86,0,0,1,1.708-1,10.684,10.684,0,0,1,2-.547,10.943,10.943,0,0,1,2.084,0,7.76,7.76,0,0,1,3.7,1.551,10.719,10.719,0,0,1,1.418,1.418,10.864,10.864,0,0,1,1,1.708,10.672,10.672,0,0,1,.556,2.049c.019.209.035.414.044.622a11.116,11.116,0,0,1-.057,1.446,7.733,7.733,0,0,1-1.544,3.672,10.771,10.771,0,0,1-1.418,1.418,10.9,10.9,0,0,1-1.708,1,10.682,10.682,0,0,1-2,.546,10.9,10.9,0,0,1-2.084,0,7.8,7.8,0,0,1-5.121-2.968,10.872,10.872,0,0,1-1-1.708,7.863,7.863,0,0,1-.549-4.086Z" transform="translate(-73.83 -574.504)" fill="#e4e4e4"/>
    </g>
    <path id="Path_714" data-name="Path 714" d="M535.486,1256.346l-6.362-2.671-10.132-4.253c-.524-.221-1.048-.442-1.575-.66q-1.317-1.19-2.633-2.375-3.6-3.244-7.2-6.492-4.348-3.926-8.7-7.849-3.77-3.406-7.543-6.8c-1.215-1.1-2.422-2.21-3.65-3.293-.016-.016-.035-.031-.05-.047a2.525,2.525,0,0,0-3.571,3.571q.881.8,1.765,1.591,2.264,2.042,4.524,4.08,3.069,2.766,6.135,5.534,3.3,2.975,6.6,5.949,2.941,2.653,5.882,5.308,2.042,1.838,4.079,3.678.5.45.995.9c.057.051.11.1.167.151a4.664,4.664,0,0,0,1.266.717q2.5,1.051,5,2.1,4.007,1.683,8.013,3.366l5.368,2.254c.095.038.186.079.281.118a2.531,2.531,0,0,0,1.945-.256,2.58,2.58,0,0,0,1.162-1.509,2.535,2.535,0,0,0-.256-1.945A3.011,3.011,0,0,0,535.486,1256.346Z" transform="translate(-96.679 -657.049)" fill="#e4e4e4"/>
    <path id="Path_715" data-name="Path 715" d="M625.459,1365.807q2.638-3.2,5.273-6.4,2.292-2.78,4.581-5.563c.742-.9,1.487-1.8,2.223-2.7a.466.466,0,0,0,.031-.041,2.709,2.709,0,0,0,.739-1.787,2.525,2.525,0,0,0-4.31-1.787q-2.344,2.841-4.685,5.689l-8.7,10.571c-1.636,1.986-3.284,3.959-4.9,5.955,0,0,0,0,0,.006a2.706,2.706,0,0,0-.739,1.787c0,2.062.057.445.092.673,0,.022.007.044.01.066.022.145.047.291.069.436.1.61.2,1.222.291,1.831q.487,3.064.975,6.126.858,5.375,1.712,10.754c.01.063.022.13.032.193a2.529,2.529,0,0,0,1.162,1.51,2.522,2.522,0,0,0,3.454-.906,2.915,2.915,0,0,0,.256-1.945q-.521-3.282-1.045-6.564-.833-5.229-1.664-10.458c-.054-.332-.1-.66-.158-.991.319-.386.635-.774.954-1.159Q623.277,1368.457,625.459,1365.807Z" transform="translate(-151.736 -773.004)" fill="#e4e4e4"/>
    <path id="Path_716" data-name="Path 716" d="M1341.676,1223.156q-1.946-2.491-3.893-4.985-3.1-3.974-6.207-7.947l-1.427-1.825a2.514,2.514,0,0,0-1.787-.739,2.572,2.572,0,0,0-1.787.739,2.533,2.533,0,0,0-.738,1.787,2.96,2.96,0,0,0,.738,1.787q1.946,2.491,3.893,4.985,2.756,3.528,5.516,7.06c-.571.274-1.146.546-1.717.821q-5.423,2.595-10.849,5.187l-.833.4a48.229,48.229,0,0,0-14.8-3.275c-1.187-.076-2.381-.1-3.575-.089v-24.573c0-.307,0-.616,0-.922a4.452,4.452,0,0,0,1.051-.065,4.815,4.815,0,0,0,2.305-1.361c.5-.449,1-.9,1.5-1.344.031-.029.06-.057.092-.085a7.44,7.44,0,0,0,2.194,2.885,4.136,4.136,0,0,0,5.153-.619c.452-.461.881-.945,1.319-1.418.107-.118.215-.238.326-.363.031.066.062.133.1.2a4.248,4.248,0,0,0,3.521,2.333c1.667.139,3.006-1.061,4.288-1.939.11-.076.218-.155.328-.234a3.228,3.228,0,0,0,.518.591,4.274,4.274,0,0,0,2.65,1.1c.372.025.748.022,1.124.045.792.05,1.589.1,2.381.148a2.092,2.092,0,0,0,.423.026,2.542,2.542,0,0,0,2.526-2.526,31.116,31.116,0,0,0-5.664-17.906,31.821,31.821,0,0,0-14.954-11.424,31.1,31.1,0,0,0-34.46,9.353,32.653,32.653,0,0,0-5.015,8.4,30.651,30.651,0,0,0-2.146,9.261c-.064.77-.092,1.544-.092,2.317a2.565,2.565,0,0,0,2.525,2.526l3.928.044c.49.006.986.039,1.474,0a6.227,6.227,0,0,0,2.975-1.222c.31-.192.616-.4.925-.6a4.086,4.086,0,0,0,.657.852,4.143,4.143,0,0,0,5,.565,11.323,11.323,0,0,0,1.626-1.326,4.108,4.108,0,0,0,1.443,1.354,4.157,4.157,0,0,0,3.072.366,4.589,4.589,0,0,0,1.809-1.049c.016-.012.032-.028.047-.041v25.37c0,.54,0,1.079-.006,1.623a50.112,50.112,0,0,0-5.387.935,48.288,48.288,0,0,0-12.2,4.67c-1.288.7-2.545,1.474-3.767,2.3a7.61,7.61,0,0,0-1.159-3.079q-.673-1.065-1.348-2.128l-1.875-2.961c-.316-.5-.666-.995-.941-1.519-.041-.127-.076-.252-.107-.382a3.472,3.472,0,0,1,0-.364c.028-.126.063-.25.1-.369a4.156,4.156,0,0,1,.268-.44c1.383-1.711,2.81-3.388,4.215-5.083.218-.262.432-.521.651-.783.067-.079.126-.158.183-.237a6.88,6.88,0,0,0,.957-1.585,6.553,6.553,0,0,0,.5-2.03,6.507,6.507,0,0,0-6.343-6.906,12.453,12.453,0,0,0-3.2.591q-1.933.5-3.868.991c-.815.208-1.642.47-2.476.631-.139.006-.281.01-.42,0-.123-.028-.243-.064-.363-.1-.1-.056-.209-.117-.31-.183-.107-.1-.2-.2-.3-.31-.245-.366-.473-.751-.707-1.12q-.847-1.337-1.695-2.675-.754-1.188-1.506-2.378a8.214,8.214,0,0,0-1.655-2.068,6.446,6.446,0,0,0-2.548-1.339,6.974,6.974,0,0,0-2.848-.065,6.473,6.473,0,0,0-4.177,2.762c-1.206,1.692-1.1,3.991-1.222,5.979q-.114,1.805-.23,3.609c-.032.5-.044,1-.089,1.5a4.6,4.6,0,0,1-.12.463c-.06.114-.123.225-.193.332-.076.082-.151.158-.234.233a3.758,3.758,0,0,1-.353.206c-.464.151-.947.252-1.415.373l-3.034.777c-.928.236-1.86.477-2.788.713a8.47,8.47,0,0,0-2.444.919,6.39,6.39,0,0,0-2.9,4.111,6.518,6.518,0,0,0,.91,4.964,6.711,6.711,0,0,0,2.087,1.979,9.932,9.932,0,0,0,1.348.6c.713.284,1.43.568,2.144.849,1.57.622,3.145,1.229,4.708,1.866a4.252,4.252,0,0,1,.47.265c.082.076.164.158.24.24.069.107.136.218.193.329.038.116.069.234.1.354a14.859,14.859,0,0,1-.069,1.591q-.1,1.566-.2,3.132c-.061.969-.123,1.936-.183,2.9a8.683,8.683,0,0,0,.139,2.63,6.53,6.53,0,0,0,8.3,4.518,6.921,6.921,0,0,0,3-2.112c.543-.657,1.086-1.31,1.629-1.967q1.141-1.379,2.286-2.759a15.488,15.488,0,0,1,1.345-1.545c.1-.067.215-.126.322-.186.1-.031.209-.06.312-.084.127-.006.253-.01.379,0a11.548,11.548,0,0,1,1.554.55l2.722,1.08c.912.362,1.828.726,2.741,1.086.451.18.912.385,1.383.524a48.961,48.961,0,0,0-6.467,8.519c-.262.439-.517.885-.767,1.332a2.569,2.569,0,0,0-.1,2.286c-.644.142-1.288.281-1.932.423q-7.464,1.628-14.925,3.261l-8.74,1.91c-.138.032-.277.06-.413.092a2.546,2.546,0,0,0-1.765,3.107,2.584,2.584,0,0,0,3.107,1.765q3.107-.678,6.211-1.358,7.028-1.535,14.06-3.072l15.083-3.3q4.566-1,9.131-2a16.59,16.59,0,0,0,3.442-1.464q4.651-2.227,9.3-4.449l13.517-6.46,14.347-6.858c.315-.152.631-.3.948-.451a2.381,2.381,0,0,0,.24-.114q5.37-2.567,10.741-5.137l6.223-2.974.278-.132a2.393,2.393,0,0,0,1.206-1.844A2.686,2.686,0,0,0,1341.676,1223.156Zm-43.474-28.61c-.1.082-.2.168-.291.253q-.7.606-1.39,1.216l-.076.067a3.769,3.769,0,0,0-.616-.768,4.131,4.131,0,0,0-4.96-.518,11.816,11.816,0,0,0-1.638,1.342,4.951,4.951,0,0,0-1.136-1.156,4.1,4.1,0,0,0-4.45-.072c-.52.319-1.035.648-1.553.969-.31.2-.619.41-.941.6-.751.028-1.525-.038-2.267-.048h-.045q.043-.507.1-1.01a26.114,26.114,0,0,1,22.39-22.389,29.309,29.309,0,0,1,7.016,0,26.116,26.116,0,0,1,22.39,22.389c.034.278.063.553.088.831l-.5-.019c-.035-.07-.072-.142-.114-.209a4.181,4.181,0,0,0-1.228-1.257,3.908,3.908,0,0,0-2.321-.688,4.726,4.726,0,0,0-2.545.922l-1.68,1.149-.145.1c-.085-.173-.167-.347-.255-.515a4.158,4.158,0,0,0-3.641-2.267,4.283,4.283,0,0,0-3.163,1.461c-.449.484-.9.963-1.349,1.447-.053.057-.107.12-.161.18a7.109,7.109,0,0,0-2.151-2.794,4.147,4.147,0,0,0-3.2-.511,4.35,4.35,0,0,0-1.879,1.064c-.5.442-.995.893-1.493,1.338l-.294.266c-.031-.079-.063-.158-.1-.234a4.056,4.056,0,0,0-3.752-2.232A4.343,4.343,0,0,0,1298.2,1194.547ZM1267.84,1236.1q-2.2-.871-4.4-1.746a6.451,6.451,0,0,0-7.221,1.756q-1.379,1.653-2.744,3.316l-1.742,2.1a11.18,11.18,0,0,1-.963,1.087c-.092.06-.186.114-.281.164-.1.035-.212.063-.319.089-.123.006-.25.006-.373,0-.136-.031-.268-.066-.4-.11-.12-.063-.237-.133-.347-.206-.082-.075-.161-.155-.237-.236-.057-.092-.114-.183-.164-.278-.038-.117-.07-.237-.1-.357-.013-.375.019-.748.041-1.124q.071-1.112.142-2.226.151-2.359.3-4.72a6.472,6.472,0,0,0-.328-2.69,6.737,6.737,0,0,0-1.569-2.5,7.078,7.078,0,0,0-2.409-1.487c-1.156-.467-2.321-.918-3.48-1.38-1.178-.468-2.358-.926-3.533-1.4a4.958,4.958,0,0,1-.527-.294c-.073-.066-.142-.139-.212-.211-.064-.1-.121-.2-.177-.307-.032-.1-.06-.206-.085-.31a4.383,4.383,0,0,1,0-.455c.029-.129.063-.259.1-.385.053-.1.114-.2.177-.3.07-.072.139-.146.212-.214.107-.07.218-.133.332-.192.325-.1.663-.184.994-.269l2.254-.578,4.474-1.146a7.115,7.115,0,0,0,2.977-1.56,6.544,6.544,0,0,0,2.077-4.515c.095-1.291.164-2.586.246-3.881s.117-2.615.243-3.912a4.248,4.248,0,0,1,.126-.49c.047-.092.1-.179.157-.268s.146-.152.222-.221c.1-.07.215-.133.325-.193.138-.045.278-.085.417-.117.126-.006.255-.006.381,0,.121.029.238.06.351.1.085.047.17.095.253.149a4.172,4.172,0,0,1,.312.319c.622.881,1.163,1.834,1.737,2.741q1.207,1.9,2.412,3.807a6.48,6.48,0,0,0,7.309,3.038c1.324-.332,2.643-.676,3.963-1.014l2.668-.681c.376-.1.755-.209,1.137-.29a3.631,3.631,0,0,1,.433,0,3.1,3.1,0,0,1,.315.088c.1.053.2.109.287.17.095.089.186.179.272.275.072.113.142.23.2.35a3.793,3.793,0,0,1,.1.376c0,.113,0,.224,0,.338-.025.1-.051.2-.085.306a4.316,4.316,0,0,1-.285.467q-2.387,2.879-4.774,5.762c-.252.3-.5.609-.723.935a6.481,6.481,0,0,0-1,3.06,6.364,6.364,0,0,0,.992,3.9q1.117,1.771,2.242,3.536.715,1.132,1.433,2.264c.237.373.49.745.7,1.14a3.359,3.359,0,0,1,.1.37c0,.107,0,.214,0,.325-.028.117-.06.233-.094.347-.06.117-.129.23-.2.341a3.7,3.7,0,0,1-.278.277c-.1.067-.214.129-.325.19-.11.035-.221.063-.334.092-.1,0-.2,0-.294,0a9.338,9.338,0,0,1-1.279-.44C1269.27,1236.667,1268.556,1236.386,1267.84,1236.1Zm13.394,14.092c-.091.045-.186.089-.278.133C1280.536,1250.524,1280.861,1250.272,1281.233,1250.193Zm.016-.006a.7.7,0,0,1,.079-.013C1281.3,1250.177,1281.278,1250.184,1281.249,1250.187Zm14.114-6.75q-5.3,2.533-10.606,5.071-1.52.724-3.037,1.452c-.161.075-.322.154-.483.23-.638.092-1.282.284-1.907.423-.278.06-.559.123-.837.183h-9.352c.427-.619.862-1.228,1.317-1.825a46.794,46.794,0,0,1,7.836-7.83,43.263,43.263,0,0,1,20.672-8.655,42.719,42.719,0,0,1,17.047,1.08l-6.658,3.183Q1302.358,1240.091,1295.363,1243.437Z" transform="translate(871.934 -1171.831) rotate(51)" fill="#e4e4e4"/>
    <g id="Group_84" data-name="Group 84" transform="matrix(0.875, -0.485, 0.485, 0.875, 482.553, 558.43)">
      <path id="Path_717" data-name="Path 717" d="M935.589,1331.742a2.767,2.767,0,0,0-.53-.954,2.458,2.458,0,0,0-1.907-.9,2.356,2.356,0,0,0-.556.07l-.117.019c-.142.031-.284.063-.426.091v-23.68a2.565,2.565,0,0,0-2.526-2.526h-20.4a2.565,2.565,0,0,0-2.526,2.526v24.738c0,.878-.009,1.756,0,2.634-.846,0-1.7.009-2.542.022-1.105.016-2.21.114-3.315.171l-3,.161v-32.581c0-1.528.032-3.06,0-4.588v-.063a2.564,2.564,0,0,0-2.526-2.526H858.7c-1.677,0-3.357-.029-5.03,0h-.07a2.564,2.564,0,0,0-2.526,2.526v35.309c0,1.471-.022,2.943-.006,4.414-.076,0-.154.009-.23.012q-5.272.28-10.539.562c-.079,0-.158.006-.237.013,0-.013,0-.025,0-.041v-26.962c0-1.247.026-2.5,0-3.748v-.053a2.56,2.56,0,0,0-1.465-2.28v-9.952c0-.325,0-.648,0-.973a9.653,9.653,0,0,0-.861-3.877,8.844,8.844,0,0,0-4.717-4.534,13.31,13.31,0,0,0,1.869-8.27,28.957,28.957,0,0,0-2.444-9.131c-.24-.557-.486-1.109-.774-1.642a2.215,2.215,0,0,0-.761-.808,2.267,2.267,0,0,0-1.421-.442c-.01,0-.022,0-.031,0a2.258,2.258,0,0,0-1.244.341,2.779,2.779,0,0,0-.473.385,2.474,2.474,0,0,0-.442.552c0-.009.006-.022.01-.031a29.907,29.907,0,0,0-2.115,5.169,19.783,19.783,0,0,0-.767,10.315,11.167,11.167,0,0,0,1.528,3.552,9.184,9.184,0,0,0-4.316,3.745,10.115,10.115,0,0,0-1.26,5.292v10.3a2.561,2.561,0,0,0-1.465,2.28v19.992q-1.108-.738-2.213-1.474a2.544,2.544,0,0,0-3.458.906,2.588,2.588,0,0,0,.906,3.457q5.063,3.376,10.123,6.747,3.329,2.222,6.662,4.442c.676.451,1.351.9,2.027,1.352a3,3,0,0,0,1.838.713c1.941,0,3.9-.209,5.841-.313l13.845-.738,17.41-.929,16.86-.9q5.992-.317,11.982-.638c1.693-.092,3.363-.171,5.059-.171h8.152a10.656,10.656,0,0,0,2.078-.1c.537-.1,1.067-.234,1.6-.351l14.985-3.278c.4-.088.805-.177,1.206-.262a2.316,2.316,0,0,0,1.389-.982,2.29,2.29,0,0,0,.464-1.276A2.067,2.067,0,0,0,935.589,1331.742ZM829.2,1275.954c.022-.152.044-.3.073-.455.073.006.146.012.221.012s.148-.006.221-.012c.025.151.047.3.072.458a15.309,15.309,0,0,1,.041,3.179,10.418,10.418,0,0,1-.332,1.421,10.3,10.3,0,0,1-.332-1.421A14.908,14.908,0,0,1,829.2,1275.954Zm-3.735,16.608a6.576,6.576,0,0,1,.281-1.007,7.6,7.6,0,0,1,.477-.83,7.286,7.286,0,0,1,.849-.849,6.6,6.6,0,0,1,.831-.477,7.029,7.029,0,0,1,1.042-.287c.183-.016.363-.025.546-.025s.366.013.546.025a4.054,4.054,0,0,1,1.872.764,7.246,7.246,0,0,1,.85.849,4,4,0,0,1,.757,1.85c.041.518.032,1.039.032,1.56v9.539h-8.118v-9.236C825.436,1293.815,825.417,1293.183,825.468,1292.561Zm9.551,16.877v23.911c0,1.247-.025,2.5,0,3.748v.019q-2.751-1.833-5.5-3.669-2.837-1.89-5.674-3.782a2.488,2.488,0,0,0,.13-.79v-19.96h11.051C835.019,1309.087,835.019,1309.261,835.019,1309.438Zm57.679,20.526c0,1.472-.029,2.946,0,4.418-.366.019-.732.038-1.1.06q-6.431.341-12.863.686-7.166.383-14.332.764-4.135.223-8.269.442v-15.38a2.272,2.272,0,0,0,1.462-.707q2.193-2.71,4.386-5.415,1.832,2.236,3.669,4.467c.259.316.518.631.78.948a2.387,2.387,0,0,0,2.122.694,2.622,2.622,0,0,0,1.844-1.206q2.012-2.69,4.022-5.38,1.624,2.174,3.249,4.344c.259.344.515.691.774,1.036a2.625,2.625,0,0,0,1.844,1.206,2.367,2.367,0,0,0,2.122-.694l4.417-5.573q1.819,2.3,3.641,4.594c.259.325.518.653.777.979a2.4,2.4,0,0,0,1.462.713Zm0-29.338v13.384l-3.315-4.187c-.259-.326-.518-.654-.777-.979a2.493,2.493,0,0,0-1.787-.738,2.451,2.451,0,0,0-1.787.738q-2.179,2.752-4.357,5.5l-3.306-4.424c-.259-.344-.515-.692-.774-1.036a2.528,2.528,0,0,0-4.363,0q-2.056,2.751-4.111,5.5-1.8-2.189-3.59-4.373c-.259-.316-.518-.631-.78-.947a2.525,2.525,0,0,0-3.571,0q-2.027,2.5-4.051,5v-12.225c0-.812.01-1.623.016-2.435h33.977c.859,0,1.718.01,2.577.016Q892.7,1300.019,892.7,1300.626Zm34.308,14.546v16q-2.088.455-4.18.913l-6.17,1.348c-.524.114-1.051.231-1.575.344h-.044c-1.124,0-2.251-.007-3.376-.013v-23.892c0-.322,0-.641.007-.963H927.01Q927.005,1312.045,927.007,1315.172Z" transform="translate(-812.921 -1239.915)" fill="#e4e4e4"/>
      <path id="Path_718" data-name="Path 718" d="M936.3,1230.711h36.519c1.676,0,3.356.028,5.03,0h.069a2.557,2.557,0,0,0,2.526-2.526,23.241,23.241,0,0,0-4.2-13.347,23.951,23.951,0,0,0-11.265-8.622,22.311,22.311,0,0,0-5.339-1.234v-1.38a8.625,8.625,0,0,0,5.51-4.219,2.527,2.527,0,0,0-4.364-2.551c-.1.186-.215.363-.332.537a6.98,6.98,0,0,1-.729.733,6.59,6.59,0,0,1-.742.426,6.916,6.916,0,0,1-.912.25,7.012,7.012,0,0,1-.948,0,6.86,6.86,0,0,1-.928-.253,6.215,6.215,0,0,1-.8-.468,6.747,6.747,0,0,1-.638-.638,6.5,6.5,0,0,1-.477-.812,6.119,6.119,0,0,1-.249-.916,6.818,6.818,0,0,1,0-.948,6.692,6.692,0,0,1,.253-.928,6.1,6.1,0,0,1,.467-.8,6.213,6.213,0,0,1,.634-.634,6.4,6.4,0,0,1,.79-.465,6.634,6.634,0,0,1,1.146-.3,2.531,2.531,0,0,0,1.509-1.162,2.584,2.584,0,0,0,.255-1.945,2.553,2.553,0,0,0-1.162-1.509,2.893,2.893,0,0,0-1.945-.256,8.6,8.6,0,0,0-5.785,4.017,8.828,8.828,0,0,0-1.032,6.277,8.7,8.7,0,0,0,3.631,5.339,7.424,7.424,0,0,0,1.8.932v1.673a23.128,23.128,0,0,0-15.329,8.187,23.819,23.819,0,0,0-5.415,13.35c-.045.552-.063,1.1-.067,1.657A2.559,2.559,0,0,0,936.3,1230.711Zm3.944-9.634a18.3,18.3,0,0,1,35,4.582H941.409c-.805,0-1.61-.009-2.416-.016A20.856,20.856,0,0,1,940.247,1221.077Z" transform="translate(-895.62 -1186.69)" fill="#e4e4e4"/>
      <path id="Path_719" data-name="Path 719" d="M1107.494,1292.724a2.485,2.485,0,0,0,1.531.544h21.041a2.491,2.491,0,0,0,1.531-.544,2.818,2.818,0,0,0,.907-1.312,16.017,16.017,0,0,0-4.92-18.333c-.095-.073-.186-.142-.278-.206-.075-.062-.152-.125-.233-.189q-1.687-1.3-3.375-2.6a4.713,4.713,0,0,0,.347-1.614,5.315,5.315,0,0,0-.811-2.7l-1.506-2.8a2.546,2.546,0,0,0-4.363,0l-1.506,2.8a5.319,5.319,0,0,0-.811,2.7,4.727,4.727,0,0,0,.347,1.614q-1.458,1.128-2.92,2.252c-.446.344-.9.679-1.333,1.038a16.152,16.152,0,0,0-2.665,2.911,15.178,15.178,0,0,0-2.734,6.559,16.111,16.111,0,0,0,.849,8.566A2.81,2.81,0,0,0,1107.494,1292.724Zm3.129-8.562a11.079,11.079,0,0,1,2.207-5.3,14.1,14.1,0,0,1,2.236-2.194q2.24-1.725,4.477-3.452,2.126,1.64,4.249,3.278c.076.06.152.117.228.177a14.157,14.157,0,0,1,2.235,2.194,13.781,13.781,0,0,1,1.433,2.459,14.067,14.067,0,0,1,.774,2.842,13.873,13.873,0,0,1,0,2.9c-.063.388-.139.773-.237,1.153H1110.86c-.095-.379-.174-.764-.237-1.153A13.987,13.987,0,0,1,1110.623,1284.162Z" transform="translate(-1013.132 -1238.038)" fill="#e4e4e4"/>
    </g>
    <path id="Path_724" data-name="Path 724" d="M1457.994,608.683c-.2-.71-.4-1.421-.6-2.131q-.816-2.889-1.627-5.775-1.207-4.281-2.411-8.566-1.464-5.205-2.93-10.413-1.606-5.7-3.211-11.4-1.62-5.755-3.239-11.512l-3.031-10.77q-1.279-4.546-2.561-9.1-.919-3.258-1.834-6.517c-.29-1.029-.568-2.058-.869-3.085l-.037-.133a2.527,2.527,0,0,0-4.872,1.342c.2.711.4,1.421.6,2.131q.814,2.885,1.627,5.775,1.208,4.281,2.411,8.566,1.465,5.205,2.93,10.413,1.605,5.7,3.211,11.4,1.62,5.754,3.239,11.512l3.031,10.77q1.279,4.547,2.561,9.1.919,3.259,1.835,6.517c.29,1.029.568,2.059.868,3.085.013.044.025.089.039.133a2.526,2.526,0,1,0,4.871-1.342Z" transform="translate(-648.872 -237.334)" fill="#e4e4e4"/>
    <g id="Group_540" data-name="Group 540" transform="translate(21.756 479.093) rotate(-41)">
      <path id="Path_725" data-name="Path 725" d="M1355.788,335.049h4.986q.805,2.865,1.613,5.731,1.7,6.038,3.4,12.074c.259.919.518,1.835.774,2.753a2.527,2.527,0,1,0,4.872-1.342q-1.065-3.793-2.134-7.584-1.7-6.038-3.4-12.074c-.259-.919-.517-1.834-.773-2.753a2.575,2.575,0,0,0-2.435-1.853h-6.9a2.524,2.524,0,1,0,0,5.049Z" transform="translate(-655.927 -110.252)" fill="#e4e4e4"/>
      <g id="Group_536" data-name="Group 536">
        <path id="Path_720" data-name="Path 720" d="M1322.266,368.271a21.97,21.97,0,0,0,8.424,4.629,24.023,24.023,0,0,0,6.621.821h10.729a2.526,2.526,0,1,0,0-5.052h-10.845a25.371,25.371,0,0,1-2.857-.139,16.639,16.639,0,0,1-13.04-10.059,19.154,19.154,0,0,1-1.112-4.092,63.182,63.182,0,0,1-.139-7.253V334.341a2.526,2.526,0,0,0-5.052,0v8.569c0,3.056-.007,6.116,0,9.172A21.707,21.707,0,0,0,1322.266,368.271Z" transform="translate(-629.739 -111.493)" fill="#e4e4e4"/>
        <path id="Path_721" data-name="Path 721" d="M1184.371,527.329V515.855a26.445,26.445,0,0,0-.278-3.738,21.281,21.281,0,0,0-1.692-5.642,21.6,21.6,0,0,0-18.262-12.566c-.458-.031-.919-.047-1.38-.051-.035,0-.07,0-.108.006s-.072-.006-.107-.006h-11.073c-.088,0-.177,0-.265,0a2.748,2.748,0,0,0-2.217,1.254c-.909,1.244-1.781,2.513-2.672,3.77q-2.461,3.477-4.928,6.953c-1.023,1.443-2.091,2.867-3.076,4.338-.016.022-.032.047-.051.069a2.394,2.394,0,0,0-.126,2.248,2.571,2.571,0,0,0,1.635,1.462l6.331,2.226q-1.386,2.07-2.778,4.139c-.214.322-.432.641-.647.963a2.371,2.371,0,0,0-.3,1.61,2.28,2.28,0,0,0,.695,1.449l2.917,2.254-1.544,2.463a2.563,2.563,0,0,0,.906,3.457q2.088,1.255,4.18,2.507c.048.316.1.629.155.935a31.08,31.08,0,0,0,1.449,5.229,2.635,2.635,0,0,0,2.435,1.853q2.426.137,4.847.278,3.031.175,6.062.347-.847,2.387-1.7,4.771-2.188,6.152-4.379,12.3c-.338.947-.675,1.9-1.013,2.845a2.542,2.542,0,0,0,.255,1.945,2.525,2.525,0,0,0,4.617-.6l2.765-7.767q2.188-6.153,4.38-12.3.444-1.251.89-2.5a2.366,2.366,0,0,0,.18-.559c.013-.063.022-.129.029-.2,0-.006,0-.016,0-.022a2.739,2.739,0,0,0-.341-1.519,2.579,2.579,0,0,0-1.51-1.162,3.266,3.266,0,0,0-.382-.06,2.824,2.824,0,0,0-.29-.032q-2.424-.137-4.847-.278-3.859-.223-7.72-.442a25.778,25.778,0,0,1-.9-3.773c-.029-.262-.05-.527-.066-.79a2.721,2.721,0,0,0-1.292-2.226c-.139-.088-.284-.171-.423-.256q-1.3-.777-2.595-1.557c.46-.736.922-1.468,1.383-2.2a2.435,2.435,0,0,0,.3-1.61,2.283,2.283,0,0,0-.695-1.449q-1.43-1.108-2.861-2.214,1.643-2.448,3.286-4.9c.216-.322.433-.641.648-.963a2.42,2.42,0,0,0,.126-2.248,2.57,2.57,0,0,0-1.635-1.462q-3.126-1.1-6.255-2.2.919-1.293,1.831-2.586l5.768-8.137c.146-.205.291-.411.439-.616h10.078c.035,0,.069,0,.108-.006s.073.006.107.006a20.066,20.066,0,0,1,2.22.133,16.458,16.458,0,0,1,7.884,3.3,19.536,19.536,0,0,1,3.021,3.022,19.261,19.261,0,0,1,2.179,3.748,19.5,19.5,0,0,1,1.115,4.111,46.7,46.7,0,0,1,.136,5.232v65.538c0,.767-.01,1.538,0,2.3v.1a2.526,2.526,0,1,0,5.052,0v-56.66c0-.767.009-1.538,0-2.3A.745.745,0,0,1,1184.371,527.329Z" transform="translate(-508.575 -222.372)" fill="#e4e4e4"/>
        <path id="Path_722" data-name="Path 722" d="M1354.485,496.386a2.572,2.572,0,0,0-2.526-2.526h-13.9a31.165,31.165,0,0,0-3.988.164,21.885,21.885,0,0,0-8.863,3.072,22.216,22.216,0,0,0-6.6,6.384,20.8,20.8,0,0,0-3.284,8.156,31.655,31.655,0,0,0-.35,5.263v38.644c0,1.3-.025,2.6,0,3.893v.057a2.526,2.526,0,0,0,5.052,0V531.278c0-1.3.025-2.6,0-3.893V516.11a25.807,25.807,0,0,1,.139-2.917,16.6,16.6,0,0,1,6.312-10.858,19.386,19.386,0,0,1,3.748-2.179,19.18,19.18,0,0,1,4.1-1.111,57.052,57.052,0,0,1,6.448-.136h11.186A2.552,2.552,0,0,0,1354.485,496.386Z" transform="translate(-629.721 -222.375)" fill="#e4e4e4"/>
        <path id="Path_723" data-name="Path 723" d="M1289.642,459.919a8.759,8.759,0,0,0-1.573-5.033,9.424,9.424,0,0,0-4.436-3.372,8.869,8.869,0,0,0-9.611,2.615,9.3,9.3,0,0,0-2.131,5.238,8.84,8.84,0,0,0,4.995,8.541,9.348,9.348,0,0,0,5.731.695A8.955,8.955,0,0,0,1289.642,459.919Zm-5.077.508a6.533,6.533,0,0,1-.265.979,3.909,3.909,0,0,1-1.257,1.6,7.016,7.016,0,0,1-.8.464,6.52,6.52,0,0,1-.973.265,6.989,6.989,0,0,1-1.03,0,6.371,6.371,0,0,1-.972-.265,6.8,6.8,0,0,1-.806-.464,7.019,7.019,0,0,1-.793-.792,7.093,7.093,0,0,1-.464-.805,6.467,6.467,0,0,1-.265-.972,7.034,7.034,0,0,1,0-1.029,6.37,6.37,0,0,1,.265-.972,6.9,6.9,0,0,1,.464-.805,3.914,3.914,0,0,1,1.6-1.257,6.393,6.393,0,0,1,.972-.265,6.989,6.989,0,0,1,1.03,0,6.543,6.543,0,0,1,.973.265,6.793,6.793,0,0,1,.8.464,6.94,6.94,0,0,1,.793.793,7.076,7.076,0,0,1,.464.805,6.638,6.638,0,0,1,.265.979c.012.167.022.338.022.508S1284.577,460.256,1284.564,460.427Z" transform="translate(-600.228 -193.062)" fill="#e4e4e4"/>
        <path id="Path_726" data-name="Path 726" d="M1167.312,373.184a2.533,2.533,0,0,0,1.693.543h13.144a21.39,21.39,0,0,0,7.072-1.19,22.63,22.63,0,0,0,6.47-3.6,21.436,21.436,0,0,0,7.385-11.417,22.65,22.65,0,0,0,.682-5.525V340.818c0-2.122.028-4.243,0-6.365v-.1a2.526,2.526,0,0,0-5.052,0v16.466a31.855,31.855,0,0,1-.142,3.6,16.464,16.464,0,0,1-3.287,7.808,16.528,16.528,0,0,1-10.905,6.318,20.1,20.1,0,0,1-2.219.133h-10.843a37.874,37.874,0,0,1,.272-3.95,50.821,50.821,0,0,1,3.5-12.33,76.173,76.173,0,0,1,8.032-14.2c.391-.549.8-1.1,1.206-1.632.111-.142.221-.287.338-.426a2.711,2.711,0,0,0,.739-1.787,2.524,2.524,0,0,0-4.31-1.787,74.786,74.786,0,0,0-13.434,26.071,40.772,40.772,0,0,0-1.333,12.566A2.549,2.549,0,0,0,1167.312,373.184Z" transform="translate(-527.962 -111.5)" fill="#e4e4e4"/>
      </g>
    </g>
  </g>
</svg>
