<svg xmlns="http://www.w3.org/2000/svg" width="319" height="319" viewBox="0 0 319 319">
  <g id="Group_185" data-name="Group 185" transform="translate(-331.658 -193.078)">
    <circle id="Ellipse_65" data-name="Ellipse 65" cx="159.5" cy="159.5" r="159.5" transform="translate(331.658 193.078)" fill="#fff"/>
    <g id="Layer_4" transform="translate(-104.575 -241.234)">
      <g id="Group_174" data-name="Group 174" transform="translate(443.57 441.3)">
        <path id="Path_1399" data-name="Path 1399" d="M1548.965,1096.123c-.131.769-.248,1.541-.39,2.31l-.441,2.3-.222,1.151-.248,1.146-.5,2.289-.553,2.276c-.353,1.522-.791,3.021-1.191,4.53l3.694,1.039c.411-1.549.86-3.088,1.221-4.651l.569-2.334.51-2.348.256-1.175.23-1.181.452-2.361c.144-.788.267-1.581.4-2.369s.273-1.578.374-2.375l-3.8-.561C1549.229,1094.585,1549.088,1095.354,1548.965,1096.123Z" transform="translate(-1251.111 -919.522)" fill="#fbb040"/>
        <path id="Path_1400" data-name="Path 1400" d="M1563.353,1063.031a2.606,2.606,0,0,0-1.84.537,2.4,2.4,0,0,0-.9,1.605,2.527,2.527,0,0,0,5.021.534,2.329,2.329,0,0,0-.564-1.8A2.563,2.563,0,0,0,1563.353,1063.031Z" transform="translate(-1262.232 -896.956)" fill="#0b928e"/>
        <path id="Path_1401" data-name="Path 1401" d="M1502.71,1222.54l3.395,1.784a149.106,149.106,0,0,0,7.845-17.544l-3.6-1.341A145.032,145.032,0,0,1,1502.71,1222.54Z" transform="translate(-1219.809 -1001.335)" fill="#aa0952"/>
        <path id="Path_1402" data-name="Path 1402" d="M1492.321,1284.091a2.425,2.425,0,1,0,.991,3.374A2.484,2.484,0,0,0,1492.321,1284.091Z" transform="translate(-1209.489 -1058.732)" fill="#ad2d95"/>
        <path id="Path_1403" data-name="Path 1403" d="M1539.487,1177.332a2.505,2.505,0,0,0-3.138,1.523,2.361,2.361,0,0,0,.179,1.838,2.6,2.6,0,0,0,3.381,1.146,2.372,2.372,0,0,0,1.24-1.418A2.449,2.449,0,0,0,1539.487,1177.332Z" transform="translate(-1244.381 -980.649)" fill="#115d8e"/>
        <path id="Path_1404" data-name="Path 1404" d="M1568.778,995.25c.219-3.2.283-6.4.31-9.605-.029-3.2-.091-6.408-.31-9.605l-3.828.24c.214,3.117.275,6.242.3,9.367-.03,3.125-.089,6.25-.3,9.367Z" transform="translate(-1265.424 -833.208)" fill="#602db2"/>
        <path id="Path_1405" data-name="Path 1405" d="M1448.5,1310.643c-.433.649-.849,1.312-1.3,1.95-.892,1.282-1.768,2.575-2.7,3.828-1.824,2.538-3.766,4.987-5.745,7.4l2.954,2.45c2.03-2.479,4.023-4.992,5.892-7.594.959-1.285,1.856-2.612,2.772-3.926.462-.654.887-1.335,1.333-2s.892-1.33,1.309-2.017l-3.237-2.057C1449.375,1309.345,1448.929,1309.989,1448.5,1310.643Z" transform="translate(-1172.94 -1076.999)" fill="#602db2"/>
        <path id="Path_1406" data-name="Path 1406" d="M1355.07,1412.767l2.377,3.011a152.613,152.613,0,0,0,14.3-12.837l-2.738-2.69A149.128,149.128,0,0,1,1355.07,1412.767Z" transform="translate(-1111.604 -1144.11)" fill="#fbb040"/>
        <path id="Path_1407" data-name="Path 1407" d="M1422.958,1380.026a2.426,2.426,0,1,0,.262,3.507A2.478,2.478,0,0,0,1422.958,1380.026Z" transform="translate(-1158.366 -1128.809)" fill="#0b928e"/>
        <path id="Path_1408" data-name="Path 1408" d="M1271.906,1474.973l-1.985,1.242c-1.317.841-2.676,1.61-4.017,2.412-2.717,1.541-5.454,3.048-8.264,4.418l1.7,3.438c2.882-1.405,5.692-2.949,8.478-4.533,1.376-.823,2.77-1.611,4.122-2.476l2.038-1.277,2.009-1.322-2.123-3.195Z" transform="translate(-1040.198 -1197.927)" fill="#aa0952"/>
        <path id="Path_1409" data-name="Path 1409" d="M1234.212,1515.767a2.409,2.409,0,0,0-1.843.021,2.491,2.491,0,0,0-1.191,3.278,2.459,2.459,0,0,0,3.245,1.335,2.332,2.332,0,0,0,1.279-1.389,2.553,2.553,0,0,0-.1-1.923A2.594,2.594,0,0,0,1234.212,1515.767Z" transform="translate(-1020.648 -1228.645)" fill="#ad2d95"/>
        <path id="Path_1410" data-name="Path 1410" d="M1333.006,1457.726a2.5,2.5,0,0,0-.489,3.451,2.424,2.424,0,1,0,3.924-2.839A2.5,2.5,0,0,0,1333.006,1457.726Z" transform="translate(-1094.727 -1185.913)" fill="#115d8e"/>
        <path id="Path_1411" data-name="Path 1411" d="M1158.576,1530.368c-2.965.983-5.975,1.822-9,2.615l.951,3.718c3.1-.815,6.189-1.675,9.231-2.684,3.056-.972,6.06-2.089,9.047-3.251l-1.416-3.566C1164.482,1528.333,1161.552,1529.423,1158.576,1530.368Z" transform="translate(-961.001 -1237.151)" fill="#602db2"/>
        <path id="Path_1412" data-name="Path 1412" d="M1043.169,1559.748c-3.109.288-6.226.542-9.349.644l.15,3.833c3.2-.1,6.4-.363,9.589-.662,3.184-.352,6.368-.74,9.528-1.287l-.63-3.785C1049.376,1559.027,1046.272,1559.4,1043.169,1559.748Z" transform="translate(-876.161 -1260.083)" fill="#fbb040"/>
        <path id="Path_1413" data-name="Path 1413" d="M1120.168,1551.987a2.526,2.526,0,1,0,2.885,1.955A2.486,2.486,0,0,0,1120.168,1551.987Z" transform="translate(-938.048 -1255.279)" fill="#0b928e"/>
        <path id="Path_1414" data-name="Path 1414" d="M916.36,1562.013a149.98,149.98,0,0,0,19.109,2.006l.16-3.833A146.215,146.215,0,0,1,917,1558.23Z" transform="translate(-790.076 -1259.893)" fill="#aa0952"/>
        <path id="Path_1415" data-name="Path 1415" d="M888.856,1551.629a2.5,2.5,0,0,0-2.89,1.953,2.424,2.424,0,1,0,4.738,1A2.5,2.5,0,0,0,888.856,1551.629Z" transform="translate(-767.751 -1255.017)" fill="#ad2d95"/>
        <path id="Path_1416" data-name="Path 1416" d="M1004.5,1563.8a2.525,2.525,0,1,0,2.417,2.5A2.476,2.476,0,0,0,1004.5,1563.8Z" transform="translate(-852.898 -1263.975)" fill="#115d8e"/>
        <path id="Path_1417" data-name="Path 1417" d="M696.23,1475.967a150.927,150.927,0,0,0,16.617,9.653l1.715-3.432a147.252,147.252,0,0,1-16.195-9.407Z" transform="translate(-628.743 -1197.267)" fill="#fbb040"/>
        <path id="Path_1418" data-name="Path 1418" d="M776.7,1515.092a2.526,2.526,0,1,0,1.186,3.272A2.481,2.481,0,0,0,776.7,1515.092Z" transform="translate(-685.168 -1228.128)" fill="#0b928e"/>
        <path id="Path_1419" data-name="Path 1419" d="M618.327,1408.628c-1.2-1-2.361-2.046-3.531-3.08-2.308-2.1-4.578-4.252-6.75-6.5l-2.746,2.679c2.228,2.305,4.557,4.509,6.923,6.667,1.2,1.061,2.388,2.137,3.622,3.16.614.513,1.218,1.042,1.843,1.544l1.872,1.506,2.385-3-1.824-1.469C619.513,1409.646,618.925,1409.131,618.327,1408.628Z" transform="translate(-562.101 -1143.231)" fill="#aa0952"/>
        <path id="Path_1420" data-name="Path 1420" d="M586.308,1378.763a2.464,2.464,0,0,0-.27,3.5,2.325,2.325,0,0,0,1.717.785,2.546,2.546,0,0,0,1.795-.689,2.61,2.61,0,0,0,.831-1.728,2.407,2.407,0,0,0-.59-1.744A2.485,2.485,0,0,0,586.308,1378.763Z" transform="translate(-547.541 -1127.885)" fill="#ad2d95"/>
        <path id="Path_1421" data-name="Path 1421" d="M676.126,1456.736a2.347,2.347,0,0,0-1.8-.4,2.6,2.6,0,0,0-2.137,2.861,2.4,2.4,0,0,0,2.8,2.043,2.54,2.54,0,0,0,1.616-1.047,2.587,2.587,0,0,0,.454-1.862A2.327,2.327,0,0,0,676.126,1456.736Z" transform="translate(-611.108 -1185.186)" fill="#115d8e"/>
        <path id="Path_1422" data-name="Path 1422" d="M803.856,1527.2l-1.416,3.566c2.986,1.165,5.994,2.278,9.047,3.251,3.042,1.007,6.133,1.87,9.231,2.684l.951-3.718c-3.021-.793-6.031-1.632-9-2.615C809.695,1529.422,806.764,1528.333,803.856,1527.2Z" transform="translate(-706.584 -1237.151)" fill="#602db2"/>
        <path id="Path_1423" data-name="Path 1423" d="M489.24,1219.963l-.521-1.05-1.042-2.1-.991-2.124-.5-1.06-.473-1.071-.94-2.147c-.3-.719-.593-1.445-.889-2.166-.606-1.44-1.138-2.909-1.7-4.367l-3.6,1.327c.574,1.5,1.119,3,1.742,4.479.3.74.6,1.485.913,2.222l.964,2.2.483,1.1.508,1.09,1.018,2.177,1.068,2.153.534,1.076.561,1.063,3.4-1.774Z" transform="translate(-469.236 -1000.191)" fill="#fbb040"/>
        <path id="Path_1424" data-name="Path 1424" d="M520.478,1283.465a2.526,2.526,0,1,0-.956,3.341A2.473,2.473,0,0,0,520.478,1283.465Z" transform="translate(-496.502 -1057.649)" fill="#0b928e"/>
        <path id="Path_1425" data-name="Path 1425" d="M453.3,1092.14l-3.8.55a150,150,0,0,0,3.956,18.8l3.7-1.028A145.714,145.714,0,0,1,453.3,1092.14Z" transform="translate(-447.916 -918.297)" fill="#aa0952"/>
        <path id="Path_1426" data-name="Path 1426" d="M447.1,1066.152a2.425,2.425,0,1,0-2.786-2.147A2.477,2.477,0,0,0,447.1,1066.152Z" transform="translate(-444.109 -895.712)" fill="#ad2d95"/>
        <path id="Path_1427" data-name="Path 1427" d="M473.329,1177.23a2.358,2.358,0,0,0-1.223-1.384,2.6,2.6,0,0,0-3.408,1.058,2.375,2.375,0,0,0-.171,1.875,2.446,2.446,0,0,0,3.157,1.525A2.5,2.5,0,0,0,473.329,1177.23Z" transform="translate(-461.774 -979.45)" fill="#115d8e"/>
        <path id="Path_1428" data-name="Path 1428" d="M537.672,1312.586c-.449-.639-.865-1.3-1.3-1.95s-.871-1.3-1.277-1.966l-3.237,2.057c.417.684.873,1.344,1.309,2.017s.871,1.346,1.333,2c.916,1.314,1.814,2.642,2.773,3.926,1.87,2.6,3.862,5.115,5.892,7.594l2.954-2.449c-1.979-2.417-3.921-4.867-5.745-7.4C539.44,1315.163,538.564,1313.868,537.672,1312.586Z" transform="translate(-508.277 -1076.991)" fill="#602db2"/>
        <path id="Path_1429" data-name="Path 1429" d="M447.708,995.005c-.214-3.117-.275-6.242-.3-9.367.029-3.125.088-6.25.3-9.367l-3.828-.24c-.219,3.2-.283,6.4-.31,9.605.029,3.2.091,6.408.31,9.605Z" transform="translate(-443.57 -833.201)" fill="#602db2"/>
        <path id="Path_1430" data-name="Path 1430" d="M453.891,874.779c.131-.769.248-1.541.39-2.31l.441-2.3.222-1.151.248-1.143.5-2.289.553-2.276c.353-1.522.791-3.021,1.191-4.53l-3.694-1.039c-.411,1.549-.86,3.088-1.221,4.65l-.569,2.335-.51,2.348-.256,1.175-.23,1.181-.451,2.361c-.144.788-.267,1.581-.4,2.369s-.272,1.579-.374,2.375l3.8.561C453.627,876.317,453.769,875.548,453.891,874.779Z" transform="translate(-448.085 -746.507)" fill="#fbb040"/>
        <path id="Path_1431" data-name="Path 1431" d="M446.782,947.67a2.606,2.606,0,0,0,1.84-.537,2.4,2.4,0,0,0,.9-1.605,2.527,2.527,0,0,0-5.022-.534,2.33,2.33,0,0,0,.564,1.8A2.562,2.562,0,0,0,446.782,947.67Z" transform="translate(-444.242 -808.872)" fill="#0b928e"/>
        <path id="Path_1432" data-name="Path 1432" d="M490.45,749.644l-3.395-1.784A149.18,149.18,0,0,0,479.21,765.4l3.6,1.341A145.045,145.045,0,0,1,490.45,749.644Z" transform="translate(-469.69 -665.976)" fill="#aa0952"/>
        <path id="Path_1433" data-name="Path 1433" d="M517.952,726.469a2.425,2.425,0,1,0-.991-3.373A2.484,2.484,0,0,0,517.952,726.469Z" transform="translate(-497.123 -646.955)" fill="#ad2d95"/>
        <path id="Path_1434" data-name="Path 1434" d="M470.72,833.329a2.505,2.505,0,0,0,3.138-1.523,2.362,2.362,0,0,0-.179-1.838,2.6,2.6,0,0,0-3.382-1.146,2.373,2.373,0,0,0-1.239,1.418A2.449,2.449,0,0,0,470.72,833.329Z" transform="translate(-462.164 -725.138)" fill="#115d8e"/>
        <path id="Path_1435" data-name="Path 1435" d="M606.5,578.464l2.738,2.69a149.139,149.139,0,0,1,13.938-12.514l-2.377-3.01A152.892,152.892,0,0,0,606.5,578.464Z" transform="translate(-562.981 -532.421)" fill="#fbb040"/>
        <path id="Path_1436" data-name="Path 1436" d="M587.179,626.919a2.526,2.526,0,1,0,3.518-.085A2.467,2.467,0,0,0,587.179,626.919Z" transform="translate(-548.374 -576.77)" fill="#0b928e"/>
        <path id="Path_1437" data-name="Path 1437" d="M705.828,506.927c-1.376.823-2.77,1.611-4.121,2.476l-2.038,1.277L697.66,512l2.123,3.195,1.958-1.288,1.984-1.242c1.317-.841,2.677-1.611,4.017-2.412,2.716-1.541,5.454-3.048,8.264-4.418l-1.7-3.438C711.424,503.8,708.614,505.346,705.828,506.927Z" transform="translate(-629.791 -486.08)" fill="#aa0952"/>
        <path id="Path_1438" data-name="Path 1438" d="M776.192,489.856a2.331,2.331,0,0,0-1.279,1.389,2.553,2.553,0,0,0,.1,1.923,2.592,2.592,0,0,0,1.386,1.322,2.41,2.41,0,0,0,1.843-.021,2.49,2.49,0,0,0,1.191-3.277A2.458,2.458,0,0,0,776.192,489.856Z" transform="translate(-686.306 -476.739)" fill="#ad2d95"/>
        <path id="Path_1439" data-name="Path 1439" d="M674.54,548.52a2.448,2.448,0,0,0-.47,3.475,2.423,2.423,0,1,0,3.924-2.839A2.445,2.445,0,0,0,674.54,548.52Z" transform="translate(-612.123 -519.545)" fill="#115d8e"/>
        <path id="Path_1440" data-name="Path 1440" d="M537.264,657.037c-.959,1.285-1.856,2.612-2.773,3.926-.462.654-.887,1.336-1.333,2s-.892,1.33-1.309,2.017l3.237,2.057c.406-.668.852-1.309,1.277-1.966s.849-1.311,1.3-1.95c.892-1.282,1.768-2.575,2.7-3.827,1.824-2.538,3.766-4.987,5.745-7.4l-2.954-2.449C541.127,651.922,539.134,654.435,537.264,657.037Z" transform="translate(-508.27 -593.845)" fill="#602db2"/>
        <path id="Path_1441" data-name="Path 1441" d="M927.578,444.7c-3.184.353-6.368.74-9.528,1.287l.63,3.785c3.077-.534,6.181-.911,9.285-1.255,3.109-.288,6.226-.542,9.349-.644l-.15-3.833C933.964,444.144,930.77,444.4,927.578,444.7Z" transform="translate(-791.314 -443.308)" fill="#fbb040"/>
        <path id="Path_1442" data-name="Path 1442" d="M889.483,453.235a2.526,2.526,0,1,0,2.89,2A2.467,2.467,0,0,0,889.483,453.235Z" transform="translate(-768.973 -450.008)" fill="#0b928e"/>
        <path id="Path_1443" data-name="Path 1443" d="M1035.5,447.933a146.227,146.227,0,0,1,18.628,1.955l.641-3.782a149.953,149.953,0,0,0-19.109-2.006Z" transform="translate(-877.393 -443.352)" fill="#aa0952"/>
        <path id="Path_1444" data-name="Path 1444" d="M1122.871,453.583a2.449,2.449,0,0,0-2.9,1.987,2.423,2.423,0,1,0,4.738,1A2.46,2.46,0,0,0,1122.871,453.583Z" transform="translate(-939.269 -450.26)" fill="#ad2d95"/>
        <path id="Path_1445" data-name="Path 1445" d="M1006.214,441.3a2.526,2.526,0,1,0,2.417,2.556A2.472,2.472,0,0,0,1006.214,441.3Z" transform="translate(-854.152 -441.3)" fill="#115d8e"/>
        <path id="Path_1446" data-name="Path 1446" d="M811.487,463.914c-3.056.972-6.061,2.089-9.047,3.251l1.416,3.566c2.911-1.133,5.839-2.222,8.817-3.168,2.965-.983,5.975-1.822,9-2.615l-.951-3.718C817.62,462.045,814.529,462.9,811.487,463.914Z" transform="translate(-706.584 -455.907)" fill="#602db2"/>
        <path id="Path_1447" data-name="Path 1447" d="M1150.521,461.23l-.951,3.718c3.021.793,6.031,1.632,9,2.615,2.978.948,5.906,2.035,8.817,3.168l1.416-3.566c-2.986-1.165-5.994-2.278-9.047-3.251C1156.71,462.9,1153.619,462.045,1150.521,461.23Z" transform="translate(-960.994 -455.907)" fill="#602db2"/>
        <path id="Path_1448" data-name="Path 1448" d="M1259.15,506.575a147.275,147.275,0,0,1,16.195,9.407l2.134-3.189a150.92,150.92,0,0,0-16.617-9.653Z" transform="translate(-1041.305 -486.622)" fill="#fbb040"/>
        <path id="Path_1449" data-name="Path 1449" d="M1235.982,490.553a2.526,2.526,0,1,0,1.165,3.317A2.47,2.47,0,0,0,1235.982,490.553Z" transform="translate(-1021.783 -477.248)" fill="#0b928e"/>
        <path id="Path_1450" data-name="Path 1450" d="M1366.1,572.92c-1.2-1.06-2.388-2.137-3.622-3.16-.615-.513-1.218-1.042-1.843-1.544l-1.872-1.506-2.385,3,1.824,1.469c.609.489,1.2,1,1.795,1.507,1.2,1,2.361,2.046,3.531,3.08,2.308,2.1,4.578,4.252,6.75,6.5l2.746-2.679C1370.8,577.282,1368.469,575.078,1366.1,572.92Z" transform="translate(-1112.564 -533.212)" fill="#aa0952"/>
        <path id="Path_1451" data-name="Path 1451" d="M1422.652,627.408a2.546,2.546,0,0,0-1.795.689,2.611,2.611,0,0,0-.831,1.728,2.4,2.4,0,0,0,.59,1.744,2.487,2.487,0,0,0,3.483.123,2.462,2.462,0,0,0,.27-3.5A2.339,2.339,0,0,0,1422.652,627.408Z" transform="translate(-1159.207 -577.697)" fill="#ad2d95"/>
        <path id="Path_1452" data-name="Path 1452" d="M1337.365,549.534a2.4,2.4,0,0,0-1.835-.425,2.539,2.539,0,0,0-1.616,1.047,2.588,2.588,0,0,0-.454,1.862,2.308,2.308,0,0,0,2.735,2,2.6,2.6,0,0,0,2.137-2.861A2.4,2.4,0,0,0,1337.365,549.534Z" transform="translate(-1095.748 -520.286)" fill="#231f20"/>
        <path id="Path_1453" data-name="Path 1453" d="M1504.052,752.2l.521,1.05,1.042,2.1.991,2.123.5,1.06.473,1.071.94,2.148c.3.718.593,1.445.889,2.166.606,1.44,1.138,2.909,1.7,4.367l3.6-1.327c-.574-1.5-1.119-3-1.741-4.479-.3-.74-.6-1.485-.913-2.222l-.964-2.2-.483-1.1-.508-1.09-1.018-2.177-1.068-2.153-.534-1.076-.561-1.063-3.4,1.774Z" transform="translate(-1220.395 -667.098)" fill="#fbb040"/>
        <path id="Path_1454" data-name="Path 1454" d="M1489.805,727.1a2.526,2.526,0,1,0,.956-3.341A2.473,2.473,0,0,0,1489.805,727.1Z" transform="translate(-1210.12 -648.047)" fill="#0b928e"/>
        <path id="Path_1455" data-name="Path 1455" d="M1549.707,878.754l3.8-.55a150,150,0,0,0-3.956-18.8l-3.7,1.028A145.7,145.7,0,0,1,1549.707,878.754Z" transform="translate(-1251.426 -747.724)" fill="#aa0952"/>
        <path id="Path_1456" data-name="Path 1456" d="M1563.045,944.546a2.425,2.425,0,1,0,2.786,2.148A2.477,2.477,0,0,0,1563.045,944.546Z" transform="translate(-1262.379 -810.112)" fill="#ad2d95"/>
        <path id="Path_1457" data-name="Path 1457" d="M1536.867,833.415a2.359,2.359,0,0,0,1.223,1.384,2.6,2.6,0,0,0,3.408-1.058,2.375,2.375,0,0,0,.171-1.875,2.446,2.446,0,0,0-3.157-1.525A2.5,2.5,0,0,0,1536.867,833.415Z" transform="translate(-1244.762 -726.322)" fill="#115d8e"/>
        <path id="Path_1458" data-name="Path 1458" d="M1447.2,663.138c.449.638.865,1.3,1.3,1.95s.871,1.3,1.277,1.966l3.237-2.057c-.417-.684-.874-1.343-1.309-2.016s-.871-1.346-1.333-2c-.916-1.314-1.814-2.642-2.772-3.926-1.87-2.6-3.862-5.115-5.893-7.594l-2.954,2.449c1.979,2.417,3.921,4.867,5.745,7.4C1445.43,660.561,1446.306,661.856,1447.2,663.138Z" transform="translate(-1172.933 -593.859)" fill="#602db2"/>
      </g>
    </g>
  </g>
</svg>
