<svg xmlns="http://www.w3.org/2000/svg" width="580" height="580" viewBox="0 0 580 580">
  <g id="Group_186" data-name="Group 186" transform="translate(1579 -1735.121)">
    <rect id="Rectangle_321" data-name="Rectangle 321" width="580" height="580" rx="290" transform="translate(-1579 1735.121)" fill="#fff"/>
    <g id="Group_185" data-name="Group 185" transform="translate(-1572 1742.121)">
      <path id="Path_1223" data-name="Path 1223" d="M1399.574,1036.935q-5.715-3.9-11.431-7.485l-.18,7.05-.09,3.525-.27,3.517c-.4,4.682-.594,9.387-1.293,14.031,8.395-3.735,16.338-7.936,24.485-12.536q-2.75-2.1-5.516-4.126C1403.385,1039.558,1401.476,1038.228,1399.574,1036.935Z" transform="translate(-846.276 -743.974)" fill="#115d8e"/>
      <path id="Path_1224" data-name="Path 1224" d="M1388.807,1078.852c-1.691-1.481-3.51-2.946-5.261-4.381-.165,1.165-.256,2.337-.481,3.487l-.624,3.464-1.24,6.937-.308,1.736-.4,1.714-.8,3.434-1.578,6.861q6.414-2,12.919-4.3,3.246-1.15,6.508-2.382l3.269-1.248,3.187-1.308q-5.017-4.9-10.108-9.5Q1391.358,1081.069,1388.807,1078.852Z" transform="translate(-844.241 -755.16)" fill="#0b928e"/>
      <path id="Path_1225" data-name="Path 1225" d="M1402.739,1064.15q-4.712,2.311-9.409,4.434,4,3.269,7.989,6.7c2.6,2.285,5.125,4.622,7.681,7.027.331-1.9.7-3.8,1-5.712l.736-5.749.729-5.749c.105-.962.271-1.916.331-2.878l.225-2.886-4.584,2.458C1405.911,1062.6,1404.295,1063.376,1402.739,1064.15Z" transform="translate(-848.02 -751.401)" fill="#fbb040"/>
      <path id="Path_1226" data-name="Path 1226" d="M1373.058,1118.63l-1.924,6.779c-.706,2.24-1.5,4.449-2.239,6.681l-1.127,3.337c-.391,1.1-.707,2.24-1.172,3.322l-2.585,6.553q6.685-1.116,13.482-2.518c2.292-.458,4.456-.992,6.7-1.526q3.337-.812,6.711-1.7c-2.856-3.675-5.7-7.23-8.665-10.717Q1377.7,1123.579,1373.058,1118.63Z" transform="translate(-840.735 -766.133)" fill="#ad2d95"/>
      <path id="Path_1227" data-name="Path 1227" d="M1357.013,1161.22l-2.9,6.418c-.97,2.142-1.894,4.3-3.014,6.366l-3.209,6.268c-.549,1.037-1.045,2.1-1.631,3.126l-1.759,3.051c2.27-.068,4.562-.158,6.861-.271s4.517-.3,6.8-.481q6.82-.564,13.775-1.405c-2.262-3.976-4.765-7.943-7.267-11.8S1359.606,1164.88,1357.013,1161.22Z" transform="translate(-835.888 -776.715)" fill="#115d8e"/>
      <path id="Path_1228" data-name="Path 1228" d="M1375.5,1167.748q2.863,4.317,5.644,8.808l2.39-5.283c.789-1.766,1.624-3.51,2.3-5.321l4.254-10.792q-10.36,2.379-20.464,4.066C1371.694,1162.052,1373.581,1164.862,1375.5,1167.748Z" transform="translate(-842.129 -775.209)" fill="#aa0952"/>
      <path id="Path_1229" data-name="Path 1229" d="M1353.935,1210.722c1.511,3.1,2.954,6.238,4.389,9.439,1.037-1.631,2.1-3.247,3.111-4.885l2.893-5.02c1.916-3.359,3.915-6.666,5.606-10.146-6.877.759-13.941,1.135-20.795,1.36Q1351.586,1206.013,1353.935,1210.722Z" transform="translate(-837.04 -786.378)" fill="#fbb040"/>
      <path id="Path_1230" data-name="Path 1230" d="M1219.6,1331c-.218,6.854-.6,13.926-1.36,20.795,3.48-1.691,6.786-3.69,10.146-5.606l5.02-2.893c1.638-1.022,3.262-2.074,4.885-3.111-3.194-1.428-6.328-2.878-9.439-4.389Q1224.162,1333.439,1219.6,1331Z" transform="translate(-804.516 -818.9)" fill="#602db2"/>
      <path id="Path_1231" data-name="Path 1231" d="M1389.4,1113.136c-1.646.526-3.322,1.03-4.983,1.526,4.652,5,9.274,10.228,13.768,15.684l3.179-11.153c.255-.932.541-1.856.774-2.8l.654-2.826,1.308-5.652q-4.938,1.871-9.822,3.562Z" transform="translate(-845.807 -763.472)" fill="#602db2"/>
      <path id="Path_1232" data-name="Path 1232" d="M1338.673,1207.505c-.984-2.007-2.1-4.073-3.164-6.065-.6,1.007-1.135,2.059-1.789,3.036l-1.9,2.968-3.8,5.937c-.609,1.007-1.33,1.939-2,2.9l-2.044,2.871c-1.368,1.909-2.7,3.848-4.1,5.727,4.5.443,8.988.744,13.58.992q3.438.18,6.914.3c2.315.075,4.682.15,6.959.135q-2.751-6.459-5.682-12.663Q1340.177,1210.534,1338.673,1207.505Z" transform="translate(-829.768 -786.709)" fill="#0b928e"/>
      <path id="Path_1233" data-name="Path 1233" d="M1308.983,1238.65c-1.466,1.834-2.871,3.72-4.381,5.516l-4.614,5.328c-3,3.622-6.35,6.921-9.567,10.349,8.755,1.992,17.939,3.81,27.033,4.983q-1.849-6.73-3.916-13.227C1312.139,1247.247,1310.561,1242.881,1308.983,1238.65Z" transform="translate(-822.45 -795.954)" fill="#ad2d95"/>
      <path id="Path_1234" data-name="Path 1234" d="M1326.987,1250.012c1.112,3.292,2.255,6.681,3.2,9.988,1.293-1.436,2.435-3,3.645-4.5l3.577-4.554c2.45-2.991,4.6-6.208,6.861-9.342-7.042-.241-13.828-.586-20.772-1.353Q1325.293,1245.064,1326.987,1250.012Z" transform="translate(-830.67 -796.352)" fill="#602db2"/>
      <path id="Path_1235" data-name="Path 1235" d="M1267.635,1281.837l-5.328,4.614c-1.8,1.518-3.683,2.916-5.516,4.381,4.231,1.578,8.59,3.156,12.941,4.554q6.493,2.063,13.227,3.915c-1.172-9.094-2.991-18.277-4.983-27.032C1274.556,1275.487,1271.257,1278.838,1267.635,1281.837Z" transform="translate(-814.094 -804.308)" fill="#115d8e"/>
      <path id="Path_1236" data-name="Path 1236" d="M1244.012,1315.3c-.248-4.592-.556-9.079-.992-13.58-1.886,1.4-3.825,2.728-5.727,4.1l-2.871,2.044c-.962.676-1.894,1.39-2.9,2l-5.937,3.8-2.968,1.9c-.977.654-2.021,1.188-3.036,1.789,2,1.067,4.058,2.187,6.065,3.164q3.032,1.511,6.132,2.969,6.2,2.931,12.663,5.682c.015-2.277-.068-4.645-.135-6.959S1244.132,1317.592,1244.012,1315.3Z" transform="translate(-804.849 -811.625)" fill="#0b928e"/>
      <path id="Path_1237" data-name="Path 1237" d="M1258.39,1305.36c.759,6.944,1.112,13.738,1.353,20.772,3.134-2.262,6.35-4.411,9.342-6.861l4.554-3.577c1.511-1.21,3.066-2.352,4.5-3.645-3.307-.947-6.7-2.089-9.988-3.2Q1263.2,1307.156,1258.39,1305.36Z" transform="translate(-814.492 -812.53)" fill="#fbb040"/>
      <path id="Path_1238" data-name="Path 1238" d="M1297.141,1295.394l8.387-8,8-8.387q-10.45-1.748-20.4-4.021Q1295.4,1284.933,1297.141,1295.394Z" transform="translate(-823.121 -804.984)" fill="#aa0952"/>
      <path id="Path_1239" data-name="Path 1239" d="M1198.411,1329.737l-6.268,3.209c-2.067,1.12-4.231,2.044-6.365,3.014l-6.418,2.9q5.49,3.889,11.281,7.651c3.855,2.5,7.823,5.005,11.8,7.267q.845-6.955,1.406-13.776c.18-2.285.361-4.509.481-6.8s.2-4.584.271-6.861l-3.051,1.759C1200.516,1328.692,1199.456,1329.188,1198.411,1329.737Z" transform="translate(-794.855 -817.743)" fill="#ad2d95"/>
      <path id="Path_1240" data-name="Path 1240" d="M1153.557,1349.638l-3.337,1.127c-2.225.744-4.442,1.526-6.681,2.24l-6.779,1.924q4.949,4.633,10.206,9.184c3.48,2.961,7.042,5.809,10.717,8.665.594-2.247,1.157-4.479,1.7-6.711s1.067-4.4,1.526-6.7q1.409-6.8,2.518-13.482l-6.553,2.585C1155.8,1348.924,1154.661,1349.239,1153.557,1349.638Z" transform="translate(-784.27 -822.598)" fill="#115d8e"/>
      <path id="Path_1241" data-name="Path 1241" d="M1177.376,1351.47q-1.7,10.1-4.066,20.464l10.792-4.254c1.811-.677,3.555-1.51,5.321-2.3l5.283-2.39q-4.487-2.784-8.808-5.644C1183,1355.438,1180.2,1353.544,1177.376,1351.47Z" transform="translate(-793.352 -823.987)" fill="#aa0952"/>
      <path id="Path_1242" data-name="Path 1242" d="M1113.382,1361.561l-3.434.8-1.714.4-1.736.308-6.937,1.24-3.464.624c-1.157.218-2.33.316-3.487.481,1.435,1.751,2.908,3.577,4.381,5.261q2.221,2.548,4.517,5.1,4.6,5.084,9.5,10.108l1.308-3.187,1.247-3.269c.819-2.179,1.616-4.344,2.382-6.508q2.3-6.493,4.3-12.919Z" transform="translate(-773.3 -826.104)" fill="#0b928e"/>
      <path id="Path_1243" data-name="Path 1243" d="M1061.671,1369.453l-3.517.271-3.525.09-7.049.18q3.585,5.715,7.485,11.431c1.3,1.9,2.623,3.81,3.976,5.7q2.018,2.762,4.126,5.516c4.6-8.154,8.8-16.09,12.535-24.485C1071.058,1368.867,1066.353,1369.062,1061.671,1369.453Z" transform="translate(-762.112 -828.134)" fill="#ad2d95"/>
      <path id="Path_1244" data-name="Path 1244" d="M1086.734,1375.19q-2.131,4.69-4.434,9.409c-.774,1.556-1.548,3.171-2.352,4.689l-2.458,4.584,2.886-.225c.962-.06,1.917-.225,2.878-.331l5.749-.729,5.749-.737c1.909-.3,3.81-.669,5.711-1-2.4-2.548-4.735-5.08-7.027-7.681Q1090,1379.2,1086.734,1375.19Z" transform="translate(-769.543 -829.881)" fill="#602db2"/>
      <path id="Path_1245" data-name="Path 1245" d="M1131.288,1371.265l-1.646,4.885q-1.691,4.893-3.562,9.823l5.651-1.308,2.826-.654c.939-.24,1.864-.518,2.8-.774l11.153-3.179c-5.449-4.5-10.687-9.116-15.684-13.768C1132.318,1367.936,1131.814,1369.619,1131.288,1371.265Z" transform="translate(-781.617 -827.669)" fill="#fbb040"/>
      <path id="Path_1246" data-name="Path 1246" d="M1030.612,1369.994l-7.049-.18-3.525-.09-3.517-.271c-4.682-.4-9.387-.594-14.031-1.293,3.735,8.395,7.936,16.338,12.536,24.485q2.1-2.751,4.126-5.516c1.353-1.894,2.675-3.8,3.976-5.7Q1027.028,1375.72,1030.612,1369.994Z" transform="translate(-750.908 -828.134)" fill="#115d8e"/>
      <path id="Path_1247" data-name="Path 1247" d="M981.362,1370.667c1.481-1.691,2.946-3.51,4.381-5.261-1.165-.165-2.337-.255-3.487-.481l-3.464-.624-6.937-1.24-1.736-.308-1.714-.4-3.435-.8-6.862-1.578q2,6.414,4.3,12.919,1.15,3.247,2.382,6.508l1.248,3.269,1.308,3.187q4.9-5.017,9.5-10.108Q979.145,1373.218,981.362,1370.667Z" transform="translate(-739.881 -826.101)" fill="#0b928e"/>
      <path id="Path_1248" data-name="Path 1248" d="M997.6,1384.6q-2.311-4.712-4.434-9.409-3.269,4-6.7,7.989c-2.285,2.6-4.622,5.125-7.027,7.681,1.9.331,3.8.7,5.712,1l5.749.736,5.749.729c.962.105,1.916.27,2.878.33l2.886.226-2.458-4.585C999.16,1387.771,998.379,1386.155,997.6,1384.6Z" transform="translate(-745.181 -829.881)" fill="#fbb040"/>
      <path id="Path_1249" data-name="Path 1249" d="M941.912,1354.918l-6.779-1.924c-2.239-.706-4.449-1.5-6.681-2.24l-3.337-1.127c-1.1-.391-2.24-.706-3.322-1.172l-6.553-2.585q1.116,6.685,2.518,13.482c.458,2.292.992,4.457,1.526,6.7q.812,3.337,1.7,6.711c3.675-2.856,7.23-5.7,10.717-8.665Q936.963,1359.559,941.912,1354.918Z" transform="translate(-729.229 -822.595)" fill="#ad2d95"/>
      <path id="Path_1250" data-name="Path 1250" d="M899.8,1338.873l-6.418-2.9c-2.142-.969-4.3-1.894-6.365-3.014l-6.268-3.209c-1.037-.548-2.1-1.045-3.126-1.631l-3.051-1.759c.068,2.27.158,4.562.271,6.862s.3,4.517.481,6.8q.564,6.82,1.405,13.776c3.976-2.262,7.944-4.765,11.8-7.267Q894.3,1342.755,899.8,1338.873Z" transform="translate(-719.124 -817.748)" fill="#115d8e"/>
      <path id="Path_1251" data-name="Path 1251" d="M894.528,1357.347q-4.318,2.863-8.808,5.644l5.283,2.39c1.766.789,3.51,1.623,5.321,2.3l10.792,4.253q-2.379-10.36-4.066-20.464C900.224,1353.544,897.414,1355.438,894.528,1357.347Z" transform="translate(-721.894 -823.987)" fill="#aa0952"/>
      <path id="Path_1252" data-name="Path 1252" d="M852,1335.795c-3.1,1.511-6.238,2.953-9.439,4.389,1.631,1.037,3.247,2.1,4.885,3.111l5.02,2.893c3.359,1.916,6.666,3.915,10.146,5.606-.759-6.877-1.135-13.941-1.36-20.795Q856.719,1333.446,852,1335.795Z" transform="translate(-711.17 -818.9)" fill="#fbb040"/>
      <path id="Path_1253" data-name="Path 1253" d="M731.475,1201.46c-6.854-.218-13.926-.6-20.795-1.36,1.691,3.479,3.69,6.786,5.606,10.146l2.893,5.02c1.022,1.638,2.074,3.262,3.111,4.885,1.428-3.194,2.878-6.328,4.389-9.439Q729.036,1206.022,731.475,1201.46Z" transform="translate(-678.402 -786.376)" fill="#602db2"/>
      <path id="Path_1254" data-name="Path 1254" d="M948.8,1371.263c-.526-1.646-1.03-3.322-1.526-4.983-5,4.652-10.228,9.274-15.684,13.768l11.153,3.179c.932.255,1.856.541,2.8.774l2.826.654,5.652,1.308q-1.871-4.937-3.562-9.823Z" transform="translate(-733.292 -827.666)" fill="#602db2"/>
      <path id="Path_1255" data-name="Path 1255" d="M853.623,1320.523c2.007-.984,4.073-2.1,6.065-3.164-1.007-.6-2.059-1.135-3.036-1.789l-2.969-1.9-5.937-3.8c-1.007-.609-1.939-1.33-2.9-2l-2.871-2.044c-1.909-1.368-3.848-2.7-5.727-4.1-.443,4.5-.744,8.988-.992,13.58q-.18,3.438-.3,6.914c-.075,2.315-.15,4.682-.135,6.959q6.459-2.751,12.663-5.682Q850.594,1322.038,853.623,1320.523Z" transform="translate(-709.246 -811.625)" fill="#0b928e"/>
      <path id="Path_1256" data-name="Path 1256" d="M811.211,1281.837c-3.622-3-6.922-6.35-10.349-9.567-1.992,8.755-3.81,17.939-4.983,27.032q6.73-1.849,13.227-3.915c4.351-1.4,8.718-2.976,12.941-4.554-1.834-1.465-3.72-2.871-5.516-4.381Z" transform="translate(-699.572 -804.308)" fill="#ad2d95"/>
      <path id="Path_1257" data-name="Path 1257" d="M802.82,1312.049c1.435,1.293,3,2.435,4.5,3.645l4.554,3.577c2.991,2.45,6.208,4.6,9.342,6.861.24-7.042.586-13.828,1.353-20.772q-4.814,1.792-9.762,3.487C809.524,1309.952,806.127,1311.094,802.82,1312.049Z" transform="translate(-701.296 -812.53)" fill="#602db2"/>
      <path id="Path_1258" data-name="Path 1258" d="M778.576,1249.495l-4.615-5.328c-1.518-1.8-2.916-3.682-4.381-5.516-1.578,4.231-3.156,8.59-4.554,12.941q-2.063,6.493-3.915,13.227c9.093-1.173,18.277-2.991,27.033-4.983C784.926,1256.416,781.574,1253.117,778.576,1249.495Z" transform="translate(-690.932 -795.954)" fill="#115d8e"/>
      <path id="Path_1259" data-name="Path 1259" d="M744.973,1225.862c4.592-.248,9.078-.556,13.58-.992-1.4-1.886-2.728-3.825-4.1-5.727l-2.044-2.871c-.676-.962-1.39-1.894-2-2.9l-3.8-5.937-1.9-2.968c-.654-.977-1.187-2.022-1.789-3.036-1.067,2-2.187,4.058-3.164,6.065q-1.511,3.032-2.969,6.133-2.931,6.2-5.682,12.663c2.277.015,4.644-.068,6.959-.135S742.689,1225.982,744.973,1225.862Z" transform="translate(-683.476 -786.706)" fill="#0b928e"/>
      <path id="Path_1260" data-name="Path 1260" d="M736.36,1241.6c2.262,3.134,4.411,6.351,6.861,9.342l3.577,4.554c1.21,1.511,2.352,3.066,3.645,4.5.947-3.307,2.089-6.7,3.2-9.988q1.691-4.949,3.487-9.762C750.188,1241.017,743.394,1241.362,736.36,1241.6Z" transform="translate(-684.783 -796.352)" fill="#fbb040"/>
      <path id="Path_1261" data-name="Path 1261" d="M775.216,1287.388l8.387,8q1.747-10.45,4.021-20.4-9.954,2.266-20.4,4.021Z" transform="translate(-692.45 -804.981)" fill="#aa0952"/>
      <path id="Path_1262" data-name="Path 1262" d="M727.079,1186.178q3.449.169,6.861.271l-1.759-3.051c-.586-1.022-1.082-2.082-1.631-3.126L727.342,1174c-1.12-2.067-2.044-4.231-3.014-6.366l-2.9-6.418q-3.889,5.49-7.651,11.281c-2.5,3.855-5.005,7.823-7.267,11.8q6.955.845,13.776,1.405C722.555,1185.885,724.78,1186.066,727.079,1186.178Z" transform="translate(-677.366 -776.715)" fill="#ad2d95"/>
      <path id="Path_1263" data-name="Path 1263" d="M701.095,1142.774q6.8,1.409,13.482,2.517l-2.585-6.553c-.458-1.082-.774-2.217-1.172-3.322l-1.127-3.337c-.744-2.224-1.526-4.442-2.239-6.681l-1.924-6.779q-4.633,4.949-9.184,10.206c-2.961,3.479-5.809,7.042-8.665,10.717,2.247.594,4.479,1.157,6.711,1.7C696.646,1141.775,698.8,1142.316,701.095,1142.774Z" transform="translate(-672.687 -766.13)" fill="#115d8e"/>
      <path id="Path_1264" data-name="Path 1264" d="M711.114,1159.236q-10.1-1.7-20.464-4.066l4.254,10.792c.677,1.811,1.511,3.555,2.3,5.321l2.39,5.283q2.784-4.487,5.644-8.808C707.154,1164.865,709.04,1162.054,711.114,1159.236Z" transform="translate(-673.425 -775.212)" fill="#aa0952"/>
      <path id="Path_1265" data-name="Path 1265" d="M681.381,1095.433c2.179.819,4.344,1.616,6.508,2.382q6.493,2.3,12.911,4.3l-1.578-6.861-.8-3.434-.4-1.714-.308-1.736-1.24-6.937-.624-3.464c-.218-1.157-.316-2.33-.481-3.487-1.751,1.435-3.577,2.908-5.261,4.381q-2.548,2.221-5.1,4.517-5.084,4.6-10.108,9.5l3.187,1.308Z" transform="translate(-669.514 -755.163)" fill="#0b928e"/>
      <path id="Path_1266" data-name="Path 1266" d="M691.8,1043.531l-.271-3.517-.09-3.525-.18-7.049q-5.715,3.585-11.431,7.485c-1.9,1.3-3.81,2.623-5.7,3.976q-2.762,2.018-5.516,4.126c8.154,4.6,16.09,8.8,24.485,12.536C692.4,1052.918,692.2,1048.213,691.8,1043.531Z" transform="translate(-667.949 -743.971)" fill="#ad2d95"/>
      <path id="Path_1267" data-name="Path 1267" d="M687.983,1068.584q-4.69-2.131-9.409-4.434c-1.556-.774-3.171-1.548-4.689-2.352l-4.584-2.458.225,2.886c.06.962.225,1.916.331,2.878l.729,5.749.736,5.749c.3,1.909.669,3.81,1,5.712,2.548-2.4,5.08-4.735,7.681-7.027Q683.97,1071.849,687.983,1068.584Z" transform="translate(-668.12 -751.401)" fill="#602db2"/>
      <path id="Path_1268" data-name="Path 1268" d="M691.588,1113.138l-4.885-1.646q-4.892-1.691-9.822-3.562l1.308,5.652.654,2.826c.24.939.518,1.864.774,2.8l3.186,11.153c4.5-5.449,9.116-10.687,13.768-15.684C694.909,1114.175,693.226,1113.672,691.588,1113.138Z" transform="translate(-670.004 -763.474)" fill="#fbb040"/>
      <path id="Path_1269" data-name="Path 1269" d="M1036.922,1382.952q-4.1,6.29-8.583,12.58l8.447.211,3.134.075,11.581-.293q-6.144-8.613-11.581-17.255Q1038.444,1380.615,1036.922,1382.952Z" transform="translate(-757.331 -830.646)" fill="#aa0952"/>
      <path id="Path_1270" data-name="Path 1270" d="M679.83,1004.987q5.715,3.9,11.431,7.485l.18-7.049.09-3.525.271-3.517c.4-4.682.594-9.387,1.293-14.031-8.395,3.735-16.338,7.936-24.485,12.536q2.751,2.1,5.516,4.126C676.013,1002.357,677.929,1003.687,679.83,1004.987Z" transform="translate(-667.949 -732.768)" fill="#115d8e"/>
      <path id="Path_1271" data-name="Path 1271" d="M690.138,963.222c1.691,1.481,3.51,2.946,5.261,4.381.165-1.165.256-2.337.481-3.487l.624-3.464,1.24-6.937.308-1.736.4-1.714.8-3.434,1.578-6.861q-6.414,2-12.911,4.3-3.247,1.15-6.508,2.382l-3.269,1.248-3.186,1.308q5.016,4.9,10.108,9.5Q687.572,961.005,690.138,963.222Z" transform="translate(-669.524 -721.741)" fill="#0b928e"/>
      <path id="Path_1272" data-name="Path 1272" d="M678.581,979.464q4.712-2.311,9.409-4.434-4-3.269-7.989-6.7c-2.6-2.285-5.125-4.622-7.681-7.027-.331,1.9-.7,3.8-1,5.712l-.737,5.749-.729,5.749c-.105.962-.271,1.916-.331,2.878l-.225,2.886,4.584-2.458C675.4,981.02,677.018,980.238,678.581,979.464Z" transform="translate(-668.12 -727.041)" fill="#fbb040"/>
      <path id="Path_1273" data-name="Path 1273" d="M705.539,923.762l1.924-6.779c.706-2.24,1.5-4.449,2.24-6.681l1.127-3.337c.391-1.1.706-2.24,1.172-3.322l2.585-6.553q-6.685,1.116-13.482,2.518c-2.292.458-4.457.992-6.7,1.526q-3.337.812-6.711,1.7c2.856,3.675,5.7,7.23,8.665,10.717Q700.909,918.813,705.539,923.762Z" transform="translate(-672.689 -711.087)" fill="#ad2d95"/>
      <path id="Path_1274" data-name="Path 1274" d="M721.415,881.659l2.9-6.418c.969-2.142,1.894-4.3,3.014-6.365l3.209-6.268c.549-1.037,1.045-2.1,1.631-3.126l1.759-3.051c-2.27.068-4.562.158-6.861.271s-4.517.3-6.8.481q-6.82.564-13.776,1.405c2.262,3.976,4.765,7.944,7.267,11.8S718.823,877.991,721.415,881.659Z" transform="translate(-677.361 -700.984)" fill="#115d8e"/>
      <path id="Path_1275" data-name="Path 1275" d="M705.237,876.388q-2.863-4.318-5.644-8.808l-2.39,5.283c-.789,1.766-1.623,3.51-2.3,5.321l-4.254,10.792q10.36-2.379,20.464-4.066C709.04,882.084,707.154,879.274,705.237,876.388Z" transform="translate(-673.425 -703.754)" fill="#aa0952"/>
      <path id="Path_1276" data-name="Path 1276" d="M726.69,833.859c-1.511-3.1-2.953-6.238-4.389-9.439-1.037,1.631-2.1,3.247-3.111,4.885l-2.893,5.02c-1.916,3.359-3.915,6.666-5.606,10.146,6.877-.759,13.941-1.135,20.795-1.36Q729.039,838.568,726.69,833.859Z" transform="translate(-678.404 -693.03)" fill="#fbb040"/>
      <path id="Path_1277" data-name="Path 1277" d="M847.455,701.04c-1.638,1.022-3.262,2.074-4.885,3.111,3.194,1.428,6.328,2.878,9.439,4.389q4.712,2.356,9.259,4.795c.218-6.854.6-13.926,1.36-20.795-3.48,1.691-6.786,3.69-10.146,5.606Z" transform="translate(-711.173 -660.262)" fill="#602db2"/>
      <path id="Path_1278" data-name="Path 1278" d="M691.588,930.66c1.646-.526,3.322-1.03,4.983-1.526-4.652-5-9.274-10.228-13.768-15.684L679.616,924.6c-.256.932-.541,1.856-.774,2.8l-.654,2.826-1.308,5.652q4.938-1.871,9.822-3.562Z" transform="translate(-670.004 -715.152)" fill="#602db2"/>
      <path id="Path_1279" data-name="Path 1279" d="M739.75,835.483c.984,2.007,2.1,4.073,3.164,6.065.6-1.007,1.135-2.059,1.789-3.036l1.9-2.969,3.8-5.937c.609-1.007,1.33-1.939,2-2.9l2.044-2.871c1.368-1.909,2.7-3.848,4.1-5.727-4.5-.443-8.988-.744-13.58-.992q-3.438-.18-6.914-.3c-2.315-.075-4.682-.15-6.959-.135q2.751,6.459,5.682,12.663Q738.247,832.454,739.75,835.483Z" transform="translate(-683.476 -691.106)" fill="#0b928e"/>
      <path id="Path_1280" data-name="Path 1280" d="M769.58,803.906c1.466-1.834,2.871-3.72,4.381-5.516l4.614-5.328c3-3.622,6.35-6.922,9.567-10.349-8.755-1.992-17.939-3.81-27.033-4.983q1.849,6.73,3.916,13.227C766.423,795.316,768,799.675,769.58,803.906Z" transform="translate(-690.932 -681.429)" fill="#ad2d95"/>
      <path id="Path_1281" data-name="Path 1281" d="M753.645,794.668c-1.112-3.292-2.255-6.681-3.2-9.988-1.293,1.435-2.435,3-3.645,4.5l-3.577,4.554c-2.45,2.991-4.6,6.208-6.861,9.341,7.042.241,13.828.586,20.772,1.353Q755.329,799.617,753.645,794.668Z" transform="translate(-684.783 -683.156)" fill="#602db2"/>
      <path id="Path_1282" data-name="Path 1282" d="M811.214,760.436l5.328-4.614c1.8-1.518,3.683-2.916,5.516-4.381-4.231-1.578-8.59-3.156-12.941-4.554q-6.493-2.063-13.227-3.916c1.172,9.093,2.991,18.277,4.983,27.032C804.285,766.786,807.584,763.434,811.214,760.436Z" transform="translate(-699.574 -672.792)" fill="#115d8e"/>
      <path id="Path_1283" data-name="Path 1283" d="M835.268,726.833c.248,4.592.556,9.078.992,13.58,1.886-1.4,3.825-2.728,5.727-4.1l2.871-2.044c.962-.676,1.894-1.39,2.9-2l5.937-3.8,2.969-1.9c.977-.654,2.022-1.187,3.036-1.789-2-1.067-4.058-2.187-6.065-3.164q-3.032-1.511-6.132-2.969-6.2-2.931-12.663-5.682c-.015,2.277.068,4.644.135,6.959S835.148,724.541,835.268,726.833Z" transform="translate(-709.251 -665.336)" fill="#0b928e"/>
      <path id="Path_1284" data-name="Path 1284" d="M822.57,738.992c-.759-6.944-1.112-13.738-1.353-20.772-3.134,2.262-6.35,4.411-9.342,6.861l-4.554,3.577c-1.511,1.21-3.066,2.352-4.5,3.645,3.307.947,6.7,2.089,9.988,3.2Q817.768,737.185,822.57,738.992Z" transform="translate(-701.296 -666.643)" fill="#fbb040"/>
      <path id="Path_1285" data-name="Path 1285" d="M783.6,749.08l-8.387,8-8,8.387q10.45,1.747,20.4,4.021Q785.358,759.53,783.6,749.08Z" transform="translate(-692.45 -674.31)" fill="#aa0952"/>
      <path id="Path_1286" data-name="Path 1286" d="M880.735,712.4,887,709.192c2.067-1.12,4.231-2.044,6.366-3.014l6.418-2.9q-5.49-3.889-11.28-7.651c-3.855-2.5-7.823-5.005-11.8-7.267q-.845,6.955-1.405,13.775c-.18,2.285-.361,4.509-.481,6.8s-.2,4.584-.271,6.861l3.051-1.759C878.631,713.446,879.7,712.95,880.735,712.4Z" transform="translate(-719.119 -659.223)" fill="#ad2d95"/>
      <path id="Path_1287" data-name="Path 1287" d="M925.118,692.69l3.337-1.127c2.225-.744,4.441-1.526,6.681-2.24l6.779-1.924q-4.949-4.633-10.206-9.184c-3.48-2.961-7.042-5.809-10.717-8.665-.594,2.247-1.157,4.479-1.7,6.711-.534,2.247-1.067,4.4-1.526,6.7q-1.409,6.8-2.518,13.482l6.553-2.585C922.878,693.4,924.013,693.08,925.118,692.69Z" transform="translate(-729.232 -654.55)" fill="#115d8e"/>
      <path id="Path_1288" data-name="Path 1288" d="M891,679.063l-5.283,2.39q4.487,2.784,8.808,5.644c2.886,1.916,5.7,3.8,8.515,5.877q1.7-10.1,4.066-20.464l-10.792,4.254C894.513,677.44,892.769,678.274,891,679.063Z" transform="translate(-721.894 -655.285)" fill="#aa0952"/>
      <path id="Path_1289" data-name="Path 1289" d="M964.971,681.092l3.435-.8,1.714-.4,1.736-.308,6.937-1.24,3.464-.624c1.157-.218,2.33-.316,3.487-.481-1.435-1.751-2.908-3.577-4.381-5.261q-2.221-2.548-4.517-5.1-4.6-5.084-9.5-10.108l-1.308,3.186-1.248,3.269c-.819,2.179-1.616,4.344-2.382,6.508q-2.3,6.493-4.3,12.919Z" transform="translate(-739.881 -651.377)" fill="#0b928e"/>
      <path id="Path_1290" data-name="Path 1290" d="M1016.531,673.662l3.517-.271,3.525-.09,7.049-.18q-3.585-5.715-7.485-11.431c-1.3-1.9-2.623-3.81-3.976-5.7q-2.018-2.762-4.126-5.516c-4.6,8.154-8.8,16.09-12.536,24.485C1007.144,674.248,1011.849,674.053,1016.531,673.662Z" transform="translate(-750.911 -649.809)" fill="#ad2d95"/>
      <path id="Path_1291" data-name="Path 1291" d="M993.17,669.843q2.131-4.69,4.434-9.409c.774-1.556,1.548-3.171,2.352-4.69l2.458-4.584-2.886.225c-.962.06-1.916.226-2.878.331l-5.749.729-5.749.737c-1.909.3-3.81.669-5.712,1,2.4,2.548,4.735,5.08,7.027,7.681Q989.905,665.83,993.17,669.843Z" transform="translate(-745.181 -649.98)" fill="#602db2"/>
      <path id="Path_1292" data-name="Path 1292" d="M948.8,673.437l1.646-4.885q1.691-4.892,3.562-9.823l-5.651,1.308-2.826.654c-.939.24-1.864.519-2.8.774l-11.153,3.186c5.449,4.5,10.687,9.116,15.684,13.768C947.768,676.767,948.271,675.083,948.8,673.437Z" transform="translate(-733.289 -651.861)" fill="#fbb040"/>
      <path id="Path_1293" data-name="Path 1293" d="M680.6,1018.782q-6.29-4.1-12.581-8.582l-.21,8.447-.075,3.134.293,11.581q8.613-6.144,17.255-11.581Q682.934,1020.3,680.6,1018.782Z" transform="translate(-667.73 -739.191)" fill="#aa0952"/>
      <path id="Path_1294" data-name="Path 1294" d="M1047.58,673.121l7.049.18,3.525.09,3.517.271c4.682.4,9.387.594,14.031,1.293-3.735-8.394-7.936-16.338-12.535-24.485q-2.1,2.751-4.126,5.516c-1.353,1.894-2.675,3.8-3.976,5.7Q1051.176,667.395,1047.58,673.121Z" transform="translate(-762.112 -649.809)" fill="#115d8e"/>
      <path id="Path_1295" data-name="Path 1295" d="M1096.991,672c-1.48,1.691-2.946,3.51-4.381,5.261,1.165.165,2.337.255,3.487.481l3.464.624,6.937,1.24,1.736.308,1.714.4,3.434.8,6.862,1.578q-2-6.414-4.3-12.919-1.15-3.247-2.382-6.508l-1.247-3.269-1.308-3.187q-4.9,5.017-9.5,10.108Q1099.22,669.433,1096.991,672Z" transform="translate(-773.3 -651.382)" fill="#0b928e"/>
      <path id="Path_1296" data-name="Path 1296" d="M1082.29,660.441q2.311,4.712,4.434,9.409,3.269-4,6.7-7.989c2.285-2.6,4.622-5.125,7.027-7.681-1.9-.331-3.8-.7-5.712-1l-5.749-.736-5.749-.729c-.962-.105-1.917-.271-2.878-.331l-2.886-.225,2.458,4.584C1080.742,657.263,1081.523,658.878,1082.29,660.441Z" transform="translate(-769.541 -649.98)" fill="#fbb040"/>
      <path id="Path_1297" data-name="Path 1297" d="M1159.391,676.261q-.812-3.337-1.7-6.711c-3.675,2.856-7.23,5.7-10.717,8.665q-5.253,4.543-10.206,9.184l6.779,1.924c2.24.706,4.449,1.5,6.681,2.24l3.337,1.127c1.1.391,2.24.706,3.322,1.172l6.553,2.585q-1.116-6.685-2.518-13.482C1160.458,680.665,1159.925,678.5,1159.391,676.261Z" transform="translate(-784.273 -654.549)" fill="#ad2d95"/>
      <path id="Path_1298" data-name="Path 1298" d="M1203.845,702.126q-.564-6.82-1.406-13.776c-3.976,2.262-7.943,4.765-11.8,7.267s-7.621,5.058-11.281,7.651l6.418,2.9c2.142.969,4.3,1.894,6.365,3.014l6.268,3.209c1.037.549,2.1,1.045,3.126,1.631l3.051,1.759c-.068-2.27-.158-4.562-.271-6.861S1204.025,704.41,1203.845,702.126Z" transform="translate(-794.855 -659.221)" fill="#115d8e"/>
      <path id="Path_1299" data-name="Path 1299" d="M1185.888,687.1q4.318-2.863,8.808-5.644l-5.283-2.39c-1.766-.789-3.51-1.623-5.321-2.3L1173.3,672.51q2.379,10.36,4.066,20.464C1180.2,690.9,1183,689.006,1185.888,687.1Z" transform="translate(-793.349 -655.285)" fill="#aa0952"/>
      <path id="Path_1300" data-name="Path 1300" d="M1228.872,708.54c3.1-1.51,6.238-2.953,9.439-4.389-1.631-1.037-3.246-2.1-4.885-3.111l-5.02-2.893c-3.359-1.917-6.666-3.916-10.146-5.606.759,6.876,1.135,13.941,1.36,20.795Q1224.152,710.9,1228.872,708.54Z" transform="translate(-804.52 -660.262)" fill="#fbb040"/>
      <path id="Path_1301" data-name="Path 1301" d="M1349.14,843.121c6.854.218,13.926.6,20.795,1.36-1.691-3.48-3.69-6.786-5.606-10.146l-2.893-5.02c-1.022-1.638-2.074-3.262-3.111-4.885-1.428,3.194-2.878,6.328-4.389,9.439Q1351.579,838.57,1349.14,843.121Z" transform="translate(-837.04 -693.033)" fill="#602db2"/>
      <path id="Path_1302" data-name="Path 1302" d="M1131.286,673.437c.526,1.646,1.03,3.322,1.526,4.983,5-4.652,10.228-9.274,15.685-13.768l-11.153-3.186c-.932-.256-1.856-.541-2.8-.774l-2.826-.654-5.651-1.308q1.871,4.938,3.562,9.823Z" transform="translate(-781.614 -651.861)" fill="#602db2"/>
      <path id="Path_1303" data-name="Path 1303" d="M1225.645,721.61c-2.007.984-4.073,2.1-6.065,3.164,1.007.6,2.059,1.135,3.036,1.789l2.968,1.9,5.937,3.8c1.007.609,1.939,1.33,2.9,2l2.871,2.044c1.909,1.368,3.848,2.7,5.727,4.1.443-4.5.744-8.988.992-13.58q.181-3.438.3-6.914c.075-2.315.15-4.682.135-6.959q-6.459,2.751-12.663,5.682Q1228.674,720.107,1225.645,721.61Z" transform="translate(-804.849 -665.336)" fill="#0b928e"/>
      <path id="Path_1304" data-name="Path 1304" d="M1267.637,760.436c3.622,3,6.922,6.35,10.349,9.567,1.992-8.755,3.81-17.939,4.983-27.033q-6.73,1.849-13.227,3.916c-4.351,1.4-8.718,2.976-12.941,4.554,1.834,1.466,3.72,2.871,5.516,4.381Z" transform="translate(-814.097 -672.792)" fill="#ad2d95"/>
      <path id="Path_1305" data-name="Path 1305" d="M1278.15,732.3c-1.436-1.292-3-2.435-4.5-3.645l-4.554-3.577c-2.991-2.45-6.208-4.6-9.341-6.861-.24,7.042-.586,13.828-1.353,20.772q4.814-1.792,9.762-3.487C1271.447,734.393,1274.836,733.251,1278.15,732.3Z" transform="translate(-814.494 -666.643)" fill="#602db2"/>
      <path id="Path_1306" data-name="Path 1306" d="M1299.977,793.064l4.614,5.328c1.518,1.8,2.916,3.682,4.382,5.516,1.578-4.231,3.156-8.59,4.554-12.941q2.063-6.493,3.915-13.227c-9.094,1.172-18.277,2.991-27.032,4.983C1293.627,786.142,1296.979,789.441,1299.977,793.064Z" transform="translate(-822.448 -681.432)" fill="#115d8e"/>
      <path id="Path_1307" data-name="Path 1307" d="M1333.44,817.125c-4.592.248-9.078.556-13.58.992,1.4,1.886,2.728,3.825,4.1,5.727l2.044,2.871c.676.962,1.39,1.894,2,2.9l3.8,5.93,1.9,2.969c.654.977,1.187,2.022,1.789,3.036,1.067-2,2.187-4.058,3.164-6.065q1.51-3.032,2.969-6.132,2.931-6.2,5.682-12.663c-2.277-.015-4.644.068-6.959.135Q1336.882,816.949,1333.44,817.125Z" transform="translate(-829.765 -691.109)" fill="#0b928e"/>
      <path id="Path_1308" data-name="Path 1308" d="M1344.272,803.077c-2.262-3.134-4.411-6.35-6.861-9.341l-3.577-4.554c-1.21-1.51-2.352-3.066-3.645-4.5-.947,3.307-2.089,6.7-3.2,9.988q-1.691,4.949-3.487,9.762C1330.444,803.671,1337.231,803.318,1344.272,803.077Z" transform="translate(-830.67 -683.156)" fill="#fbb040"/>
      <path id="Path_1309" data-name="Path 1309" d="M1305.538,757.076l-8.387-8q-1.747,10.45-4.021,20.4,9.954-2.266,20.4-4.021Z" transform="translate(-823.124 -674.31)" fill="#aa0952"/>
      <path id="Path_1310" data-name="Path 1310" d="M1351.351,856.691q-3.45-.169-6.861-.271l1.759,3.051c.586,1.022,1.082,2.082,1.631,3.126l3.209,6.268c1.12,2.067,2.044,4.231,3.014,6.365l2.9,6.418q3.889-5.49,7.65-11.28c2.5-3.855,5.005-7.823,7.267-11.8q-6.956-.845-13.776-1.405C1355.868,856.991,1353.644,856.8,1351.351,856.691Z" transform="translate(-835.885 -700.981)" fill="#ad2d95"/>
      <path id="Path_1311" data-name="Path 1311" d="M1377.5,899.618q-6.8-1.409-13.482-2.518l2.585,6.553c.458,1.082.774,2.217,1.172,3.322l1.127,3.337c.744,2.225,1.526,4.442,2.24,6.681l1.924,6.779q4.633-4.949,9.184-10.206c2.961-3.479,5.809-7.042,8.665-10.717-2.247-.594-4.479-1.157-6.711-1.7S1379.8,900.076,1377.5,899.618Z" transform="translate(-840.738 -711.089)" fill="#115d8e"/>
      <path id="Path_1312" data-name="Path 1312" d="M1369.62,884.9q10.1,1.7,20.464,4.066l-4.254-10.792c-.676-1.811-1.511-3.555-2.3-5.321l-2.39-5.283q-2.784,4.487-5.644,8.808C1373.581,879.271,1371.694,882.082,1369.62,884.9Z" transform="translate(-842.129 -703.752)" fill="#aa0952"/>
      <path id="Path_1313" data-name="Path 1313" d="M1397.547,946.651c-2.18-.819-4.344-1.616-6.508-2.382q-6.493-2.3-12.919-4.3l1.578,6.862.8,3.434.4,1.714.308,1.736,1.24,6.937.624,3.465c.218,1.157.316,2.33.481,3.487,1.751-1.435,3.577-2.908,5.261-4.381s3.4-2.984,5.1-4.517q5.084-4.6,10.108-9.5l-3.187-1.308Z" transform="translate(-844.241 -721.741)" fill="#0b928e"/>
      <path id="Path_1314" data-name="Path 1314" d="M1387.6,998.381l.27,3.517.09,3.525.18,7.049q5.715-3.585,11.431-7.485c1.9-1.3,3.81-2.623,5.7-3.976q2.762-2.018,5.516-4.126c-8.154-4.6-16.09-8.8-24.485-12.536C1387.009,989,1387.2,993.7,1387.6,998.381Z" transform="translate(-846.276 -732.768)" fill="#ad2d95"/>
      <path id="Path_1315" data-name="Path 1315" d="M1393.33,975.03q4.69,2.131,9.409,4.434c1.556.774,3.172,1.548,4.689,2.352l4.584,2.458-.225-2.886c-.06-.962-.226-1.916-.331-2.878l-.729-5.749-.737-5.749c-.3-1.909-.669-3.81-1-5.712-2.548,2.4-5.08,4.735-7.681,7.027Q1397.343,971.765,1393.33,975.03Z" transform="translate(-848.02 -727.041)" fill="#602db2"/>
      <path id="Path_1316" data-name="Path 1316" d="M1389.405,930.658l4.885,1.646q4.893,1.691,9.822,3.562l-1.307-5.652-.654-2.826c-.24-.939-.519-1.864-.774-2.8L1398.2,913.44c-4.5,5.449-9.116,10.687-13.768,15.684C1386.083,929.62,1387.767,930.124,1389.405,930.658Z" transform="translate(-845.809 -715.149)" fill="#fbb040"/>
      <path id="Path_1317" data-name="Path 1317" d="M1413.675,1010.2q-8.612,6.144-17.255,11.581c1.556.985,3.119,1.984,4.675,3q6.29,4.1,12.58,8.583l.211-8.447.075-3.134Z" transform="translate(-848.788 -739.191)" fill="#aa0952"/>
      <path id="Path_1318" data-name="Path 1318" d="M1042.92,662.456q4.1-6.29,8.583-12.581l-8.447-.21-3.134-.075-11.581.293q6.144,8.613,11.581,17.255Q1041.386,664.793,1042.92,662.456Z" transform="translate(-757.331 -649.59)" fill="#aa0952"/>
    </g>
  </g>
</svg>
