<svg id="Layer_1" xmlns="http://www.w3.org/2000/svg" width="423.51" height="423.51" viewBox="0 0 423.51 423.51">
  <g id="Group_171" data-name="Group 171" transform="translate(0 0)">
    <g id="Group_168" data-name="Group 168" transform="translate(115.901 211.755)">
      <path id="Path_1175" data-name="Path 1175" d="M1515.634,1036.392a223.709,223.709,0,0,0-20.046-13.872,198.669,198.669,0,0,1-1.628,25.041c1.844-.814,3.637-1.665,5.464-2.537,1.811-.876,3.662-1.773,5.448-2.707C1508.468,1040.453,1512.1,1038.481,1515.634,1036.392Z" transform="translate(-1208.024 -1022.52)" fill="#115d8e"/>
      <path id="Path_1176" data-name="Path 1176" d="M1505.187,1099.189q-2.186-2.2-4.393-4.322c-1.474-1.416-2.994-2.807-4.493-4.173-2.99-2.724-6.108-5.352-9.2-7.864a190.4,190.4,0,0,1-4.874,24.593c3.874-1.129,7.652-2.4,11.518-3.762,1.914-.685,3.808-1.407,5.722-2.151S1503.3,1099.995,1505.187,1099.189Z" transform="translate(-1201.165 -1057.789)" fill="#aa0952"/>
      <path id="Path_1177" data-name="Path 1177" d="M1486.691,1160.663c-1.254-1.648-2.529-3.272-3.8-4.87l-1.922-2.375c-.648-.785-1.312-1.569-1.972-2.346q-1.981-2.329-3.99-4.571c-1.354-1.5-2.732-2.981-4.106-4.43l-.822,3.027-.893,3.006-.448,1.5-.486,1.49-.972,2.981-1.042,2.956-.523,1.478-.556,1.466-1.117,2.931-1.187,2.9q2.958-.467,5.954-1.017c1.981-.369,3.953-.776,5.946-1.2l2.994-.66c1-.228,1.981-.469,2.973-.714C1482.693,1161.722,1484.69,1161.207,1486.691,1160.663Z" transform="translate(-1189.831 -1092.432)" fill="#ad2d95"/>
      <path id="Path_1178" data-name="Path 1178" d="M1460.4,1219.743c-2.01-3.575-4.181-7.1-6.353-10.509-1.1-1.711-2.238-3.4-3.371-5.066s-2.284-3.3-3.475-4.928c-.386.971-.806,1.931-1.225,2.886l-1.262,2.869c-.9,1.889-1.744,3.8-2.695,5.663-1.827,3.762-3.845,7.428-5.917,11.061A217.093,217.093,0,0,0,1460.4,1219.743Z" transform="translate(-1174.188 -1125.865)" fill="#602db2"/>
      <path id="Path_1179" data-name="Path 1179" d="M1426.84,1275.446q-1.177-2.878-2.4-5.684c-.81-1.868-1.682-3.741-2.541-5.576-1.715-3.666-3.575-7.287-5.464-10.8a192.516,192.516,0,0,1-13.959,20.839A219.091,219.091,0,0,0,1426.84,1275.446Z" transform="translate(-1154.527 -1157.531)" fill="#0b928e"/>
      <path id="Path_1180" data-name="Path 1180" d="M1386.627,1326.8c-.507-1.984-1.067-3.978-1.64-5.95s-1.159-3.911-1.781-5.85c-1.262-3.89-2.57-7.673-4.027-11.426a194.417,194.417,0,0,1-16.538,18.863q2.909.691,5.875,1.321l2.981.615,2.981.556c2,.361,4.019.706,6.045,1.021S1384.576,1326.535,1386.627,1326.8Z" transform="translate(-1131.229 -1186.876)" fill="#fbb040"/>
      <path id="Path_1181" data-name="Path 1181" d="M1340.443,1373q-.393-3.077-.847-6.1c-.315-2.026-.66-4.048-1.021-6.045l-.556-2.981-.615-2.981q-.629-2.964-1.32-5.875a194.447,194.447,0,0,1-18.863,16.538c3.757,1.458,7.54,2.761,11.426,4.028,1.939.627,3.878,1.2,5.85,1.781S1338.458,1372.486,1340.443,1373Z" transform="translate(-1104.668 -1213.449)" fill="#115d8e"/>
      <path id="Path_1182" data-name="Path 1182" d="M1289.086,1413.195a219.157,219.157,0,0,0-1.217-24.364,191.67,191.67,0,0,1-20.839,13.959c3.508,1.889,7.133,3.75,10.8,5.464,1.835.859,3.708,1.735,5.576,2.541S1287.167,1412.414,1289.086,1413.195Z" transform="translate(-1075.317 -1236.736)" fill="#aa0952"/>
      <path id="Path_1183" data-name="Path 1183" d="M1233.389,1446.752a218.169,218.169,0,0,0,1.98-24.3c-3.633,2.068-7.3,4.09-11.061,5.917-1.86.955-3.774,1.8-5.663,2.695l-2.869,1.262c-.955.423-1.914.843-2.885,1.225,1.627,1.192,3.263,2.342,4.928,3.475s3.355,2.271,5.065,3.372C1226.285,1442.571,1229.814,1444.742,1233.389,1446.752Z" transform="translate(-1043.656 -1256.397)" fill="#ad2d95"/>
      <path id="Path_1184" data-name="Path 1184" d="M1174.291,1473.045q.816-3,1.549-5.979c.245-.992.486-1.976.714-2.973l.66-2.993c.427-1.993.83-3.965,1.2-5.946q.548-3,1.017-5.954l-2.9,1.188-2.932,1.117-1.465.556-1.478.523-2.956,1.042-2.981.972-1.49.486-1.5.449-3.006.893-3.027.822c1.449,1.374,2.927,2.753,4.43,4.106q2.248,2.005,4.571,3.99c.776.66,1.561,1.325,2.346,1.972l2.375,1.922C1171.015,1470.517,1172.643,1471.791,1174.291,1473.045Z" transform="translate(-1010.206 -1272.04)" fill="#602db2"/>
      <path id="Path_1185" data-name="Path 1185" d="M1112.825,1491.547c.81-1.885,1.578-3.8,2.325-5.717s1.461-3.812,2.151-5.721c1.362-3.866,2.632-7.644,3.762-11.518a190.537,190.537,0,0,1-24.593,4.875c2.512,3.093,5.14,6.207,7.864,9.2,1.362,1.5,2.757,3.019,4.169,4.493S1111.359,1490.09,1112.825,1491.547Z" transform="translate(-975.574 -1283.379)" fill="#0b928e"/>
      <path id="Path_1186" data-name="Path 1186" d="M1050.038,1502c2.093-3.534,4.065-7.166,5.929-10.758.934-1.786,1.831-3.637,2.707-5.448.872-1.827,1.723-3.621,2.537-5.464a199.473,199.473,0,0,1-25.041,1.628A222.285,222.285,0,0,0,1050.038,1502Z" transform="translate(-940.311 -1290.244)" fill="#fbb040"/>
      <path id="Path_1187" data-name="Path 1187" d="M987.019,1501.994a223.716,223.716,0,0,0,13.872-20.046,198.671,198.671,0,0,1-25.041-1.628c.814,1.844,1.665,3.637,2.537,5.464.876,1.81,1.773,3.662,2.707,5.447C982.954,1494.827,984.931,1498.46,987.019,1501.994Z" transform="translate(-905.037 -1290.239)" fill="#115d8e"/>
      <path id="Path_1188" data-name="Path 1188" d="M924.848,1491.547q2.2-2.186,4.322-4.393c1.416-1.474,2.807-2.994,4.169-4.493,2.724-2.989,5.352-6.108,7.864-9.2a190.39,190.39,0,0,1-24.593-4.875c1.129,3.874,2.4,7.652,3.762,11.518.685,1.914,1.408,3.807,2.151,5.721S924.042,1489.662,924.848,1491.547Z" transform="translate(-870.393 -1283.379)" fill="#aa0952"/>
      <path id="Path_1189" data-name="Path 1189" d="M864.579,1473.051c1.648-1.254,3.272-2.529,4.87-3.8l2.375-1.922c.785-.648,1.57-1.312,2.346-1.972q2.329-1.98,4.571-3.99c1.5-1.354,2.981-2.732,4.43-4.106l-3.027-.822-3.006-.893-1.5-.448-1.491-.486-2.981-.972-2.956-1.042-1.478-.523-1.466-.556-2.931-1.117-2.9-1.187q.467,2.958,1.017,5.954c.37,1.98.776,3.953,1.2,5.946l.66,2.994c.228,1,.469,1.981.714,2.973C863.52,1469.053,864.035,1471.05,864.579,1473.051Z" transform="translate(-836.955 -1272.046)" fill="#ad2d95"/>
      <path id="Path_1190" data-name="Path 1190" d="M807.276,1446.758c3.575-2.01,7.1-4.181,10.509-6.353,1.711-1.1,3.4-2.238,5.065-3.372s3.3-2.284,4.928-3.475c-.972-.386-1.931-.806-2.886-1.225l-2.869-1.262c-1.889-.9-3.8-1.744-5.663-2.694-3.762-1.827-7.428-3.845-11.061-5.917A217.1,217.1,0,0,0,807.276,1446.758Z" transform="translate(-805.3 -1256.402)" fill="#602db2"/>
    </g>
    <g id="Group_169" data-name="Group 169" transform="translate(0 35.297)">
      <path id="Path_1191" data-name="Path 1191" d="M752.167,1413.2q2.877-1.177,5.684-2.4c1.868-.81,3.741-1.682,5.576-2.541,3.666-1.715,7.287-3.575,10.8-5.464a192.47,192.47,0,0,1-20.839-13.959A219.113,219.113,0,0,0,752.167,1413.2Z" transform="translate(-658.327 -1060.283)" fill="#0b928e"/>
      <path id="Path_1192" data-name="Path 1192" d="M699.17,1373c1.985-.507,3.978-1.067,5.95-1.64s3.911-1.158,5.85-1.781c3.89-1.262,7.673-2.57,11.427-4.027a194.425,194.425,0,0,1-18.863-16.537q-.691,2.908-1.32,5.875l-.615,2.981-.556,2.981c-.361,2-.706,4.019-1.021,6.045S699.432,1370.941,699.17,1373Z" transform="translate(-627.335 -1036.991)" fill="#fbb040"/>
      <path id="Path_1193" data-name="Path 1193" d="M651.9,1326.8q3.077-.392,6.1-.847c2.026-.316,4.048-.66,6.045-1.021l2.981-.556,2.981-.615q2.965-.629,5.875-1.32a194.46,194.46,0,0,1-16.538-18.863c-1.457,3.758-2.761,7.54-4.027,11.427-.627,1.939-1.2,3.878-1.781,5.85S652.411,1324.818,651.9,1326.8Z" transform="translate(-599.692 -1010.424)" fill="#115d8e"/>
      <path id="Path_1194" data-name="Path 1194" d="M611.17,1275.446a219.215,219.215,0,0,0,24.364-1.217,191.693,191.693,0,0,1-13.959-20.839c-1.889,3.508-3.749,7.133-5.464,10.8-.859,1.835-1.736,3.708-2.541,5.576S611.951,1273.528,611.17,1275.446Z" transform="translate(-575.873 -981.073)" fill="#aa0952"/>
      <path id="Path_1195" data-name="Path 1195" d="M577.69,1219.749a218.024,218.024,0,0,0,24.3,1.981c-2.068-3.633-4.09-7.3-5.917-11.061-.955-1.86-1.8-3.774-2.695-5.663l-1.262-2.869c-.424-.955-.843-1.914-1.225-2.886-1.192,1.628-2.342,3.264-3.475,4.929s-2.271,3.355-3.371,5.065C581.875,1212.645,579.7,1216.174,577.69,1219.749Z" transform="translate(-556.294 -949.412)" fill="#ad2d95"/>
      <path id="Path_1196" data-name="Path 1196" d="M552.05,1160.651q3,.816,5.979,1.549c.992.245,1.976.486,2.973.714l2.994.66c1.993.428,3.965.83,5.946,1.2q3,.548,5.954,1.017l-1.187-2.9-1.117-2.931-.556-1.466-.523-1.478-1.042-2.956-.972-2.981-.486-1.49-.448-1.5-.893-3.006-.822-3.027c-1.374,1.449-2.753,2.927-4.107,4.43q-2.005,2.249-3.99,4.572c-.66.776-1.324,1.561-1.972,2.346l-1.922,2.375C554.579,1157.379,553.3,1159,552.05,1160.651Z" transform="translate(-541.3 -915.962)" fill="#602db2"/>
      <path id="Path_1197" data-name="Path 1197" d="M534.8,1099.2c1.885.81,3.8,1.578,5.717,2.325s3.812,1.461,5.722,2.151c3.866,1.362,7.644,2.632,11.518,3.762a190.515,190.515,0,0,1-4.875-24.593c-3.093,2.512-6.207,5.14-9.2,7.864-1.5,1.362-3.019,2.757-4.493,4.173S536.257,1097.725,534.8,1099.2Z" transform="translate(-531.213 -881.336)" fill="#0b928e"/>
      <path id="Path_1198" data-name="Path 1198" d="M526.16,1036.4c3.533,2.093,7.166,4.065,10.758,5.929,1.785.934,3.637,1.831,5.448,2.707,1.827.872,3.621,1.723,5.464,2.537a199.439,199.439,0,0,1-1.628-25.041A222.226,222.226,0,0,0,526.16,1036.4Z" transform="translate(-526.16 -846.068)" fill="#fbb040"/>
      <path id="Path_1199" data-name="Path 1199" d="M526.16,973.379a223.72,223.72,0,0,0,20.046,13.872,198.706,198.706,0,0,1,1.628-25.041c-1.844.814-3.637,1.665-5.464,2.537-1.81.876-3.662,1.773-5.448,2.707C533.326,969.314,529.693,971.291,526.16,973.379Z" transform="translate(-526.16 -810.793)" fill="#115d8e"/>
      <path id="Path_1200" data-name="Path 1200" d="M534.8,911.208q2.186,2.2,4.393,4.322c1.474,1.416,2.994,2.807,4.493,4.169,2.989,2.724,6.108,5.352,9.2,7.864a190.381,190.381,0,0,1,4.875-24.593c-3.874,1.129-7.652,2.4-11.518,3.762-1.914.685-3.807,1.407-5.722,2.151S536.685,910.4,534.8,911.208Z" transform="translate(-531.213 -776.15)" fill="#aa0952"/>
      <path id="Path_1201" data-name="Path 1201" d="M552.05,850.939c1.254,1.648,2.529,3.272,3.8,4.87l1.922,2.375c.648.785,1.312,1.569,1.972,2.346q1.981,2.329,3.99,4.571c1.354,1.5,2.732,2.981,4.106,4.43l.822-3.027.893-3.006.448-1.5.486-1.491.972-2.981,1.042-2.956.523-1.478.556-1.466,1.117-2.931,1.188-2.9q-2.958.467-5.954,1.017c-1.981.37-3.953.776-5.946,1.2l-2.994.66c-1,.228-1.981.469-2.973.714C556.044,849.88,554.051,850.395,552.05,850.939Z" transform="translate(-541.3 -742.711)" fill="#ad2d95"/>
      <path id="Path_1202" data-name="Path 1202" d="M577.69,793.636c2.01,3.575,4.181,7.1,6.353,10.509,1.1,1.711,2.238,3.4,3.371,5.065s2.284,3.3,3.475,4.929c.386-.972.806-1.931,1.225-2.886l1.262-2.869c.9-1.889,1.744-3.8,2.695-5.663,1.827-3.762,3.845-7.428,5.917-11.061A217.166,217.166,0,0,0,577.69,793.636Z" transform="translate(-556.294 -711.056)" fill="#602db2"/>
      <path id="Path_1203" data-name="Path 1203" d="M611.17,738.527q1.177,2.877,2.4,5.684c.81,1.869,1.682,3.741,2.541,5.576,1.715,3.666,3.575,7.287,5.464,10.8a192.516,192.516,0,0,1,13.959-20.839A219.109,219.109,0,0,0,611.17,738.527Z" transform="translate(-575.873 -679.983)" fill="#0b928e"/>
      <path id="Path_1204" data-name="Path 1204" d="M651.9,685.53c.507,1.985,1.067,3.978,1.64,5.95s1.158,3.911,1.781,5.85c1.262,3.891,2.57,7.673,4.027,11.426a194.464,194.464,0,0,1,16.538-18.863q-2.909-.691-5.875-1.32l-2.981-.615-2.981-.556c-2-.361-4.019-.706-6.045-1.021S653.955,685.792,651.9,685.53Z" transform="translate(-599.692 -648.992)" fill="#fbb040"/>
      <path id="Path_1205" data-name="Path 1205" d="M699.17,638.26q.392,3.077.847,6.1c.315,2.026.66,4.048,1.021,6.045l.556,2.981.615,2.981q.629,2.965,1.32,5.875a194.42,194.42,0,0,1,18.863-16.538c-3.758-1.457-7.54-2.761-11.427-4.027-1.939-.627-3.878-1.2-5.85-1.781S701.155,638.771,699.17,638.26Z" transform="translate(-627.335 -621.349)" fill="#115d8e"/>
      <path id="Path_1206" data-name="Path 1206" d="M752.167,597.53a219.156,219.156,0,0,0,1.217,24.364,191.7,191.7,0,0,1,20.839-13.959c-3.508-1.889-7.133-3.749-10.8-5.464-1.835-.859-3.708-1.736-5.576-2.541S754.086,598.311,752.167,597.53Z" transform="translate(-658.327 -597.53)" fill="#aa0952"/>
    </g>
    <g id="Group_170" data-name="Group 170" transform="translate(115.897)">
      <path id="Path_1207" data-name="Path 1207" d="M807.271,564.05a218.086,218.086,0,0,0-1.981,24.3c3.633-2.068,7.3-4.09,11.061-5.917,1.86-.955,3.774-1.8,5.664-2.695l2.869-1.262c.955-.423,1.914-.843,2.886-1.225-1.628-1.192-3.264-2.342-4.929-3.475s-3.355-2.271-5.066-3.372C814.375,568.235,810.846,566.064,807.271,564.05Z" transform="translate(-805.29 -542.655)" fill="#ad2d95"/>
      <path id="Path_1208" data-name="Path 1208" d="M864.59,538.41q-.816,3-1.549,5.979c-.245.992-.486,1.976-.714,2.973l-.66,2.994c-.428,1.993-.83,3.965-1.2,5.946q-.548,3-1.017,5.954l2.9-1.187,2.931-1.117,1.466-.556,1.478-.523,2.956-1.042,2.981-.972,1.491-.486,1.5-.448,3.006-.893,3.027-.822c-1.449-1.374-2.927-2.753-4.43-4.106q-2.248-2.006-4.571-3.99c-.777-.66-1.561-1.324-2.346-1.972l-2.375-1.922C867.862,540.939,866.239,539.664,864.59,538.41Z" transform="translate(-836.963 -527.66)" fill="#602db2"/>
      <path id="Path_1209" data-name="Path 1209" d="M924.848,521.16c-.81,1.885-1.578,3.8-2.325,5.717s-1.461,3.812-2.151,5.721c-1.362,3.866-2.632,7.644-3.762,11.518a190.512,190.512,0,0,1,24.593-4.874c-2.512-3.093-5.14-6.207-7.864-9.2-1.362-1.5-2.757-3.019-4.169-4.493S926.318,522.617,924.848,521.16Z" transform="translate(-870.389 -517.573)" fill="#0b928e"/>
      <path id="Path_1210" data-name="Path 1210" d="M987.013,512.52c-2.093,3.533-4.065,7.167-5.929,10.758-.934,1.785-1.831,3.637-2.707,5.448-.872,1.827-1.723,3.621-2.537,5.464a199.44,199.44,0,0,1,25.041-1.628A223.035,223.035,0,0,0,987.013,512.52Z" transform="translate(-905.026 -512.52)" fill="#fbb040"/>
      <path id="Path_1211" data-name="Path 1211" d="M1050.032,512.52a223.728,223.728,0,0,0-13.872,20.046,198.669,198.669,0,0,1,25.041,1.628c-.814-1.844-1.665-3.637-2.537-5.464-.876-1.81-1.773-3.662-2.707-5.447C1054.093,519.687,1052.121,516.053,1050.032,512.52Z" transform="translate(-940.301 -512.52)" fill="#115d8e"/>
      <path id="Path_1212" data-name="Path 1212" d="M1112.825,521.16q-2.2,2.186-4.322,4.393c-1.416,1.474-2.807,2.994-4.169,4.493-2.724,2.99-5.352,6.108-7.864,9.2a190.369,190.369,0,0,1,24.593,4.874c-1.129-3.874-2.4-7.652-3.762-11.518-.685-1.914-1.408-3.807-2.151-5.721S1113.635,523.045,1112.825,521.16Z" transform="translate(-975.57 -517.573)" fill="#aa0952"/>
      <path id="Path_1213" data-name="Path 1213" d="M1174.3,538.41c-1.648,1.254-3.272,2.529-4.87,3.8l-2.375,1.922c-.785.648-1.57,1.312-2.346,1.972q-2.329,1.981-4.571,3.99c-1.5,1.354-2.981,2.732-4.43,4.106l3.027.822,3.006.893,1.5.448,1.49.486,2.981.972,2.957,1.042,1.478.523,1.466.556,2.931,1.117,2.9,1.187q-.467-2.958-1.017-5.954c-.369-1.981-.777-3.953-1.2-5.946l-.66-2.994c-.228-1-.469-1.981-.714-2.973Q1175.113,541.414,1174.3,538.41Z" transform="translate(-1010.213 -527.66)" fill="#ad2d95"/>
      <path id="Path_1214" data-name="Path 1214" d="M1233.383,564.05c-3.575,2.01-7.1,4.181-10.509,6.353-1.71,1.1-3.4,2.238-5.065,3.372s-3.3,2.284-4.929,3.475c.971.386,1.931.806,2.886,1.225l2.869,1.262c1.889.9,3.8,1.744,5.663,2.695,3.762,1.827,7.428,3.845,11.061,5.917A217.247,217.247,0,0,0,1233.383,564.05Z" transform="translate(-1043.646 -542.655)" fill="#602db2"/>
      <path id="Path_1215" data-name="Path 1215" d="M1289.086,597.53q-2.878,1.177-5.684,2.4c-1.869.81-3.741,1.682-5.576,2.541-3.666,1.715-7.287,3.575-10.8,5.464a192.514,192.514,0,0,1,20.839,13.959A219.081,219.081,0,0,0,1289.086,597.53Z" transform="translate(-1075.313 -562.233)" fill="#0b928e"/>
      <path id="Path_1216" data-name="Path 1216" d="M1340.437,638.26c-1.985.507-3.978,1.067-5.95,1.64s-3.911,1.158-5.85,1.781c-3.891,1.262-7.673,2.57-11.427,4.027a194.435,194.435,0,0,1,18.863,16.538q.691-2.909,1.32-5.875l.615-2.981.556-2.981c.361-2,.706-4.019,1.021-6.045S1340.175,640.315,1340.437,638.26Z" transform="translate(-1104.658 -586.052)" fill="#fbb040"/>
      <path id="Path_1217" data-name="Path 1217" d="M1386.627,685.53q-3.077.392-6.1.847c-2.026.316-4.048.66-6.045,1.021l-2.981.556-2.981.615q-2.965.629-5.875,1.32a194.446,194.446,0,0,1,16.537,18.863c1.457-3.758,2.761-7.54,4.027-11.426.627-1.939,1.2-3.878,1.781-5.85S1386.12,687.515,1386.627,685.53Z" transform="translate(-1131.225 -613.695)" fill="#115d8e"/>
      <path id="Path_1218" data-name="Path 1218" d="M1426.834,738.527a219.186,219.186,0,0,0-24.364,1.216,191.726,191.726,0,0,1,13.959,20.839c1.889-3.509,3.749-7.133,5.464-10.8.859-1.835,1.735-3.708,2.541-5.576S1426.054,740.446,1426.834,738.527Z" transform="translate(-1154.517 -644.687)" fill="#aa0952"/>
      <path id="Path_1219" data-name="Path 1219" d="M1460.392,793.631a218.083,218.083,0,0,0-24.3-1.981c2.068,3.633,4.09,7.3,5.917,11.061.955,1.86,1.8,3.774,2.695,5.663l1.262,2.869c.424.955.843,1.914,1.225,2.886,1.192-1.628,2.342-3.263,3.475-4.929s2.271-3.355,3.372-5.065C1456.211,800.735,1458.382,797.205,1460.392,793.631Z" transform="translate(-1174.178 -675.754)" fill="#ad2d95"/>
      <path id="Path_1220" data-name="Path 1220" d="M1486.686,850.95q-3-.816-5.979-1.549c-.992-.245-1.976-.486-2.973-.714l-2.994-.66c-1.993-.428-3.965-.83-5.946-1.2q-3-.548-5.954-1.017l1.188,2.9,1.117,2.931.556,1.466.523,1.478,1.042,2.956.972,2.981.486,1.491.448,1.5.893,3.006.822,3.027c1.374-1.449,2.753-2.927,4.106-4.43q2.006-2.248,3.99-4.571c.66-.776,1.324-1.561,1.972-2.346l1.922-2.375C1484.157,854.222,1485.432,852.6,1486.686,850.95Z" transform="translate(-1189.821 -707.426)" fill="#602db2"/>
      <path id="Path_1221" data-name="Path 1221" d="M1505.187,911.208c-1.885-.81-3.8-1.578-5.718-2.325s-3.812-1.462-5.721-2.151c-3.866-1.362-7.644-2.632-11.518-3.762a190.514,190.514,0,0,1,4.874,24.593c3.094-2.512,6.207-5.14,9.2-7.864,1.5-1.362,3.019-2.757,4.492-4.169S1503.729,912.678,1505.187,911.208Z" transform="translate(-1201.161 -740.853)" fill="#0b928e"/>
      <path id="Path_1222" data-name="Path 1222" d="M1515.64,973.373c-3.533-2.093-7.167-4.065-10.758-5.929-1.785-.934-3.637-1.831-5.448-2.707-1.827-.872-3.621-1.723-5.464-2.537a199.449,199.449,0,0,1,1.628,25.041A223.088,223.088,0,0,0,1515.64,973.373Z" transform="translate(-1208.026 -775.49)" fill="#fbb040"/>
    </g>
  </g>
</svg>
