<svg xmlns="http://www.w3.org/2000/svg" width="64" height="64.001" viewBox="0 0 64 64.001">
  <g id="icon" transform="translate(-1765 -2773)">
    <rect id="Rectangle_499" data-name="Rectangle 499" width="64" height="64" transform="translate(1765 2773)" fill="rgba(255,255,255,0)"/>
    <path id="fal_fa-wheat" data-name="fal fa-wheat" d="M56.769,21.422a12.124,12.124,0,0,0-1.781-1.455,14.025,14.025,0,0,0,4.9-2.8c3.323-3.608,4.348-9.38,4.08-15.011A2.248,2.248,0,0,0,61.814.039C61.279.015,60.719,0,60.139,0c-4.289,0-9.624.8-13.221,4.144A13.077,13.077,0,0,0,43.985,8.89,11.919,11.919,0,0,0,42.65,7.256l-4.306-4.3a2,2,0,0,0-2.828,0L31.3,7.163a11.906,11.906,0,0,0-3.458,7.871l-.793-.791a2,2,0,0,0-2.828,0l-4.214,4.211a11.911,11.911,0,0,0-3.461,7.913l-.81-.81a2,2,0,0,0-2.828,0L8.7,29.768a12,12,0,0,0,0,16.975l2.87,2.869L.6,60.587a2,2,0,1,0,2.826,2.828L14.369,52.466l2.855,2.854a12,12,0,0,0,16.968,0L38.413,51.1a2,2,0,0,0,0-2.829l-.809-.809a11.908,11.908,0,0,0,7.9-3.458l4.221-4.219a2,2,0,0,0,0-2.829l-.791-.79A11.915,11.915,0,0,0,56.8,32.716L61.018,28.5a2,2,0,0,0,0-2.829l-4.249-4.246ZM49.64,7.074c2.7-2.508,7.1-3.06,10.37-3.074-.026,4.5-1.078,8.206-2.959,10.339-2.749,2.454-7.124,2.973-10.333,2.973h-.048c-.042-3.243.494-7.749,2.969-10.238ZM34.13,9.993l2.8-2.8,2.893,2.89A7.975,7.975,0,0,1,39.909,21.3c-.036.031-.083.042-.116.078l-2.8,2.8L34.13,21.308a8,8,0,0,1,0-11.315ZM22.839,21.284l2.8-2.8,2.893,2.891c1.7,1.7,4.219,6.651.244,11.02l-3.069,3.07L22.839,32.6a8,8,0,0,1,0-11.316ZM11.525,43.914a8,8,0,0,1,0-11.316l2.8-2.8,2.893,2.891a7.947,7.947,0,0,1,.219,11.05l-3.041,3.043-2.87-2.869Zm19.838,8.576a8,8,0,0,1-11.311,0L17.219,49.66l2.806-2.8a8,8,0,0,1,11.311,0l2.833,2.831-2.806,2.8ZM42.677,41.177a8,8,0,0,1-11.311,0l-2.833-2.831,2.806-2.8a8,8,0,0,1,11.311,0l2.833,2.831ZM53.968,29.885a8,8,0,0,1-11.311,0l-2.833-2.831,2.806-2.8a8,8,0,0,1,11.311,0l2.833,2.831-2.806,2.8Z" transform="translate(1764.988 2773)" fill="#fff"/>
  </g>
</svg>
