<svg xmlns="http://www.w3.org/2000/svg" width="64" height="64" viewBox="0 0 64 64">
  <g id="icon" transform="translate(-1705 -2854)">
    <rect id="Rectangle_499" data-name="Rectangle 499" width="64" height="64" transform="translate(1705 2854)" fill="rgba(255,255,255,0)"/>
    <path id="fal_fa-book-reader" data-name="fal fa-book-reader" d="M57.489,24c-.087,0-.174,0-.257.006-6.225.355-17.564,1.625-25.23,5.946-7.666-4.321-19.006-5.591-25.23-5.946C6.688,24,6.6,24,6.514,24,3.964,24,0,25.8,0,30.278V52.534A6.322,6.322,0,0,0,6.043,58.8c4.3.226,15.07,1.135,22.125,4.684a4.727,4.727,0,0,0,1.833.48V64h.284c.011,0,.022,0,.033,0h3.368c.011,0,.022,0,.033,0H34v-.034a4.749,4.749,0,0,0,1.833-.48c7.055-3.549,17.824-4.456,22.125-4.684A6.323,6.323,0,0,0,64,52.534V30.278C64,25.8,60.036,24,57.489,24ZM30,59.919c-.011-.005-.022,0-.035-.009-7.449-3.746-18.054-4.806-23.712-5.1A2.325,2.325,0,0,1,4,52.534V30.278a1.871,1.871,0,0,1,.741-1.65A3.206,3.206,0,0,1,6.541,28c4.626.264,16.159,1.323,23.459,5.42v26.5Zm30-7.385a2.325,2.325,0,0,1-2.254,2.271c-5.659.3-16.264,1.357-23.72,5.109-.009.005-.018,0-.028.006v-26.5c7.3-4.1,18.833-5.156,23.439-5.419h.049c.025,0,2.511.061,2.511,2.276V52.534ZM32,24A12,12,0,1,0,20,12,12,12,0,0,0,32,24ZM32,4a8,8,0,1,1-8,8A8.009,8.009,0,0,1,32,4Z" transform="translate(1705 2854)" fill="#fff"/>
  </g>
</svg>
