<svg xmlns="http://www.w3.org/2000/svg" width="64" height="64" viewBox="0 0 64 64">
  <g id="icon" transform="translate(-1705 -2854)">
    <rect id="Rectangle_499" data-name="Rectangle 499" width="64" height="64" transform="translate(1705 2854)" fill="rgba(255,255,255,0)"/>
    <path id="fal_fa-heartbeat" data-name="fal fa-heartbeat" d="M58.6,37.464a18.924,18.924,0,0,0-26.593-.012A18.683,18.683,0,0,0,18.716,32a18.689,18.689,0,0,0-13.3,5.464A17.434,17.434,0,0,0,4.226,61.471h15.1l3.738-8.817,7.114,15.522a2.015,2.015,0,0,0,3.613.074l6.214-12.206,2.763,5.428h17A17.448,17.448,0,0,0,58.6,37.464Zm-.775,20.077H45.246L41.8,50.763a2.014,2.014,0,0,0-3.576,0L32.106,62.785,24.83,46.908a2.019,2.019,0,0,0-3.676.049L16.666,57.542H6.189C5.038,55.749.863,47.386,8.477,40.019a14.7,14.7,0,0,1,10.239-4.089c4.238,0,6.814.774,13.29,7.036,6.876-6.656,9.314-7.036,13.29-7.036a14.647,14.647,0,0,1,10.227,4.089c7.626,7.38,3.438,15.743,2.3,17.523ZM33.594,82.519a2.026,2.026,0,0,1-2.8,0L13.615,65.4H8L27.993,85.318a6.058,6.058,0,0,0,8.414,0L56.011,65.4H50.447Z" transform="translate(1705 2826)" fill="#fff"/>
  </g>
</svg>
