<svg xmlns="http://www.w3.org/2000/svg" width="64" height="64" viewBox="0 0 64 64">
  <g id="icon" transform="translate(-1733 -2821)">
    <rect id="Rectangle_499" data-name="Rectangle 499" width="64" height="64" transform="translate(1733 2821)" fill="rgba(255,255,255,0)"/>
    <path id="fal_fa-building" data-name="fal fa-building" d="M23.412,13.286v4.967a1.477,1.477,0,0,1-1.463,1.49H17.071a1.477,1.477,0,0,1-1.463-1.49V13.286a1.477,1.477,0,0,1,1.463-1.49h4.877A1.477,1.477,0,0,1,23.412,13.286ZM37.556,11.8H32.679a1.477,1.477,0,0,0-1.463,1.49v4.967a1.477,1.477,0,0,0,1.463,1.49h4.877a1.477,1.477,0,0,0,1.463-1.49V13.286A1.477,1.477,0,0,0,37.556,11.8ZM21.948,23.716H17.071a1.477,1.477,0,0,0-1.463,1.49v4.967a1.477,1.477,0,0,0,1.463,1.49h4.877a1.477,1.477,0,0,0,1.463-1.49V25.206A1.477,1.477,0,0,0,21.948,23.716Zm15.608,0H32.679a1.477,1.477,0,0,0-1.463,1.49v4.967a1.477,1.477,0,0,0,1.463,1.49h4.877a1.477,1.477,0,0,0,1.463-1.49V25.206A1.477,1.477,0,0,0,37.556,23.716ZM21.948,35.636H17.071a1.477,1.477,0,0,0-1.463,1.49v4.967a1.477,1.477,0,0,0,1.463,1.49h4.877a1.477,1.477,0,0,0,1.463-1.49V37.126A1.477,1.477,0,0,0,21.948,35.636Zm15.608,0H32.679a1.477,1.477,0,0,0-1.463,1.49v4.967a1.477,1.477,0,0,0,1.463,1.49h4.877a1.477,1.477,0,0,0,1.463-1.49V37.126A1.477,1.477,0,0,0,37.556,35.636ZM54.627,61.09v2.483H0V61.09A1.477,1.477,0,0,1,1.463,59.6H3.9V2.98A2.954,2.954,0,0,1,6.828,0H47.8a2.954,2.954,0,0,1,2.926,2.98V59.6h2.439A1.477,1.477,0,0,1,54.627,61.09Zm-7.8-1.49V3.973H7.8V59.6H23.412V49.046a1.477,1.477,0,0,1,1.463-1.49h4.877a1.477,1.477,0,0,1,1.463,1.49V59.6Z" transform="translate(1738 2821)" fill="#fff"/>
  </g>
</svg>
