<svg xmlns="http://www.w3.org/2000/svg" width="64" height="64" viewBox="0 0 64 64">
  <g id="icon" transform="translate(-1708 -2857)">
    <rect id="Rectangle_499" data-name="Rectangle 499" width="64" height="64" transform="translate(1708 2857)" fill="rgba(255,255,255,0)"/>
    <path id="fal_fa-briefcase" data-name="fal fa-briefcase" d="M58,43.786H44V34.946A2.973,2.973,0,0,0,41,32H23a2.973,2.973,0,0,0-3,2.946v8.839H6a5.947,5.947,0,0,0-6,5.893V81.107A5.947,5.947,0,0,0,6,87H58a5.947,5.947,0,0,0,6-5.893V49.679A5.947,5.947,0,0,0,58,43.786ZM24,35.929H40v7.857H24ZM60,81.107a1.985,1.985,0,0,1-2,1.964H6a1.985,1.985,0,0,1-2-1.964V63.429H24v4.911a2.974,2.974,0,0,0,3,2.946H37a2.974,2.974,0,0,0,3-2.946V63.429H60ZM28,67.357V63.429h8v3.929ZM60,59.5H4V49.679a1.985,1.985,0,0,1,2-1.964H58a1.985,1.985,0,0,1,2,1.964Z" transform="translate(1708 2829)" fill="#fff"/>
  </g>
</svg>
