<svg xmlns="http://www.w3.org/2000/svg" xmlns:xlink="http://www.w3.org/1999/xlink" width="64" height="64" viewBox="0 0 64 64">
  <defs>
    <clipPath id="clip-path">
      <rect width="64" height="46" fill="none"/>
    </clipPath>
  </defs>
  <g id="icon" transform="translate(-1705 -2854)">
    <rect id="Rectangle_499" data-name="Rectangle 499" width="64" height="64" transform="translate(1705 2854)" fill="rgba(255,255,255,0)"/>
    <g id="Repeat_Grid_1" data-name="Repeat Grid 1" transform="translate(1705 2863)" clip-path="url(#clip-path)">
      <g transform="translate(-1705 -2863)">
        <path id="fal_fa-laptop-code" data-name="fal fa-laptop-code" d="M26.634,55.541l1.131-1.084a.745.745,0,0,0,0-1.084l-4.7-4.507,4.7-4.507a.745.745,0,0,0,0-1.084l-1.131-1.084a.825.825,0,0,0-1.131,0l-6.4,6.133a.745.745,0,0,0,0,1.084l6.4,6.133A.824.824,0,0,0,26.634,55.541Zm9.6-1.084,1.131,1.084a.825.825,0,0,0,1.131,0l6.4-6.133a.745.745,0,0,0,0-1.084l-6.4-6.133a.825.825,0,0,0-1.131,0l-1.131,1.084a.745.745,0,0,0,0,1.084l4.7,4.508-4.7,4.507a.744.744,0,0,0,0,1.084ZM62.4,64.2H57.6V38.133A6.278,6.278,0,0,0,51.2,32H12.8a6.278,6.278,0,0,0-6.4,6.133V64.2H1.6A1.567,1.567,0,0,0,0,65.733v4.6A7.847,7.847,0,0,0,8,78H56a7.847,7.847,0,0,0,8-7.667v-4.6A1.567,1.567,0,0,0,62.4,64.2ZM9.6,38.133a3.136,3.136,0,0,1,3.2-3.067H51.2a3.136,3.136,0,0,1,3.2,3.067V64.2H39.113a.828.828,0,0,0-.792.679A3.175,3.175,0,0,1,35.2,67.267H28.8a3.175,3.175,0,0,1-3.121-2.387.828.828,0,0,0-.792-.679H9.6Zm51.2,32.2a4.708,4.708,0,0,1-4.8,4.6H8a4.708,4.708,0,0,1-4.8-4.6V67.267H22.675A4.8,4.8,0,0,0,27.2,70.333h9.6a4.8,4.8,0,0,0,4.525-3.067H60.8Z" transform="translate(1705 2831)" fill="#fff"/>
      </g>
    </g>
  </g>
</svg>
