<svg xmlns="http://www.w3.org/2000/svg" width="27.194" height="20.396" viewBox="0 0 27.194 20.396">
  <g id="mail" transform="translate(0 -64)">
    <g id="Group_413" data-name="Group 413" transform="translate(0 64)">
      <g id="Group_412" data-name="Group 412">
        <path id="Path_165" data-name="Path 165" d="M7.114,65.655C10.846,68.816,17.4,74.377,19.32,76.11a1.137,1.137,0,0,0,1.645,0c1.926-1.736,8.475-7.3,12.208-10.458a.566.566,0,0,0,.08-.782A2.25,2.25,0,0,0,31.474,64H8.813a2.25,2.25,0,0,0-1.778.873A.566.566,0,0,0,7.114,65.655Z" transform="translate(-6.546 -64)" fill="#aa0952"/>
        <path id="Path_166" data-name="Path 166" d="M347.238,126.464a.564.564,0,0,0-.6.082c-2.444,2.072-5.665,4.81-8.094,6.9a.566.566,0,0,0,.016.871c2.257,1.808,5.658,4.294,8.114,6.061a.567.567,0,0,0,.9-.46V126.978A.566.566,0,0,0,347.238,126.464Z" transform="translate(-320.373 -123.097)" fill="#aa0952"/>
        <path id="Path_167" data-name="Path 167" d="M.9,140.386c2.456-1.767,5.858-4.253,8.114-6.061a.566.566,0,0,0,.016-.871c-2.429-2.089-5.65-4.827-8.094-6.9a.567.567,0,0,0-.933.432v12.939a.566.566,0,0,0,.9.46Z" transform="translate(0 -123.105)" fill="#aa0952"/>
        <path id="Path_168" data-name="Path 168" d="M34.665,291.72c-2.372-1.7-6.741-4.86-9.349-6.977a.568.568,0,0,0-.729.013c-.512.446-.94.823-1.244,1.1a2.294,2.294,0,0,1-3.162,0c-.3-.273-.731-.65-1.243-1.095a.564.564,0,0,0-.729-.013c-2.6,2.11-6.973,5.277-9.349,6.977a.566.566,0,0,0-.085.846,2.27,2.27,0,0,0,1.657.727H33.093a2.273,2.273,0,0,0,1.657-.727.566.566,0,0,0-.085-.846Z" transform="translate(-8.166 -272.898)" fill="#aa0952"/>
      </g>
    </g>
  </g>
</svg>
