<svg xmlns="http://www.w3.org/2000/svg" xmlns:xlink="http://www.w3.org/1999/xlink" width="377.632" height="677.753" viewBox="0 0 377.632 677.753">
  <defs>
    <linearGradient id="linear-gradient" x1="0.5" x2="0.5" y2="1" gradientUnits="objectBoundingBox">
      <stop offset="0" stop-color="#b89b47"/>
      <stop offset="1" stop-color="#070029"/>
    </linearGradient>
    <linearGradient id="linear-gradient-23" x1="0.5" x2="0.5" y2="1" gradientUnits="objectBoundingBox">
      <stop offset="0" stop-color="#fff"/>
      <stop offset="1" stop-color="#115d8e"/>
    </linearGradient>
    <linearGradient id="linear-gradient-33" x1="0.5" x2="0.5" y2="1" gradientUnits="objectBoundingBox">
      <stop offset="0" stop-color="#115d8e"/>
      <stop offset="1" stop-color="#fff"/>
    </linearGradient>
  </defs>
  <g id="lantern" transform="translate(-1486.178 23.033)">
    <g id="Layer_2" data-name="Layer 2" transform="translate(1613.178 -23.033)" opacity="0.46">
      <g id="Layer_1" data-name="Layer 1">
        <path id="Path_313" data-name="Path 313" d="M136.6,389.266c0-4.646-1.252-6.247-2.21-10.786-.962,4.539-2.21,6.14-2.21,10.786a24.842,24.842,0,0,0,.609,5.791h-.634v23.824h4.471V395.057h-.634a25.071,25.071,0,0,0,.609-5.791Z" transform="translate(-75.879 -217.32)" fill="none"/>
        <path id="Path_314" data-name="Path 314" d="M81.08,389.266c0-4.646-4.756-6.247-8.414-10.786-3.658,4.539-8.414,6.14-8.414,10.786a8.371,8.371,0,0,0,2.316,5.791H64.15v23.824H81.182V395.057H78.764a8.371,8.371,0,0,0,2.316-5.791Z" transform="translate(-36.834 -217.32)" fill="none"/>
        <path id="Path_315" data-name="Path 315" d="M29.6,389.266c0-4.646-1.252-6.247-2.21-10.786-.962,4.539-2.21,6.14-2.21,10.786a24.841,24.841,0,0,0,.609,5.791H25.15v23.824h4.471V395.057h-.634a25.072,25.072,0,0,0,.609-5.791Z" transform="translate(-14.441 -217.32)" fill="none"/>
        <path id="Path_316" data-name="Path 316" d="M73.389,415.377H13.06V359.17H73.389Zm-58.625-1.7H71.685v-52.8H14.763Zm54.329-5.025H62.918V383.1h.426a28.231,28.231,0,0,1-.426-4.944,21.385,21.385,0,0,1,1.192-7.073c.349-1.145.707-2.329,1.039-3.888L66,363.258l.852,3.939c.328,1.567.69,2.751,1.035,3.9a21.342,21.342,0,0,1,1.192,7.064,28,28,0,0,1-.426,4.944h.426Zm-4.471-1.7h2.768V384.8h-.852l.26-1.06a24.309,24.309,0,0,0,.583-5.587,19.764,19.764,0,0,0-1.116-6.57c-.081-.255-.162-.524-.243-.8l-.238.792a19.7,19.7,0,0,0-1.12,6.579,24.1,24.1,0,0,0,.583,5.587l.268,1.06h-.877Zm-11.923,1.7H33.963V383.1h1.529a9.227,9.227,0,0,1-1.426-4.944c0-3.406,2.282-5.374,4.684-7.469a29.609,29.609,0,0,0,3.9-3.832l.664-.822.664.822a29.894,29.894,0,0,0,3.909,3.832c2.414,2.095,4.684,4.071,4.684,7.469a9.227,9.227,0,0,1-1.426,4.944h1.529Zm-17.032-1.7H51V384.8H47.444l1.358-1.435a7.5,7.5,0,0,0,2.082-5.208c0-2.619-1.81-4.19-4.1-6.178a36.859,36.859,0,0,1-3.458-3.287A37.375,37.375,0,0,1,39.86,372c-2.3,1.989-4.109,3.56-4.109,6.178a7.52,7.52,0,0,0,2.1,5.195l1.371,1.439H35.666Zm-12.136,1.7H17.356V383.1h.426a28.232,28.232,0,0,1-.426-4.944,21.385,21.385,0,0,1,1.192-7.073c.349-1.145.707-2.329,1.039-3.888l.852-3.939.83,3.939c.328,1.567.69,2.751,1.035,3.9a21.342,21.342,0,0,1,1.192,7.064,28,28,0,0,1-.426,4.944H23.5Zm-4.471-1.7h2.768V384.8h-.852l.26-1.06a24.309,24.309,0,0,0,.583-5.587,19.764,19.764,0,0,0-1.116-6.57c-.081-.255-.162-.524-.243-.8l-.238.792a19.7,19.7,0,0,0-1.12,6.579,24.1,24.1,0,0,0,.583,5.587l.268,1.06H19.06Z" transform="translate(-7.499 -206.232)" fill="url(#linear-gradient)"/>
        <rect id="Rectangle_224" data-name="Rectangle 224" width="1.703" height="96.165" transform="translate(34.874)" fill="url(#linear-gradient)"/>
        <path id="Path_317" data-name="Path 317" d="M68.149,270.2H6.738l-.234-.477A34,34,0,0,1,3,254.58c0-7.626,6.5-12.74,14.026-18.663,6.681-5.259,14.26-11.22,19.579-20.375l.1-.175.741-1.277.852,1.469c5.31,9.138,12.893,15.1,19.587,20.366,7.524,5.923,14.026,11.037,14.026,18.663A33.962,33.962,0,0,1,68.4,269.735ZM7.8,268.5h59.29A32.285,32.285,0,0,0,70.2,254.58c0-6.813-5.9-11.446-13.375-17.322-6.562-5.157-13.949-10.973-19.379-19.8-5.433,8.831-12.83,14.648-19.379,19.8C10.6,243.134,4.7,247.78,4.7,254.58A32.361,32.361,0,0,0,7.8,268.5Z" transform="translate(-1.722 -122.929)" fill="url(#linear-gradient)"/>
        <path id="Path_318" data-name="Path 318" d="M75.445,268.331H42.3l-.166-.639A59.719,59.719,0,0,1,40.3,252.708c0-7.473,3.406-12.566,7.375-18.467,3.53-5.263,7.528-11.224,10.343-20.392a.194.194,0,0,1,.03-.1v-.06l.818-2.857.894,3.053C62.565,223.034,66.571,229,70.1,234.258c3.956,5.9,7.375,10.994,7.375,18.467a59.524,59.524,0,0,1-1.84,14.984Zm-31.846-1.7H74.125a58.263,58.263,0,0,0,1.622-13.92c0-6.953-3.13-11.616-7.085-17.518-3.292-4.905-6.983-10.411-9.794-18.518-2.819,8.116-6.511,13.626-9.794,18.518-3.96,5.9-7.085,10.564-7.085,17.518a58.485,58.485,0,0,0,1.61,13.92Z" transform="translate(-23.139 -121.057)" fill="url(#linear-gradient)"/>
        <path id="Path_319" data-name="Path 319" d="M65.5,350.931H5.961L0,341.87H71.455Zm-58.625-1.7H64.578l3.717-5.655H3.155Z" transform="translate(0 -196.299)" fill="url(#linear-gradient)"/>
        <path id="Path_320" data-name="Path 320" d="M37.448,560.566,36.6,559.1c-5.314-9.142-12.893-15.108-19.587-20.371C9.489,532.8,3,527.693,3,520.067a34.039,34.039,0,0,1,3.513-15.155l.234-.473h61.4l.234.473A33.984,33.984,0,0,1,71.9,520.067c0,7.626-6.5,12.736-14.026,18.659C51.184,543.989,43.6,549.955,38.287,559.1l-.106.175ZM7.8,506.143a32.272,32.272,0,0,0-3.1,13.924c0,6.813,5.9,11.441,13.375,17.322,6.553,5.152,13.945,10.969,19.379,19.8,5.433-8.836,12.825-14.652,19.379-19.8C64.316,531.5,70.2,526.863,70.2,520.067a32.277,32.277,0,0,0-3.113-13.924Z" transform="translate(-1.722 -289.645)" fill="url(#linear-gradient)"/>
        <path id="Path_321" data-name="Path 321" d="M58.818,561.941l-.852-2.917-.038-.119c-2.806-9.151-6.813-15.112-10.334-20.375-3.96-5.9-7.375-10.994-7.375-18.463a59.766,59.766,0,0,1,1.835-14.993l.166-.634H75.387l.166.634a59.566,59.566,0,0,1,1.84,14.993c0,7.469-3.406,12.566-7.375,18.463-3.53,5.263-7.533,11.224-10.343,20.392l-.051.166ZM43.553,506.16a58.442,58.442,0,0,0-1.618,13.924c0,6.953,3.125,11.612,7.085,17.514C52.312,542.5,56,548.009,58.814,556.12,61.633,548,65.32,542.495,68.608,537.6c3.956-5.9,7.085-10.56,7.085-17.514a58.221,58.221,0,0,0-1.622-13.924Z" transform="translate(-23.093 -289.645)" fill="url(#linear-gradient)"/>
        <path id="Path_322" data-name="Path 322" d="M71.455,496.227H0l5.961-9.057H65.5Zm-68.3-1.7H68.308l-3.717-5.651H6.873Z" transform="translate(0 -279.729)" fill="url(#linear-gradient)"/>
        <path id="Path_323" data-name="Path 323" d="M82.872,640.084l.766-10.854H82.11Z" transform="translate(-47.147 -361.298)" fill="url(#linear-gradient)"/>
        <rect id="Rectangle_225" data-name="Rectangle 225" width="2.653" height="3.82" rx="1.326" transform="translate(34.405 268.698)" fill="url(#linear-gradient)"/>
        <rect id="Rectangle_226" data-name="Rectangle 226" width="2.214" height="2.214" rx="1.107" transform="translate(34.618 273.208)" fill="url(#linear-gradient)"/>
      </g>
    </g>
    <g id="Layer_2-2" data-name="Layer 2" transform="translate(1486.178 70.967)" opacity="0.46">
      <g id="Layer_1-2" data-name="Layer 1">
        <path id="Path_313-2" data-name="Path 313" d="M136.6,389.266c0-4.646-1.252-6.247-2.21-10.786-.962,4.539-2.21,6.14-2.21,10.786a24.842,24.842,0,0,0,.609,5.791h-.634v23.824h4.471V395.057h-.634a25.071,25.071,0,0,0,.609-5.791Z" transform="translate(-75.879 -217.32)" fill="none"/>
        <path id="Path_314-2" data-name="Path 314" d="M81.08,389.266c0-4.646-4.756-6.247-8.414-10.786-3.658,4.539-8.414,6.14-8.414,10.786a8.371,8.371,0,0,0,2.316,5.791H64.15v23.824H81.182V395.057H78.764a8.371,8.371,0,0,0,2.316-5.791Z" transform="translate(-36.834 -217.32)" fill="none"/>
        <path id="Path_315-2" data-name="Path 315" d="M29.6,389.266c0-4.646-1.252-6.247-2.21-10.786-.962,4.539-2.21,6.14-2.21,10.786a24.841,24.841,0,0,0,.609,5.791H25.15v23.824h4.471V395.057h-.634a25.072,25.072,0,0,0,.609-5.791Z" transform="translate(-14.441 -217.32)" fill="none"/>
        <path id="Path_316-2" data-name="Path 316" d="M73.389,415.377H13.06V359.17H73.389Zm-58.625-1.7H71.685v-52.8H14.763Zm54.329-5.025H62.918V383.1h.426a28.231,28.231,0,0,1-.426-4.944,21.385,21.385,0,0,1,1.192-7.073c.349-1.145.707-2.329,1.039-3.888L66,363.258l.852,3.939c.328,1.567.69,2.751,1.035,3.9a21.342,21.342,0,0,1,1.192,7.064,28,28,0,0,1-.426,4.944h.426Zm-4.471-1.7h2.768V384.8h-.852l.26-1.06a24.309,24.309,0,0,0,.583-5.587,19.764,19.764,0,0,0-1.116-6.57c-.081-.255-.162-.524-.243-.8l-.238.792a19.7,19.7,0,0,0-1.12,6.579,24.1,24.1,0,0,0,.583,5.587l.268,1.06h-.877Zm-11.923,1.7H33.963V383.1h1.529a9.227,9.227,0,0,1-1.426-4.944c0-3.406,2.282-5.374,4.684-7.469a29.609,29.609,0,0,0,3.9-3.832l.664-.822.664.822a29.894,29.894,0,0,0,3.909,3.832c2.414,2.095,4.684,4.071,4.684,7.469a9.227,9.227,0,0,1-1.426,4.944h1.529Zm-17.032-1.7H51V384.8H47.444l1.358-1.435a7.5,7.5,0,0,0,2.082-5.208c0-2.619-1.81-4.19-4.1-6.178a36.859,36.859,0,0,1-3.458-3.287A37.375,37.375,0,0,1,39.86,372c-2.3,1.989-4.109,3.56-4.109,6.178a7.52,7.52,0,0,0,2.1,5.195l1.371,1.439H35.666Zm-12.136,1.7H17.356V383.1h.426a28.232,28.232,0,0,1-.426-4.944,21.385,21.385,0,0,1,1.192-7.073c.349-1.145.707-2.329,1.039-3.888l.852-3.939.83,3.939c.328,1.567.69,2.751,1.035,3.9a21.342,21.342,0,0,1,1.192,7.064,28,28,0,0,1-.426,4.944H23.5Zm-4.471-1.7h2.768V384.8h-.852l.26-1.06a24.309,24.309,0,0,0,.583-5.587,19.764,19.764,0,0,0-1.116-6.57c-.081-.255-.162-.524-.243-.8l-.238.792a19.7,19.7,0,0,0-1.12,6.579,24.1,24.1,0,0,0,.583,5.587l.268,1.06H19.06Z" transform="translate(-7.499 -206.232)" fill="url(#linear-gradient)"/>
        <rect id="Rectangle_224-2" data-name="Rectangle 224" width="1.703" height="96.165" transform="translate(34.874)" fill="url(#linear-gradient)"/>
        <path id="Path_317-2" data-name="Path 317" d="M68.149,270.2H6.738l-.234-.477A34,34,0,0,1,3,254.58c0-7.626,6.5-12.74,14.026-18.663,6.681-5.259,14.26-11.22,19.579-20.375l.1-.175.741-1.277.852,1.469c5.31,9.138,12.893,15.1,19.587,20.366,7.524,5.923,14.026,11.037,14.026,18.663A33.962,33.962,0,0,1,68.4,269.735ZM7.8,268.5h59.29A32.285,32.285,0,0,0,70.2,254.58c0-6.813-5.9-11.446-13.375-17.322-6.562-5.157-13.949-10.973-19.379-19.8-5.433,8.831-12.83,14.648-19.379,19.8C10.6,243.134,4.7,247.78,4.7,254.58A32.361,32.361,0,0,0,7.8,268.5Z" transform="translate(-1.722 -122.929)" fill="url(#linear-gradient)"/>
        <path id="Path_318-2" data-name="Path 318" d="M75.445,268.331H42.3l-.166-.639A59.719,59.719,0,0,1,40.3,252.708c0-7.473,3.406-12.566,7.375-18.467,3.53-5.263,7.528-11.224,10.343-20.392a.194.194,0,0,1,.03-.1v-.06l.818-2.857.894,3.053C62.565,223.034,66.571,229,70.1,234.258c3.956,5.9,7.375,10.994,7.375,18.467a59.524,59.524,0,0,1-1.84,14.984Zm-31.846-1.7H74.125a58.263,58.263,0,0,0,1.622-13.92c0-6.953-3.13-11.616-7.085-17.518-3.292-4.905-6.983-10.411-9.794-18.518-2.819,8.116-6.511,13.626-9.794,18.518-3.96,5.9-7.085,10.564-7.085,17.518a58.485,58.485,0,0,0,1.61,13.92Z" transform="translate(-23.139 -121.057)" fill="url(#linear-gradient)"/>
        <path id="Path_319-2" data-name="Path 319" d="M65.5,350.931H5.961L0,341.87H71.455Zm-58.625-1.7H64.578l3.717-5.655H3.155Z" transform="translate(0 -196.299)" fill="url(#linear-gradient)"/>
        <path id="Path_320-2" data-name="Path 320" d="M37.448,560.566,36.6,559.1c-5.314-9.142-12.893-15.108-19.587-20.371C9.489,532.8,3,527.693,3,520.067a34.039,34.039,0,0,1,3.513-15.155l.234-.473h61.4l.234.473A33.984,33.984,0,0,1,71.9,520.067c0,7.626-6.5,12.736-14.026,18.659C51.184,543.989,43.6,549.955,38.287,559.1l-.106.175ZM7.8,506.143a32.272,32.272,0,0,0-3.1,13.924c0,6.813,5.9,11.441,13.375,17.322,6.553,5.152,13.945,10.969,19.379,19.8,5.433-8.836,12.825-14.652,19.379-19.8C64.316,531.5,70.2,526.863,70.2,520.067a32.277,32.277,0,0,0-3.113-13.924Z" transform="translate(-1.722 -289.645)" fill="url(#linear-gradient)"/>
        <path id="Path_321-2" data-name="Path 321" d="M58.818,561.941l-.852-2.917-.038-.119c-2.806-9.151-6.813-15.112-10.334-20.375-3.96-5.9-7.375-10.994-7.375-18.463a59.766,59.766,0,0,1,1.835-14.993l.166-.634H75.387l.166.634a59.566,59.566,0,0,1,1.84,14.993c0,7.469-3.406,12.566-7.375,18.463-3.53,5.263-7.533,11.224-10.343,20.392l-.051.166ZM43.553,506.16a58.442,58.442,0,0,0-1.618,13.924c0,6.953,3.125,11.612,7.085,17.514C52.312,542.5,56,548.009,58.814,556.12,61.633,548,65.32,542.495,68.608,537.6c3.956-5.9,7.085-10.56,7.085-17.514a58.221,58.221,0,0,0-1.622-13.924Z" transform="translate(-23.093 -289.645)" fill="url(#linear-gradient)"/>
        <path id="Path_322-2" data-name="Path 322" d="M71.455,496.227H0l5.961-9.057H65.5Zm-68.3-1.7H68.308l-3.717-5.651H6.873Z" transform="translate(0 -279.729)" fill="url(#linear-gradient)"/>
        <path id="Path_323-2" data-name="Path 323" d="M82.872,640.084l.766-10.854H82.11Z" transform="translate(-47.147 -361.298)" fill="url(#linear-gradient)"/>
        <rect id="Rectangle_225-2" data-name="Rectangle 225" width="2.653" height="3.82" rx="1.326" transform="translate(34.405 268.698)" fill="url(#linear-gradient)"/>
        <rect id="Rectangle_226-2" data-name="Rectangle 226" width="2.214" height="2.214" rx="1.107" transform="translate(34.618 273.208)" fill="url(#linear-gradient)"/>
      </g>
    </g>
    <g id="Group_445" data-name="Group 445">
      <g id="Layer_2-3" data-name="Layer 2" transform="translate(1696)">
        <g id="Layer_1-3" data-name="Layer 1" opacity="0.48">
          <path id="Path_305" data-name="Path 305" d="M15.06,361.15v128H152.74v-128ZM35.65,473.37H25.15v-56h1.49a58.34,58.34,0,0,1-1.43-13.6c0-10.91,2.93-14.67,5.19-25.33,2.25,10.66,5.19,14.42,5.19,25.33a58.88,58.88,0,0,1-1.43,13.6h1.49Zm68.5,0h-40v-56h5.68a19.66,19.66,0,0,1-5.44-13.6c0-10.91,11.17-14.67,19.76-25.33,8.59,10.66,19.76,14.42,19.76,25.33a19.66,19.66,0,0,1-5.44,13.6h5.68Zm38.5,0h-10.5v-56h1.49a58.34,58.34,0,0,1-1.43-13.6c0-10.91,2.93-14.67,5.19-25.33,2.25,10.66,5.19,14.42,5.19,25.33a58.879,58.879,0,0,1-1.43,13.6h1.49Z" fill="none" stroke="#115d8e" stroke-miterlimit="10" stroke-width="4"/>
          <rect id="Rectangle_221" data-name="Rectangle 221" width="4" height="225.84" transform="translate(81.9)" fill="url(#linear-gradient-23)"/>
          <path id="Path_306" data-name="Path 306" d="M156,345.87H11.78l-.55-1.12A79.85,79.85,0,0,1,3,309.18c0-17.91,15.26-29.92,32.94-43.83C51.63,253,69.43,239,81.92,217.5l.24-.41,1.74-3,2,3.45c12.47,21.46,30.28,35.47,46,47.83,17.67,13.91,32.94,25.92,32.94,43.83a79.76,79.76,0,0,1-8.26,35.57Zm-141.73-4H153.51a75.82,75.82,0,0,0,7.31-32.69c0-16-13.86-26.88-31.41-40.68C114,256.39,96.65,242.73,83.9,222c-12.76,20.74-30.13,34.4-45.51,46.51C20.84,282.3,7,293.21,7,309.18a76,76,0,0,0,7.28,32.69Z" fill="url(#linear-gradient-23)"/>
          <path id="Path_307" data-name="Path 307" d="M122.84,345.87H45l-.39-1.5a140.25,140.25,0,0,1-4.31-35.19c0-17.55,8-29.51,17.32-43.37,8.29-12.36,17.68-26.36,24.29-47.89a.456.456,0,0,1,.07-.24v-.14l1.92-6.71L86,218c6.59,21.49,16,35.49,24.28,47.85,9.29,13.86,17.32,25.82,17.32,43.37a139.79,139.79,0,0,1-4.32,35.19Zm-74.79-4h71.69a136.83,136.83,0,0,0,3.81-32.69c0-16.33-7.35-27.28-16.64-41.14-7.73-11.52-16.4-24.45-23-43.49-6.62,19.06-15.29,32-23,43.49-9.3,13.86-16.64,24.81-16.64,41.14a137.351,137.351,0,0,0,3.78,32.69Z" fill="url(#linear-gradient-23)"/>
          <path id="Path_308" data-name="Path 308" d="M153.82,363.15H14L0,341.87H167.81Zm-137.68-4H151.66l8.73-13.28H7.41Z" fill="url(#linear-gradient-23)"/>
          <path id="Path_309" data-name="Path 309" d="M83.9,636.25l-2-3.45c-12.48-21.47-30.28-35.48-46-47.84C18.24,571.05,3,559.05,3,541.14a79.94,79.94,0,0,1,8.25-35.59l.55-1.11H156l.55,1.11a79.81,79.81,0,0,1,8.26,35.59c0,17.91-15.27,29.91-32.94,43.82-15.71,12.36-33.52,26.37-46,47.85l-.25.41ZM14.28,508.44A75.79,75.79,0,0,0,7,541.14c0,16,13.86,26.87,31.41,40.68,15.39,12.1,32.75,25.76,45.51,46.51,12.76-20.75,30.12-34.41,45.51-46.51C147,568,160.82,557.1,160.82,541.14a75.8,75.8,0,0,0-7.31-32.7Z" fill="url(#linear-gradient-23)"/>
          <path id="Path_310" data-name="Path 310" d="M83.9,639.48l-2-6.85-.09-.28c-6.59-21.49-16-35.49-24.27-47.85-9.3-13.85-17.32-25.82-17.32-43.36a140.359,140.359,0,0,1,4.31-35.21l.39-1.49h77.89l.39,1.49a139.89,139.89,0,0,1,4.32,35.21c0,17.54-8,29.51-17.32,43.36-8.29,12.36-17.69,26.36-24.29,47.89l-.12.39Zm-35.85-131a137.249,137.249,0,0,0-3.8,32.7c0,16.33,7.34,27.27,16.64,41.13,7.73,11.52,16.4,24.45,23,43.5,6.62-19.06,15.28-32,23-43.5,9.29-13.86,16.64-24.8,16.64-41.13a136.729,136.729,0,0,0-3.81-32.7Z" fill="url(#linear-gradient-23)"/>
          <path id="Path_311" data-name="Path 311" d="M167.81,508.44H0l14-21.27H153.82Zm-160.39-4h153l-8.73-13.27H16.14Z" fill="url(#linear-gradient-23)"/>
          <path id="Path_312" data-name="Path 312" d="M83.9,654.72l1.8-25.49H82.11Z" fill="url(#linear-gradient-23)"/>
          <rect id="Rectangle_222" data-name="Rectangle 222" width="6.23" height="8.97" rx="2.6" transform="translate(80.8 631.03)" fill="url(#linear-gradient-23)"/>
          <rect id="Rectangle_223" data-name="Rectangle 223" width="5.2" height="5.2" rx="2.6" transform="translate(81.3 641.62)" fill="url(#linear-gradient-23)"/>
        </g>
      </g>
      <g id="Layer_2-4" data-name="Layer 2" transform="translate(1613.178 -23.033)">
        <g id="Layer_1-4" data-name="Layer 1">
          <path id="Path_313-3" data-name="Path 313" d="M136.6,389.266c0-4.646-1.252-6.247-2.21-10.786-.962,4.539-2.21,6.14-2.21,10.786a24.842,24.842,0,0,0,.609,5.791h-.634v23.824h4.471V395.057h-.634a25.071,25.071,0,0,0,.609-5.791Z" transform="translate(-75.879 -217.32)" fill="none"/>
          <path id="Path_314-3" data-name="Path 314" d="M81.08,389.266c0-4.646-4.756-6.247-8.414-10.786-3.658,4.539-8.414,6.14-8.414,10.786a8.371,8.371,0,0,0,2.316,5.791H64.15v23.824H81.182V395.057H78.764a8.371,8.371,0,0,0,2.316-5.791Z" transform="translate(-36.834 -217.32)" fill="none"/>
          <path id="Path_315-3" data-name="Path 315" d="M29.6,389.266c0-4.646-1.252-6.247-2.21-10.786-.962,4.539-2.21,6.14-2.21,10.786a24.841,24.841,0,0,0,.609,5.791H25.15v23.824h4.471V395.057h-.634a25.072,25.072,0,0,0,.609-5.791Z" transform="translate(-14.441 -217.32)" fill="none"/>
          <path id="Path_316-3" data-name="Path 316" d="M73.389,415.377H13.06V359.17H73.389Zm-58.625-1.7H71.685v-52.8H14.763Zm54.329-5.025H62.918V383.1h.426a28.231,28.231,0,0,1-.426-4.944,21.385,21.385,0,0,1,1.192-7.073c.349-1.145.707-2.329,1.039-3.888L66,363.258l.852,3.939c.328,1.567.69,2.751,1.035,3.9a21.342,21.342,0,0,1,1.192,7.064,28,28,0,0,1-.426,4.944h.426Zm-4.471-1.7h2.768V384.8h-.852l.26-1.06a24.309,24.309,0,0,0,.583-5.587,19.764,19.764,0,0,0-1.116-6.57c-.081-.255-.162-.524-.243-.8l-.238.792a19.7,19.7,0,0,0-1.12,6.579,24.1,24.1,0,0,0,.583,5.587l.268,1.06h-.877Zm-11.923,1.7H33.963V383.1h1.529a9.227,9.227,0,0,1-1.426-4.944c0-3.406,2.282-5.374,4.684-7.469a29.609,29.609,0,0,0,3.9-3.832l.664-.822.664.822a29.894,29.894,0,0,0,3.909,3.832c2.414,2.095,4.684,4.071,4.684,7.469a9.227,9.227,0,0,1-1.426,4.944h1.529Zm-17.032-1.7H51V384.8H47.444l1.358-1.435a7.5,7.5,0,0,0,2.082-5.208c0-2.619-1.81-4.19-4.1-6.178a36.859,36.859,0,0,1-3.458-3.287A37.375,37.375,0,0,1,39.86,372c-2.3,1.989-4.109,3.56-4.109,6.178a7.52,7.52,0,0,0,2.1,5.195l1.371,1.439H35.666Zm-12.136,1.7H17.356V383.1h.426a28.232,28.232,0,0,1-.426-4.944,21.385,21.385,0,0,1,1.192-7.073c.349-1.145.707-2.329,1.039-3.888l.852-3.939.83,3.939c.328,1.567.69,2.751,1.035,3.9a21.342,21.342,0,0,1,1.192,7.064,28,28,0,0,1-.426,4.944H23.5Zm-4.471-1.7h2.768V384.8h-.852l.26-1.06a24.309,24.309,0,0,0,.583-5.587,19.764,19.764,0,0,0-1.116-6.57c-.081-.255-.162-.524-.243-.8l-.238.792a19.7,19.7,0,0,0-1.12,6.579,24.1,24.1,0,0,0,.583,5.587l.268,1.06H19.06Z" transform="translate(-7.499 -206.232)" fill="url(#linear-gradient-33)"/>
          <rect id="Rectangle_224-3" data-name="Rectangle 224" width="1.703" height="96.165" transform="translate(34.874)" fill="url(#linear-gradient-33)"/>
          <path id="Path_317-3" data-name="Path 317" d="M68.149,270.2H6.738l-.234-.477A34,34,0,0,1,3,254.58c0-7.626,6.5-12.74,14.026-18.663,6.681-5.259,14.26-11.22,19.579-20.375l.1-.175.741-1.277.852,1.469c5.31,9.138,12.893,15.1,19.587,20.366,7.524,5.923,14.026,11.037,14.026,18.663A33.962,33.962,0,0,1,68.4,269.735ZM7.8,268.5h59.29A32.285,32.285,0,0,0,70.2,254.58c0-6.813-5.9-11.446-13.375-17.322-6.562-5.157-13.949-10.973-19.379-19.8-5.433,8.831-12.83,14.648-19.379,19.8C10.6,243.134,4.7,247.78,4.7,254.58A32.361,32.361,0,0,0,7.8,268.5Z" transform="translate(-1.722 -122.929)" fill="url(#linear-gradient-33)"/>
          <path id="Path_318-3" data-name="Path 318" d="M75.445,268.331H42.3l-.166-.639A59.719,59.719,0,0,1,40.3,252.708c0-7.473,3.406-12.566,7.375-18.467,3.53-5.263,7.528-11.224,10.343-20.392a.194.194,0,0,1,.03-.1v-.06l.818-2.857.894,3.053C62.565,223.034,66.571,229,70.1,234.258c3.956,5.9,7.375,10.994,7.375,18.467a59.524,59.524,0,0,1-1.84,14.984Zm-31.846-1.7H74.125a58.263,58.263,0,0,0,1.622-13.92c0-6.953-3.13-11.616-7.085-17.518-3.292-4.905-6.983-10.411-9.794-18.518-2.819,8.116-6.511,13.626-9.794,18.518-3.96,5.9-7.085,10.564-7.085,17.518a58.485,58.485,0,0,0,1.61,13.92Z" transform="translate(-23.139 -121.057)" fill="url(#linear-gradient-33)"/>
          <path id="Path_319-3" data-name="Path 319" d="M65.5,350.931H5.961L0,341.87H71.455Zm-58.625-1.7H64.578l3.717-5.655H3.155Z" transform="translate(0 -196.299)" fill="url(#linear-gradient-33)"/>
          <path id="Path_320-3" data-name="Path 320" d="M37.448,560.566,36.6,559.1c-5.314-9.142-12.893-15.108-19.587-20.371C9.489,532.8,3,527.693,3,520.067a34.039,34.039,0,0,1,3.513-15.155l.234-.473h61.4l.234.473A33.984,33.984,0,0,1,71.9,520.067c0,7.626-6.5,12.736-14.026,18.659C51.184,543.989,43.6,549.955,38.287,559.1l-.106.175ZM7.8,506.143a32.272,32.272,0,0,0-3.1,13.924c0,6.813,5.9,11.441,13.375,17.322,6.553,5.152,13.945,10.969,19.379,19.8,5.433-8.836,12.825-14.652,19.379-19.8C64.316,531.5,70.2,526.863,70.2,520.067a32.277,32.277,0,0,0-3.113-13.924Z" transform="translate(-1.722 -289.645)" fill="url(#linear-gradient-33)"/>
          <path id="Path_321-3" data-name="Path 321" d="M58.818,561.941l-.852-2.917-.038-.119c-2.806-9.151-6.813-15.112-10.334-20.375-3.96-5.9-7.375-10.994-7.375-18.463a59.766,59.766,0,0,1,1.835-14.993l.166-.634H75.387l.166.634a59.566,59.566,0,0,1,1.84,14.993c0,7.469-3.406,12.566-7.375,18.463-3.53,5.263-7.533,11.224-10.343,20.392l-.051.166ZM43.553,506.16a58.442,58.442,0,0,0-1.618,13.924c0,6.953,3.125,11.612,7.085,17.514C52.312,542.5,56,548.009,58.814,556.12,61.633,548,65.32,542.495,68.608,537.6c3.956-5.9,7.085-10.56,7.085-17.514a58.221,58.221,0,0,0-1.622-13.924Z" transform="translate(-23.093 -289.645)" fill="url(#linear-gradient-33)"/>
          <path id="Path_322-3" data-name="Path 322" d="M71.455,496.227H0l5.961-9.057H65.5Zm-68.3-1.7H68.308l-3.717-5.651H6.873Z" transform="translate(0 -279.729)" fill="url(#linear-gradient-33)"/>
          <path id="Path_323-3" data-name="Path 323" d="M82.872,640.084l.766-10.854H82.11Z" transform="translate(-47.147 -361.298)" fill="url(#linear-gradient-33)"/>
          <rect id="Rectangle_225-3" data-name="Rectangle 225" width="2.653" height="3.82" rx="1.326" transform="translate(34.405 268.698)" fill="url(#linear-gradient-33)"/>
          <rect id="Rectangle_226-3" data-name="Rectangle 226" width="2.214" height="2.214" rx="1.107" transform="translate(34.618 273.208)" fill="url(#linear-gradient-33)"/>
        </g>
      </g>
      <g id="Layer_2-5" data-name="Layer 2" transform="translate(1486.178 70.967)">
        <g id="Layer_1-5" data-name="Layer 1">
          <path id="Path_313-4" data-name="Path 313" d="M136.6,389.266c0-4.646-1.252-6.247-2.21-10.786-.962,4.539-2.21,6.14-2.21,10.786a24.842,24.842,0,0,0,.609,5.791h-.634v23.824h4.471V395.057h-.634a25.071,25.071,0,0,0,.609-5.791Z" transform="translate(-75.879 -217.32)" fill="none"/>
          <path id="Path_314-4" data-name="Path 314" d="M81.08,389.266c0-4.646-4.756-6.247-8.414-10.786-3.658,4.539-8.414,6.14-8.414,10.786a8.371,8.371,0,0,0,2.316,5.791H64.15v23.824H81.182V395.057H78.764a8.371,8.371,0,0,0,2.316-5.791Z" transform="translate(-36.834 -217.32)" fill="none"/>
          <path id="Path_315-4" data-name="Path 315" d="M29.6,389.266c0-4.646-1.252-6.247-2.21-10.786-.962,4.539-2.21,6.14-2.21,10.786a24.841,24.841,0,0,0,.609,5.791H25.15v23.824h4.471V395.057h-.634a25.072,25.072,0,0,0,.609-5.791Z" transform="translate(-14.441 -217.32)" fill="none"/>
          <path id="Path_316-4" data-name="Path 316" d="M73.389,415.377H13.06V359.17H73.389Zm-58.625-1.7H71.685v-52.8H14.763Zm54.329-5.025H62.918V383.1h.426a28.231,28.231,0,0,1-.426-4.944,21.385,21.385,0,0,1,1.192-7.073c.349-1.145.707-2.329,1.039-3.888L66,363.258l.852,3.939c.328,1.567.69,2.751,1.035,3.9a21.342,21.342,0,0,1,1.192,7.064,28,28,0,0,1-.426,4.944h.426Zm-4.471-1.7h2.768V384.8h-.852l.26-1.06a24.309,24.309,0,0,0,.583-5.587,19.764,19.764,0,0,0-1.116-6.57c-.081-.255-.162-.524-.243-.8l-.238.792a19.7,19.7,0,0,0-1.12,6.579,24.1,24.1,0,0,0,.583,5.587l.268,1.06h-.877Zm-11.923,1.7H33.963V383.1h1.529a9.227,9.227,0,0,1-1.426-4.944c0-3.406,2.282-5.374,4.684-7.469a29.609,29.609,0,0,0,3.9-3.832l.664-.822.664.822a29.894,29.894,0,0,0,3.909,3.832c2.414,2.095,4.684,4.071,4.684,7.469a9.227,9.227,0,0,1-1.426,4.944h1.529Zm-17.032-1.7H51V384.8H47.444l1.358-1.435a7.5,7.5,0,0,0,2.082-5.208c0-2.619-1.81-4.19-4.1-6.178a36.859,36.859,0,0,1-3.458-3.287A37.375,37.375,0,0,1,39.86,372c-2.3,1.989-4.109,3.56-4.109,6.178a7.52,7.52,0,0,0,2.1,5.195l1.371,1.439H35.666Zm-12.136,1.7H17.356V383.1h.426a28.232,28.232,0,0,1-.426-4.944,21.385,21.385,0,0,1,1.192-7.073c.349-1.145.707-2.329,1.039-3.888l.852-3.939.83,3.939c.328,1.567.69,2.751,1.035,3.9a21.342,21.342,0,0,1,1.192,7.064,28,28,0,0,1-.426,4.944H23.5Zm-4.471-1.7h2.768V384.8h-.852l.26-1.06a24.309,24.309,0,0,0,.583-5.587,19.764,19.764,0,0,0-1.116-6.57c-.081-.255-.162-.524-.243-.8l-.238.792a19.7,19.7,0,0,0-1.12,6.579,24.1,24.1,0,0,0,.583,5.587l.268,1.06H19.06Z" transform="translate(-7.499 -206.232)" fill="url(#linear-gradient-23)"/>
          <rect id="Rectangle_224-4" data-name="Rectangle 224" width="1.703" height="167.165" transform="translate(34.874 -71)" fill="url(#linear-gradient-23)"/>
          <path id="Path_317-4" data-name="Path 317" d="M68.149,270.2H6.738l-.234-.477A34,34,0,0,1,3,254.58c0-7.626,6.5-12.74,14.026-18.663,6.681-5.259,14.26-11.22,19.579-20.375l.1-.175.741-1.277.852,1.469c5.31,9.138,12.893,15.1,19.587,20.366,7.524,5.923,14.026,11.037,14.026,18.663A33.962,33.962,0,0,1,68.4,269.735ZM7.8,268.5h59.29A32.285,32.285,0,0,0,70.2,254.58c0-6.813-5.9-11.446-13.375-17.322-6.562-5.157-13.949-10.973-19.379-19.8-5.433,8.831-12.83,14.648-19.379,19.8C10.6,243.134,4.7,247.78,4.7,254.58A32.361,32.361,0,0,0,7.8,268.5Z" transform="translate(-1.722 -122.929)" fill="url(#linear-gradient-23)"/>
          <path id="Path_318-4" data-name="Path 318" d="M75.445,268.331H42.3l-.166-.639A59.719,59.719,0,0,1,40.3,252.708c0-7.473,3.406-12.566,7.375-18.467,3.53-5.263,7.528-11.224,10.343-20.392a.194.194,0,0,1,.03-.1v-.06l.818-2.857.894,3.053C62.565,223.034,66.571,229,70.1,234.258c3.956,5.9,7.375,10.994,7.375,18.467a59.524,59.524,0,0,1-1.84,14.984Zm-31.846-1.7H74.125a58.263,58.263,0,0,0,1.622-13.92c0-6.953-3.13-11.616-7.085-17.518-3.292-4.905-6.983-10.411-9.794-18.518-2.819,8.116-6.511,13.626-9.794,18.518-3.96,5.9-7.085,10.564-7.085,17.518a58.485,58.485,0,0,0,1.61,13.92Z" transform="translate(-23.139 -121.057)" fill="url(#linear-gradient-23)"/>
          <path id="Path_319-4" data-name="Path 319" d="M65.5,350.931H5.961L0,341.87H71.455Zm-58.625-1.7H64.578l3.717-5.655H3.155Z" transform="translate(0 -196.299)" fill="url(#linear-gradient-23)"/>
          <path id="Path_320-4" data-name="Path 320" d="M37.448,560.566,36.6,559.1c-5.314-9.142-12.893-15.108-19.587-20.371C9.489,532.8,3,527.693,3,520.067a34.039,34.039,0,0,1,3.513-15.155l.234-.473h61.4l.234.473A33.984,33.984,0,0,1,71.9,520.067c0,7.626-6.5,12.736-14.026,18.659C51.184,543.989,43.6,549.955,38.287,559.1l-.106.175ZM7.8,506.143a32.272,32.272,0,0,0-3.1,13.924c0,6.813,5.9,11.441,13.375,17.322,6.553,5.152,13.945,10.969,19.379,19.8,5.433-8.836,12.825-14.652,19.379-19.8C64.316,531.5,70.2,526.863,70.2,520.067a32.277,32.277,0,0,0-3.113-13.924Z" transform="translate(-1.722 -289.645)" fill="url(#linear-gradient-23)"/>
          <path id="Path_321-4" data-name="Path 321" d="M58.818,561.941l-.852-2.917-.038-.119c-2.806-9.151-6.813-15.112-10.334-20.375-3.96-5.9-7.375-10.994-7.375-18.463a59.766,59.766,0,0,1,1.835-14.993l.166-.634H75.387l.166.634a59.566,59.566,0,0,1,1.84,14.993c0,7.469-3.406,12.566-7.375,18.463-3.53,5.263-7.533,11.224-10.343,20.392l-.051.166ZM43.553,506.16a58.442,58.442,0,0,0-1.618,13.924c0,6.953,3.125,11.612,7.085,17.514C52.312,542.5,56,548.009,58.814,556.12,61.633,548,65.32,542.495,68.608,537.6c3.956-5.9,7.085-10.56,7.085-17.514a58.221,58.221,0,0,0-1.622-13.924Z" transform="translate(-23.093 -289.645)" fill="url(#linear-gradient-23)"/>
          <path id="Path_322-4" data-name="Path 322" d="M71.455,496.227H0l5.961-9.057H65.5Zm-68.3-1.7H68.308l-3.717-5.651H6.873Z" transform="translate(0 -279.729)" fill="url(#linear-gradient-23)"/>
          <path id="Path_323-4" data-name="Path 323" d="M82.872,640.084l.766-10.854H82.11Z" transform="translate(-47.147 -361.298)" fill="url(#linear-gradient-23)"/>
          <rect id="Rectangle_225-4" data-name="Rectangle 225" width="2.653" height="3.82" rx="1.326" transform="translate(34.405 268.698)" fill="url(#linear-gradient-23)"/>
          <rect id="Rectangle_226-4" data-name="Rectangle 226" width="2.214" height="2.214" rx="1.107" transform="translate(34.618 273.208)" fill="url(#linear-gradient-23)"/>
        </g>
      </g>
    </g>
  </g>
</svg>
