<svg xmlns="http://www.w3.org/2000/svg" xmlns:xlink="http://www.w3.org/1999/xlink" width="1074.999" height="1068.325" viewBox="0 0 1074.999 1068.325">
  <defs>
    <linearGradient id="linear-gradient" x1="0.5" x2="0.5" y2="1" gradientUnits="objectBoundingBox">
      <stop offset="0" stop-color="#115d8e"/>
      <stop offset="1" stop-color="#fff"/>
    </linearGradient>
    <linearGradient id="linear-gradient-2" x1="0.124" y1="-3.367" x2="0.5" y2="1.472" gradientUnits="objectBoundingBox">
      <stop offset="0" stop-color="#fff"/>
      <stop offset="1" stop-color="#115d8e"/>
    </linearGradient>
  </defs>
  <g id="Ramadan" transform="translate(0 -0.732)">
    <path id="mosque" d="M1081.982,480.3V466.818l-.117-.969-6.059-52.238-6.033,52.248-.117.969v13.485h-2.406v7.992h2.406v36.448h-2.926c-3.459-23.006-31.987-32.85-38.566-34.821V475.66a15.832,15.832,0,0,0,8.894-2.154,14.664,14.664,0,0,1-10.844-1.734c-5.664-3.723-6.619-10.543-2.132-15.24a13.79,13.79,0,0,1,5.279-3.5c-5.936-.115-11.284,2.954-13.238,7.6s-.068,9.8,4.67,12.768a14.848,14.848,0,0,0,4.746,1.917v14.637c-5.838,1.766-29.165,9.812-36.577,27.907v-28.9h-9.453v-50.32h2.406V430.65h-2.406V420.418h0V408.57c4.257-2.272,6.2-6.595,4.77-10.619s-5.888-6.787-10.952-6.787-9.523,2.763-10.952,6.787.512,8.347,4.769,10.619v22.091h-2.406v7.992h2.406v50.32h-2.406c-6.137-40.4-56.172-57.7-67.614-61.156V402.732a27.75,27.75,0,0,0,15.6-3.78,25.834,25.834,0,0,1-19.062-3.048c-9.9-6.225-11.573-18.213-3.732-26.765a23.974,23.974,0,0,1,9.258-6.15c-12.169-.256-22.646,7.07-24.381,17.051s5.819,19.458,17.581,22.057v25.709c-11.495,3.468-61.5,20.766-67.614,61.156h-.65V455.519H808.951V451.7h-2.393V389.571h2.393v-7.992h-2.393V368.1l-.117-.98-6.059-52.238-6.059,52.238-.117.98v13.474h-2.392v7.992h2.392V451.7h-2.392v3.824H770.879a76.753,76.753,0,0,0,7.321-32.743c0-48.565-58.213-54.144-85.012-78.27l-.624-7.539h5.487v-6.775h-6.059L690.9,317.03h3.095v-3.705h-3.446l-.871-10.566h.182c15.67.04,29.512-8.448,34.041-20.874-6.155,6.591-15.634,10.465-25.693,10.5-18.347,0-33.222-12.86-33.222-28.715a25.582,25.582,0,0,1,4.265-14.077c-12.314,7.339-17.627,20.353-13.219,32.377s17.562,20.392,32.723,20.819l-.884,10.588h-3.55v3.705h3.172L686.4,330.246h-6.163v6.775h5.591l-.611,7.389c-26.747,24.223-85.129,29.749-85.129,78.378a76.751,76.751,0,0,0,7.32,32.732h-14.68V444.889H596.2V433.353h-3.472V343.645H596.2V332.109h-3.472V312.636l-.169-1.411-8.751-75.394-8.738,75.394-.169,1.411v19.473h-3.459v11.535H574.9v89.709h-3.459v11.535H574.9v10.631h-8.335V409.13H555.332c-2.848-18.741-26.005-26.765-31.363-28.37V369.106a12.811,12.811,0,0,0,7.243-1.734,11.975,11.975,0,0,1-8.842-1.411c-4.607-3.034-5.381-8.584-1.729-12.408a11.045,11.045,0,0,1,4.3-2.854c-5.66-.152-10.553,3.245-11.363,7.887s2.723,9.048,8.2,10.229v11.955c-5.331,1.6-28.528,9.629-31.376,28.37l-7.724-.689V398.09h5.708V383.377h3.459V371.842h-3.459V282.133h3.459V270.6h-3.459V251.135l-.169-1.411-8.751-75.395-8.738,75.395-.169,1.411V270.6H467.1v11.535h3.472v89.709H467.1v11.535h3.472v8.993H467.1c-3.9-26.022-36.174-37.159-43.559-39.388V336.827a17.839,17.839,0,0,0,10.012-2.37,16.717,16.717,0,0,1-12.275-1.971c-6.4-4.212-7.478-11.922-2.406-17.233a15.52,15.52,0,0,1,5.968-3.964c-7.833-.156-14.57,4.562-15.687,10.986s3.738,12.525,11.305,14.207v16.5c-7.4,2.24-39.606,13.377-43.559,39.388h-9.544V312.227h3.485V300.605h-3.485V285.742h0V268.509c6.192-3.3,9.017-9.592,6.938-15.445s-8.564-9.872-15.929-9.872-13.851,4.019-15.93,9.872.746,12.141,6.938,15.445v32.107h-3.459v11.622h3.511v80.144H338.94V612.211h743.042V488.348h2.406v-7.992Z" transform="translate(-111.042 123.626)" opacity="0.7" fill="url(#linear-gradient)"/>
    <g id="Group_444" data-name="Group 444" transform="translate(-443 65)">
      <text id="Ramadan-2" data-name="Ramadan" transform="translate(694 648)" fill="#115d8e" font-size="120" font-family="Poppins-Regular, Poppins"><tspan x="0" y="0">Ramadan</tspan></text>
      <text id="Kareem" transform="translate(889 755)" fill="#115d8e" font-size="120" font-family="Poppins-Regular, Poppins"><tspan x="0" y="0">Kareem</tspan></text>
    </g>
    <g id="Layer_2" data-name="Layer 2" transform="translate(-287.958 1185.732)">
      <g id="Layer_1" data-name="Layer 1" transform="translate(287.958 -1185)">
        <path id="Path_173" data-name="Path 173" d="M232.817,44.21l5.543,17.049h17.924L241.784,71.8l5.543,17.049-14.51-10.545-14.5,10.545L223.86,71.8,209.35,61.259h17.924Z" transform="translate(16.883 3.556)" fill="url(#linear-gradient-2)"/>
        <path id="Path_174" data-name="Path 174" d="M950.054,664.73,953.706,676h11.852l-9.583,6.958,3.662,11.269-9.583-6.958-9.583,6.958,3.663-11.269L934.55,676h11.841Z" transform="translate(75.208 53.462)" fill="url(#linear-gradient-2)"/>
        <path id="Path_175" data-name="Path 175" d="M912.364,733.82l3.663,11.269h11.852l-9.583,6.958,3.652,11.269-9.583-6.969-9.573,6.969,3.652-11.269-9.583-6.958h11.852Z" transform="translate(72.177 59.018)" fill="url(#linear-gradient-2)"/>
        <path id="Path_176" data-name="Path 176" d="M892.374,707.8l3.663,11.269h11.842l-9.583,6.958,3.662,11.269-9.583-6.969-9.583,6.969,3.663-11.269-9.583-6.958h11.841Z" transform="translate(70.569 56.926)" fill="url(#linear-gradient-2)"/>
        <path id="Path_177" data-name="Path 177" d="M860.069,787.37l4.657,14.348h15.083l-12.2,8.86,4.657,14.348-12.2-8.87-12.2,8.87,4.657-14.348-12.2-8.86H855.4Z" transform="translate(67.63 63.325)" fill="url(#linear-gradient-2)"/>
        <path id="Path_178" data-name="Path 178" d="M846.739,736.96l4.657,14.348h15.083l-12.2,8.859,4.657,14.348-12.2-8.87-12.209,8.87,4.667-14.348L827,751.308h15.072Z" transform="translate(66.558 59.271)" fill="url(#linear-gradient-2)"/>
        <path id="Path_179" data-name="Path 179" d="M719.879,801.8l4.657,14.337h15.083l-12.2,8.87,4.657,14.337-12.2-8.86-12.2,8.86,4.657-14.337-12.2-8.87h15.083Z" transform="translate(56.355 64.486)" fill="url(#linear-gradient-2)"/>
        <path id="Path_180" data-name="Path 180" d="M633.109,872.95l4.657,14.348h15.083l-12.2,8.86,4.656,14.348-12.2-8.87-12.2,8.87,4.657-14.348-12.2-8.86h15.083Z" transform="translate(49.376 70.208)" fill="url(#linear-gradient-2)"/>
        <path id="Path_181" data-name="Path 181" d="M766.74,867.97l4.667,14.348h15.072l-12.2,8.859,4.657,14.348-12.2-8.87-12.2,8.87,4.657-14.348L747,882.318h15.083Z" transform="translate(60.124 69.808)" fill="url(#linear-gradient-2)"/>
        <path id="Path_182" data-name="Path 182" d="M579.689,824.11l4.657,14.348h15.083l-12.2,8.86,4.657,14.348-12.2-8.87-12.2,8.87,4.657-14.348-12.2-8.86h15.083Z" transform="translate(45.08 66.28)" fill="url(#linear-gradient-2)"/>
        <path id="Path_183" data-name="Path 183" d="M620.09,940.69l4.657,14.348H639.83l-12.2,8.859,4.656,14.348-12.2-8.87-12.209,8.87,4.667-14.348-12.209-8.859h15.083Z" transform="translate(48.328 75.656)" fill="url(#linear-gradient-2)"/>
        <path id="Path_184" data-name="Path 184" d="M424.209,801.8l4.657,14.337h15.083l-12.2,8.87,4.657,14.337-12.2-8.86L412,839.345l4.667-14.337-12.2-8.87h15.072Z" transform="translate(32.575 64.486)" fill="url(#linear-gradient-2)"/>
        <path id="Path_186" data-name="Path 186" d="M695.149,866.87l4.667,14.337h15.072l-12.2,8.87,4.667,14.337-12.209-8.87-12.2,8.87,4.657-14.337-12.2-8.87h15.083Z" transform="translate(54.366 69.719)" fill="url(#linear-gradient-2)"/>
        <path id="Path_187" data-name="Path 187" d="M454.639,952.81l4.667,14.348h15.072l-12.2,8.859,4.668,14.348-12.209-8.87-12.2,8.87,4.657-14.348-12.2-8.859h15.083Z" transform="translate(35.023 76.631)" fill="url(#linear-gradient-2)"/>
        <path id="Path_188" data-name="Path 188" d="M383.739,896.35,388.4,910.7h15.083l-12.2,8.859,4.657,14.348-12.2-8.87-12.2,8.87,4.657-14.348L364,910.7h15.083Z" transform="translate(29.321 72.09)" fill="url(#linear-gradient-2)"/>
        <path id="Path_189" data-name="Path 189" d="M534.639,914.56,539.3,928.9h15.083l-12.2,8.87,4.657,14.337-12.2-8.86-12.2,8.86,4.657-14.337-12.2-8.87h15.072Z" transform="translate(41.457 73.555)" fill="url(#linear-gradient-2)"/>
        <path id="Path_190" data-name="Path 190" d="M178.545,80.1l3.511,10.793H193.4l-9.173,6.666,3.5,10.793-9.184-6.666-9.173,6.666,3.5-10.793L163.7,90.893h11.344Z" transform="translate(13.211 6.442)" fill="url(#linear-gradient-2)"/>
        <path id="Path_191" data-name="Path 191" d="M192.3,128.69l3.511,10.793h11.345l-9.173,6.677,3.5,10.793-9.184-6.677-9.173,6.677,3.5-10.793-9.184-6.677H188.8Z" transform="translate(14.316 10.35)" fill="url(#linear-gradient-2)"/>
        <path id="Path_192" data-name="Path 192" d="M153.716,199.76l3.5,10.793h11.344l-9.173,6.677,3.5,10.793-9.173-6.677-9.184,6.677,3.5-10.793-9.173-6.677H150.2Z" transform="translate(11.213 16.066)" fill="url(#linear-gradient-2)"/>
        <path id="Path_193" data-name="Path 193" d="M115.126,144.69l3.5,10.793h11.355l-9.184,6.677,3.5,10.793-9.173-6.677-9.184,6.677,3.511-10.793-9.184-6.677h11.344Z" transform="translate(8.11 11.637)" fill="url(#linear-gradient-2)"/>
        <path id="Path_194" data-name="Path 194" d="M56.639,257.33l4.721,14.521H76.637l-12.36,8.989L69,295.372l-12.36-8.989-12.36,8.989L49,280.84l-12.36-8.989H51.917Z" transform="translate(2.992 20.696)" fill="url(#linear-gradient-2)"/>
        <path id="Path_195" data-name="Path 195" d="M122.249,307.76l4.721,14.521h15.277l-12.36,8.989,4.721,14.532-12.36-8.989-12.36,8.989,4.721-14.532-12.36-8.989h15.277Z" transform="translate(8.269 24.752)" fill="url(#linear-gradient-2)"/>
        <path id="Path_196" data-name="Path 196" d="M140.759,502.18l4.721,14.532h15.277L148.4,525.69l4.721,14.532-12.36-8.978-12.36,8.978,4.722-14.532-12.36-8.978h15.277Z" transform="translate(9.758 40.388)" fill="url(#linear-gradient-2)"/>
        <path id="Path_197" data-name="Path 197" d="M149.349,617.47,154.07,632h15.277l-12.36,8.978,4.721,14.532-12.36-8.979-12.36,8.979,4.721-14.532L129.35,632h15.277Z" transform="translate(10.449 49.661)" fill="url(#linear-gradient-2)"/>
        <path id="Path_198" data-name="Path 198" d="M233.859,668.79l4.721,14.532h15.277l-12.36,8.989,4.721,14.521-12.36-8.979-12.36,8.979,4.721-14.521-12.36-8.989h15.277Z" transform="translate(17.245 53.788)" fill="url(#linear-gradient-2)"/>
        <path id="Path_199" data-name="Path 199" d="M302.259,733.82l4.721,14.532h15.288l-12.36,8.978,4.711,14.532-12.36-8.978-12.36,8.978,4.721-14.532-12.36-8.978h15.277Z" transform="translate(22.746 59.018)" fill="url(#linear-gradient-2)"/>
        <path id="Path_200" data-name="Path 200" d="M252.369,891.66l4.722,14.532h15.277l-12.36,8.978,4.722,14.532-12.36-8.978-12.36,8.978,4.721-14.532-12.36-8.978h15.277Z" transform="translate(18.734 71.713)" fill="url(#linear-gradient-2)"/>
        <path id="Path_201" data-name="Path 201" d="M171.469,740.7l4.722,14.532h15.277l-12.36,8.989,4.721,14.521-12.36-8.978-12.36,8.978,4.721-14.521-12.36-8.989h15.277Z" transform="translate(12.228 59.572)" fill="url(#linear-gradient-2)"/>
        <path id="Path_202" data-name="Path 202" d="M303.809,796.88l4.721,14.532h15.277l-12.36,8.978,4.721,14.532-12.36-8.978-12.36,8.978,4.721-14.532-12.36-8.978h15.277Z" transform="translate(22.871 64.09)" fill="url(#linear-gradient-2)"/>
        <path id="Path_203" data-name="Path 203" d="M486.3,856.68l4.721,14.532H506.3l-12.36,8.978,4.721,14.532-12.36-8.978-12.36,8.978,4.721-14.532-12.36-8.978h15.277Z" transform="translate(37.548 68.9)" fill="url(#linear-gradient-2)"/>
        <path id="Path_204" data-name="Path 204" d="M326.719,866.64l4.721,14.532h15.277l-12.36,8.978,4.721,14.532-12.36-8.989-12.36,8.989,4.721-14.532-12.36-8.978H322Z" transform="translate(24.714 69.701)" fill="url(#linear-gradient-2)"/>
        <path id="Path_205" data-name="Path 205" d="M112.009,216.86l4.721,14.532h15.277l-12.36,8.978,4.721,14.532-12.36-8.978L99.649,254.9l4.721-14.532-12.36-8.978h15.277Z" transform="translate(7.445 17.441)" fill="url(#linear-gradient-2)"/>
        <path id="Path_206" data-name="Path 206" d="M41.149,632.41l4.873,15.018h15.8l-12.781,9.281,4.884,15.007-12.771-9.27-12.771,9.27,4.873-15.007L20.48,647.428H36.265Z" transform="translate(1.693 50.862)" fill="url(#linear-gradient-2)"/>
        <path id="Path_207" data-name="Path 207" d="M136.589,681.84l4.884,15.007h15.785l-12.771,9.281,4.873,15.018-12.771-9.281-12.771,9.281,4.873-15.018-12.771-9.281h15.785Z" transform="translate(9.368 54.838)" fill="url(#linear-gradient-2)"/>
        <path id="Path_208" data-name="Path 208" d="M76.419,559.07l4.873,15.007h15.8l-12.771,9.281,4.873,15.018L76.419,589.1l-12.771,9.281,4.873-15.018L55.75,574.077H71.535Z" transform="translate(4.529 44.964)" fill="url(#linear-gradient-2)"/>
        <path id="Path_209" data-name="Path 209" d="M100.9,740.7l4.462,13.711h14.413l-11.669,8.47,4.462,13.711-11.669-8.47-11.658,8.47L93.7,762.881l-11.658-8.47H96.453Z" transform="translate(6.644 59.572)" fill="url(#linear-gradient-2)"/>
        <path id="Path_210" data-name="Path 210" d="M166.724,828l4.462,13.711H185.6l-11.669,8.47,4.462,13.711-11.669-8.471-11.658,8.471,4.451-13.711-11.658-8.47h14.413Z" transform="translate(11.937 66.593)" fill="url(#linear-gradient-2)"/>
        <path id="Path_211" data-name="Path 211" d="M301.135,913.73l4.451,13.711H320l-11.658,8.47,4.451,13.711-11.658-8.47-11.669,8.47,4.462-13.711-11.669-8.47h14.413Z" transform="translate(22.746 73.488)" fill="url(#linear-gradient-2)"/>
        <path id="Path_212" data-name="Path 212" d="M990.672,562.52l1.048,3.241h3.4l-2.755,2,1.048,3.23-2.744-2-2.755,2,1.048-3.23-2.755-2h3.4Z" transform="translate(79.363 45.241)" fill="url(#linear-gradient-2)"/>
        <path id="Path_213" data-name="Path 213" d="M24.848,502.7l4.646,14.316H44.555l-12.187,8.849,4.657,14.316-12.176-8.849L12.661,540.18l4.657-14.316L5.13,517.016H20.191Z" transform="translate(0.458 40.43)" fill="url(#linear-gradient-2)"/>
        <path id="Path_214" data-name="Path 214" d="M91.335,459.4l3.879,11.95H107.79l-10.178,7.39,3.89,11.96-10.167-7.39L81.168,490.7l3.879-11.96L74.88,471.35H87.445Z" transform="translate(6.068 36.948)" fill="url(#linear-gradient-2)"/>
        <path id="Path_215" data-name="Path 215" d="M26.964,358.73l5.078,15.645H48.5l-13.311,9.681L40.275,399.7l-13.311-9.67L13.642,399.7l5.089-15.645L5.42,374.375H21.875Z" transform="translate(0.481 28.851)" fill="url(#linear-gradient-2)"/>
        <path id="Path_216" data-name="Path 216" d="M280.661,53.942a16.271,16.271,0,1,1,16.271-16.26A16.271,16.271,0,0,1,280.661,53.942Zm0-24.634a8.373,8.373,0,1,0,8.373,8.373,8.373,8.373,0,0,0-8.373-8.373Z" transform="translate(21.309 1.721)" fill="url(#linear-gradient-2)"/>
        <path id="Path_217" data-name="Path 217" d="M887.772,792.464a10.372,10.372,0,1,1,10.372-10.372A10.372,10.372,0,0,1,887.772,792.464Zm0-15.709a5.337,5.337,0,1,0,5.337,5.337A5.337,5.337,0,0,0,887.772,776.755Z" transform="translate(70.611 62.067)" fill="url(#linear-gradient-2)"/>
        <path id="Path_218" data-name="Path 218" d="M779.284,800.336a10.383,10.383,0,1,1,10.372-10.372A10.383,10.383,0,0,1,779.284,800.336Zm0-15.72a5.348,5.348,0,1,0,5.337,5.4,5.4,5.4,0,0,0-5.338-5.4Z" transform="translate(61.884 62.698)" fill="url(#linear-gradient-2)"/>
        <path id="Path_219" data-name="Path 219" d="M841.1,847.694a10.372,10.372,0,1,1,10.372-10.372A10.372,10.372,0,0,1,841.1,847.694Zm0-15.709a5.337,5.337,0,1,0,5.337,5.337,5.337,5.337,0,0,0-5.337-5.337Z" transform="translate(66.858 66.508)" fill="url(#linear-gradient-2)"/>
        <path id="Path_220" data-name="Path 220" d="M642.012,847.694a10.372,10.372,0,1,1,10.372-10.372A10.372,10.372,0,0,1,642.012,847.694Zm0-15.709a5.337,5.337,0,1,0,5.338,5.337,5.4,5.4,0,0,0-5.338-5.337Z" transform="translate(50.846 66.508)" fill="url(#linear-gradient-2)"/>
        <path id="Path_221" data-name="Path 221" d="M722.321,938.134A10.372,10.372,0,1,1,732.7,927.762a10.372,10.372,0,0,1-10.383,10.372Zm0-15.709a5.337,5.337,0,1,0,5.4,5.337A5.4,5.4,0,0,0,722.321,922.425Z" transform="translate(57.306 73.782)" fill="url(#linear-gradient-2)"/>
        <path id="Path_222" data-name="Path 222" d="M518.2,842.754a10.372,10.372,0,1,1,10.372-10.372A10.372,10.372,0,0,1,518.2,842.754Zm0-15.709a5.337,5.337,0,1,0,5.337,5.337,5.337,5.337,0,0,0-5.337-5.337Z" transform="translate(40.888 66.111)" fill="url(#linear-gradient-2)"/>
        <path id="Path_223" data-name="Path 223" d="M964.022,658.394a10.372,10.372,0,1,1,10.372-10.372A10.372,10.372,0,0,1,964.022,658.394Zm0-15.709a5.337,5.337,0,1,0,5.337,5.337A5.337,5.337,0,0,0,964.022,642.685Z" transform="translate(76.744 51.284)" fill="url(#linear-gradient-2)"/>
        <path id="Path_224" data-name="Path 224" d="M70.291,242.831a13.981,13.981,0,1,1,13.981-13.981A13.981,13.981,0,0,1,70.291,242.831Zm0-21.176a7.2,7.2,0,1,0,7.2,7.2A7.2,7.2,0,0,0,70.291,221.655Z" transform="translate(4.574 17.281)" fill="url(#linear-gradient-2)"/>
        <path id="Path_225" data-name="Path 225" d="M19.224,463.891a16.206,16.206,0,1,1,12.868-18.907,16.207,16.207,0,0,1-12.868,18.907Zm-4.592-24.083a8.33,8.33,0,1,0,9.724,6.623,8.33,8.33,0,0,0-9.724-6.623Z" transform="translate(0.042 34.726)" fill="url(#linear-gradient-2)"/>
        <path id="Path_226" data-name="Path 226" d="M66.713,442.911a16.206,16.206,0,1,1,12.879-18.929A16.206,16.206,0,0,1,66.713,442.911Zm-4.624-24.083a8.33,8.33,0,1,0,9.724,6.623,8.33,8.33,0,0,0-9.724-6.623Z" transform="translate(3.862 33.038)" fill="url(#linear-gradient-2)"/>
        <path id="Path_227" data-name="Path 227" d="M121.427,390.823a16.206,16.206,0,1,1,10.409-6.775,16.206,16.206,0,0,1-10.409,6.775Zm-4.581-24.083a10.426,10.426,0,1,0,.032,0Z" transform="translate(8.269 28.847)" fill="url(#linear-gradient-2)"/>
        <path id="Path_228" data-name="Path 228" d="M233.518,844.728a24.18,24.18,0,1,1,19.221-28.264,24.18,24.18,0,0,1-19.221,28.264Zm-6.893-35.978a12.446,12.446,0,1,0,14.586,9.875,12.447,12.447,0,0,0-14.586-9.875Z" transform="translate(16.517 64.083)" fill="url(#linear-gradient-2)"/>
        <path id="Path_229" data-name="Path 229" d="M412.918,978.7a14.791,14.791,0,1,1,11.755-17.287A14.791,14.791,0,0,1,412.918,978.7Zm-4.192-22.008a7.563,7.563,0,1,0,8.9,6.05,7.563,7.563,0,0,0-8.9-6.05Z" transform="translate(31.842 76.355)" fill="url(#linear-gradient-2)"/>
        <path id="Path_230" data-name="Path 230" d="M563.816,985.811a14.78,14.78,0,1,1,11.755-17.287,14.781,14.781,0,0,1-11.755,17.287Zm-4.192-22a7.563,7.563,0,1,0,8.9,6.051A7.563,7.563,0,0,0,559.624,963.814Z" transform="translate(43.98 76.928)" fill="url(#linear-gradient-2)"/>
        <path id="Path_231" data-name="Path 231" d="M461.588,940.183A14.791,14.791,0,1,1,473.343,922.9,14.791,14.791,0,0,1,461.588,940.183Zm-4.192-22a2.972,2.972,0,1,1,0,.043Z" transform="translate(35.756 73.257)" fill="url(#linear-gradient-2)"/>
        <path id="Path_232" data-name="Path 232" d="M75.574,727.318a17.805,17.805,0,1,1,14.154-20.809,17.806,17.806,0,0,1-14.154,20.809Zm-5.046-26.481a11.5,11.5,0,1,0,.043,0Z" transform="translate(4.423 55.656)" fill="url(#linear-gradient-2)"/>
        <path id="Path_233" data-name="Path 233" d="M94.764,665.118a17.805,17.805,0,1,1,14.154-20.82A17.805,17.805,0,0,1,94.764,665.118Zm-5.046-26.46a9.162,9.162,0,1,0,10.718,7.282,9.162,9.162,0,0,0-10.718-7.282Z" transform="translate(5.966 50.654)" fill="url(#linear-gradient-2)"/>
        <path id="Path_234" data-name="Path 234" d="M129.017,482.854a15.007,15.007,0,1,1,15.007-15,15.007,15.007,0,0,1-15.007,15Zm0-22.689a3.2,3.2,0,1,0,0-.032Z" transform="translate(9.215 36.42)" fill="url(#linear-gradient-2)"/>
        <path id="Path_235" data-name="Path 235" d="M193.777,648.534a15.007,15.007,0,1,1,15.007-15.007A15.007,15.007,0,0,1,193.777,648.534Zm0-22.689a3.2,3.2,0,1,0,0-.033Z" transform="translate(14.423 49.745)" fill="url(#linear-gradient-2)"/>
        <path id="Path_236" data-name="Path 236" d="M269.5,736.054a15.007,15.007,0,1,1,15-15A15.007,15.007,0,0,1,269.5,736.054Zm0-22.689a3.2,3.2,0,1,0,0-.032Z" transform="translate(20.512 56.784)" fill="url(#linear-gradient-2)"/>
        <path id="Path_237" data-name="Path 237" d="M221.168,770.464a15.007,15.007,0,1,1,15-15,15.007,15.007,0,0,1-15,15Zm0-22.689a3.2,3.2,0,1,0,0-.043Z" transform="translate(16.625 59.552)" fill="url(#linear-gradient-2)"/>
        <path id="Path_238" data-name="Path 238" d="M383.387,812.454a15.007,15.007,0,1,1,15.007-15.007A15.007,15.007,0,0,1,383.387,812.454Zm0-22.689a3.2,3.2,0,1,0,0-.032Z" transform="translate(29.673 62.929)" fill="url(#linear-gradient-2)"/>
        <path id="Path_239" data-name="Path 239" d="M369.5,860.734A15.007,15.007,0,1,1,384.5,845.727,15.007,15.007,0,0,1,369.5,860.734Zm0-22.689a3.2,3.2,0,1,0,0-.043Z" transform="translate(28.556 66.812)" fill="url(#linear-gradient-2)"/>
        <path id="Path_240" data-name="Path 240" d="M142.413,135.247a8.373,8.373,0,1,1,8.373-8.363A8.373,8.373,0,0,1,142.413,135.247Zm0-12.673a4.311,4.311,0,1,1,0,.022Z" transform="translate(10.826 9.531)" fill="url(#linear-gradient-2)"/>
        <path id="Path_241" data-name="Path 241" d="M164.324,192.017a8.373,8.373,0,1,1,8.362-8.362A8.373,8.373,0,0,1,164.324,192.017Zm0-12.673a1.794,1.794,0,1,0,0-.043Z" transform="translate(12.587 14.096)" fill="url(#linear-gradient-2)"/>
        <circle id="Ellipse_2" data-name="Ellipse 2" cx="9.205" cy="9.205" r="9.205" transform="translate(226.233 107.34)" fill="url(#linear-gradient-2)"/>
        <circle id="Ellipse_3" data-name="Ellipse 3" cx="9.205" cy="9.205" r="9.205" transform="translate(155.724 161.254)" fill="url(#linear-gradient-2)"/>
        <circle id="Ellipse_4" data-name="Ellipse 4" cx="9.205" cy="9.205" r="9.205" transform="translate(88.197 193.612)" fill="url(#linear-gradient-2)"/>
        <circle id="Ellipse_5" data-name="Ellipse 5" cx="9.205" cy="9.205" r="9.205" transform="translate(25.565 339.351)" fill="url(#linear-gradient-2)"/>
        <circle id="Ellipse_6" data-name="Ellipse 6" cx="9.205" cy="9.205" r="9.205" transform="translate(92.411 304.021)" fill="url(#linear-gradient-2)"/>
        <circle id="Ellipse_7" data-name="Ellipse 7" cx="9.205" cy="9.205" r="9.205" transform="translate(140.868 275.206)" fill="url(#linear-gradient-2)"/>
        <circle id="Ellipse_8" data-name="Ellipse 8" cx="9.205" cy="9.205" r="9.205" transform="translate(121.312 440.738)" fill="url(#linear-gradient-2)"/>
        <circle id="Ellipse_9" data-name="Ellipse 9" cx="9.205" cy="9.205" r="9.205" transform="translate(72.855 369.02)" fill="url(#linear-gradient-2)"/>
        <circle id="Ellipse_10" data-name="Ellipse 10" cx="9.205" cy="9.205" r="9.205" transform="translate(169.456 611.327)" fill="url(#linear-gradient-2)"/>
        <circle id="Ellipse_11" data-name="Ellipse 11" cx="9.205" cy="9.205" r="9.205" transform="translate(366.375 826.958)" fill="url(#linear-gradient-2)"/>
        <circle id="Ellipse_12" data-name="Ellipse 12" cx="21.641" cy="21.641" r="21.641" transform="translate(5.793 611.327)" fill="url(#linear-gradient-2)"/>
        <circle id="Ellipse_13" data-name="Ellipse 13" cx="17.741" cy="17.741" r="17.741" transform="translate(128.216 853.018)" fill="url(#linear-gradient-2)"/>
        <circle id="Ellipse_14" data-name="Ellipse 14" cx="17.741" cy="17.741" r="17.741" transform="translate(202.312 926.854)" fill="url(#linear-gradient-2)"/>
        <circle id="Ellipse_15" data-name="Ellipse 15" cx="9.962" cy="9.962" r="9.962" transform="translate(281.14 930.485)" fill="url(#linear-gradient-2)"/>
        <circle id="Ellipse_16" data-name="Ellipse 16" cx="17.741" cy="17.741" r="17.741" transform="translate(357.839 1011.7)" fill="url(#linear-gradient-2)"/>
        <circle id="Ellipse_17" data-name="Ellipse 17" cx="12.501" cy="12.501" r="12.501" transform="translate(531.345 1043.324)" fill="url(#linear-gradient-2)"/>
        <circle id="Ellipse_18" data-name="Ellipse 18" cx="12.501" cy="12.501" r="12.501" transform="translate(710.75 1006.882)" fill="url(#linear-gradient-2)"/>
        <circle id="Ellipse_19" data-name="Ellipse 19" cx="12.501" cy="12.501" r="12.501" transform="translate(807.124 900.038)" fill="url(#linear-gradient-2)"/>
        <circle id="Ellipse_20" data-name="Ellipse 20" cx="12.501" cy="12.501" r="12.501" transform="translate(489.662 875.75)" fill="url(#linear-gradient-2)"/>
        <circle id="Ellipse_21" data-name="Ellipse 21" cx="12.501" cy="12.501" r="12.501" transform="translate(444.284 927.946)" fill="url(#linear-gradient-2)"/>
        <circle id="Ellipse_22" data-name="Ellipse 22" cx="9.205" cy="9.205" r="9.205" transform="translate(323.006)" fill="url(#linear-gradient-2)"/>
        <circle id="Ellipse_23" data-name="Ellipse 23" cx="9.205" cy="9.205" r="9.205" transform="translate(1047.162 645.414)" fill="url(#linear-gradient-2)"/>
        <circle id="Ellipse_24" data-name="Ellipse 24" cx="9.205" cy="9.205" r="9.205" transform="translate(996.749 761.052)" fill="url(#linear-gradient-2)"/>
        <circle id="Ellipse_25" data-name="Ellipse 25" cx="9.205" cy="9.205" r="9.205" transform="translate(982.952 732.94)" fill="url(#linear-gradient-2)"/>
        <circle id="Ellipse_26" data-name="Ellipse 26" cx="9.205" cy="9.205" r="9.205" transform="translate(867.109 924.748)" fill="url(#linear-gradient-2)"/>
        <path id="Path_242" data-name="Path 242" d="M85.635,459.4l2.535,7.81h8.22l-6.652,4.83,2.542,7.817-6.645-4.83-6.645,4.83,2.535-7.817-6.645-4.83h8.213Z" transform="translate(21.284 102.189)" fill="url(#linear-gradient-2)"/>
        <path id="Path_243" data-name="Path 243" d="M83.128,459.4l1.944,5.99h6.3l-5.1,3.7,1.95,6-5.1-3.7-5.1,3.7,1.944-6-5.1-3.7h6.3Z" transform="translate(59.14 153.517)" fill="url(#linear-gradient-2)"/>
        <path id="Path_244" data-name="Path 244" d="M83.128,459.4l1.944,5.99h6.3l-5.1,3.7,1.95,6-5.1-3.7-5.1,3.7,1.944-6-5.1-3.7h6.3Z" transform="translate(44.184 255.484)" fill="url(#linear-gradient-2)"/>
        <path id="Path_245" data-name="Path 245" d="M83.128,459.4l1.944,5.99h6.3l-5.1,3.7,1.95,6-5.1-3.7-5.1,3.7,1.944-6-5.1-3.7h6.3Z" transform="translate(112.162 290.833)" fill="url(#linear-gradient-2)"/>
        <path id="Path_246" data-name="Path 246" d="M83.128,459.4l1.944,5.99h6.3l-5.1,3.7,1.95,6-5.1-3.7-5.1,3.7,1.944-6-5.1-3.7h6.3Z" transform="translate(215.488 361.53)" fill="url(#linear-gradient-2)"/>
        <path id="Path_247" data-name="Path 247" d="M83.128,459.4l1.944,5.99h6.3l-5.1,3.7,1.95,6-5.1-3.7-5.1,3.7,1.944-6-5.1-3.7h6.3Z" transform="translate(241.32 460.777)" fill="url(#linear-gradient-2)"/>
        <path id="Path_248" data-name="Path 248" d="M83.128,459.4l1.944,5.99h6.3l-5.1,3.7,1.95,6-5.1-3.7-5.1,3.7,1.944-6-5.1-3.7h6.3Z" transform="translate(116.241 400.957)" fill="url(#linear-gradient-2)"/>
        <path id="Path_249" data-name="Path 249" d="M79.366,459.4l1.057,3.258h3.429l-2.775,2.015,1.06,3.261-2.772-2.015-2.772,2.015,1.057-3.261-2.772-2.015h3.426Z" transform="translate(183.902 472.513)" fill="url(#linear-gradient-2)"/>
        <path id="Path_250" data-name="Path 250" d="M79.366,459.4l1.057,3.258h3.429l-2.775,2.015,1.06,3.261-2.772-2.015-2.772,2.015,1.057-3.261-2.772-2.015h3.426Z" transform="translate(211.094 419.491)" fill="url(#linear-gradient-2)"/>
        <path id="Path_251" data-name="Path 251" d="M80.926,459.4l1.425,4.391h4.621l-3.74,2.715,1.429,4.395-3.736-2.715L77.19,470.9l1.425-4.395-3.736-2.715H79.5Z" transform="translate(274.792 449.276)" fill="url(#linear-gradient-2)"/>
        <path id="Path_252" data-name="Path 252" d="M79.366,459.4l1.057,3.258h3.429l-2.775,2.015,1.06,3.261-2.772-2.015-2.772,2.015,1.057-3.261-2.772-2.015h3.426Z" transform="translate(402.791 460.277)" fill="url(#linear-gradient-2)"/>
        <path id="Path_253" data-name="Path 253" d="M83.128,459.4l1.944,5.99h6.3l-5.1,3.7,1.95,6-5.1-3.7-5.1,3.7,1.944-6-5.1-3.7h6.3Z" transform="translate(-19.715 82.821)" fill="url(#linear-gradient-2)"/>
        <path id="Path_254" data-name="Path 254" d="M83.128,459.4l1.944,5.99h6.3l-5.1,3.7,1.95,6-5.1-3.7-5.1,3.7,1.944-6-5.1-3.7h6.3Z" transform="translate(496.917 490.688)" fill="url(#linear-gradient-2)"/>
        <path id="Path_255" data-name="Path 255" d="M842.061,849.611a11.33,11.33,0,1,1,11.33-11.331,11.33,11.33,0,0,1-11.33,11.331Zm0-17.161a5.83,5.83,0,1,0,5.83,5.83,5.83,5.83,0,0,0-5.83-5.83Z" transform="translate(-211.45 137.607)" fill="url(#linear-gradient-2)"/>
        <path id="Path_256" data-name="Path 256" d="M83.128,459.4l1.944,5.99h6.3l-5.1,3.7,1.95,6-5.1-3.7-5.1,3.7,1.944-6-5.1-3.7h6.3Z" transform="translate(785.142 421.35)" fill="url(#linear-gradient-2)"/>
        <path id="Path_257" data-name="Path 257" d="M83.128,459.4l1.944,5.99h6.3l-5.1,3.7,1.95,6-5.1-3.7-5.1,3.7,1.944-6-5.1-3.7h6.3Z" transform="translate(801.457 373.766)" fill="url(#linear-gradient-2)"/>
        <path id="Path_258" data-name="Path 258" d="M83.128,459.4l1.944,5.99h6.3l-5.1,3.7,1.95,6-5.1-3.7-5.1,3.7,1.944-6-5.1-3.7h6.3Z" transform="translate(654.625 449.901)" fill="url(#linear-gradient-2)"/>
        <path id="Path_259" data-name="Path 259" d="M642.012,847.694a10.372,10.372,0,1,1,10.372-10.372A10.372,10.372,0,0,1,642.012,847.694Zm0-15.709a5.337,5.337,0,1,0,5.338,5.337,5.4,5.4,0,0,0-5.338-5.337Z" transform="translate(148.734 120.891)" fill="url(#linear-gradient-2)"/>
        <path id="Path_260" data-name="Path 260" d="M80.926,459.4l1.425,4.391h4.621l-3.74,2.715,1.429,4.395-3.736-2.715L77.19,470.9l1.425-4.395-3.736-2.715H79.5Z" transform="translate(126.6 263.017)" fill="url(#linear-gradient-2)"/>
        <path id="Path_261" data-name="Path 261" d="M80.926,459.4l1.425,4.391h4.621l-3.74,2.715,1.429,4.395-3.736-2.715L77.19,470.9l1.425-4.395-3.736-2.715H79.5Z" transform="translate(49.106 201.837)" fill="url(#linear-gradient-2)"/>
        <path id="Path_262" data-name="Path 262" d="M80.926,459.4l1.425,4.391h4.621l-3.74,2.715,1.429,4.395-3.736-2.715L77.19,470.9l1.425-4.395-3.736-2.715H79.5Z" transform="translate(4.24 -38.804)" fill="url(#linear-gradient-2)"/>
        <path id="Path_263" data-name="Path 263" d="M80.926,459.4l1.425,4.391h4.621l-3.74,2.715,1.429,4.395-3.736-2.715L77.19,470.9l1.425-4.395-3.736-2.715H79.5Z" transform="translate(49.106 -148.928)" fill="url(#linear-gradient-2)"/>
        <path id="Path_264" data-name="Path 264" d="M80.926,459.4l1.425,4.391h4.621l-3.74,2.715,1.429,4.395-3.736-2.715L77.19,470.9l1.425-4.395-3.736-2.715H79.5Z" transform="translate(-14.793 -119.018)" fill="url(#linear-gradient-2)"/>
        <path id="Path_265" data-name="Path 265" d="M80.926,459.4l1.425,4.391h4.621l-3.74,2.715,1.429,4.395-3.736-2.715L77.19,470.9l1.425-4.395-3.736-2.715H79.5Z" transform="translate(57.263 -260.412)" fill="url(#linear-gradient-2)"/>
        <path id="Path_266" data-name="Path 266" d="M80.926,459.4l1.425,4.391h4.621l-3.74,2.715,1.429,4.395-3.736-2.715L77.19,470.9l1.425-4.395-3.736-2.715H79.5Z" transform="translate(113.005 -333.828)" fill="url(#linear-gradient-2)"/>
        <path id="Path_267" data-name="Path 267" d="M80.926,459.4l1.425,4.391h4.621l-3.74,2.715,1.429,4.395-3.736-2.715L77.19,470.9l1.425-4.395-3.736-2.715H79.5Z" transform="translate(140.196 -377.334)" fill="url(#linear-gradient-2)"/>
        <path id="Path_268" data-name="Path 268" d="M80.926,459.4l1.425,4.391h4.621l-3.74,2.715,1.429,4.395-3.736-2.715L77.19,470.9l1.425-4.395-3.736-2.715H79.5Z" transform="translate(-52.861 -18.411)" fill="url(#linear-gradient-2)"/>
        <circle id="Ellipse_27" data-name="Ellipse 27" cx="2.407" cy="2.407" r="2.407" transform="translate(59.26 401.649)" fill="url(#linear-gradient-2)"/>
        <circle id="Ellipse_28" data-name="Ellipse 28" cx="3.767" cy="3.767" r="3.767" transform="translate(47.024 507.694)" fill="url(#linear-gradient-2)"/>
        <path id="Path_269" data-name="Path 269" d="M53.963,421.638a5.475,5.475,0,1,1,4.351-6.395A5.475,5.475,0,0,1,53.963,421.638ZM52.4,413.5a2.814,2.814,0,1,0,3.285,2.237A2.814,2.814,0,0,0,52.4,413.5Z" transform="translate(18.674 164.772)" fill="url(#linear-gradient-2)"/>
        <path id="Path_270" data-name="Path 270" d="M53.963,421.638a5.475,5.475,0,1,1,4.351-6.395A5.475,5.475,0,0,1,53.963,421.638ZM52.4,413.5a2.814,2.814,0,1,0,3.285,2.237A2.814,2.814,0,0,0,52.4,413.5Z" transform="translate(-35.708 104.951)" fill="url(#linear-gradient-2)"/>
        <path id="Path_271" data-name="Path 271" d="M53.963,421.638a5.475,5.475,0,1,1,4.351-6.395A5.475,5.475,0,0,1,53.963,421.638ZM52.4,413.5a2.814,2.814,0,1,0,3.285,2.237A2.814,2.814,0,0,0,52.4,413.5Z" transform="translate(-30.27 257.222)" fill="url(#linear-gradient-2)"/>
        <path id="Path_272" data-name="Path 272" d="M53.963,421.638a5.475,5.475,0,1,1,4.351-6.395A5.475,5.475,0,0,1,53.963,421.638ZM52.4,413.5a2.814,2.814,0,1,0,3.285,2.237A2.814,2.814,0,0,0,52.4,413.5Z" transform="translate(73.057 -194.151)" fill="url(#linear-gradient-2)"/>
        <path id="Path_273" data-name="Path 273" d="M53.963,421.638a5.475,5.475,0,1,1,4.351-6.395A5.475,5.475,0,0,1,53.963,421.638ZM52.4,413.5a2.814,2.814,0,1,0,3.285,2.237A2.814,2.814,0,0,0,52.4,413.5Z" transform="translate(88.012 390.458)" fill="url(#linear-gradient-2)"/>
        <path id="Path_274" data-name="Path 274" d="M53.963,421.638a5.475,5.475,0,1,1,4.351-6.395A5.475,5.475,0,0,1,53.963,421.638ZM52.4,413.5a2.814,2.814,0,1,0,3.285,2.237A2.814,2.814,0,0,0,52.4,413.5Z" transform="translate(210.372 417.649)" fill="url(#linear-gradient-2)"/>
        <path id="Path_275" data-name="Path 275" d="M53.963,421.638a5.475,5.475,0,1,1,4.351-6.395A5.475,5.475,0,0,1,53.963,421.638ZM52.4,413.5a2.814,2.814,0,1,0,3.285,2.237A2.814,2.814,0,0,0,52.4,413.5Z" transform="translate(359.923 526.414)" fill="url(#linear-gradient-2)"/>
        <path id="Path_276" data-name="Path 276" d="M53.963,421.638a5.475,5.475,0,1,1,4.351-6.395A5.475,5.475,0,0,1,53.963,421.638ZM52.4,413.5a2.814,2.814,0,1,0,3.285,2.237A2.814,2.814,0,0,0,52.4,413.5Z" transform="translate(319.136 458.436)" fill="url(#linear-gradient-2)"/>
        <path id="Path_277" data-name="Path 277" d="M53.963,421.638a5.475,5.475,0,1,1,4.351-6.395A5.475,5.475,0,0,1,53.963,421.638ZM52.4,413.5a2.814,2.814,0,1,0,3.285,2.237A2.814,2.814,0,0,0,52.4,413.5Z" transform="translate(563.856 526.414)" fill="url(#linear-gradient-2)"/>
        <path id="Path_278" data-name="Path 278" d="M53.963,421.638a5.475,5.475,0,1,1,4.351-6.395A5.475,5.475,0,0,1,53.963,421.638ZM52.4,413.5a2.814,2.814,0,1,0,3.285,2.237A2.814,2.814,0,0,0,52.4,413.5Z" transform="translate(626.396 584.875)" fill="url(#linear-gradient-2)"/>
        <path id="Path_279" data-name="Path 279" d="M83.128,459.4l1.944,5.99h6.3l-5.1,3.7,1.95,6-5.1-3.7-5.1,3.7,1.944-6-5.1-3.7h6.3Z" transform="translate(381.354 517.879)" fill="url(#linear-gradient-2)"/>
        <path id="Path_280" data-name="Path 280" d="M83.128,459.4l1.944,5.99h6.3l-5.1,3.7,1.95,6-5.1-3.7-5.1,3.7,1.944-6-5.1-3.7h6.3Z" transform="translate(326.972 585.857)" fill="url(#linear-gradient-2)"/>
        <path id="Path_281" data-name="Path 281" d="M83.128,459.4l1.944,5.99h6.3l-5.1,3.7,1.95,6-5.1-3.7-5.1,3.7,1.944-6-5.1-3.7h6.3Z" transform="translate(169.264 493.407)" fill="url(#linear-gradient-2)"/>
        <path id="Path_282" data-name="Path 282" d="M83.128,459.4l1.944,5.99h6.3l-5.1,3.7,1.95,6-5.1-3.7-5.1,3.7,1.944-6-5.1-3.7h6.3Z" transform="translate(19.712 303.069)" fill="url(#linear-gradient-2)"/>
        <path id="Path_283" data-name="Path 283" d="M83.128,459.4l1.944,5.99h6.3l-5.1,3.7,1.95,6-5.1-3.7-5.1,3.7,1.944-6-5.1-3.7h6.3Z" transform="translate(-21.074 262.282)" fill="url(#linear-gradient-2)"/>
        <path id="Path_284" data-name="Path 284" d="M53.963,421.638a5.475,5.475,0,1,1,4.351-6.395A5.475,5.475,0,0,1,53.963,421.638ZM52.4,413.5a2.814,2.814,0,1,0,3.285,2.237A2.814,2.814,0,0,0,52.4,413.5Z" transform="translate(482.283 580.796)" fill="url(#linear-gradient-2)"/>
        <path id="Path_285" data-name="Path 285" d="M53.963,421.638a5.475,5.475,0,1,1,4.351-6.395A5.475,5.475,0,0,1,53.963,421.638ZM52.4,413.5a2.814,2.814,0,1,0,3.285,2.237A2.814,2.814,0,0,0,52.4,413.5Z" transform="translate(591.047 635.178)" fill="url(#linear-gradient-2)"/>
        <path id="Path_286" data-name="Path 286" d="M83.128,459.4l1.944,5.99h6.3l-5.1,3.7,1.95,6-5.1-3.7-5.1,3.7,1.944-6-5.1-3.7h6.3Z" transform="translate(537.703 545.07)" fill="url(#linear-gradient-2)"/>
        <path id="Path_287" data-name="Path 287" d="M83.128,459.4l1.944,5.99h6.3l-5.1,3.7,1.95,6-5.1-3.7-5.1,3.7,1.944-6-5.1-3.7h6.3Z" transform="translate(632.872 517.879)" fill="url(#linear-gradient-2)"/>
        <path id="Path_288" data-name="Path 288" d="M83.128,459.4l1.944,5.99h6.3l-5.1,3.7,1.95,6-5.1-3.7-5.1,3.7,1.944-6-5.1-3.7h6.3Z" transform="translate(733.479 410.474)" fill="url(#linear-gradient-2)"/>
        <path id="Path_289" data-name="Path 289" d="M53.963,421.638a5.475,5.475,0,1,1,4.351-6.395A5.475,5.475,0,0,1,53.963,421.638ZM52.4,413.5a2.814,2.814,0,1,0,3.285,2.237A2.814,2.814,0,0,0,52.4,413.5Z" transform="translate(653.587 516.897)" fill="url(#linear-gradient-2)"/>
        <path id="Path_290" data-name="Path 290" d="M53.963,421.638a5.475,5.475,0,1,1,4.351-6.395A5.475,5.475,0,0,1,53.963,421.638ZM52.4,413.5a2.814,2.814,0,1,0,3.285,2.237A2.814,2.814,0,0,0,52.4,413.5Z" transform="translate(800.419 516.897)" fill="url(#linear-gradient-2)"/>
        <path id="Path_291" data-name="Path 291" d="M53.963,421.638a5.475,5.475,0,1,1,4.351-6.395A5.475,5.475,0,0,1,53.963,421.638ZM52.4,413.5a2.814,2.814,0,1,0,3.285,2.237A2.814,2.814,0,0,0,52.4,413.5Z" transform="translate(841.206 462.515)" fill="url(#linear-gradient-2)"/>
        <path id="Path_292" data-name="Path 292" d="M53.963,421.638a5.475,5.475,0,1,1,4.351-6.395A5.475,5.475,0,0,1,53.963,421.638ZM52.4,413.5a2.814,2.814,0,1,0,3.285,2.237A2.814,2.814,0,0,0,52.4,413.5Z" transform="translate(895.588 394.537)" fill="url(#linear-gradient-2)"/>
        <path id="Path_293" data-name="Path 293" d="M53.963,421.638a5.475,5.475,0,1,1,4.351-6.395A5.475,5.475,0,0,1,53.963,421.638ZM52.4,413.5a2.814,2.814,0,1,0,3.285,2.237A2.814,2.814,0,0,0,52.4,413.5Z" transform="translate(1016.589 217.795)" fill="url(#linear-gradient-2)"/>
        <path id="Path_294" data-name="Path 294" d="M83.128,459.4l1.944,5.99h6.3l-5.1,3.7,1.95,6-5.1-3.7-5.1,3.7,1.944-6-5.1-3.7h6.3Z" transform="translate(907.503 312.586)" fill="url(#linear-gradient-2)"/>
        <path id="Path_295" data-name="Path 295" d="M83.128,459.4l1.944,5.99h6.3l-5.1,3.7,1.95,6-5.1-3.7-5.1,3.7,1.944-6-5.1-3.7h6.3Z" transform="translate(974.121 211.979)" fill="url(#linear-gradient-2)"/>
      </g>
    </g>
  </g>
</svg>
