<svg xmlns="http://www.w3.org/2000/svg" width="1471.39" height="85.708" viewBox="0 0 1471.39 85.708"><g transform="translate(-454.772 27.145)"><g transform="translate(466.552 30)" style="isolation:isolate"><g transform="matrix(0.999, -0.035, 0.035, 0.999, 1397.354, -31.515)"><path d="M45.249,20.916a22.486,22.486,0,0,0-2.339-8.385A22.869,22.869,0,0,0,37.776,5.8,22.583,22.583,0,0,0,7.55,5.8a22.963,22.963,0,0,0-5.138,6.726A22.519,22.519,0,0,0,.063,20.916a22.761,22.761,0,0,0,1.1,8.908,22.378,22.378,0,0,0,4.66,7.933,22.624,22.624,0,0,0,7.6,5.474,23.149,23.149,0,0,0,9.244,1.954l2.375-.134c.787-.1,1.57-.237,2.352-.362.774-.165,1.534-.407,2.3-.617.751-.255,1.48-.559,2.218-.845A22.535,22.535,0,0,0,44.153,29.82,22.9,22.9,0,0,0,45.249,20.916ZM40.79,19.27a18.13,18.13,0,1,1-18.13-18.13A18.129,18.129,0,0,1,40.79,19.27Z" transform="matrix(0.891, -0.454, 0.454, 0.891, 0, 20.571)" fill="#fff"/></g><path d="M1643.194,828.6a31.976,31.976,0,0,0-11.331-7.467,33.632,33.632,0,0,0-13.288-2.21,31.778,31.778,0,0,0-12.9,3.157,31.371,31.371,0,0,0-10.17,8.07,38.24,38.24,0,0,0-8.608,23.07,39.265,39.265,0,0,0,1.523,12.491,30.234,30.234,0,0,0,6.236,11.435,27.9,27.9,0,0,0,10.9,7.539,27.2,27.2,0,0,0,13.029,1.543c1.076-.182,2.146-.376,3.2-.577,1.037-.3,2.068-.57,3.079-.882.992-.389,1.983-.752,2.943-1.167.94-.467,1.88-.908,2.794-1.381a43.72,43.72,0,0,0,9.73-7.26,42.492,42.492,0,0,0,7.325-9.7c.48-.914.921-1.854,1.387-2.8.421-.959.778-1.951,1.173-2.949.311-1.011.6-2.042.9-3.085.214-1.05.408-2.12.6-3.2a28.4,28.4,0,0,0-1.342-13.165A32.252,32.252,0,0,0,1643.194,828.6Zm-47.313,39.839a27.322,27.322,0,1,1,49.984-16.471c.02.415.032.83.032,1.251a27.321,27.321,0,0,1-27.322,27.322c-.746,0-1.478-.039-2.2-.1A27.316,27.316,0,0,1,1595.881,868.436Z" transform="translate(-437.843 -876.043)" fill="#fff" opacity="0.99"/><path d="M2226.128,1111.6a10.089,10.089,0,0,0-3.556-2.782,11.082,11.082,0,0,0-4.482-1.005,10.929,10.929,0,0,0-4.516.926,11.508,11.508,0,0,0-3.75,2.637,10.739,10.739,0,0,0-2.97,8.266,12.318,12.318,0,0,0,1.078,4.207,13.1,13.1,0,0,0,5.857,6.175,10.577,10.577,0,0,0,4.3,1.176,9.91,9.91,0,0,0,4.448-.826,9.691,9.691,0,0,0,3.57-2.719,11.6,11.6,0,0,0,2.054-3.847,13.917,13.917,0,0,0,.656-4.171,13.671,13.671,0,0,0-.64-4.178A11.743,11.743,0,0,0,2226.128,1111.6Zm-8.039,16.4a8.363,8.363,0,1,1,8.363-8.363A8.363,8.363,0,0,1,2218.09,1128Z" transform="translate(-1107.833 -1132.37)" fill="#fff"/><g transform="matrix(0.966, -0.259, 0.259, 0.966, 1361.181, -13.134)"><path d="M1.934,4.813a2.527,2.527,0,0,0,.281.041,2.018,2.018,0,0,0,.281.032,2.229,2.229,0,0,0,.28-.034,1.487,1.487,0,0,0,.289-.05c.1-.035.281-.113.381-.16.015-.007.03-.013.044-.022a2.575,2.575,0,0,0,.356-.27A.707.707,0,0,0,3.905,4.3c.051-.053.114-.145.143-.182s.1-.121.141-.184a.625.625,0,0,0,.037-.068A3.282,3.282,0,0,0,4.4,3.441a2.5,2.5,0,0,0,.084-.559.887.887,0,0,0,0-.165A3.473,3.473,0,0,0,4.4,2.153,1.35,1.35,0,0,0,4.35,2a4.992,4.992,0,0,0-.223-.519,1.38,1.38,0,0,0-.091-.15A5.064,5.064,0,0,0,3.694.886,3.229,3.229,0,0,0,3.13.414,2.786,2.786,0,0,0,2.471.1c-.032-.011-.063-.023-.1-.031S2.338.061,2.319.058C2.2.039,2.01.006,1.893,0H1.851L1.823,0,1.411.058c-.013,0-.028.005-.041.009a.181.181,0,0,0-.033.011L.966.235a1.3,1.3,0,0,0-.21.151,2.048,2.048,0,0,0-.2.161A2.014,2.014,0,0,0,.42.719C.4.75.319.84.282.9A1.789,1.789,0,0,0,.17,1.15,1.841,1.841,0,0,0,0,1.883a2.227,2.227,0,0,0,.059.564,1.217,1.217,0,0,0,.089.261c.01.073.022.148.034.22.005.034.011.067.02.1a3.267,3.267,0,0,0,.2.516,1.157,1.157,0,0,0,.09.17,3.848,3.848,0,0,0,.328.426,1.048,1.048,0,0,0,.139.131A2.9,2.9,0,0,0,1.41,4.6a4.345,4.345,0,0,0,.429.183A.57.57,0,0,0,1.934,4.813Z" transform="translate(0 0)" fill="#fff"/><path d="M.592,3.221c.056.05.128.1.18.141s.127.1.193.148a2.46,2.46,0,0,0,.478.212.825.825,0,0,0,.165.043c.156.025.316.051.474.062.024,0,.046,0,.07,0a2.81,2.81,0,0,0,.573-.071.516.516,0,0,0,.081-.024c.122-.043.268-.11.385-.162.015-.007.031-.013.045-.022a1.723,1.723,0,0,0,.21-.155,1.5,1.5,0,0,0,.214-.174c.05-.056.1-.133.141-.181s.1-.12.139-.182a2.207,2.207,0,0,0,.184-.425.473.473,0,0,0,.019-.073l.028-.206c.013-.073.023-.147.029-.221,0-.014,0-.028,0-.042a2.1,2.1,0,0,0-.066-.467c-.022-.07-.068-.165-.088-.212S3.989,1.067,3.955,1A.578.578,0,0,0,3.917.942c-.072-.1-.171-.234-.251-.324a.411.411,0,0,0-.03-.031A1.814,1.814,0,0,0,3.188.255C3.073.2,2.923.138,2.8.093L2.763.079a3.352,3.352,0,0,0-.5-.073.97.97,0,0,0-.2,0C2,.011,1.945.019,1.89.025A1.726,1.726,0,0,0,1.67.009L1.258.064a1.546,1.546,0,0,0-.684.4A.471.471,0,0,0,.527.507,2.2,2.2,0,0,0,.256.861a1.635,1.635,0,0,0-.2.483A2.085,2.085,0,0,0,0,1.866a3.361,3.361,0,0,0,.064.464,1.776,1.776,0,0,0,.1.247,1.79,1.79,0,0,0,.1.238c.005.009.011.018.018.027.069.1.173.233.25.325A.681.681,0,0,0,.592,3.221Z" transform="translate(7.725 0.081)" fill="#fff"/><path d="M3.493,1.438a.373.373,0,0,0-.013-.045,3.532,3.532,0,0,0-.171-.4A.278.278,0,0,0,3.286.954C3.246.9,3.19.829,3.155.783S3.067.663,3.02.609A.363.363,0,0,0,2.986.575C2.876.481,2.76.393,2.643.31A.534.534,0,0,0,2.557.262,2.185,2.185,0,0,0,2,.057,1.176,1.176,0,0,0,1.382.029,1.149,1.149,0,0,0,.805.213a1.172,1.172,0,0,0-.435.4,1.16,1.16,0,0,0-.277.527l-.056.412v0A1.781,1.781,0,0,0,.065,2.4a1.731,1.731,0,0,0,.468.78A2.206,2.206,0,0,0,.9,3.449c-.087-.041.272.131.4.165l.013,0c.07.012.142.022.213.029l.213.029a.154.154,0,0,0,.031,0l.048,0a1.6,1.6,0,0,0,.441-.061,1.871,1.871,0,0,0,.214-.088,1.371,1.371,0,0,0,.218-.1,3.43,3.43,0,0,0,.333-.256.169.169,0,0,0,.028-.027A3.332,3.332,0,0,0,3.3,2.813a.248.248,0,0,0,.021-.036,2.341,2.341,0,0,0,.167-.4l0-.017c.011-.071.021-.143.029-.215s.02-.143.029-.215a.289.289,0,0,0,0-.042c-.005-.073-.023-.175-.029-.223S3.509,1.511,3.493,1.438Z" transform="translate(1.42 7.098)" fill="#fff"/><path d="M3.785,1.379A2.671,2.671,0,0,0,3.6.942c-.006-.01-.012-.021-.02-.031-.04-.059-.1-.125-.132-.172S3.359.619,3.311.565A2.18,2.18,0,0,0,2.945.273a2.228,2.228,0,0,0-.439-.2A2.339,2.339,0,0,0,2.018,0,1.273,1.273,0,0,0,1.723.03a1.961,1.961,0,0,0-.244.035,1.989,1.989,0,0,0-.221.091A1.447,1.447,0,0,0,.694.517.349.349,0,0,0,.661.552L.54.709Q.475.79.413.874L.4.888a2.018,2.018,0,0,0-.133.278c-.005.007-.01.013-.014.021a1.534,1.534,0,0,0-.1.234A1.418,1.418,0,0,0,0,2.09a1.707,1.707,0,0,0,.224.865A.319.319,0,0,0,.249,3a2.1,2.1,0,0,0,.268.341,1.67,1.67,0,0,0,.39.291,2.5,2.5,0,0,0,.447.182l.043.008c.131.02.29.043.422.057l.03,0a.631.631,0,0,0,.089,0,2.878,2.878,0,0,0,.5-.075,3.074,3.074,0,0,0,.438-.185c.013-.006.026-.014.038-.022l.017-.011c.11-.078.225-.17.33-.254a.491.491,0,0,0,.063-.06c.092-.111.181-.223.263-.341a.287.287,0,0,0,.027-.045,2,2,0,0,0,.25-.924.546.546,0,0,0,0-.083A2.964,2.964,0,0,0,3.785,1.379Z" transform="translate(8.197 6.748)" fill="#fff"/></g><g transform="translate(1329.138 -3.625) rotate(93)"><path d="M0,3.31l.111.82s0,.01,0,.014,0,.021.006.029A3.39,3.39,0,0,0,.3,4.6a3,3,0,0,0,.181.417c0,.008.01.014.014.023s0,0,0,.006l.483.624a.132.132,0,0,0,.014.016.405.405,0,0,0,.043.041l.312.24c.1.082.212.164.319.245l.012.008a.206.206,0,0,0,.029.016l.014.006c.057.027.678.288.739.312a.177.177,0,0,0,.029.01l.029.008c.279.056.565.086.849.115a.312.312,0,0,0,.062,0A5.891,5.891,0,0,0,4.3,6.568a.283.283,0,0,0,.057-.021,5.5,5.5,0,0,0,.791-.339,4.973,4.973,0,0,0,.672-.52l.025-.025.01-.012.006-.008.483-.624a.242.242,0,0,0,.035-.058A8.027,8.027,0,0,0,6.7,4.2a.266.266,0,0,0,.01-.037,2.337,2.337,0,0,0,.056-1.228A2.282,2.282,0,0,0,6.4,1.786,2.329,2.329,0,0,0,5.609.921a2.319,2.319,0,0,0-1-.538L3.955.109a3.124,3.124,0,0,0-1.639,0L1.58.42A3.1,3.1,0,0,0,.475,1.525a.378.378,0,0,0-.027.047c-.068.15-.263.59-.322.762a.154.154,0,0,0-.008.033c-.031.14-.051.368-.06.435-.012.086-.047.292-.057.435A.328.328,0,0,0,0,3.3S0,3.308,0,3.31Z" transform="translate(0.319 1.464)" fill="#fff"/><path d="M8.734,1.517A5.129,5.129,0,0,0,7.524.638,7.789,7.789,0,0,0,6.476.2,6.112,6.112,0,0,0,5.332.017a4,4,0,0,0-1.5.152c-.152.043-.294.094-.429.148a3.252,3.252,0,0,0-.7.148A4.006,4.006,0,0,0,.488,2.205,3.6,3.6,0,0,0,.1,4.863c-.006.082-.008.166-.006.249a4.38,4.38,0,0,0,2.157,3.63,4.227,4.227,0,0,0,.627.29,4.233,4.233,0,0,0,.647.247A4.619,4.619,0,0,0,5.1,9.415,5.436,5.436,0,0,0,6.56,9.122a6.394,6.394,0,0,0,1.417-.7A5.432,5.432,0,0,0,9.51,6.9a4.127,4.127,0,0,0,.637-2.093A4.407,4.407,0,0,0,8.734,1.517Z" transform="translate(0 14.641)" fill="#fff"/><path d="M.97,6a.235.235,0,0,0,.025.023c.1.084.368.284.319.247.062.047.214.175.324.251.012.008.027.014.039.023.115.051.581.261.77.325a.169.169,0,0,0,.031.008l.029.006c.078.014.741.1.824.111l.016,0a.378.378,0,0,0,.068,0c.144-.01.327-.043.436-.057.082-.01.294-.031.435-.06a.34.34,0,0,0,.066-.018c.131-.047.288-.121.392-.164.074-.031.267-.1.392-.166.021-.01.039-.023.06-.035.107-.076.314-.242.318-.246.021-.017.22-.164.323-.249a.206.206,0,0,0,.023-.021.181.181,0,0,0,.02-.021c.175-.193.571-.739.5-.647a.442.442,0,0,0,.033-.051l.014-.027.006-.016c.053-.123.1-.249.156-.372s.107-.251.158-.376a.31.31,0,0,0,.018-.058l.006-.031a.051.051,0,0,0,0-.016q.031-.206.055-.413t.055-.419a.57.57,0,0,0,0-.062,7.7,7.7,0,0,0-.115-.879.572.572,0,0,0-.012-.06.157.157,0,0,0-.01-.029l-.006-.016c-.051-.125-.1-.249-.156-.372s-.1-.251-.158-.376c-.008-.018-.018-.035-.029-.053-.076-.115-.2-.259-.257-.333-.043-.055-.168-.234-.261-.335A.438.438,0,0,0,5.84.975C5.779.926,5.275.536,5.214.49L5.2.482C5.193.476,5.185.472,5.175.466L5.15.453l-.006,0L4.408.141,4.394.135A.566.566,0,0,0,4.339.119,7.311,7.311,0,0,0,3.47,0a.277.277,0,0,0-.057,0A.045.045,0,0,0,3.4,0c-.1.01-.717.094-.824.111l-.031,0a.285.285,0,0,0-.055.017L2.471.141c-.086.033-.653.273-.74.312L1.705.466A.235.235,0,0,0,1.658.5,4.621,4.621,0,0,0,1,1.01a.078.078,0,0,0-.016.021C.939,1.082.538,1.6.5,1.657a.073.073,0,0,0-.01.016c0,.008-.01.014-.014.023-.123.228-.446,1.076-.321.758a.271.271,0,0,0-.016.058c-.01.045-.023.129-.033.212a2.221,2.221,0,0,0-.058.431c0,.021,0,.041-.006.06-.006.053-.012.1-.014.136,0,.008,0,.018,0,.027C.017,3.453.008,3.529,0,3.6a.38.38,0,0,0,0,.049c0,.01,0,.018,0,.029.008.068.1.758.111.822,0,.006,0,.012,0,.017a.427.427,0,0,0,.014.047s0,0,0,.006l.31.735.006.012a.153.153,0,0,0,.014.025s.006.008.008.012c.027.037.456.592.485.627A.109.109,0,0,1,.97,6ZM4.271.188l-.006,0C4.333.2,4.322.2,4.271.188Z" transform="translate(16.608 0)" fill="#fff"/><path d="M7.455,2.849c0-.025-.008-.047-.014-.072A5.085,5.085,0,0,0,7.1,1.949a1.013,1.013,0,0,0-.072-.119c-.1-.142-.378-.5-.487-.631-.008-.008-.014-.019-.023-.027a.41.41,0,0,0-.041-.045c-.014-.014-.031-.027-.045-.041C6.325,1,6.161.879,6.1.83,6.007.76,5.873.649,5.756.569A.891.891,0,0,0,5.649.508.151.151,0,0,0,5.616.493C5.39.39,5.095.267,4.864.175L4.8.15A.806.806,0,0,0,4.675.121C4.423.078,4.094.039,3.839.008A.231.231,0,0,0,3.8,0c-.025,0-.047,0-.072,0-.041,0-.084,0-.125.006a6.686,6.686,0,0,0-.941.136C2.644.148,2.621.156,2.6.164c-.226.086-.532.218-.754.318A.47.47,0,0,0,1.8.5c-.023.012-.045.025-.068.039a6.206,6.206,0,0,0-.678.522A.718.718,0,0,0,1,1.118a.357.357,0,0,1-.025.029l-.483.625-.016.023a3.234,3.234,0,0,0-.187.425,2.759,2.759,0,0,0-.177.44C.1,2.722.006,3.424,0,3.486a.291.291,0,0,0,0,.043c0,.012,0,.023,0,.035l.111.82c0,.006,0,.012,0,.016a2.915,2.915,0,0,0,.177.433,3.321,3.321,0,0,0,.185.421c.012.021.027.041.039.062.043.1.084.2.125.283a2.671,2.671,0,0,0,.31.427,2.805,2.805,0,0,0,.339.415l.023.018c.183.15.446.355.639.493.018.012.037.027.055.037s.039.023.058.033L2.1,7.04l.735.31a.144.144,0,0,0,.027.01.556.556,0,0,0,.127.033c.285.051.575.092.865.115a.585.585,0,0,0,.084,0l.029,0,.018,0,.82-.111c.021,0,.043-.008.064-.014a.552.552,0,0,0,.053-.018l.014-.006.736-.31c.012-.006.025-.01.035-.016A.353.353,0,0,0,5.754,7l.027-.019c.175-.125.472-.355.637-.491A.638.638,0,0,0,6.5,6.407c.088-.1.222-.288.257-.331.045-.06.173-.216.251-.325A.464.464,0,0,0,7.044,5.7a.524.524,0,0,0,.027-.049l.01-.023c.1-.214.234-.538.321-.758a.77.77,0,0,0,.037-.115.525.525,0,0,0,.01-.055c.033-.185.088-.641.111-.828a.288.288,0,0,0,0-.041.6.6,0,0,0,0-.121.214.214,0,0,0,0-.033C7.547,3.5,7.484,3.02,7.455,2.849Z" transform="translate(17.261 13.974)" fill="#fff"/></g><g transform="matrix(0.995, 0.105, -0.105, 0.995, 1247.083, -13.831)"><path d="M4.082.913C4.005.844,3.925.78,3.844.717c0,0,0,0,0,0A.316.316,0,0,0,3.8.677L3.584.51,3.362.339,3.354.333,3.334.32,3.312.309h0L2.8.091,2.781.086,2.755.079H2.744L2.174,0,1.6.077A2.137,2.137,0,0,0,.657.63h0C.54.774.427.921.317,1.069L.3,1.091.088,1.6s0,0,0,0a.049.049,0,0,1,0,.011s0,.009,0,.013c-.01.053-.073.523-.077.574a2.085,2.085,0,0,0,.08.616,2.111,2.111,0,0,0,.233.556.071.071,0,0,0,.006.009l.006.009c.031.041.063.083.1.123a1.584,1.584,0,0,0,.415.616l.434.336a2.131,2.131,0,0,0,1.081.293l.57-.077a2.155,2.155,0,0,0,.624-.293l.075-.033.007,0c.047-.031.174-.13.228-.174s.169-.127.21-.164a.021.021,0,0,0,.005-.006,5.562,5.562,0,0,0,.34-.44l0-.007a5.248,5.248,0,0,0,.219-.519.02.02,0,0,0,0-.009.016.016,0,0,0,0-.009,4.371,4.371,0,0,0,.077-.577V2.443q-.039-.285-.077-.57h0a0,0,0,0,0,0,0,2.358,2.358,0,0,0-.218-.519A3.617,3.617,0,0,0,4.084.91S4.084.914,4.082.913Z" transform="translate(12.254 8.978)" fill="#fff"/><path d="M1.34,5.173a3.819,3.819,0,0,0,1.4.457l.055.017c.017,0,.034.009.051.011l.57.077a2.5,2.5,0,0,0,1.387-.351,2.611,2.611,0,0,0,.966-.99,3.427,3.427,0,0,0,.289-.761l.021-.071A2.443,2.443,0,0,0,5.821,1.7,2.668,2.668,0,0,0,5.146.946,3.634,3.634,0,0,0,4.528.425,2.287,2.287,0,0,0,3.769.091,2.839,2.839,0,0,0,2.385.081a2,2,0,0,0-.728.31,4.093,4.093,0,0,0-.47.373,2.384,2.384,0,0,0-.464.382,2.311,2.311,0,0,0-.4.539,4.618,4.618,0,0,0-.233.56,2.106,2.106,0,0,0-.044.311c-.014.1-.029.207-.042.311A2.658,2.658,0,0,0,1.34,5.173Zm.895.241s0,0,0,0S2.234,5.413,2.235,5.415Z" transform="translate(0 8.611)" fill="#fff"/><path d="M2.144,4.286A2.211,2.211,0,0,0,3.66,3.658a2.179,2.179,0,0,0,.627-1.516A2.169,2.169,0,0,0,3.66.627,2.231,2.231,0,0,0,2.144,0,2.21,2.21,0,0,0,.629.627,2.178,2.178,0,0,0,0,2.143,2.169,2.169,0,0,0,.629,3.658,2.226,2.226,0,0,0,2.144,4.286Z" transform="translate(1.649 0.392)" fill="#fff"/><path d="M.629,3.881a.942.942,0,0,0,.079.089c.069.089.142.177.2.247l.035.043.026.026c.009.009.019.016.029.024l.434.336a.769.769,0,0,0,.093.06,4.528,4.528,0,0,0,.6.253c.03.01.06.019.09.026l.056.01c.2.033.41.063.611.081a1.282,1.282,0,0,0,.256-.007c.274-.03.552-.067.824-.119a1.618,1.618,0,0,0,.729-.383,1.619,1.619,0,0,0,.551-.6,1.59,1.59,0,0,0,.254-.8,1.612,1.612,0,0,0-.039-.854c-.014-.036-.03-.07-.044-.106a2.181,2.181,0,0,0-.07-.414l-.216-.511A2.149,2.149,0,0,0,4.353.514,1.247,1.247,0,0,0,4.217.442C4.029.358,3.837.271,3.643.2,3.619.194,3.594.186,3.57.179S3.517.166,3.49.161C3.423.136,3.353.112,3.273.089L3.239.081H3.224L2.654,0a3.115,3.115,0,0,0-.64.076,1.747,1.747,0,0,0-.628.26L1.314.394,1.206.442a1.042,1.042,0,0,0-.143.076,2.155,2.155,0,0,0-.769.769,1.584,1.584,0,0,0-.254.8,1.606,1.606,0,0,0,.038.854A2.138,2.138,0,0,0,.629,3.881Z" transform="translate(11.013 0)" fill="#fff"/></g><g transform="translate(1033.764 7.12) rotate(-45)"><path d="M8.038,8.117a5.247,5.247,0,0,0,.46-.342,4.285,4.285,0,0,0,.448-.356A5.359,5.359,0,0,0,9.3,6.971a3.024,3.024,0,0,0,.342-.481c.1-.2.24-.562.315-.773.01-.031.023-.061.033-.094a5.143,5.143,0,0,0,.123-.892,1.377,1.377,0,0,0,.008-.158,4.35,4.35,0,0,0-.056-.463c-.015-.11-.029-.317-.063-.463-.012-.052-.027-.1-.044-.15a6.75,6.75,0,0,0-.352-.854,5.113,5.113,0,0,0-.677-.917,1.949,1.949,0,0,0-.24-.233A7.258,7.258,0,0,0,7.765.808a2.565,2.565,0,0,0-.292-.15A10.243,10.243,0,0,0,6.415.237,3.149,3.149,0,0,0,6.072.152,10.115,10.115,0,0,0,4.953.008,6.461,6.461,0,0,0,3.48.139a5.637,5.637,0,0,0-1.392.49,1.856,1.856,0,0,0-.181.094c-.033.021-.063.044-.094.067a8.583,8.583,0,0,0-.688.527.824.824,0,0,0-.06.058c-.013.015-.025.029-.035.044-.169.223-.34.444-.508.667C.5,2.11.49,2.131.475,2.156a.365.365,0,0,0-.031.065c-.1.25-.2.5-.3.75a2.6,2.6,0,0,0-.083.515A3.458,3.458,0,0,0,0,4a4.3,4.3,0,0,0,.054.438c.01.079.027.319.06.456a3.412,3.412,0,0,0,.2.515A3.7,3.7,0,0,0,1.117,6.7a4.483,4.483,0,0,0,.89.721,2.534,2.534,0,0,0,.5.246c.121.09.242.179.362.267.056.04.113.079.171.115a6.592,6.592,0,0,0,1.027.444,2.084,2.084,0,0,0,.369.113,8.087,8.087,0,0,0,1.073.142,2.161,2.161,0,0,0,.385-.01,5.607,5.607,0,0,0,1.1-.169,8.572,8.572,0,0,0,.873-.35C7.915,8.184,7.978,8.154,8.038,8.117Z" transform="translate(0 11.222)" fill="#fff"/><path d="M3.968,8.088c.15-.008.327-.04.456-.056.146-.019.329-.033.487-.065A5.018,5.018,0,0,0,5.9,7.588a1.745,1.745,0,0,0,.3-.173c.258-.187.523-.379.765-.588.035-.031.071-.062.1-.1a5.736,5.736,0,0,0,.715-.917,1.127,1.127,0,0,0,.081-.148c.113-.235.225-.537.319-.781a.741.741,0,0,0,.033-.1,3.355,3.355,0,0,0,.077-.521,3.139,3.139,0,0,0,.056-.552c-.008-.15-.042-.338-.056-.458s-.029-.313-.063-.456a4.262,4.262,0,0,0-.344-.867A.754.754,0,0,0,7.8,1.8c-.085-.11-.169-.223-.254-.333s-.177-.242-.275-.356a.853.853,0,0,0-.063-.058A4.242,4.242,0,0,0,6.45.485,4.623,4.623,0,0,0,6.023.308c-.1-.042-.288-.127-.429-.173a.788.788,0,0,0-.14-.029C5.21.069,4.877.017,4.633,0,4.6,0,4.574,0,4.545,0A3.584,3.584,0,0,0,3.437.167C3.2.254,2.891.377,2.66.483c-.027.012-.052.025-.079.04a6.694,6.694,0,0,0-.823.613,2.01,2.01,0,0,0-.292.29c-.071.085-.14.175-.208.265a3.389,3.389,0,0,0-.338.292c-.169.223-.34.444-.508.667A3.13,3.13,0,0,0,.005,4.192a.651.651,0,0,0,0,.127,4.454,4.454,0,0,0,.119.892,3.274,3.274,0,0,0,.41.967A4.242,4.242,0,0,0,1.191,7a6.418,6.418,0,0,0,.752.569,3.465,3.465,0,0,0,.494.213,3.776,3.776,0,0,0,.487.19l.065.012c.237.042.577.085.819.1C3.864,8.088,3.916,8.09,3.968,8.088Z" transform="translate(11.017 0)" fill="#fff"/><path d="M5.677.508C5.65.491,5.623.477,5.594.462A6.745,6.745,0,0,0,4.777.133.572.572,0,0,0,4.691.112C4.552.087,4.377.07,4.26.056S3.964.01,3.821,0a.748.748,0,0,0-.1,0c-.292.021-.581.063-.867.11a1.031,1.031,0,0,0-.19.054,4.422,4.422,0,0,0-1.086.5,2.377,2.377,0,0,0-.921.842A2.323,2.323,0,0,0,.1,2.591a2.355,2.355,0,0,0-.05,1.19A2.37,2.37,0,0,0,.41,4.929c.169.223.34.444.508.667L.924,5.6a3.588,3.588,0,0,0,1.24,1.163,3.507,3.507,0,0,0,1.779.446,4.589,4.589,0,0,0,.906-.129c-.181.065.575-.2.8-.329l.025-.015q.178-.125.344-.262l.344-.262c.017-.015.031-.029.046-.044L6.475,6.1a3.233,3.233,0,0,0,.542-.715A3.567,3.567,0,0,0,7.2,4.952,2.915,2.915,0,0,0,7.371,4.5a6.7,6.7,0,0,0,.108-.837.491.491,0,0,0,0-.077,6.685,6.685,0,0,0-.106-.84.516.516,0,0,0-.023-.081,4.75,4.75,0,0,0-.335-.813L7,1.827c-.085-.117-.173-.233-.265-.348s-.175-.233-.265-.346a.572.572,0,0,0-.06-.063C6.3.975,6.127.854,6.048.8,5.956.72,5.8.591,5.677.508Z" transform="translate(11.916 19.892)" fill="#fff"/><path d="M5.637.491A5.269,5.269,0,0,0,4.749.132C4.726.126,4.7.12,4.678.116,4.536.088,4.364.074,4.245.059S3.949.013,3.8,0a4.61,4.61,0,0,0-.94.106,4.38,4.38,0,0,0-.9.348,4.687,4.687,0,0,0-.8.588,2.417,2.417,0,0,0-.379.46,3.962,3.962,0,0,0-.3.4,3.989,3.989,0,0,0-.188.446A2.917,2.917,0,0,0,0,3.666a.739.739,0,0,0,0,.1c.017.131.033.265.05.4s.031.277.054.417a.2.2,0,0,0,.008.033A4.116,4.116,0,0,0,.322,5.2c0,.017,0,.033.008.05a3.183,3.183,0,0,0,.185.481A2.864,2.864,0,0,0,1.255,6.9a3.478,3.478,0,0,0,1.552.915.717.717,0,0,0,.092.025,4.285,4.285,0,0,0,.867.1A3.292,3.292,0,0,0,4.737,7.8a5.142,5.142,0,0,0,.9-.379c.025-.017.05-.033.073-.05.215-.158.477-.352.681-.521.015-.013.031-.025.046-.04a1.208,1.208,0,0,0,.121-.131,5.7,5.7,0,0,0,.6-.819,5.964,5.964,0,0,0,.36-.888c.008-.027.017-.056.023-.085,0-.013.006-.025.008-.038.046-.267.079-.56.108-.831a.981.981,0,0,0,0-.175c-.025-.288-.06-.577-.11-.861a.921.921,0,0,0-.025-.1,4.018,4.018,0,0,0-.96-1.673,1.24,1.24,0,0,0-.121-.115A5.412,5.412,0,0,0,5.637.491Z" transform="translate(21.451 9.25)" fill="#fff"/></g><g transform="matrix(0.375, 0.927, -0.927, 0.375, 1008.768, -23.998)"><path d="M2.021,4.219c.095-.005.19-.016.283-.029h0a.321.321,0,0,0,.05,0l.251-.032.256-.033h.009l.021-.005.021-.007h0l.474-.192.013-.007L3.429,3.9l.008-.005.422-.322L4.18,3.15a1.977,1.977,0,0,0,.257-.979v0C4.419,2,4.4,1.831,4.372,1.662a.109.109,0,0,0-.007-.022c-.065-.158-.129-.316-.192-.475,0,0,0,0,0,0s0-.007-.005-.011L4.16,1.141C4.132,1.1,3.868.753,3.836.716A1.918,1.918,0,0,0,3.382.366,1.935,1.935,0,0,0,2.867.155l-.009,0H2.849L2.706.133A1.479,1.479,0,0,0,2.034,0l-.5.065a1.964,1.964,0,0,0-.9.515C.53.722.422.862.315,1A1.992,1.992,0,0,0,.1,1.6c-.009.024-.02.047-.029.071,0,0,0,.005,0,.007-.011.051-.028.2-.036.264S0,2.135,0,2.187v.008A5.119,5.119,0,0,0,.065,2.7a.018.018,0,0,0,0,.008,5.079,5.079,0,0,0,.195.481l0,.008,0,.007A4.088,4.088,0,0,0,.6,3.634s0,0,.005.005l.422.322a0,0,0,0,1,0,0h0a2.079,2.079,0,0,0,.481.2,3.26,3.26,0,0,0,.5.065C2.018,4.219,2.02,4.219,2.021,4.219Z" transform="translate(0 8.186)" fill="#fff"/><path d="M2.477.081A3.517,3.517,0,0,0,1.264.7L1.217.72a.422.422,0,0,0-.041.026l-.422.322A2.316,2.316,0,0,0,.078,2.2,2.422,2.422,0,0,0,.093,3.477,3.108,3.108,0,0,0,.4,4.163c.011.02.021.041.033.061A2.251,2.251,0,0,0,1.82,5.269a2.479,2.479,0,0,0,.931.051,3.412,3.412,0,0,0,.743-.063,2.1,2.1,0,0,0,.713-.277,2.62,2.62,0,0,0,.91-.9,1.833,1.833,0,0,0,.273-.678,3.614,3.614,0,0,0,.063-.55,2.227,2.227,0,0,0,.054-.551,2.159,2.159,0,0,0-.088-.613,4.371,4.371,0,0,0-.214-.517A2.01,2.01,0,0,0,5.031.944C4.973.866,4.914.79,4.855.713A2.445,2.445,0,0,0,2.477.081ZM1.736.508h0Z" transform="translate(6.787 0)" fill="#fff"/><path d="M.579.58A2.039,2.039,0,0,0,0,1.979a2.011,2.011,0,0,0,.579,1.4,2,2,0,0,0,1.4.579,2.059,2.059,0,0,0,1.4-.579,2.04,2.04,0,0,0,.579-1.4A2.012,2.012,0,0,0,3.376.58,2,2,0,0,0,1.977,0,2.059,2.059,0,0,0,.579.58Z" transform="translate(13.026 7.043)" fill="#fff"/><path d="M3.128.042A1.008,1.008,0,0,0,3.018.036C2.915.022,2.81.013,2.728,0c-.017,0-.033,0-.05,0H2.644L2.61,0l-.5.065a.848.848,0,0,0-.1.021,4.217,4.217,0,0,0-.555.225.522.522,0,0,0-.075.042L1.335.385C1.183.494,1.027.612.883.73A1.251,1.251,0,0,0,.719.9c-.159.2-.316.4-.46.616a1.5,1.5,0,0,0-.225.726A1.49,1.49,0,0,0,.066,3a1.475,1.475,0,0,0,.353.685A1.5,1.5,0,0,0,1,4.214l.1.04a2.042,2.042,0,0,0,.316.224l.474.192a1.99,1.99,0,0,0,1,0,.946.946,0,0,0,.134-.042c.178-.067.36-.136.531-.218.021-.011.042-.021.062-.033s.042-.026.063-.04c.059-.028.121-.058.188-.095L3.9,4.226l.01-.008L4.332,3.9A2.828,2.828,0,0,0,4.7,3.429a1.591,1.591,0,0,0,.24-.58c0-.028.007-.055.011-.083s.026-.069.039-.1a.96.96,0,0,0,.044-.144,1.99,1.99,0,0,0,0-1A1.475,1.475,0,0,0,4.68.832,1.494,1.494,0,0,0,4.1.3,1.939,1.939,0,0,0,3.128.042Z" transform="translate(5.878 13.221)" fill="#fff"/></g><g transform="translate(919.831 -13.203) rotate(-18)"><path d="M1.018,6.149c.123.11.251.212.381.313l0,0a.514.514,0,0,0,.064.059l.347.267c.116.091.235.183.354.274l.014.009.032.021.034.018.007,0,.817.345c.009,0,.016.007.025.009a.3.3,0,0,0,.041.011.051.051,0,0,0,.018,0l.911.123.911-.123A3.413,3.413,0,0,0,6.491,6.6l0,0c.185-.228.365-.463.541-.7a.411.411,0,0,0,.02-.036c.114-.272.231-.546.345-.817,0,0,0,0,0-.007a.172.172,0,0,1,.007-.018c0-.007,0-.014,0-.021.016-.084.116-.835.123-.918A3.345,3.345,0,0,0,7.409,3.1a3.3,3.3,0,0,0-.374-.888S7.028,2.2,7.026,2.2s-.007-.009-.009-.014c-.05-.066-.1-.132-.153-.2A2.528,2.528,0,0,0,6.2,1L5.508.468A3.4,3.4,0,0,0,3.78,0L2.869.123a3.441,3.441,0,0,0-1,.468c-.041.018-.082.034-.121.052L1.739.65c-.075.05-.278.208-.365.278s-.269.2-.336.263c0,0-.007.007-.009.009-.192.226-.374.459-.543.7a.055.055,0,0,1-.007.011,8.567,8.567,0,0,0-.349.828s0,.009,0,.014,0,.009,0,.014A6.936,6.936,0,0,0,0,3.693V3.7q.062.455.123.911v0a.009.009,0,0,0,0,.007,3.787,3.787,0,0,0,.349.829,5.846,5.846,0,0,0,.539.7C1.016,6.147,1.016,6.149,1.018,6.149Z" transform="translate(0 0.981)" fill="#fff"/><path d="M7.7.911A6.1,6.1,0,0,0,5.462.18C5.43.169,5.4.16,5.375.153S5.321.139,5.293.135L4.382.011A3.993,3.993,0,0,0,2.166.573,4.175,4.175,0,0,0,.623,2.155,5.435,5.435,0,0,0,.162,3.371c-.011.039-.023.075-.034.114A3.9,3.9,0,0,0,.543,6.462a4.27,4.27,0,0,0,1.077,1.2,5.808,5.808,0,0,0,.988.833,3.652,3.652,0,0,0,1.212.534,4.534,4.534,0,0,0,2.212.016,3.19,3.19,0,0,0,1.164-.5,6.709,6.709,0,0,0,.751-.6,3.836,3.836,0,0,0,.742-.609,3.71,3.71,0,0,0,.641-.86A7.3,7.3,0,0,0,9.7,5.592a3.293,3.293,0,0,0,.071-.5c.023-.167.046-.331.066-.5A4.236,4.236,0,0,0,7.7.911ZM6.272.525c.007,0,.007,0,.007,0S6.275.525,6.272.525Z" transform="translate(17.276 0)" fill="#fff"/><path d="M3.426,0A3.532,3.532,0,0,0,1,1,3.477,3.477,0,0,0,0,3.424,3.464,3.464,0,0,0,1,5.846a3.559,3.559,0,0,0,2.422,1,3.532,3.532,0,0,0,2.422-1,3.476,3.476,0,0,0,1-2.422A3.464,3.464,0,0,0,5.848,1,3.568,3.568,0,0,0,3.426,0Z" transform="translate(17.632 15.459)" fill="#fff"/><path d="M7.834,1.914a1.427,1.427,0,0,0-.126-.142c-.109-.141-.226-.283-.317-.395-.018-.023-.037-.046-.057-.069l-.041-.041c-.014-.014-.03-.025-.046-.039L6.553.693A1.265,1.265,0,0,0,6.4.6a7.28,7.28,0,0,0-.954-.4Q5.379.169,5.307.152C5.278.145,5.248.14,5.218.136c-.32-.053-.655-.1-.977-.13a2.032,2.032,0,0,0-.409.011c-.438.048-.881.107-1.317.189A2.584,2.584,0,0,0,1.352.818a2.591,2.591,0,0,0-.881.961A2.536,2.536,0,0,0,.064,3.053,2.571,2.571,0,0,0,.126,4.418c.023.057.048.112.071.169a3.514,3.514,0,0,0,.112.662c.114.272.231.546.345.817A3.441,3.441,0,0,0,1.881,7.294a2.024,2.024,0,0,0,.217.114c.3.135.607.274.918.383.039.014.078.025.116.037s.084.021.125.03c.107.039.219.078.347.114a.491.491,0,0,0,.055.011l.023,0,.911.123a4.972,4.972,0,0,0,1.023-.121,2.788,2.788,0,0,0,1-.415c.039-.03.078-.059.114-.089.057-.025.116-.05.173-.078a1.852,1.852,0,0,0,.231-.121A3.442,3.442,0,0,0,8.366,6.057a2.541,2.541,0,0,0,.406-1.274A2.572,2.572,0,0,0,8.71,3.418,3.4,3.4,0,0,0,7.834,1.914Z" transform="translate(0.687 14.821)" fill="#fff"/></g><g transform="translate(813.886 -15.115) rotate(62)"><path d="M.8,4.444l.512.391.01.006.019.013a2.519,2.519,0,0,0,.33.138,2.311,2.311,0,0,0,.33.13.079.079,0,0,0,.019,0h.006l.61.079.018,0a.228.228,0,0,0,.046,0L3,5.166c.1-.013.207-.026.31-.04h.011a.146.146,0,0,0,.026-.006l.011,0c.046-.016.533-.214.58-.235l.022-.01.021-.013a6.426,6.426,0,0,0,.532-.405.164.164,0,0,0,.034-.034,4.54,4.54,0,0,0,.415-.546c.008-.014.014-.029.021-.043a4.25,4.25,0,0,0,.248-.623A4.134,4.134,0,0,0,5.32,2.55V2.523a.027.027,0,0,0,0-.011.02.02,0,0,0,0-.01c-.026-.2-.053-.407-.078-.61a.276.276,0,0,0-.013-.051,6.1,6.1,0,0,0-.243-.6c0-.01-.01-.018-.014-.026A1.826,1.826,0,0,0,4.321.509,1.784,1.784,0,0,0,3.488.08,1.811,1.811,0,0,0,2.574.041,1.794,1.794,0,0,0,1.724.3L1.215.505a2.41,2.41,0,0,0-.9.9c-.079.192-.157.384-.234.576a2.417,2.417,0,0,0,0,1.218.274.274,0,0,0,.011.04c.045.12.179.469.243.6a.107.107,0,0,0,.013.022c.059.094.175.231.207.272s.134.187.208.272A.242.242,0,0,0,.8,4.441S.8,4.442.8,4.444Z" transform="translate(0 9.85)" fill="#fff"/><path d="M4.254,0A3.966,3.966,0,0,0,3.1.184a6.051,6.051,0,0,0-.817.338,4.684,4.684,0,0,0-.732.528,3.146,3.146,0,0,0-.741.908c-.059.109-.111.215-.155.319a2.57,2.57,0,0,0-.306.469A3.118,3.118,0,0,0,.09,4.926a2.808,2.808,0,0,0,1.25,1.679c.042.048.087.1.133.141a3.413,3.413,0,0,0,3.189.812,3.438,3.438,0,0,0,.5-.186,3.3,3.3,0,0,0,.492-.221A3.58,3.58,0,0,0,6.6,6.361a4.3,4.3,0,0,0,.644-.967,5.053,5.053,0,0,0,.4-1.166,4.22,4.22,0,0,0,0-1.683,3.215,3.215,0,0,0-.8-1.5A3.41,3.41,0,0,0,4.254,0Z" transform="translate(7.456 15.93)" fill="#fff"/><path d="M2.738,5.459a.128.128,0,0,0,.026,0c.1-.008.359-.046.31-.04.059-.008.215-.021.317-.042a.256.256,0,0,0,.034-.01c.091-.035.464-.176.6-.245a.107.107,0,0,0,.022-.013A.135.135,0,0,0,4.07,5.1c.051-.035.464-.352.514-.392l.01-.008a.4.4,0,0,0,.037-.037c.074-.085.157-.2.208-.272.04-.051.146-.179.207-.272a.258.258,0,0,0,.026-.046c.046-.1.091-.226.125-.307.024-.059.09-.2.125-.307A.312.312,0,0,0,5.333,3.4c.018-.1.04-.307.04-.311,0-.021.032-.211.04-.314,0-.008,0-.016,0-.024V2.728c-.01-.2-.093-.722-.08-.632a.226.226,0,0,0-.01-.046.139.139,0,0,0-.008-.022l0-.013c-.038-.1-.078-.2-.119-.291s-.078-.2-.12-.295a.325.325,0,0,0-.022-.042c0-.006-.008-.013-.013-.021s0-.008-.008-.011l-.2-.259c-.066-.088-.133-.175-.2-.261A.328.328,0,0,0,4.6.8,6.3,6.3,0,0,0,4.054.378a.342.342,0,0,0-.04-.026L3.993.341l-.013,0c-.1-.04-.194-.08-.292-.118S3.494.136,3.395.1A.358.358,0,0,0,3.35.085C3.244.062,3.1.051,3.025.042,2.972.035,2.8.006,2.7,0a.476.476,0,0,0-.048,0C2.588.008,2.094.07,2.037.08l-.011,0A.134.134,0,0,0,2,.088L1.982.095l0,0C1.786.175,1.593.253,1.4.33l-.011,0a.336.336,0,0,0-.04.022A5.212,5.212,0,0,0,.807.772.3.3,0,0,0,.775.8L.767.813c-.051.064-.343.448-.392.514l-.014.019a.336.336,0,0,0-.022.04l0,.011c-.029.067-.21.511-.235.58A.141.141,0,0,0,.09,2a.413.413,0,0,0-.01.043A3.632,3.632,0,0,0,0,2.69C0,2.7,0,2.7,0,2.711c0,.051.07.56.079.612,0,0,0,.01,0,.014l0,.021c.058.194.347.839.24.594a.2.2,0,0,0,.022.04c.021.03.059.083.1.134a1.916,1.916,0,0,0,.2.269l.029.037c.025.034.049.062.065.083l.015.016c.038.046.077.091.112.136.008.01.016.019.026.029l.016.014c.042.034.472.362.514.392l.011.008a.332.332,0,0,0,.034.018l0,0c.192.078.384.157.576.234a.023.023,0,0,0,.01,0,.1.1,0,0,0,.021,0l.011,0c.035.006.578.075.612.078A.078.078,0,0,0,2.738,5.459ZM1.355.439l0,0C1.395.41,1.388.415,1.355.439Z" transform="translate(8.247 0)" fill="#fff"/><path d="M4.513.407a.3.3,0,0,0-.048-.03A4,4,0,0,0,3.82.109a.576.576,0,0,0-.1-.026C3.582.061,3.234.018,3.1,0L3.072,0c-.016,0-.032,0-.048,0s-.032,0-.048,0c-.106.008-.263.034-.325.042-.088.011-.224.024-.331.043a.847.847,0,0,0-.093.024L2.2.122c-.181.067-.413.163-.589.24a.456.456,0,0,0-.05.024.652.652,0,0,0-.083.051c-.163.115-.365.275-.524.4L.933.853A.44.44,0,0,0,.892.89.7.7,0,0,0,.826.962a5.428,5.428,0,0,0-.445.594.338.338,0,0,0-.024.05c-.078.173-.173.413-.24.591A.3.3,0,0,0,.1,2.232C.1,2.251.093,2.27.088,2.291A4.86,4.86,0,0,0,0,2.952c0,.019,0,.04,0,.059A.173.173,0,0,0,0,3.04c.026.2.053.407.079.61a.111.111,0,0,0,0,.022,2.3,2.3,0,0,0,.133.338,2.243,2.243,0,0,0,.144.339c.027.043.363.48.4.517.008.008.014.018.022.026S.8,4.9.8,4.91l.512.391.011.008a2.5,2.5,0,0,0,.336.142,2.361,2.361,0,0,0,.333.13.547.547,0,0,0,.056.011c.078.032.155.062.226.086a2.054,2.054,0,0,0,.407.064,2.259,2.259,0,0,0,.416.043l.022,0c.182-.018.442-.05.624-.08l.051-.01a.287.287,0,0,0,.05-.014l.027-.01c.192-.078.384-.157.576-.234a.078.078,0,0,1,.021-.008.531.531,0,0,0,.088-.051c.186-.13.368-.266.541-.413a.436.436,0,0,0,.046-.046L5.162,4.9l.01-.011c.13-.171.261-.341.391-.512.01-.014.019-.027.027-.042a.305.305,0,0,0,.019-.04l0-.011c.078-.192.157-.384.234-.576l.01-.029a.391.391,0,0,0,.011-.042l0-.024c.029-.165.064-.456.08-.621a.62.62,0,0,0,0-.093c-.006-.1-.035-.282-.042-.323-.008-.058-.024-.213-.04-.317l-.01-.05a.307.307,0,0,0-.013-.042c0-.006,0-.011-.006-.018-.061-.173-.168-.426-.242-.594a.605.605,0,0,0-.043-.085c-.008-.013-.016-.024-.026-.037-.083-.118-.3-.4-.394-.517C5.133.911,5.126.9,5.12.893A.684.684,0,0,0,5.053.826L5.034.81C4.925.717,4.624.483,4.513.407Z" transform="translate(16.371 7.084)" fill="#fff"/></g><g transform="matrix(0.996, -0.087, 0.087, 0.996, 751.266, -13.934)"><path d="M3.112.7c-.059-.052-.12-.1-.182-.149,0,0,0,0,0,0A.254.254,0,0,0,2.9.516L2.732.389,2.564.258l-.007,0L2.542.244,2.525.235h0L2.132.07l-.012,0L2.1.06H2.092L1.658,0,1.223.059A1.633,1.633,0,0,0,.5.48h0C.411.59.325.7.242.815L.232.832l-.164.39s0,0,0,0a.038.038,0,0,1,0,.009.044.044,0,0,0,0,.01c-.008.04-.056.4-.059.438a1.6,1.6,0,0,0,.061.469,1.62,1.62,0,0,0,.178.424l0,.007,0,.006c.024.032.048.063.073.094a1.209,1.209,0,0,0,.316.469l.331.256a1.627,1.627,0,0,0,.825.223l.434-.059A1.637,1.637,0,0,0,2.7,3.348l.058-.025.006,0c.036-.024.133-.1.174-.133s.128-.1.16-.125l0,0c.091-.108.178-.219.259-.335l0-.005a4.244,4.244,0,0,0,.167-.4.021.021,0,0,0,0-.007.014.014,0,0,0,0-.007,3.335,3.335,0,0,0,.059-.44V1.862l-.059-.435h0a0,0,0,0,0,0,0,1.818,1.818,0,0,0-.167-.4A2.849,2.849,0,0,0,3.114.694S3.114.7,3.112.7Z" transform="translate(9.342 6.844)" fill="#fff"/><path d="M1.022,3.944a2.91,2.91,0,0,0,1.069.349l.042.013.039.009.434.059a1.906,1.906,0,0,0,1.057-.268A1.989,1.989,0,0,0,4.4,3.351a2.611,2.611,0,0,0,.22-.58l.017-.054a1.866,1.866,0,0,0-.2-1.42A2.03,2.03,0,0,0,3.923.722a2.765,2.765,0,0,0-.471-.4A1.745,1.745,0,0,0,2.873.069,2.164,2.164,0,0,0,1.818.062,1.528,1.528,0,0,0,1.262.3,3.146,3.146,0,0,0,.9.582,1.826,1.826,0,0,0,.55.873a1.758,1.758,0,0,0-.306.411,3.5,3.5,0,0,0-.178.427,1.691,1.691,0,0,0-.033.237c-.011.079-.022.158-.032.237A2.024,2.024,0,0,0,1.022,3.944Zm.681.184s0,0,0,0Z" transform="translate(0 6.565)" fill="#fff"/><path d="M1.635,3.267a1.686,1.686,0,0,0,1.155-.478,1.661,1.661,0,0,0,.478-1.156A1.655,1.655,0,0,0,2.791.478,1.7,1.7,0,0,0,1.635,0,1.684,1.684,0,0,0,.48.478,1.658,1.658,0,0,0,0,1.634,1.655,1.655,0,0,0,.48,2.789,1.7,1.7,0,0,0,1.635,3.267Z" transform="translate(1.257 0.299)" fill="#fff"/><path d="M.479,2.958a.718.718,0,0,0,.06.068c.053.068.108.135.151.188l.027.033.02.02a.278.278,0,0,0,.022.018l.331.256a.623.623,0,0,0,.071.046,3.441,3.441,0,0,0,.455.193c.023.008.046.014.068.02l.043.008c.153.025.312.048.466.062a.974.974,0,0,0,.195-.005c.209-.023.421-.051.628-.09a1.234,1.234,0,0,0,.555-.292,1.231,1.231,0,0,0,.42-.458,1.2,1.2,0,0,0,.194-.608,1.224,1.224,0,0,0-.029-.651c-.011-.027-.023-.053-.034-.081a1.629,1.629,0,0,0-.053-.316c-.054-.13-.11-.26-.165-.39A1.637,1.637,0,0,0,3.319.392a.945.945,0,0,0-.1-.054C3.072.273,2.925.206,2.777.154L2.722.137,2.661.123C2.61.1,2.556.086,2.495.068L2.469.062H2.458L2.023,0a2.367,2.367,0,0,0-.488.058,1.329,1.329,0,0,0-.479.2L1,.3.919.337A.813.813,0,0,0,.811.395,1.641,1.641,0,0,0,.224.981a1.207,1.207,0,0,0-.194.608A1.231,1.231,0,0,0,.06,2.24,1.634,1.634,0,0,0,.479,2.958Z" transform="translate(8.396 0)" fill="#fff"/></g><path d="M24.393,4.788A12.752,12.752,0,0,0,19.9,1.271,14,14,0,0,0,14.234,0a13.813,13.813,0,0,0-5.708,1.17A14.541,14.541,0,0,0,3.787,4.5,13.57,13.57,0,0,0,.032,14.95a15.577,15.577,0,0,0,1.362,5.318,16.562,16.562,0,0,0,7.4,7.8,13.37,13.37,0,0,0,5.436,1.486,12.526,12.526,0,0,0,5.622-1.044,12.251,12.251,0,0,0,4.512-3.436,14.675,14.675,0,0,0,2.6-4.862,17.583,17.583,0,0,0,.829-5.272,17.258,17.258,0,0,0-.809-5.281A14.972,14.972,0,0,0,24.393,4.788ZM14.231,25.521A10.57,10.57,0,1,1,24.8,14.95,10.571,10.571,0,0,1,14.231,25.521Z" transform="matrix(0.978, 0.208, -0.208, 0.978, 861.363, -34.999)" fill="#fff"/><path d="M42.791,12.651A22.617,22.617,0,0,0,30.643,1.507,22.486,22.486,0,0,0,7.392,5.878a22.747,22.747,0,0,0-5.087,6.773A22.391,22.391,0,0,0,.048,21.039,22.391,22.391,0,0,0,13.423,43.08,22.933,22.933,0,0,0,22.552,45l2.343-.13c.778-.1,1.547-.234,2.321-.36.765-.162,1.516-.4,2.271-.6.742-.247,1.466-.549,2.195-.828a22.409,22.409,0,0,0,12.188-13.2,22.769,22.769,0,0,0,1.174-8.833A22.387,22.387,0,0,0,42.791,12.651Zm-2.132,8.383a18.1,18.1,0,1,1-18.1-18.1A18.1,18.1,0,0,1,40.659,21.034Z" transform="matrix(-0.839, -0.545, 0.545, -0.839, 711.92, 15.745)" fill="#fff"/><g transform="translate(632.858 -0.135) rotate(-103)"><path d="M0,1.786l.06.442s0,.006,0,.008l0,.016A1.841,1.841,0,0,0,.16,2.48a1.622,1.622,0,0,0,.1.225l.008.012,0,0,.26.337.008.009a.219.219,0,0,0,.023.022l.168.13c.057.044.114.089.172.132l.007,0,.016.009.008,0c.031.014.366.155.4.168l.016.006.016,0c.151.03.3.047.458.062a.163.163,0,0,0,.033,0,3.173,3.173,0,0,0,.47-.064.149.149,0,0,0,.031-.011,2.961,2.961,0,0,0,.427-.183,2.683,2.683,0,0,0,.362-.28l.013-.013.006-.007,0,0,.26-.337a.127.127,0,0,0,.019-.031,4.338,4.338,0,0,0,.174-.412.136.136,0,0,0,.006-.02,1.259,1.259,0,0,0,.03-.663,1.232,1.232,0,0,0-.2-.618A1.257,1.257,0,0,0,3.026.5a1.252,1.252,0,0,0-.542-.29L2.134.059a1.686,1.686,0,0,0-.884,0l-.4.167a1.671,1.671,0,0,0-.6.6A.186.186,0,0,0,.242.848C.205.929.1,1.166.068,1.259a.081.081,0,0,0,0,.018c-.017.075-.028.2-.032.235S.006,1.669,0,1.747a.18.18,0,0,0,0,.034Z" transform="translate(0.172 0.79)" fill="#fff"/><path d="M4.711.818A2.766,2.766,0,0,0,4.059.344,4.19,4.19,0,0,0,3.494.109a3.3,3.3,0,0,0-.617-.1A2.156,2.156,0,0,0,2.07.091a2.443,2.443,0,0,0-.232.08,1.746,1.746,0,0,0-.379.08,2.162,2.162,0,0,0-1.2.939A1.944,1.944,0,0,0,.054,2.624a1.339,1.339,0,0,0,0,.134A2.363,2.363,0,0,0,1.214,4.716a2.281,2.281,0,0,0,.338.156A2.285,2.285,0,0,0,1.9,5a2.491,2.491,0,0,0,.849.074,2.936,2.936,0,0,0,.789-.158A3.452,3.452,0,0,0,4.3,4.544a2.931,2.931,0,0,0,.827-.821,2.226,2.226,0,0,0,.343-1.129A2.378,2.378,0,0,0,4.711.818Z" transform="translate(0 7.898)" fill="#fff"/><path d="M.523,3.237l.013.012c.053.045.2.153.172.133.033.025.115.094.175.135L.9,3.529c.062.028.314.141.415.175l.017,0,.015,0c.042.008.4.054.444.06h.009a.2.2,0,0,0,.037,0c.078-.005.176-.023.235-.031s.158-.017.235-.032a.184.184,0,0,0,.035-.01c.071-.025.155-.065.212-.089.04-.017.144-.057.212-.09L2.8,3.5c.058-.041.169-.131.172-.133s.118-.089.174-.134l.012-.011a.088.088,0,0,0,.011-.011c.094-.1.308-.4.27-.349a.24.24,0,0,0,.018-.028l.008-.014,0-.009c.029-.067.056-.134.084-.2s.058-.135.085-.2a.168.168,0,0,0,.01-.031l0-.017a.026.026,0,0,0,0-.009q.017-.111.03-.223t.03-.226c0-.011,0-.022,0-.033A4.228,4.228,0,0,0,3.655,1.4c0-.011,0-.021-.007-.032a.089.089,0,0,0-.006-.016l0-.009c-.028-.068-.056-.134-.084-.2S3.5,1,3.47.937A.327.327,0,0,0,3.454.908c-.041-.062-.107-.14-.139-.18S3.225.6,3.175.548A.211.211,0,0,0,3.15.526C3.117.5,2.846.289,2.813.265l-.007,0L2.792.251,2.778.245h0l-.4-.167-.008,0L2.34.064A3.927,3.927,0,0,0,1.872,0a.149.149,0,0,0-.031,0H1.832c-.056.006-.387.051-.444.06l-.017,0a.16.16,0,0,0-.03.009l-.008,0C1.287.094.981.224.934.245L.92.251A.126.126,0,0,0,.894.268,2.5,2.5,0,0,0,.539.545.045.045,0,0,0,.53.556C.506.584.29.864.268.894A.034.034,0,0,0,.263.9S.257.911.255.915c-.066.123-.24.581-.173.409a.136.136,0,0,0-.009.031c-.006.024-.012.07-.018.114A1.2,1.2,0,0,0,.024,1.7l0,.032c0,.029-.007.055-.008.073s0,.01,0,.014C.009,1.863,0,1.9,0,1.943A.212.212,0,0,0,0,1.97c0,.006,0,.01,0,.016,0,.037.053.409.06.443,0,0,0,.007,0,.009a.253.253,0,0,0,.008.025s0,0,0,0l.167.4,0,.007a.1.1,0,0,0,.008.013l0,.007c.014.02.246.319.262.338ZM2.3.1h0C2.337.107,2.332.106,2.3.1Z" transform="translate(8.959 0)" fill="#fff"/><path d="M4.021,1.537c0-.013,0-.025-.008-.039a2.755,2.755,0,0,0-.185-.447A.552.552,0,0,0,3.79.987c-.055-.076-.2-.267-.263-.34L3.515.633A.247.247,0,0,0,3.493.608L3.468.586C3.412.539,3.323.474,3.289.448S3.168.35,3.105.307A.469.469,0,0,0,3.047.274.077.077,0,0,0,3.03.266C2.908.211,2.748.144,2.624.094L2.588.081A.42.42,0,0,0,2.522.065C2.386.042,2.209.021,2.071,0L2.052,0,2.013,0c-.022,0-.045,0-.068,0a3.6,3.6,0,0,0-.508.073L1.4.089C1.28.135,1.115.206,1,.26L.972.271.935.293A3.323,3.323,0,0,0,.57.574.37.37,0,0,0,.54.6L.526.618.266.955.257.967a1.749,1.749,0,0,0-.1.229,1.494,1.494,0,0,0-.1.237C.053,1.468,0,1.847,0,1.88A.163.163,0,0,0,0,1.9c0,.007,0,.012,0,.019l.06.442s0,.007,0,.009a1.569,1.569,0,0,0,.1.234,1.8,1.8,0,0,0,.1.227l.021.033c.023.053.046.106.068.153a1.441,1.441,0,0,0,.167.23A1.515,1.515,0,0,0,.7,3.475l.012.01c.1.081.241.192.345.266.01.007.02.014.03.02l.031.018.019.009.4.167.014.006a.291.291,0,0,0,.069.018,4.7,4.7,0,0,0,.467.062.328.328,0,0,0,.045,0H2.15l.442-.06.034-.008a.3.3,0,0,0,.029-.01l.008,0,.4-.167.019-.009A.186.186,0,0,0,3.1,3.775l.014-.01c.094-.068.255-.192.344-.265a.349.349,0,0,0,.045-.044c.048-.054.12-.155.139-.178s.093-.116.135-.175A.256.256,0,0,0,3.8,3.074c.006-.009.01-.018.014-.027l.006-.012c.054-.115.126-.29.173-.409a.41.41,0,0,0,.02-.062.3.3,0,0,0,.006-.03c.018-.1.048-.346.06-.447a.15.15,0,0,0,0-.022A.321.321,0,0,0,4.08,2a.11.11,0,0,0,0-.018C4.071,1.89,4.037,1.629,4.021,1.537Z" transform="translate(9.311 7.539)" fill="#fff"/></g></g><g transform="translate(483.054 -38.145)" style="isolation:isolate"><g transform="matrix(-0.999, -0.035, 0.035, -0.999, 16.85, 74.424)"><path d="M45.249,24.27a22.486,22.486,0,0,1-2.339,8.385,22.869,22.869,0,0,1-5.134,6.726,22.583,22.583,0,0,1-30.226,0,22.963,22.963,0,0,1-5.138-6.726A22.519,22.519,0,0,1,.063,24.27a22.761,22.761,0,0,1,1.1-8.908,22.378,22.378,0,0,1,4.66-7.933,22.624,22.624,0,0,1,7.6-5.474A23.149,23.149,0,0,1,22.665,0L25.04.134c.787.1,1.57.237,2.352.362.774.165,1.534.407,2.3.617.751.255,1.48.559,2.218.845A22.535,22.535,0,0,1,44.153,15.366,22.9,22.9,0,0,1,45.249,24.27ZM40.79,25.915a18.13,18.13,0,1,0-18.13,18.13A18.129,18.129,0,0,0,40.79,25.915Z" transform="matrix(0.891, 0.454, -0.454, 0.891, 5.523, 0.523)" fill="#fff"/></g><path d="M1593.761,826.518a25.123,25.123,0,0,1,8.9-5.867,26.425,26.425,0,0,1,10.441-1.737,24.969,24.969,0,0,1,10.135,2.48,24.65,24.65,0,0,1,7.991,6.341A30.047,30.047,0,0,1,1638,845.862a30.853,30.853,0,0,1-1.2,9.814,23.754,23.754,0,0,1-4.9,8.984,21.924,21.924,0,0,1-8.562,5.923A21.372,21.372,0,0,1,1613.1,871.8c-.846-.143-1.686-.3-2.511-.453-.815-.234-1.625-.448-2.419-.693-.779-.306-1.558-.591-2.312-.917-.739-.367-1.477-.713-2.2-1.085a34.349,34.349,0,0,1-7.645-5.7,33.386,33.386,0,0,1-5.755-7.619c-.377-.718-.723-1.457-1.09-2.2-.331-.754-.611-1.533-.922-2.317-.245-.794-.469-1.6-.708-2.424-.168-.825-.321-1.666-.474-2.516a22.319,22.319,0,0,1,1.054-10.344A25.341,25.341,0,0,1,1593.761,826.518Zm37.175,31.3a21.468,21.468,0,1,0-39.273-12.942c-.015.326-.026.652-.026.983A21.467,21.467,0,0,0,1613.1,867.33c.586,0,1.161-.031,1.732-.076A21.462,21.462,0,0,0,1630.936,857.821Z" transform="translate(-1343.69 -796.663)" fill="#fff" opacity="0.99"/><path d="M2209.518,1111.6a10.089,10.089,0,0,1,3.556-2.782,11.082,11.082,0,0,1,4.482-1.005,10.929,10.929,0,0,1,4.516.926,11.508,11.508,0,0,1,3.75,2.637,10.739,10.739,0,0,1,2.97,8.266,12.318,12.318,0,0,1-1.078,4.207,13.1,13.1,0,0,1-5.857,6.175,10.577,10.577,0,0,1-4.3,1.176,9.91,9.91,0,0,1-4.448-.826,9.691,9.691,0,0,1-3.57-2.719,11.6,11.6,0,0,1-2.054-3.847,13.917,13.917,0,0,1-.656-4.171,13.671,13.671,0,0,1,.64-4.178A11.743,11.743,0,0,1,2209.518,1111.6Zm8.039,16.4a8.363,8.363,0,1,0-8.363-8.363A8.363,8.363,0,0,0,2217.557,1128Z" transform="translate(-1448.266 -1664.737) rotate(17)" fill="#fff"/><g transform="matrix(-0.966, -0.259, 0.259, -0.966, 62.479, 68.13)"><path d="M2.423.092A3.167,3.167,0,0,1,2.775.04,2.528,2.528,0,0,1,3.127,0a2.793,2.793,0,0,1,.351.043A1.863,1.863,0,0,1,3.841.1c.131.044.352.141.478.2.019.009.038.017.056.027A3.226,3.226,0,0,1,4.82.671a.886.886,0,0,1,.074.066c.063.066.142.181.179.228s.127.152.176.231a.783.783,0,0,1,.047.085,4.112,4.112,0,0,1,.22.53,3.131,3.131,0,0,1,.1.7,1.112,1.112,0,0,1,0,.207,4.352,4.352,0,0,1-.1.707,1.692,1.692,0,0,1-.062.194,6.255,6.255,0,0,1-.28.65,1.729,1.729,0,0,1-.114.188,6.345,6.345,0,0,1-.429.556,4.047,4.047,0,0,1-.706.591A3.492,3.492,0,0,1,3.1,6c-.04.014-.079.029-.12.039-.023.005-.047.008-.07.012-.146.023-.387.065-.534.071H2.319l-.035,0-.517-.07c-.017,0-.035-.006-.052-.012a.227.227,0,0,1-.041-.014l-.464-.2A1.631,1.631,0,0,1,.948,5.64a2.566,2.566,0,0,1-.253-.2,2.524,2.524,0,0,1-.168-.216C.5,5.183.4,5.07.353,4.994a2.242,2.242,0,0,1-.14-.312A2.307,2.307,0,0,1,0,3.763a2.791,2.791,0,0,1,.074-.707,1.525,1.525,0,0,1,.111-.328c.013-.092.027-.185.043-.276.006-.043.014-.084.025-.126a4.094,4.094,0,0,1,.256-.646,1.449,1.449,0,0,1,.113-.212A4.822,4.822,0,0,1,1.036.935,1.314,1.314,0,0,1,1.211.771,3.639,3.639,0,0,1,1.766.363,5.445,5.445,0,0,1,2.3.133.714.714,0,0,1,2.423.092Z" transform="translate(0 7.379)" fill="#fff"/><path d="M.742.762C.812.7.9.635.967.585S1.126.455,1.209.4a3.083,3.083,0,0,1,.6-.265A1.034,1.034,0,0,1,2.016.08c.2-.031.4-.063.594-.078.03,0,.058,0,.088,0a3.521,3.521,0,0,1,.717.089.646.646,0,0,1,.1.03c.153.054.335.137.483.2.019.009.039.017.057.027A2.159,2.159,0,0,1,4.32.544a1.884,1.884,0,0,1,.268.218c.062.07.13.167.176.227s.126.15.174.228a2.765,2.765,0,0,1,.23.532.592.592,0,0,1,.023.092l.035.258c.017.092.028.184.036.277,0,.018,0,.035,0,.053a2.638,2.638,0,0,1-.083.585c-.027.088-.085.207-.11.266s-.07.181-.113.264a.725.725,0,0,1-.048.074c-.091.123-.214.293-.315.407a.515.515,0,0,1-.038.039A2.274,2.274,0,0,1,4,4.477c-.144.067-.333.148-.48.2-.017.007-.034.013-.052.018a4.2,4.2,0,0,1-.631.092,1.216,1.216,0,0,1-.256,0c-.069-.006-.139-.017-.207-.025a2.162,2.162,0,0,1-.276.021l-.517-.07a1.937,1.937,0,0,1-.857-.5A.59.59,0,0,1,.66,4.162a2.757,2.757,0,0,1-.339-.444,2.048,2.048,0,0,1-.245-.6A2.612,2.612,0,0,1,0,2.459a4.212,4.212,0,0,1,.08-.581,2.225,2.225,0,0,1,.123-.309,2.243,2.243,0,0,1,.131-.3c.007-.012.014-.022.022-.034C.447,1.115.576.945.673.83A.853.853,0,0,1,.742.762Z" transform="translate(9.68 8.603)" fill="#fff"/><path d="M4.377,2.8a.468.468,0,0,1-.017.057,4.426,4.426,0,0,1-.214.5.348.348,0,0,1-.029.047c-.05.072-.12.157-.164.214s-.11.15-.17.218a.455.455,0,0,1-.043.043c-.137.118-.282.228-.43.333a.669.669,0,0,1-.108.06,2.738,2.738,0,0,1-.7.258,1.473,1.473,0,0,1-.774.035,1.439,1.439,0,0,1-.723-.231,1.468,1.468,0,0,1-.545-.5,1.453,1.453,0,0,1-.347-.66l-.07-.517V2.658A2.232,2.232,0,0,1,.082,1.6,2.169,2.169,0,0,1,.668.625,2.764,2.764,0,0,1,1.124.285c-.109.052.341-.164.5-.207l.017,0C1.726.058,1.816.046,1.9.037L2.172,0a.194.194,0,0,1,.039,0l.06,0a2,2,0,0,1,.553.076,2.345,2.345,0,0,1,.268.11,1.718,1.718,0,0,1,.273.12,4.3,4.3,0,0,1,.417.321.212.212,0,0,1,.035.034,4.175,4.175,0,0,1,.321.416.311.311,0,0,1,.026.045,2.934,2.934,0,0,1,.21.505l0,.021c.014.089.026.179.036.269s.025.179.036.269a.362.362,0,0,1,0,.053c-.006.092-.028.219-.036.28S4.4,2.714,4.377,2.8Z" transform="translate(1.779 0)" fill="#fff"/><path d="M4.743,3.132a3.347,3.347,0,0,1-.233.548c-.008.013-.016.026-.025.039-.05.074-.12.157-.166.215s-.11.15-.17.219a2.732,2.732,0,0,1-.46.365,2.792,2.792,0,0,1-.55.245,2.931,2.931,0,0,1-.611.095,1.6,1.6,0,0,1-.369-.035,2.458,2.458,0,0,1-.306-.044,2.493,2.493,0,0,1-.277-.114,1.814,1.814,0,0,1-.707-.452.438.438,0,0,1-.041-.044l-.152-.2q-.082-.1-.159-.206L.505,3.747A2.529,2.529,0,0,1,.338,3.4C.332,3.389.325,3.382.32,3.373a1.922,1.922,0,0,1-.13-.293A1.777,1.777,0,0,1,0,2.241,2.139,2.139,0,0,1,.283,1.157a.4.4,0,0,1,.03-.052A2.63,2.63,0,0,1,.648.678,2.092,2.092,0,0,1,1.136.312,3.127,3.127,0,0,1,1.7.085l.054-.01C1.916.05,2.115.02,2.28,0l.038,0a.791.791,0,0,1,.111.005A3.606,3.606,0,0,1,3.053.1,3.852,3.852,0,0,1,3.6.332c.017.008.032.018.048.027L3.67.373c.137.1.282.212.413.319a.616.616,0,0,1,.079.075c.115.139.227.28.33.427a.359.359,0,0,1,.034.057A2.5,2.5,0,0,1,4.84,2.409a.685.685,0,0,1,0,.1A3.714,3.714,0,0,1,4.743,3.132Z" transform="translate(10.272 0.186)" fill="#fff"/></g><g transform="translate(134.983 50.351) rotate(101)"><path d="M0,4.078l.134-.989c0-.005,0-.013,0-.017s.005-.025.007-.035a4.092,4.092,0,0,1,.211-.513,3.616,3.616,0,0,1,.218-.5c0-.01.012-.017.017-.027s0-.005,0-.008l.583-.754a.159.159,0,0,1,.017-.02.489.489,0,0,1,.052-.05l.377-.29c.126-.1.255-.2.384-.3l.015-.01a.248.248,0,0,1,.035-.02L2.079.54C2.148.508,2.9.193,2.971.163A.213.213,0,0,1,3.006.151c.012,0,.025-.007.035-.01C3.378.074,3.723.036,4.065,0a.376.376,0,0,1,.074,0A7.111,7.111,0,0,1,5.191.146.341.341,0,0,1,5.26.17,6.64,6.64,0,0,1,6.215.58a6,6,0,0,1,.811.627l.03.03.012.015.007.01.583.754a.292.292,0,0,1,.042.069,9.688,9.688,0,0,1,.389.922.321.321,0,0,1,.012.045,2.82,2.82,0,0,1,.067,1.483,2.754,2.754,0,0,1-.441,1.384A2.811,2.811,0,0,1,6.77,6.962a2.8,2.8,0,0,1-1.212.65l-.784.33a3.771,3.771,0,0,1-1.979,0l-.888-.374A3.74,3.74,0,0,1,.574,6.233a.457.457,0,0,1-.032-.057C.46,5.995.224,5.464.152,5.256a.186.186,0,0,1-.01-.04C.105,5.048.08,4.772.07,4.691.055,4.586.013,4.338,0,4.165a.4.4,0,0,1,0-.077S0,4.081,0,4.078Z" transform="translate(0.385 19.222)" fill="#fff"/><path d="M10.542,9.559a6.191,6.191,0,0,1-1.46,1.061,9.4,9.4,0,0,1-1.264.526,7.378,7.378,0,0,1-1.381.223,4.823,4.823,0,0,1-1.805-.183c-.183-.052-.355-.114-.518-.178a3.925,3.925,0,0,1-.848-.179,4.836,4.836,0,0,1-2.675-2.1A4.349,4.349,0,0,1,.121,5.52c-.008-.1-.01-.2-.008-.3A5.287,5.287,0,0,1,2.717.838a5.1,5.1,0,0,1,.756-.35,5.109,5.109,0,0,1,.781-.3,5.575,5.575,0,0,1,1.9-.166A6.561,6.561,0,0,1,7.919.38a7.718,7.718,0,0,1,1.711.843,6.557,6.557,0,0,1,1.85,1.837,4.981,4.981,0,0,1,.769,2.527A5.32,5.32,0,0,1,10.542,9.559Z" transform="translate(0 0)" fill="#fff"/><path d="M1.171,1.2a.284.284,0,0,1,.03-.027c.119-.1.444-.342.384-.3.074-.057.258-.211.392-.3.015-.01.032-.017.047-.027.139-.062.7-.315.93-.392A.2.2,0,0,1,2.99.146L3.025.138C3.119.121,3.92.017,4.019,0l.02,0a.456.456,0,0,1,.082,0c.174.012.394.052.526.069.1.013.354.037.526.072a.411.411,0,0,1,.079.022c.159.057.347.146.474.2.089.037.322.127.474.2.025.013.047.027.072.042C6.4.7,6.65.9,6.655.9c.025.02.265.2.389.3a.249.249,0,0,1,.027.025.218.218,0,0,1,.025.025c.211.233.689.893.605.781a.533.533,0,0,1,.04.062l.017.032c0,.007,0,.012.007.02.064.149.126.3.188.449s.129.3.191.454a.374.374,0,0,1,.022.069l.007.037a.061.061,0,0,1,0,.02q.037.249.067.5t.067.506a.688.688,0,0,1,0,.074,9.3,9.3,0,0,1-.139,1.061.691.691,0,0,1-.015.072.19.19,0,0,1-.012.035l-.007.02c-.062.151-.126.3-.189.449s-.126.3-.191.454c-.01.022-.022.042-.035.064-.092.139-.241.312-.31.4-.052.067-.2.283-.315.4a.529.529,0,0,1-.055.05c-.074.06-.682.531-.756.585l-.015.01c-.01.007-.02.012-.032.02l-.03.015-.007,0-.888.374L5.3,8.281a.683.683,0,0,1-.067.02,8.825,8.825,0,0,1-1.049.141.335.335,0,0,1-.069,0,.054.054,0,0,1-.02,0c-.126-.012-.865-.114-.994-.134l-.037,0A.344.344,0,0,1,3,8.281l-.017-.007c-.1-.04-.789-.33-.893-.377l-.032-.015A.284.284,0,0,1,2,7.845a5.577,5.577,0,0,1-.8-.62.094.094,0,0,1-.02-.025C1.133,7.138.65,6.51.6,6.444a.088.088,0,0,1-.012-.02c0-.01-.012-.017-.017-.027C.422,6.121.032,5.1.184,5.482a.327.327,0,0,1-.02-.069c-.012-.055-.027-.156-.04-.255a2.681,2.681,0,0,1-.069-.521c0-.025,0-.05-.007-.072C.04,4.5.032,4.44.03,4.4c0-.01,0-.022,0-.032C.02,4.277.01,4.185,0,4.1a.458.458,0,0,1,0-.06C0,4.024,0,4.014,0,4c.01-.082.119-.915.134-.992,0-.008,0-.015,0-.02a.515.515,0,0,1,.017-.057s0,0,0-.007c.124-.295.251-.593.375-.888l.007-.015a.184.184,0,0,1,.017-.03s.007-.01.01-.015c.032-.045.551-.714.585-.756A.132.132,0,0,0,1.171,1.2ZM5.155,8.216l-.007,0C5.229,8.2,5.217,8.206,5.155,8.216Z" transform="translate(20.046 20.618)" fill="#fff"/><path d="M9,5.625c0,.03-.01.057-.017.087a6.138,6.138,0,0,1-.414,1,1.223,1.223,0,0,1-.087.144c-.124.171-.456.6-.588.761-.01.01-.017.022-.027.032a.5.5,0,0,1-.05.054c-.017.017-.037.032-.054.05-.126.107-.325.251-.4.31-.109.084-.27.218-.412.315a1.076,1.076,0,0,1-.129.074.182.182,0,0,1-.04.017c-.273.124-.63.273-.908.384l-.082.03a.973.973,0,0,1-.146.035c-.305.052-.7.1-1.009.136a.279.279,0,0,1-.042,0c-.03,0-.057,0-.087,0-.05,0-.1,0-.151-.007a8.07,8.07,0,0,1-1.136-.164c-.027-.007-.055-.017-.082-.027-.273-.1-.642-.263-.91-.384a.567.567,0,0,1-.052-.025c-.027-.015-.054-.03-.082-.047a7.491,7.491,0,0,1-.818-.63.866.866,0,0,1-.067-.064.431.431,0,0,0-.03-.035L.6,6.927.575,6.9A3.9,3.9,0,0,1,.35,6.387a3.33,3.33,0,0,1-.213-.531c-.017-.077-.129-.925-.134-1A.351.351,0,0,1,0,4.8c0-.015,0-.027,0-.042l.134-.989c0-.007,0-.015,0-.02A3.519,3.519,0,0,1,.352,3.23a4.009,4.009,0,0,1,.223-.508c.015-.025.032-.05.047-.074.052-.119.1-.238.151-.342a3.223,3.223,0,0,1,.375-.516,3.386,3.386,0,0,1,.409-.5l.027-.022c.221-.181.538-.429.771-.6C2.378.656,2.4.639,2.422.627S2.47.6,2.492.587l.042-.02L3.422.193A.174.174,0,0,1,3.454.18a.672.672,0,0,1,.154-.04C3.952.079,4.3.029,4.651,0a.705.705,0,0,1,.1,0l.035,0,.022,0L5.8.141c.025,0,.052.01.077.017A.666.666,0,0,1,5.941.18l.017.007.888.374c.015.007.03.013.042.02a.426.426,0,0,1,.057.035.365.365,0,0,0,.032.022c.211.151.57.429.769.593a.77.77,0,0,1,.1.1c.107.121.268.347.31.4.054.072.208.26.3.392a.56.56,0,0,1,.042.064.632.632,0,0,1,.032.059c0,.01.007.017.012.027.122.258.283.65.387.915a.929.929,0,0,1,.045.139.634.634,0,0,1,.012.067c.04.223.107.774.134,1a.348.348,0,0,1,0,.05.729.729,0,0,1,0,.146.259.259,0,0,1,0,.04C9.11,4.834,9.033,5.42,9,5.625Z" transform="translate(20.834 3.13)" fill="#fff"/></g><g transform="translate(196.126 63.193) rotate(163)"><path d="M3.655,3.446c-.069.061-.141.119-.214.175,0,0,0,0,0,0a.283.283,0,0,1-.036.033l-.194.15-.2.154L3,3.965l-.018.012-.019.01h0L2.5,4.181l-.014.005-.023.006h-.01l-.51.069-.51-.069A1.913,1.913,0,0,1,.588,3.7h0c-.1-.128-.2-.26-.3-.391l-.012-.02L.079,2.828s0,0,0,0a.044.044,0,0,0,0-.01s0-.008,0-.011C.062,2.755.006,2.334,0,2.288a1.867,1.867,0,0,1,.071-.551,1.89,1.89,0,0,1,.209-.5.064.064,0,0,1,.005-.008l.005-.008c.028-.037.056-.074.085-.11A1.418,1.418,0,0,1,.749.563l.389-.3A1.908,1.908,0,0,1,2.106,0l.511.069a1.929,1.929,0,0,1,.559.262l.068.029.007,0c.042.028.156.116.2.156s.151.114.188.147a.018.018,0,0,1,0,.005,4.979,4.979,0,0,1,.3.394l0,.006a4.7,4.7,0,0,1,.2.464.018.018,0,0,1,0,.008.014.014,0,0,1,0,.008,3.913,3.913,0,0,1,.069.517v.006q-.035.255-.069.51h0a0,0,0,0,1,0,0,2.111,2.111,0,0,1-.2.464,3.238,3.238,0,0,1-.3.391S3.656,3.444,3.655,3.446Z" transform="translate(10.97 0.551)" fill="#fff"/><path d="M1.2.51A3.419,3.419,0,0,1,2.455.1L2.5.086,2.55.075,3.06.006A2.239,2.239,0,0,1,4.3.321a2.337,2.337,0,0,1,.864.886,3.068,3.068,0,0,1,.259.682l.019.064a2.187,2.187,0,0,1-.233,1.668,2.389,2.389,0,0,1-.6.674,3.253,3.253,0,0,1-.554.467,2.048,2.048,0,0,1-.679.3,2.541,2.541,0,0,1-1.239.009,1.791,1.791,0,0,1-.652-.278,3.664,3.664,0,0,1-.421-.334,2.135,2.135,0,0,1-.415-.342,2.069,2.069,0,0,1-.36-.482,4.134,4.134,0,0,1-.208-.5,1.885,1.885,0,0,1-.04-.279C.027,2.761.013,2.669,0,2.576A2.379,2.379,0,0,1,1.2.51ZM2,.294s0,0,0,0S2,.3,2,.294Z" transform="translate(0 0)" fill="#fff"/><path d="M1.92,0A1.98,1.98,0,0,1,3.277.562a1.95,1.95,0,0,1,.561,1.357,1.942,1.942,0,0,1-.561,1.357,2,2,0,0,1-1.357.561A1.979,1.979,0,0,1,.563,3.275,1.95,1.95,0,0,1,0,1.918,1.942,1.942,0,0,1,.563.562,1.993,1.993,0,0,1,1.92,0Z" transform="translate(1.476 8.663)" fill="#fff"/><path d="M.563,1.072A.844.844,0,0,1,.633.993C.695.914.76.834.81.772L.841.733.865.71C.872.7.881.7.89.689l.389-.3A.689.689,0,0,1,1.362.334,4.053,4.053,0,0,1,1.9.108c.027-.009.054-.017.08-.023l.05-.009C2.207.047,2.394.02,2.575,0A1.148,1.148,0,0,1,2.8.01c.245.027.494.06.738.106a1.448,1.448,0,0,1,.652.343A1.449,1.449,0,0,1,4.687,1a1.424,1.424,0,0,1,.228.714,1.443,1.443,0,0,1-.035.765c-.013.032-.027.063-.04.095a1.953,1.953,0,0,1-.063.371L4.585,3.4a1.924,1.924,0,0,1-.688.688,1.117,1.117,0,0,1-.122.064c-.169.075-.34.153-.514.215L3.2,4.386,3.125,4.4c-.06.022-.123.043-.195.064L2.9,4.474H2.887l-.51.069A2.789,2.789,0,0,1,1.8,4.477a1.564,1.564,0,0,1-.563-.233l-.064-.05-.1-.043a.933.933,0,0,1-.128-.068,1.929,1.929,0,0,1-.688-.688,1.418,1.418,0,0,1-.228-.714A1.438,1.438,0,0,1,.07,1.916,1.914,1.914,0,0,1,.563,1.072Z" transform="translate(9.86 8.305)" fill="#fff"/></g><g transform="translate(404.267 77.851) rotate(-135)"><path d="M6.59.516A4.3,4.3,0,0,1,6.968.8a3.513,3.513,0,0,1,.367.292,4.393,4.393,0,0,1,.289.367,2.479,2.479,0,0,1,.28.395c.08.164.2.461.258.634.009.026.019.05.027.077a4.217,4.217,0,0,1,.1.731,1.129,1.129,0,0,1,.007.13A3.566,3.566,0,0,1,8.25,3.8c-.012.091-.024.26-.051.379-.01.043-.022.082-.036.123a5.534,5.534,0,0,1-.289.7,4.192,4.192,0,0,1-.555.752,1.6,1.6,0,0,1-.2.191,5.95,5.95,0,0,1-.757.562,2.1,2.1,0,0,1-.239.123,8.4,8.4,0,0,1-.868.345,2.582,2.582,0,0,1-.282.07,8.292,8.292,0,0,1-.917.118,5.3,5.3,0,0,1-1.208-.108,4.622,4.622,0,0,1-1.141-.4,1.521,1.521,0,0,1-.149-.077c-.027-.017-.051-.036-.077-.055a7.036,7.036,0,0,1-.564-.432.675.675,0,0,1-.05-.048c-.01-.012-.021-.024-.029-.036C.706,5.825.566,5.644.427,5.461.414,5.44.4,5.423.39,5.4A.3.3,0,0,1,.364,5.35C.28,5.145.2,4.94.115,4.735a2.133,2.133,0,0,1-.068-.422A2.835,2.835,0,0,1,0,3.888a3.522,3.522,0,0,1,.044-.359c.009-.065.022-.261.05-.374a2.8,2.8,0,0,1,.161-.422A3.034,3.034,0,0,1,.916,1.681a3.675,3.675,0,0,1,.729-.591,2.078,2.078,0,0,1,.41-.2c.1-.073.2-.147.3-.219C2.4.637,2.444.6,2.492.576A5.4,5.4,0,0,1,3.334.212a1.709,1.709,0,0,1,.3-.092A6.63,6.63,0,0,1,4.516,0a1.772,1.772,0,0,1,.316.008,4.6,4.6,0,0,1,.9.138,7.028,7.028,0,0,1,.716.287C6.489.461,6.541.485,6.59.516Z" transform="translate(0 5.853)" fill="#fff"/><path d="M3.253,0c.123.007.268.032.374.046s.27.027.4.053a4.114,4.114,0,0,1,.808.311,1.43,1.43,0,0,1,.243.142c.212.154.429.311.627.482.029.026.058.051.085.079a4.7,4.7,0,0,1,.586.752.924.924,0,0,1,.067.121c.092.193.184.441.261.64a.607.607,0,0,1,.027.079,2.75,2.75,0,0,1,.063.427,2.573,2.573,0,0,1,.046.453c-.007.123-.034.277-.046.376s-.024.256-.051.374a3.494,3.494,0,0,1-.282.711.618.618,0,0,1-.065.108c-.07.091-.138.183-.208.273s-.145.2-.225.292a.7.7,0,0,1-.051.048,3.477,3.477,0,0,1-.624.468,3.79,3.79,0,0,1-.35.145c-.085.034-.236.1-.352.142a.646.646,0,0,1-.114.024c-.2.031-.473.073-.673.085-.024,0-.048,0-.072,0A2.938,2.938,0,0,1,2.818,6.5c-.2-.072-.447-.172-.637-.26L2.116,6.2a5.488,5.488,0,0,1-.675-.5A1.648,1.648,0,0,1,1.2,5.464c-.058-.07-.114-.143-.171-.217a2.778,2.778,0,0,1-.277-.239C.616,4.825.476,4.644.338,4.462A2.566,2.566,0,0,1,0,3.2a.534.534,0,0,1,0-.1,3.651,3.651,0,0,1,.1-.731,2.684,2.684,0,0,1,.336-.793A3.478,3.478,0,0,1,.976.892,5.262,5.262,0,0,1,1.593.425,2.841,2.841,0,0,1,2,.251,3.1,3.1,0,0,1,2.4.1l.053-.01c.195-.034.473-.07.671-.085C3.168,0,3.211,0,3.253,0Z" transform="translate(9.032 15.591)" fill="#fff"/><path d="M4.654,5.5c-.022.014-.044.026-.068.038a5.529,5.529,0,0,1-.67.27.469.469,0,0,1-.07.017c-.114.021-.258.034-.354.046s-.243.038-.36.044a.613.613,0,0,1-.079,0c-.239-.017-.476-.051-.711-.091a.845.845,0,0,1-.155-.044,3.625,3.625,0,0,1-.89-.41,1.949,1.949,0,0,1-.755-.69,1.9,1.9,0,0,1-.458-.888,1.931,1.931,0,0,1-.041-.975,1.943,1.943,0,0,1,.292-.941c.138-.183.278-.364.417-.547l.005-.005A2.942,2.942,0,0,1,1.774.371,2.875,2.875,0,0,1,3.233,0a3.762,3.762,0,0,1,.743.106c-.149-.053.471.164.658.27l.021.012q.146.1.282.215l.282.215c.014.012.026.024.038.036l.053.06a2.651,2.651,0,0,1,.444.586,2.925,2.925,0,0,1,.147.352,2.39,2.39,0,0,1,.144.367,5.49,5.49,0,0,1,.089.687.4.4,0,0,1,0,.063,5.481,5.481,0,0,1-.087.688.423.423,0,0,1-.019.067,3.9,3.9,0,0,1-.275.666l-.015.024c-.07.1-.142.191-.217.285s-.144.191-.217.283a.469.469,0,0,1-.05.051c-.091.079-.231.178-.3.225S4.757,5.432,4.654,5.5Z" transform="translate(9.769 0)" fill="#fff"/><path d="M4.621,6.109a4.32,4.32,0,0,1-.728.294c-.019.005-.039.01-.058.014-.116.022-.258.034-.355.046s-.243.038-.362.046a3.779,3.779,0,0,1-.77-.087,3.591,3.591,0,0,1-.741-.285,3.843,3.843,0,0,1-.659-.482,1.982,1.982,0,0,1-.311-.377,3.248,3.248,0,0,1-.244-.326,3.271,3.271,0,0,1-.154-.366A2.392,2.392,0,0,1,0,3.506a.606.606,0,0,1,0-.079C.016,3.32.03,3.211.043,3.1s.026-.227.044-.342a.162.162,0,0,1,.007-.027,3.374,3.374,0,0,1,.169-.482c0-.014,0-.027.007-.041a2.609,2.609,0,0,1,.152-.395,2.348,2.348,0,0,1,.606-.96A2.852,2.852,0,0,1,2.3.107a.588.588,0,0,1,.075-.02A3.513,3.513,0,0,1,3.087,0a2.7,2.7,0,0,1,.8.116,4.216,4.216,0,0,1,.736.311l.06.041c.176.13.391.289.559.427.012.01.026.021.038.033a.991.991,0,0,1,.1.108,4.674,4.674,0,0,1,.494.671,4.889,4.889,0,0,1,.3.728c.007.022.014.046.019.07s.005.021.007.031c.038.219.065.459.089.682a.8.8,0,0,1,0,.143c-.021.236-.05.473-.091.706a.755.755,0,0,1-.021.085,3.294,3.294,0,0,1-.787,1.372,1.016,1.016,0,0,1-.1.094A4.437,4.437,0,0,1,4.621,6.109Z" transform="translate(17.586 8.129)" fill="#fff"/></g><g transform="translate(473.107 45.742) rotate(140)"><path d="M3.359.009c.158.009.316.026.471.048h0a.533.533,0,0,1,.083,0l.417.053c.142.017.282.035.425.055l.015,0A.165.165,0,0,1,4.81.178l.035.011.007,0c.263.107.526.215.789.32.007,0,.015.007.022.011L5.7.541,5.713.55c.235.178.467.357.7.535.178.234.357.467.535.7a3.286,3.286,0,0,1,.427,1.628s0,0,0,0c-.031.28-.066.561-.108.841a.182.182,0,0,1-.011.037c-.107.263-.215.526-.32.789,0,0,0,0,0,.006s-.007.011-.009.018a.1.1,0,0,1-.011.015c-.046.068-.486.646-.539.708a3.188,3.188,0,0,1-.754.581,3.217,3.217,0,0,1-.857.351l-.015,0a.037.037,0,0,1-.015,0L4.5,6.8a2.458,2.458,0,0,1-1.118.219l-.833-.107a3.265,3.265,0,0,1-1.49-.857C.881,5.822.7,5.59.524,5.355a3.311,3.311,0,0,1-.362-.995C.147,4.321.129,4.282.114,4.242c0,0,0-.009,0-.011C.092,4.146.064,3.9.051,3.793S.007,3.473,0,3.388V3.375a8.51,8.51,0,0,1,.107-.846.03.03,0,0,1,0-.013,8.443,8.443,0,0,1,.324-.8L.443,1.7l.007-.011A6.8,6.8,0,0,1,.991.982S1,.977,1,.973C1.234.8,1.466.616,1.7.438a0,0,0,0,0,0,0l0,0a.007.007,0,0,0,0,0,3.457,3.457,0,0,1,.8-.324A5.419,5.419,0,0,1,3.348,0C3.355.009,3.357.009,3.359.009Z" transform="translate(0 9.218)" fill="#fff"/><path d="M4.117,8.747A5.846,5.846,0,0,1,2.1,7.723c-.029-.013-.055-.026-.079-.039a.7.7,0,0,1-.068-.044c-.234-.178-.467-.357-.7-.535A3.85,3.85,0,0,1,.129,5.221,4.026,4.026,0,0,1,.155,3.1,5.167,5.167,0,0,1,.668,1.96c.017-.033.035-.068.055-.1A3.742,3.742,0,0,1,3.026.122,4.121,4.121,0,0,1,4.573.037,5.672,5.672,0,0,1,5.809.142,3.5,3.5,0,0,1,6.994.6a4.356,4.356,0,0,1,1.512,1.49A3.047,3.047,0,0,1,8.96,3.218a6.008,6.008,0,0,1,.105.914,3.7,3.7,0,0,1,.09.916,3.588,3.588,0,0,1-.147,1.019,7.266,7.266,0,0,1-.355.859,3.34,3.34,0,0,1-.289.386c-.1.129-.195.256-.294.383A4.064,4.064,0,0,1,4.117,8.747Zm-1.232-.71.007,0A.011.011,0,0,1,2.886,8.037Z" transform="translate(11.283 20.968)" fill="#fff"/><path d="M.962,5.614A3.39,3.39,0,0,1,0,3.289,3.343,3.343,0,0,1,.962.964,3.322,3.322,0,0,1,3.287,0,3.424,3.424,0,0,1,5.612.964a3.391,3.391,0,0,1,.962,2.325,3.344,3.344,0,0,1-.962,2.325,3.323,3.323,0,0,1-2.325.962A3.423,3.423,0,0,1,.962,5.614Z" transform="translate(21.654 11.562)" fill="#fff"/><path d="M5.2,7.8a1.675,1.675,0,0,1-.182.011c-.171.022-.346.037-.482.053-.028,0-.055.007-.083.007H4.4a.487.487,0,0,1-.057,0L3.5,7.759a1.41,1.41,0,0,1-.167-.035,7.01,7.01,0,0,1-.922-.375.869.869,0,0,1-.125-.07c-.024-.015-.048-.033-.07-.048-.252-.182-.513-.377-.752-.574A2.079,2.079,0,0,1,1.2,6.371C.931,6.041.67,5.7.431,5.348A2.488,2.488,0,0,1,.056,4.141,2.476,2.476,0,0,1,.109,2.89,2.451,2.451,0,0,1,.7,1.75,2.485,2.485,0,0,1,1.665.865L1.827.8A3.394,3.394,0,0,1,2.353.427c.263-.107.526-.215.789-.32a3.308,3.308,0,0,1,1.668,0,1.572,1.572,0,0,1,.223.07c.3.112.6.226.883.362.035.017.07.035.1.055s.07.044.105.066c.1.046.2.1.313.158l.046.028L6.5.858c.234.177.467.357.7.535a4.7,4.7,0,0,1,.611.778,2.645,2.645,0,0,1,.4.964c.007.046.011.092.018.138.022.057.044.114.066.169a1.6,1.6,0,0,1,.072.239,3.308,3.308,0,0,1,0,1.668A2.452,2.452,0,0,1,7.78,6.488a2.484,2.484,0,0,1-.968.885A3.224,3.224,0,0,1,5.2,7.8Z" transform="translate(9.771 0)" fill="#fff"/></g><g transform="translate(535.942 63.502) rotate(164)"><path d="M1.3,1.869c.158-.14.322-.272.488-.4L1.8,1.462a.659.659,0,0,1,.082-.076l.444-.342c.149-.117.3-.234.453-.351L2.8.682,2.837.655c.014-.009.029-.015.044-.023l.009,0L3.936.187c.012,0,.021-.009.032-.012A.379.379,0,0,1,4.021.161a.065.065,0,0,1,.024,0L5.211,0,6.378.158A4.372,4.372,0,0,1,8.317,1.29l0,0c.237.292.468.594.693.895a.527.527,0,0,1,.026.047c.146.348.3.7.442,1.047,0,0,0,.006,0,.009a.221.221,0,0,0,.009.023c0,.009,0,.018.006.026.02.108.149,1.07.158,1.176a4.285,4.285,0,0,1-.164,1.26,4.232,4.232,0,0,1-.479,1.138c0,.006-.009.012-.012.018s-.009.012-.012.018c-.064.085-.129.17-.2.252a3.239,3.239,0,0,1-.848,1.26l-.889.687a4.359,4.359,0,0,1-2.214.6L3.676,9.589a4.409,4.409,0,0,1-1.278-.6c-.053-.023-.106-.044-.155-.067l-.015-.009c-.1-.064-.357-.266-.468-.357s-.345-.26-.43-.336c-.006,0-.008-.009-.011-.012-.246-.29-.48-.588-.7-.9a.071.071,0,0,0-.009-.015A10.975,10.975,0,0,1,.167,6.232c0-.006,0-.012-.006-.018s0-.012,0-.018A8.886,8.886,0,0,1,0,5.015V5q.079-.583.158-1.167V3.828a.012.012,0,0,1,0-.009A4.852,4.852,0,0,1,.608,2.758a7.489,7.489,0,0,1,.69-.895C1.3,1.872,1.3,1.869,1.3,1.869Z" transform="translate(0 18.378)" fill="#fff"/><path d="M9.867,10.59A7.809,7.809,0,0,1,7,11.526c-.041.015-.079.026-.111.035s-.07.017-.106.023l-1.167.158a5.116,5.116,0,0,1-2.839-.719A5.349,5.349,0,0,1,.8,9,6.964,6.964,0,0,1,.208,7.438c-.015-.05-.029-.1-.044-.146A5,5,0,0,1,.7,3.478a5.471,5.471,0,0,1,1.38-1.541A7.441,7.441,0,0,1,3.342.87,4.68,4.68,0,0,1,4.9.186,5.809,5.809,0,0,1,7.729.165,4.087,4.087,0,0,1,9.22.8a8.6,8.6,0,0,1,.962.763,4.914,4.914,0,0,1,.951.781,4.753,4.753,0,0,1,.822,1.1,9.351,9.351,0,0,1,.477,1.146,4.218,4.218,0,0,1,.09.637c.029.214.059.424.085.638A5.427,5.427,0,0,1,9.867,10.59Zm-1.83.494c.009,0,.009-.006.009-.006S8.039,11.085,8.036,11.085Z" transform="translate(22.134 17.625)" fill="#fff"/><path d="M4.389,8.773a4.525,4.525,0,0,1-3.1-1.284A4.455,4.455,0,0,1,0,4.386a4.439,4.439,0,0,1,1.284-3.1A4.56,4.56,0,0,1,4.389,0a4.525,4.525,0,0,1,3.1,1.284,4.453,4.453,0,0,1,1.284,3.1,4.438,4.438,0,0,1-1.284,3.1A4.571,4.571,0,0,1,4.389,8.773Z" transform="translate(22.59 0.803)" fill="#fff"/><path d="M10.037,7.941a1.829,1.829,0,0,1-.161.181c-.14.181-.289.363-.406.506-.024.029-.047.059-.073.088l-.053.053c-.018.017-.038.032-.058.05L8.4,9.506a1.62,1.62,0,0,1-.19.123,9.326,9.326,0,0,1-1.222.518q-.092.031-.184.053c-.038.009-.076.015-.114.02-.409.067-.839.129-1.252.167a2.6,2.6,0,0,1-.524-.015c-.561-.061-1.129-.137-1.687-.243a3.311,3.311,0,0,1-1.491-.784A3.32,3.32,0,0,1,.6,8.114a3.249,3.249,0,0,1-.52-1.632A3.294,3.294,0,0,1,.161,4.733c.029-.073.062-.143.091-.216A4.5,4.5,0,0,1,.4,3.669c.146-.348.3-.7.442-1.047A4.409,4.409,0,0,1,2.41,1.048,2.593,2.593,0,0,1,2.688.9C3.074.73,3.466.551,3.863.411c.05-.018.1-.032.149-.047s.108-.026.161-.038c.138-.05.281-.1.444-.146a.63.63,0,0,1,.07-.015l.03,0L5.884,0a6.37,6.37,0,0,1,1.31.155A3.572,3.572,0,0,1,8.481.692c.05.038.1.076.146.114.073.032.149.064.222.1a2.373,2.373,0,0,1,.3.155,4.41,4.41,0,0,1,1.573,1.573,3.255,3.255,0,0,1,.52,1.632,3.3,3.3,0,0,1-.079,1.749A4.353,4.353,0,0,1,10.037,7.941Z" transform="translate(0.88 0)" fill="#fff"/></g><path d="M12.715,12.919a6.647,6.647,0,0,1-2.343,1.833,7.3,7.3,0,0,1-2.953.662,7.2,7.2,0,0,1-2.975-.61,7.58,7.58,0,0,1-2.47-1.737A7.073,7.073,0,0,1,.017,7.622,8.12,8.12,0,0,1,.727,4.85,8.633,8.633,0,0,1,4.586.781,6.969,6.969,0,0,1,7.419.007,6.529,6.529,0,0,1,10.35.551,6.386,6.386,0,0,1,12.7,2.342a7.649,7.649,0,0,1,1.353,2.534,9.165,9.165,0,0,1,.432,2.748,9,9,0,0,1-.422,2.753A7.8,7.8,0,0,1,12.715,12.919ZM7.418,2.112a5.51,5.51,0,1,0,5.51,5.51A5.51,5.51,0,0,0,7.418,2.112Z" transform="matrix(-0.978, 0.208, -0.208, -0.978, 589.133, 68.531)" fill="#fff"/></g></g></svg>