<svg xmlns="http://www.w3.org/2000/svg" width="1357.458" height="541.552" viewBox="0 0 1357.458 541.552"><g transform="translate(-227.695 -98.947)"><g transform="translate(0 -17)"><g transform="translate(216.293 450.588)"><circle cx="2.5" cy="2.5" r="2.5" transform="translate(180.456 200.911)" fill="none" stroke="#35cfca" stroke-linecap="round" stroke-linejoin="round" stroke-miterlimit="1.5" stroke-width="2"/></g><g transform="translate(858.705 44.668)"><circle cx="2.5" cy="2.5" r="2.5" transform="translate(180.456 200.911)" fill="none" stroke="#35cfca" stroke-linecap="round" stroke-linejoin="round" stroke-miterlimit="1.5" stroke-width="2"/></g><g transform="translate(1329.99 80.384)"><circle cx="2.5" cy="2.5" r="2.5" transform="translate(180.456 200.911)" fill="none" stroke="#35cfca" stroke-linecap="round" stroke-linejoin="round" stroke-miterlimit="1.5" stroke-width="2"/></g><g transform="translate(460.571 -126.377)"><circle cx="4" cy="4" r="4" transform="translate(288.726 321.453)" fill="none" stroke="#35cfca" stroke-linecap="round" stroke-linejoin="round" stroke-miterlimit="1.5" stroke-width="2"/></g><g transform="translate(1108.43 210.545)"><circle cx="4" cy="4" r="4" transform="translate(288.726 321.453)" fill="none" stroke="#35cfca" stroke-linecap="round" stroke-linejoin="round" stroke-miterlimit="1.5" stroke-width="2"/></g><g transform="translate(1226.72 322.845)"><circle cx="4" cy="4" r="4" transform="translate(288.726 321.453)" fill="none" stroke="#35cfca" stroke-linecap="round" stroke-linejoin="round" stroke-miterlimit="1.5" stroke-width="2"/></g><g transform="translate(57.031 -47.161)"><circle cx="4" cy="4" r="4" transform="translate(288.726 321.453)" fill="none" stroke="#35cfca" stroke-linecap="round" stroke-linejoin="round" stroke-miterlimit="1.5" stroke-width="2"/></g><g transform="translate(188.818 -86.628) rotate(8.383)"><path d="M417.562,145.6l2.42,7.454h7.84l-6.341,4.607,2.42,7.454-6.338-4.607-6.341,4.607,2.423-7.454-6.341-4.607h7.837Z" fill="none" stroke="#409ae3" stroke-linecap="round" stroke-linejoin="round" stroke-miterlimit="1.5" stroke-width="1.501" fill-rule="evenodd"/></g><g transform="translate(909.668 -41.069) rotate(8.383)"><path d="M417.562,145.6l2.42,7.454h7.84l-6.341,4.607,2.42,7.454-6.338-4.607-6.341,4.607,2.423-7.454-6.341-4.607h7.837Z" fill="none" stroke="#409ae3" stroke-linecap="round" stroke-linejoin="round" stroke-miterlimit="1.5" stroke-width="1.501" fill-rule="evenodd"/></g><g transform="translate(-150.332 364.842) rotate(8.383)"><path d="M417.562,145.6l2.42,7.454h7.84l-6.341,4.607,2.42,7.454-6.338-4.607-6.341,4.607,2.423-7.454-6.341-4.607h7.837Z" fill="none" stroke="#409ae3" stroke-linecap="round" stroke-linejoin="round" stroke-miterlimit="1.5" stroke-width="1.501" fill-rule="evenodd"/></g><g transform="matrix(0.967, -0.255, 0.255, 0.967, 1005.39, 337.34)"><path d="M294.412,102.662l1.706,5.256h5.528l-4.471,3.248,1.706,5.256-4.469-3.248-4.471,3.248,1.708-5.256-4.471-3.248H292.7Z" fill="none" stroke="#409ae3" stroke-linecap="round" stroke-linejoin="round" stroke-miterlimit="1.5" stroke-width="1" fill-rule="evenodd"/></g><g transform="matrix(0.967, -0.255, 0.255, 0.967, 1263.18, 408.348)"><path d="M294.412,102.662l1.706,5.256h5.528l-4.471,3.248,1.706,5.256-4.469-3.248-4.471,3.248,1.708-5.256-4.471-3.248H292.7Z" fill="none" stroke="#409ae3" stroke-linecap="round" stroke-linejoin="round" stroke-miterlimit="1.5" stroke-width="1" fill-rule="evenodd"/></g><g transform="matrix(0.967, -0.255, 0.255, 0.967, 654.793, 99.348)"><path d="M294.412,102.662l1.706,5.256h5.528l-4.471,3.248,1.706,5.256-4.469-3.248-4.471,3.248,1.708-5.256-4.471-3.248H292.7Z" fill="none" stroke="#409ae3" stroke-linecap="round" stroke-linejoin="round" stroke-miterlimit="1.5" stroke-width="1" fill-rule="evenodd"/></g><g transform="matrix(0.967, -0.255, 0.255, 0.967, 214.23, 235.667)"><path d="M294.412,102.662l1.706,5.256h5.528l-4.471,3.248,1.706,5.256-4.469-3.248-4.471,3.248,1.708-5.256-4.471-3.248H292.7Z" fill="none" stroke="#409ae3" stroke-linecap="round" stroke-linejoin="round" stroke-miterlimit="1.5" stroke-width="1" fill-rule="evenodd"/></g><g transform="matrix(0.967, -0.255, 0.255, 0.967, 82.551, 408.374)"><path d="M294.412,102.662l1.706,5.256h5.528l-4.471,3.248,1.706,5.256-4.469-3.248-4.471,3.248,1.708-5.256-4.471-3.248H292.7Z" fill="none" stroke="#409ae3" stroke-linecap="round" stroke-linejoin="round" stroke-miterlimit="1.5" stroke-width="1" fill-rule="evenodd"/></g></g></g></svg>