<svg xmlns="http://www.w3.org/2000/svg" width="367.97" height="329.699" viewBox="0 0 367.97 329.699">
  <g id="Group_48" data-name="Group 48" transform="translate(-577.5 -274.5)">
    <g id="Group_1" data-name="Group 1" transform="translate(579 399.838)">
      <path id="Path_1" data-name="Path 1" stroke="#0f507b" d="M173.719,846.4a45.148,45.148,0,1,1,12.842-88.556" fill="none" transform="translate(-104.783 -727.991)" stroke-linecap="round" stroke-linejoin="round" stroke-miterlimit="1.5" stroke-width="3" fill-rule="evenodd"/>
      <path id="Path_2" data-name="Path 2" stroke="#0f507b" d="M293.891,826.575H267.9" fill="none" transform="translate(-215.451 -784.129)" stroke-linecap="round" stroke-linejoin="round" stroke-miterlimit="1.5" stroke-width="3" fill-rule="evenodd"/>
      <path id="Path_3" data-name="Path 3" stroke="#0f507b" d="M343.9,868.082H331.8" fill="none" transform="translate(-266.357 -817.195)" stroke-linecap="round" stroke-linejoin="round" stroke-miterlimit="1.5" stroke-width="3" fill-rule="evenodd"/>
      <path id="Path_4" data-name="Path 4" stroke="#0f507b" d="M338.262,1178a48.012,48.012,0,0,0,11.833,15.849" fill="none" transform="translate(-271.505 -1064.082)" stroke-linecap="round" stroke-linejoin="round" stroke-miterlimit="1.5" stroke-width="3" fill-rule="evenodd"/>
      <path id="Path_5" data-name="Path 5" stroke="#0f507b" d="M119.082,1255.93H10.023" fill="none" transform="translate(-10.023 -1126.162)" stroke-linecap="round" stroke-linejoin="round" stroke-miterlimit="1.5" stroke-width="3" fill-rule="evenodd"/>
      <path id="Path_6" data-name="Path 6" stroke="#0f507b" d="M396.534,673.4q-.088-1.772-.088-3.565a70.992,70.992,0,0,1,22.547-51.957" fill="none" transform="translate(-317.855 -617.874)" stroke-linecap="round" stroke-linejoin="round" stroke-miterlimit="1.5" stroke-width="3" fill-rule="evenodd"/>
    </g>
    <g id="Group_13" data-name="Group 13" transform="translate(679.493 276)">
      <path id="Path_40" data-name="Path 40" stroke="#f1b156" d="M1587.13,981.576a118.477,118.477,0,0,0,44.218-30.854,138.292,138.292,0,0,1-40.932,53.822" fill="none" transform="translate(-1366.871 -759.189)" stroke-linecap="round" stroke-linejoin="round" stroke-miterlimit="1.5" stroke-width="3" fill-rule="evenodd"/>
      <g id="Group_12" data-name="Group 12" transform="translate(0 0)">
        <path id="Path_41" data-name="Path 41" stroke="#f1b156" d="M562.646,259.316a137.695,137.695,0,0,1,79.2-250.342c1.018,0,2.034.011,3.038.033a118.148,118.148,0,0,0-17.953,217.713" fill="none" transform="translate(-504.138 -8.974)" stroke-linecap="round" stroke-linejoin="round" stroke-miterlimit="1.5" stroke-width="3" fill-rule="evenodd"/>
        <g id="Group_11" data-name="Group 11" transform="translate(20.338 31.871)">
          <g id="Group_10" data-name="Group 10">
            <path id="Path_42" data-name="Path 42" stroke="#f1b156" d="M604.376,359.628q-.237-4.049-.238-8.158A137.006,137.006,0,0,1,627.9,274.165" fill="none" transform="translate(-604.138 -252.102)" stroke-linecap="round" stroke-linejoin="round" stroke-miterlimit="1.5" stroke-width="3" fill-rule="evenodd"/>
            <path id="Path_43" data-name="Path 43" stroke="#f1b156" d="M740.414,181.417a138.76,138.76,0,0,1,9.789-10.2q3.041-2.861,6.252-5.537" fill="none" transform="translate(-712.698 -165.681)" stroke-linecap="round" stroke-linejoin="round" stroke-miterlimit="1.5" stroke-width="3" fill-rule="evenodd"/>
          </g>
        </g>
      </g>
    </g>
    <g id="Group_19" data-name="Group 19" transform="translate(688.436 471.891)">
      <g id="Group_18" data-name="Group 18" transform="translate(81.565 114.873)">
        <path id="Path_62" data-name="Path 62" stroke="#0f3351" d="M1190.82,1552.06a25.65,25.65,0,0,1,46.747,0" fill="none" transform="translate(-1141.67 -1536.974)" stroke-linecap="round" stroke-linejoin="round" stroke-miterlimit="1.5" stroke-width="3" fill-rule="evenodd"/>
        <path id="Path_63" data-name="Path 63" stroke="#0f3351" d="M949.153,1615.32H1045.9" fill="none" transform="translate(-949.153 -1599.386)" stroke-linecap="round" stroke-linejoin="round" stroke-miterlimit="1.5" stroke-width="3" fill-rule="evenodd"/>
      </g>
      <path id="Path_64" data-name="Path 64" stroke="#0f3351" d="M1183.36,998.009a44.756,44.756,0,1,1,80.328,39.453" fill="none" transform="translate(-1054.162 -972.152)" stroke-linecap="round" stroke-linejoin="round" stroke-miterlimit="1.5" stroke-width="3" fill-rule="evenodd"/>
      <path id="Path_65" data-name="Path 65" stroke="#0f3351" d="M898,1244.379a38.106,38.106,0,0,0-6.822-2.336" fill="none" transform="translate(-821.4 -1187.153)" stroke-linecap="round" stroke-linejoin="round" stroke-miterlimit="1.5" stroke-width="3" fill-rule="evenodd"/>
      <path id="Path_66" data-name="Path 66" stroke="#0f3351" d="M891.173,1113.917a41.305,41.305,0,0,1,40.384-32.71,40.492,40.492,0,0,1,16.961,3.678" fill="none" transform="translate(-821.4 -1059.027)" stroke-linecap="round" stroke-linejoin="round" stroke-miterlimit="1.5" stroke-width="3" fill-rule="evenodd"/>
      <path id="Path_67" data-name="Path 67" stroke="#0f3351" d="M1173.13,1099.29a41.208,41.208,0,0,1,10.736,7.017" fill="none" transform="translate(-1046.013 -1073.433)" stroke-linecap="round" stroke-linejoin="round" stroke-miterlimit="1.5" stroke-width="3" fill-rule="evenodd"/>
      <path id="Path_68" data-name="Path 68" stroke="#0f3351" d="M850.078,1300.948a27.706,27.706,0,0,0-9.093-1.149" fill="none" transform="translate(-781.42 -1233.144)" stroke-linecap="round" stroke-linejoin="round" stroke-miterlimit="1.5" stroke-width="3" fill-rule="evenodd"/>
      <path id="Path_69" data-name="Path 69" stroke="#0f3351" d="M729.465,1305.95a27.8,27.8,0,0,0-19.518,27.7" fill="none" transform="translate(-677.012 -1238.062)" stroke-linecap="round" stroke-linejoin="round" stroke-miterlimit="1.5" stroke-width="3" fill-rule="evenodd"/>
      <path id="Path_70" data-name="Path 70" stroke="#0f3351" d="M688.864,1313.566a38.519,38.519,0,1,1,0-77.039,36.327,36.327,0,0,1,9.074,1.122" fill="none" transform="translate(-629.551 -1182.758)" stroke-linecap="round" stroke-linejoin="round" stroke-miterlimit="1.5" stroke-width="3" fill-rule="evenodd"/>
      <path id="Path_71" data-name="Path 71" stroke="#0f3351" d="M548.108,1615.32H607.42" fill="none" transform="translate(-548.108 -1484.512)" stroke-linecap="round" stroke-linejoin="round" stroke-miterlimit="1.5" stroke-width="3" fill-rule="evenodd"/>
      <path id="Path_72" data-name="Path 72" stroke="#0f3351" d="M1599.805,1262.07a20.754,20.754,0,0,1-.177,21.725" fill="none" transform="translate(-1385.77 -1203.106)" stroke-linecap="round" stroke-linejoin="round" stroke-miterlimit="1.5" stroke-width="3" fill-rule="evenodd"/>
    </g>
    <g id="Group_26" data-name="Group 26" transform="translate(787.467 338.827)">
      <g id="Group_25" data-name="Group 25" transform="translate(0.001 0)">
        <path id="Path_86" data-name="Path 86" stroke="#569dd2" d="M1111.84,317.888v9.469a4.127,4.127,0,0,0,4.125,4.125h28.052a4.127,4.127,0,0,0,4.125-4.125" fill="none" transform="translate(-1096.22 -317.888)" stroke-linecap="round" stroke-linejoin="round" stroke-miterlimit="1.5" stroke-width="2" fill-rule="evenodd"/>
        <path id="Path_87" data-name="Path 87" stroke="#569dd2" d="M1035.04,343.459v5.6a2.8,2.8,0,0,0,2.8,2.8h6.062a2.8,2.8,0,0,0,2.8-2.8v-5.6" fill="none" transform="translate(-1035.04 -338.258)" stroke-linecap="round" stroke-linejoin="round" stroke-miterlimit="1.5" stroke-width="2" fill-rule="evenodd"/>
        <g id="Group_23" data-name="Group 23" transform="translate(21.215 17.324)">
          <path id="Path_88" data-name="Path 88" stroke="#569dd2" d="M1197.82,403.067v1.865a2.8,2.8,0,0,0,2.8,2.8" fill="none" transform="translate(-1185.928 -403.067)" stroke-linecap="round" stroke-linejoin="round" stroke-miterlimit="1.5" stroke-width="2" fill-rule="evenodd"/>
          <path id="Path_89" data-name="Path 89" stroke="#569dd2" d="M1178.019,425.994h11.657c1.544,0,2.8.787,2.8,2.331v1.4c0,1.544-1.254,2.331-2.8,2.331H1169.16" fill="none" transform="translate(-1163.097 -421.331)" stroke-linecap="round" stroke-linejoin="round" stroke-miterlimit="1.5" stroke-width="2" fill-rule="evenodd"/>
          <path id="Path_90" data-name="Path 90" stroke="#569dd2" d="M1139.35,425.332h2.8a2.8,2.8,0,0,0,2.8-2.8V409.945" fill="none" transform="translate(-1139.35 -408.546)" stroke-linecap="round" stroke-linejoin="round" stroke-miterlimit="1.5" stroke-width="2" fill-rule="evenodd"/>
        </g>
        <g id="Group_24" data-name="Group 24" transform="translate(0 18.723)">
          <path id="Path_91" data-name="Path 91" stroke="#569dd2" d="M1035.04,446.9V433.377a2.8,2.8,0,0,1,2.8-2.8h7.46a2.8,2.8,0,0,1,2.8,2.8v3.264" fill="none" transform="translate(-1035.04 -426.383)" stroke-linecap="round" stroke-linejoin="round" stroke-miterlimit="1.5" stroke-width="2" fill-rule="evenodd"/>
          <path id="Path_92" data-name="Path 92" stroke="#569dd2" d="M1081.342,409.945v7.46a2.8,2.8,0,0,1-2.8,2.8h-7.46a2.8,2.8,0,0,1-2.8-2.8v-3.264" fill="none" transform="translate(-1061.524 -409.945)" stroke-linecap="round" stroke-linejoin="round" stroke-miterlimit="1.5" stroke-width="2" fill-rule="evenodd"/>
          <path id="Path_93" data-name="Path 93" stroke="#569dd2" d="M1087.77,474.139v2.331" fill="none" transform="translate(-1077.046 -461.083)" stroke-linecap="round" stroke-linejoin="round" stroke-miterlimit="1.5" stroke-width="2" fill-rule="evenodd"/>
          <path id="Path_94" data-name="Path 94" stroke="#569dd2" d="M1108.4,474.139v2.331" fill="none" transform="translate(-1093.48 -461.083)" stroke-linecap="round" stroke-linejoin="round" stroke-miterlimit="1.5" stroke-width="2" fill-rule="evenodd"/>
        </g>
        <path id="Path_95" data-name="Path 95" stroke="#569dd2" d="M1274.28,345.09h6.062a2.8,2.8,0,0,0,2.8-2.8V329.7" fill="none" transform="translate(-1225.623 -327.3)" stroke-linecap="round" stroke-linejoin="round" stroke-miterlimit="1.5" stroke-width="2" fill-rule="evenodd"/>
        <path id="Path_96" data-name="Path 96" stroke="#569dd2" d="M1136.888,351.852v-5.6c0-1.544-.06-2.8,1.231-2.8h11.526c2.223,0,4.029,1.254,4.029,2.8v5.6" fill="none" transform="translate(-1116.174 -338.258)" stroke-linecap="round" stroke-linejoin="round" stroke-miterlimit="1.5" stroke-width="2" fill-rule="evenodd"/>
        <path id="Path_97" data-name="Path 97" stroke="#569dd2" d="M1136.89,325.886v-8" fill="none" transform="translate(-1116.176 -317.888)" stroke-linecap="round" stroke-linejoin="round" stroke-miterlimit="1.5" stroke-width="2" fill-rule="evenodd"/>
        <path id="Path_98" data-name="Path 98" stroke="#569dd2" d="M1253.65,351.852v-5.6c0-1.544.8-2.8,1.79-2.8h3.88c.886,0,1.623,1.009,1.766,2.331.016.152.025,2.173.025,2.331" fill="none" transform="translate(-1209.189 -338.258)" stroke-linecap="round" stroke-linejoin="round" stroke-miterlimit="1.5" stroke-width="2" fill-rule="evenodd"/>
        <path id="Path_99" data-name="Path 99" stroke="#569dd2" d="M1063.7,343.459v2.331" fill="none" transform="translate(-1057.871 -338.258)" stroke-linecap="round" stroke-linejoin="round" stroke-miterlimit="1.5" stroke-width="2" fill-rule="evenodd"/>
        <path id="Path_100" data-name="Path 100" stroke="#569dd2" d="M1155.4,317.888v2.332" fill="none" transform="translate(-1130.921 -317.888)" stroke-linecap="round" stroke-linejoin="round" stroke-miterlimit="1.5" stroke-width="2" fill-rule="evenodd"/>
      </g>
    </g>
    <text id="Ramadan" transform="translate(785 417)" fill="#589dd2" font-size="28" font-family="Poppins-Bold, Poppins" font-weight="700"><tspan x="0" y="0">Ramadan</tspan></text>
    <text id="Mubarak" transform="translate(785 446)" fill="#f1b156" font-size="28" font-family="Poppins-Bold, Poppins" font-weight="700"><tspan x="0" y="0">Mubarak</tspan></text>
  </g>
</svg>
