<svg xmlns="http://www.w3.org/2000/svg" width="376.875" height="335.119" viewBox="0 0 376.875 335.119">
  <g id="Group_65" data-name="Group 65" transform="translate(-487.406 -327.153)">
    <g id="Group_51" data-name="Group 51" transform="translate(489.406 454.667)">
      <path id="Path_117" data-name="Path 117" stroke="#0f507b" d="M563.3,599.982a45.759,45.759,0,1,1,13.015-89.755" fill="none" transform="translate(-493.435 -479.972)" stroke-linecap="round" stroke-linejoin="round" stroke-miterlimit="1.5" stroke-width="4" fill-rule="evenodd"/>
      <path id="Path_118" data-name="Path 118" stroke="#0f507b" d="M577.64,525.378H551.3" fill="none" transform="translate(-498.14 -482.358)" stroke-linecap="round" stroke-linejoin="round" stroke-miterlimit="1.5" stroke-width="4" fill-rule="evenodd"/>
      <path id="Path_119" data-name="Path 119" stroke="#0f507b" d="M578.9,535.34H566.632" fill="none" transform="translate(-500.304 -483.764)" stroke-linecap="round" stroke-linejoin="round" stroke-miterlimit="1.5" stroke-width="4" fill-rule="evenodd"/>
      <path id="Path_120" data-name="Path 120" stroke="#0f507b" d="M568.183,609.72a48.668,48.668,0,0,0,11.993,16.064" fill="none" transform="translate(-500.523 -494.261)" stroke-linecap="round" stroke-linejoin="round" stroke-miterlimit="1.5" stroke-width="4" fill-rule="evenodd"/>
      <path id="Path_121" data-name="Path 121" stroke="#0f507b" d="M599.94,628.423H489.406" fill="none" transform="translate(-489.406 -496.9)" stroke-linecap="round" stroke-linejoin="round" stroke-miterlimit="1.5" stroke-width="4" fill-rule="evenodd"/>
      <path id="Path_122" data-name="Path 122" stroke="#0f507b" d="M582.236,531.564q-.089-1.8-.089-3.613A71.95,71.95,0,0,1,605,475.29" fill="none" transform="translate(-502.493 -475.29)" stroke-linecap="round" stroke-linejoin="round" stroke-miterlimit="1.5" stroke-width="4" fill-rule="evenodd"/>
    </g>
    <g id="Group_55" data-name="Group 55" transform="translate(591.258 329.153)">
      <path id="Path_123" data-name="Path 123" stroke="#f1b156" d="M867.91,586.445a120.068,120.068,0,0,0,44.816-31.272,140.155,140.155,0,0,1-41.486,54.55" fill="none" transform="translate(-644.672 -361.049)" stroke-linecap="round" stroke-linejoin="round" stroke-miterlimit="1.5" stroke-width="4" fill-rule="evenodd"/>
      <g id="Group_54" data-name="Group 54">
        <path id="Path_124" data-name="Path 124" stroke="#f1b156" d="M667.293,582.881a139.557,139.557,0,0,1,80.268-253.728c1.032,0,2.062.011,3.079.033a119.747,119.747,0,0,0-18.2,220.658" fill="none" transform="translate(-607.993 -329.153)" stroke-linecap="round" stroke-linejoin="round" stroke-miterlimit="1.5" stroke-width="4" fill-rule="evenodd"/>
        <g id="Group_53" data-name="Group 53" transform="translate(20.613 32.303)">
          <g id="Group_52" data-name="Group 52">
            <path id="Path_125" data-name="Path 125" stroke="#f1b156" d="M632.234,479.42q-.24-4.1-.241-8.268a138.863,138.863,0,0,1,24.08-78.352" fill="none" transform="translate(-631.993 -370.437)" stroke-linecap="round" stroke-linejoin="round" stroke-miterlimit="1.5" stroke-width="4" fill-rule="evenodd"/>
            <path id="Path_126" data-name="Path 126" stroke="#f1b156" d="M664.7,382.712a140.57,140.57,0,0,1,9.922-10.337q3.082-2.9,6.337-5.613" fill="none" transform="translate(-636.608 -366.763)" stroke-linecap="round" stroke-linejoin="round" stroke-miterlimit="1.5" stroke-width="4" fill-rule="evenodd"/>
          </g>
        </g>
      </g>
    </g>
    <g id="Group_57" data-name="Group 57" transform="translate(600.322 527.696)">
      <g id="Group_56" data-name="Group 56" transform="translate(82.668 116.427)">
        <path id="Path_127" data-name="Path 127" stroke="#0f3351" d="M772.8,711.165a26,26,0,0,1,47.379,0" fill="none" transform="translate(-722.982 -695.874)" stroke-linecap="round" stroke-linejoin="round" stroke-miterlimit="1.5" stroke-width="4" fill-rule="evenodd"/>
        <path id="Path_128" data-name="Path 128" stroke="#0f3351" d="M714.8,714.677H812.85" fill="none" transform="translate(-714.797 -698.527)" stroke-linecap="round" stroke-linejoin="round" stroke-miterlimit="1.5" stroke-width="4" fill-rule="evenodd"/>
      </g>
      <path id="Path_129" data-name="Path 129" stroke="#0f3351" d="M771.006,586.525a45.362,45.362,0,1,1,81.415,39.986" fill="none" transform="translate(-640.061 -560.318)" stroke-linecap="round" stroke-linejoin="round" stroke-miterlimit="1.5" stroke-width="4" fill-rule="evenodd"/>
      <path id="Path_130" data-name="Path 130" stroke="#0f3351" d="M707.8,627.458a38.568,38.568,0,0,0-6.915-2.368" fill="none" transform="translate(-630.165 -569.459)" stroke-linecap="round" stroke-linejoin="round" stroke-miterlimit="1.5" stroke-width="4" fill-rule="evenodd"/>
      <path id="Path_131" data-name="Path 131" stroke="#0f3351" d="M700.881,619.643a41.864,41.864,0,0,1,40.931-33.153A41.034,41.034,0,0,1,759,590.218" fill="none" transform="translate(-630.165 -564.011)" stroke-linecap="round" stroke-linejoin="round" stroke-miterlimit="1.5" stroke-width="4" fill-rule="evenodd"/>
      <path id="Path_132" data-name="Path 132" stroke="#0f3351" d="M768.552,590.831a41.754,41.754,0,0,1,10.882,7.112" fill="none" transform="translate(-639.715 -564.624)" stroke-linecap="round" stroke-linejoin="round" stroke-miterlimit="1.5" stroke-width="4" fill-rule="evenodd"/>
      <path id="Path_133" data-name="Path 133" stroke="#0f3351" d="M698.052,640.133a28.092,28.092,0,0,0-9.215-1.165" fill="none" transform="translate(-628.465 -571.414)" stroke-linecap="round" stroke-linejoin="round" stroke-miterlimit="1.5" stroke-width="4" fill-rule="evenodd"/>
      <path id="Path_134" data-name="Path 134" stroke="#0f3351" d="M677.189,640.429a28.174,28.174,0,0,0-19.782,28.079" fill="none" transform="translate(-624.026 -571.623)" stroke-linecap="round" stroke-linejoin="round" stroke-miterlimit="1.5" stroke-width="4" fill-rule="evenodd"/>
      <path id="Path_135" data-name="Path 135" stroke="#0f3351" d="M682.123,701.848a39.041,39.041,0,0,1,0-78.082,36.839,36.839,0,0,1,9.2,1.137" fill="none" transform="translate(-622.009 -569.272)" stroke-linecap="round" stroke-linejoin="round" stroke-miterlimit="1.5" stroke-width="4" fill-rule="evenodd"/>
      <path id="Path_136" data-name="Path 136" stroke="#0f3351" d="M618.546,714.677h60.115" fill="none" transform="translate(-618.546 -582.101)" stroke-linecap="round" stroke-linejoin="round" stroke-miterlimit="1.5" stroke-width="4" fill-rule="evenodd"/>
      <path id="Path_137" data-name="Path 137" stroke="#0f3351" d="M871.09,629.9a21.034,21.034,0,0,1-.18,22.018" fill="none" transform="translate(-654.159 -570.137)" stroke-linecap="round" stroke-linejoin="round" stroke-miterlimit="1.5" stroke-width="3" fill-rule="evenodd"/>
    </g>
    <g id="Group_64" data-name="Group 64" transform="translate(700.376 392.83)">
      <g id="Group_60" data-name="Group 60" transform="translate(0 49.457)">
        <g id="Group_58" data-name="Group 58">
          <path id="Path_138" data-name="Path 138" d="M748.334,464.44h-13.3v21.706h13.3V481.91h-8.008v-4.762h7.081v-4.081h-7.081v-4.391h8.008V464.44Z" transform="translate(-735.039 -461.379)" fill="#589dd2"/>
          <path id="Path_139" data-name="Path 139" d="M754.434,485.643h5.287V468.389h-5.287Zm2.659-19.047a2.874,2.874,0,1,0-3.154-2.845A2.911,2.911,0,0,0,757.093,466.6Z" transform="translate(-737.706 -460.876)" fill="#589dd2"/>
          <path id="Path_140" data-name="Path 140" d="M763.911,477.3c0,5.442,3.37,8.9,7.606,8.9a5.968,5.968,0,0,0,5.318-2.721v2.474h5.287V463.072h-5.287v8.008a6.334,6.334,0,0,0-5.318-2.628c-4.236,0-7.606,3.4-7.606,8.843Zm12.924.031c0,2.752-1.763,4.267-3.772,4.267-1.979,0-3.772-1.546-3.772-4.3s1.793-4.236,3.772-4.236c2.01,0,3.772,1.515,3.772,4.267Z" transform="translate(-739.113 -461.186)" fill="#589dd2"/>
          <rect id="Rectangle_5" data-name="Rectangle 5" width="13.605" height="4.391" transform="translate(46.534 11.719)" fill="#589dd2"/>
          <path id="Path_141" data-name="Path 141" d="M825.036,486.146h5.6l-7.854-21.706h-6.122L808.8,486.146h5.535l1.3-3.834h8.1l1.3,3.834Zm-2.659-7.915h-5.349l2.659-7.946Z" transform="translate(-745.448 -461.379)" fill="#589dd2"/>
          <rect id="Rectangle_6" data-name="Rectangle 6" width="5.287" height="22.881" transform="translate(87.565 1.886)" fill="#589dd2"/>
          <rect id="Rectangle_7" data-name="Rectangle 7" width="13.605" height="4.391" transform="translate(96.377 11.719)" fill="#589dd2"/>
          <path id="Path_142" data-name="Path 142" d="M868.491,486.146h5.287v-8.781H880.4v-4.112h-6.617v-4.576h8.843V464.44h-14.13Z" transform="translate(-753.872 -461.379)" fill="#589dd2"/>
          <path id="Path_143" data-name="Path 143" d="M888.1,485.643h5.287V468.389H888.1Zm2.659-19.047a2.874,2.874,0,1,0-3.154-2.845A2.911,2.911,0,0,0,890.761,466.6Z" transform="translate(-756.569 -460.876)" fill="#589dd2"/>
          <path id="Path_144" data-name="Path 144" d="M899.43,480.188c0,4.483,2.5,6,6.091,6h2.69V481.7h-1.886c-1.175,0-1.608-.433-1.608-1.453v-6.926h3.463v-4.391h-3.463v-4.205H899.43v4.205h-2.1v4.391h2.1v6.864Z" transform="translate(-757.941 -461.42)" fill="#589dd2"/>
          <path id="Path_145" data-name="Path 145" d="M918.706,478.839c0-2.968,1.453-3.834,3.958-3.834h1.453v-5.6a6.432,6.432,0,0,0-5.411,3.061v-2.875h-5.287v17.253h5.287v-8.008Z" transform="translate(-760.212 -462.08)" fill="#589dd2"/>
        </g>
        <g id="Group_59" data-name="Group 59" transform="translate(0 33.665)">
          <path id="Path_146" data-name="Path 146" d="M735.039,523.146h5.287V510.1l4.885,13.048h4.267l4.854-13.017v13.017h5.287V501.44h-6.215l-6.029,15.027-6.091-15.027h-6.246Z" transform="translate(-735.039 -500.265)" fill="#f1b156"/>
          <path id="Path_147" data-name="Path 147" d="M785.1,506.624h-5.287v9.369c0,2.35-1.3,3.648-3.339,3.648-1.979,0-3.308-1.3-3.308-3.648v-9.369h-5.256V516.7c0,4.607,2.69,7.359,6.679,7.359a6.286,6.286,0,0,0,5.225-2.536v2.35H785.1V506.624Z" transform="translate(-739.677 -500.997)" fill="#f1b156"/>
          <path id="Path_148" data-name="Path 148" d="M797.638,508.142v-8.07h-5.287v22.88h5.287v-2.412a6.063,6.063,0,0,0,5.318,2.659c4.236,0,7.606-3.463,7.606-8.9s-3.339-8.843-7.606-8.843a6.091,6.091,0,0,0-5.318,2.69Zm7.544,6.153c0,2.752-1.793,4.3-3.8,4.3-1.979,0-3.772-1.515-3.772-4.267s1.793-4.267,3.772-4.267C803.389,510.059,805.183,511.543,805.183,514.295Z" transform="translate(-743.127 -500.072)" fill="#f1b156"/>
          <path id="Path_149" data-name="Path 149" d="M815.571,515.179c0,5.442,3.37,8.9,7.575,8.9a6.1,6.1,0,0,0,5.349-2.69v2.443h5.287V506.583H828.5v2.443a6.005,6.005,0,0,0-5.318-2.69c-4.236,0-7.606,3.4-7.606,8.843Zm12.924.031c0,2.752-1.762,4.267-3.772,4.267-1.979,0-3.772-1.546-3.772-4.3s1.793-4.236,3.772-4.236C826.733,510.943,828.5,512.458,828.5,515.21Z" transform="translate(-746.404 -500.956)" fill="#f1b156"/>
          <path id="Path_150" data-name="Path 150" d="M846.526,515.839c0-2.968,1.453-3.834,3.958-3.834h1.453v-5.6a6.431,6.431,0,0,0-5.411,3.061v-2.876h-5.287v17.253h5.287v-8.008Z" transform="translate(-750.026 -500.966)" fill="#f1b156"/>
          <path id="Path_151" data-name="Path 151" d="M855.423,515.179c0,5.442,3.37,8.9,7.575,8.9a6.1,6.1,0,0,0,5.349-2.69v2.443h5.287V506.583h-5.287v2.443a6.006,6.006,0,0,0-5.318-2.69c-4.236,0-7.606,3.4-7.606,8.843Zm12.924.031c0,2.752-1.762,4.267-3.772,4.267-1.979,0-3.772-1.546-3.772-4.3s1.793-4.236,3.772-4.236C866.585,510.943,868.347,512.458,868.347,515.21Z" transform="translate(-752.028 -500.956)" fill="#f1b156"/>
          <path id="Path_152" data-name="Path 152" d="M881.091,522.953h5.287v-7.235l5.256,7.235h6.555l-7.235-8.6,7.173-8.657H891.6l-5.225,7.019V500.072h-5.287v22.881Z" transform="translate(-755.65 -500.072)" fill="#f1b156"/>
        </g>
      </g>
      <g id="Group_63" data-name="Group 63" transform="translate(0.318)">
        <path id="Path_153" data-name="Path 153" stroke="#8bb3cd" d="M753.842,403.293v9.6a4.183,4.183,0,0,0,4.181,4.18h28.431a4.182,4.182,0,0,0,4.181-4.18" fill="none" transform="translate(-738.01 -403.293)" stroke-linecap="round" stroke-linejoin="round" stroke-miterlimit="1.5" stroke-width="3" fill-rule="evenodd"/>
        <path id="Path_154" data-name="Path 154" stroke="#8bb3cd" d="M735.409,409.43V415.1a2.837,2.837,0,0,0,2.836,2.835h6.144a2.836,2.836,0,0,0,2.835-2.835V409.43" fill="none" transform="translate(-735.409 -404.159)" stroke-linecap="round" stroke-linejoin="round" stroke-miterlimit="1.5" stroke-width="3" fill-rule="evenodd"/>
        <g id="Group_61" data-name="Group 61" transform="translate(21.503 17.558)">
          <path id="Path_155" data-name="Path 155" stroke="#8bb3cd" d="M774.476,423.736v1.89a2.836,2.836,0,0,0,2.835,2.835" fill="none" transform="translate(-762.425 -423.736)" stroke-linecap="round" stroke-linejoin="round" stroke-miterlimit="1.5" stroke-width="3" fill-rule="evenodd"/>
          <path id="Path_156" data-name="Path 156" stroke="#8bb3cd" d="M776.577,429.238h11.815c1.565,0,2.835.8,2.835,2.364v1.417c0,1.565-1.27,2.363-2.835,2.363H767.6" fill="none" transform="translate(-761.454 -424.512)" stroke-linecap="round" stroke-linejoin="round" stroke-miterlimit="1.5" stroke-width="3" fill-rule="evenodd"/>
          <path id="Path_157" data-name="Path 157" stroke="#8bb3cd" d="M760.445,440.982h2.835a2.836,2.836,0,0,0,2.835-2.835v-12.76" fill="none" transform="translate(-760.445 -423.969)" stroke-linecap="round" stroke-linejoin="round" stroke-miterlimit="1.5" stroke-width="3" fill-rule="evenodd"/>
        </g>
        <g id="Group_62" data-name="Group 62" transform="translate(0 18.976)">
          <path id="Path_158" data-name="Path 158" stroke="#8bb3cd" d="M735.409,446.879V433.174a2.837,2.837,0,0,1,2.836-2.835h7.561a2.837,2.837,0,0,1,2.836,2.835v3.308" fill="none" transform="translate(-735.409 -426.086)" stroke-linecap="round" stroke-linejoin="round" stroke-miterlimit="1.5" stroke-width="3" fill-rule="evenodd"/>
          <path id="Path_159" data-name="Path 159" stroke="#8bb3cd" d="M756.62,425.387v7.562a2.836,2.836,0,0,1-2.835,2.835h-7.562a2.836,2.836,0,0,1-2.835-2.835V429.64" fill="none" transform="translate(-736.535 -425.387)" stroke-linecap="round" stroke-linejoin="round" stroke-miterlimit="1.5" stroke-width="3" fill-rule="evenodd"/>
          <path id="Path_160" data-name="Path 160" stroke="#8bb3cd" d="M748.064,440.793v2.363" fill="none" transform="translate(-737.195 -427.561)" stroke-linecap="round" stroke-linejoin="round" stroke-miterlimit="1.5" stroke-width="3" fill-rule="evenodd"/>
          <path id="Path_161" data-name="Path 161" stroke="#8bb3cd" d="M753.017,440.793v2.363" fill="none" transform="translate(-737.894 -427.561)" stroke-linecap="round" stroke-linejoin="round" stroke-miterlimit="1.5" stroke-width="3" fill-rule="evenodd"/>
        </g>
        <path id="Path_162" data-name="Path 162" stroke="#8bb3cd" d="M792.828,421.724h6.144a2.837,2.837,0,0,0,2.836-2.835v-12.76" fill="none" transform="translate(-743.512 -403.693)" stroke-linecap="round" stroke-linejoin="round" stroke-miterlimit="1.5" stroke-width="3" fill-rule="evenodd"/>
        <path id="Path_163" data-name="Path 163" stroke="#8bb3cd" d="M759.854,417.936v-5.67c0-1.566-.06-2.836,1.248-2.836h11.682c2.254,0,4.083,1.27,4.083,2.836v5.67" fill="none" transform="translate(-738.859 -404.159)" stroke-linecap="round" stroke-linejoin="round" stroke-miterlimit="1.5" stroke-width="3" fill-rule="evenodd"/>
        <path id="Path_164" data-name="Path 164" stroke="#8bb3cd" d="M759.854,411.4v-8.107" fill="none" transform="translate(-738.859 -403.293)" stroke-linecap="round" stroke-linejoin="round" stroke-miterlimit="1.5" stroke-width="3" fill-rule="evenodd"/>
        <path id="Path_165" data-name="Path 165" stroke="#8bb3cd" d="M787.876,417.936v-5.67c0-1.566.813-2.836,1.815-2.836h3.932c.9,0,1.646,1.023,1.79,2.363.016.154.025,2.2.025,2.363" fill="none" transform="translate(-742.813 -404.159)" stroke-linecap="round" stroke-linejoin="round" stroke-miterlimit="1.5" stroke-width="3" fill-rule="evenodd"/>
        <path id="Path_166" data-name="Path 166" stroke="#8bb3cd" d="M742.287,409.43v2.363" fill="none" transform="translate(-736.38 -404.159)" stroke-linecap="round" stroke-linejoin="round" stroke-miterlimit="1.5" stroke-width="3" fill-rule="evenodd"/>
        <path id="Path_167" data-name="Path 167" stroke="#8bb3cd" d="M764.3,403.293v2.363" fill="none" transform="translate(-739.486 -403.293)" stroke-linecap="round" stroke-linejoin="round" stroke-miterlimit="1.5" stroke-width="3" fill-rule="evenodd"/>
      </g>
    </g>
  </g>
</svg>
