<svg xmlns="http://www.w3.org/2000/svg" width="429.968" height="276.474" viewBox="0 0 429.968 276.474">
  <g id="Group_47" data-name="Group 47" transform="translate(-911.886 -314.638)">
    <g id="Group_3" data-name="Group 3" transform="translate(1159.391 453.351)">
      <path id="Path_7" data-name="Path 7" stroke="#185781" d="M3476.36,1145.88h56.37" fill="none" transform="translate(-3351.768 -1092.007)" stroke-linecap="round" stroke-linejoin="round" stroke-miterlimit="1.5" stroke-width="3" fill-rule="evenodd"/>
      <g id="Group_2" data-name="Group 2">
        <path id="Path_8" data-name="Path 8" stroke="#185781" d="M3315.01,1082.341a25.67,25.67,0,0,0-24.263-17.327l-1.346.068" fill="none" transform="translate(-3202.832 -1027.587)" stroke-linecap="round" stroke-linejoin="round" stroke-miterlimit="1.5" stroke-width="3" fill-rule="evenodd"/>
        <path id="Path_9" data-name="Path 9" stroke="#185781" d="M2935.814,923.915a25.432,25.432,0,0,1,14.506-5.43,48.849,48.849,0,0,0-84.107-21q-1.289,1.456-2.463,3.014" fill="none" transform="translate(-2863.751 -880.99)" stroke-linecap="round" stroke-linejoin="round" stroke-miterlimit="1.5" stroke-width="3" fill-rule="evenodd"/>
        <path id="Path_10" data-name="Path 10" stroke="#185781" d="M2999.159,1150.21H2892.912" fill="none" transform="translate(-2886.981 -1095.456)" stroke-linecap="round" stroke-linejoin="round" stroke-miterlimit="1.5" stroke-width="3" fill-rule="evenodd"/>
        <path id="Path_11" data-name="Path 11" stroke="#185781" d="M3190.47,988.589h12.473" fill="none" transform="translate(-3124.022 -966.706)" stroke-linecap="round" stroke-linejoin="round" stroke-miterlimit="1.5" stroke-width="3" fill-rule="evenodd"/>
        <path id="Path_12" data-name="Path 12" stroke="#185781" d="M3151.86,1030.52h24.561" fill="none" transform="translate(-3093.264 -1000.109)" stroke-linecap="round" stroke-linejoin="round" stroke-miterlimit="1.5" stroke-width="3" fill-rule="evenodd"/>
      </g>
      <path id="Path_13" data-name="Path 13" stroke="#185781" d="M3140.79,1216.96H3252.3" fill="none" transform="translate(-3084.446 -1148.63)" stroke-linecap="round" stroke-linejoin="round" stroke-miterlimit="1.5" stroke-width="3" fill-rule="evenodd"/>
    </g>
    <g id="Group_9" data-name="Group 9" transform="translate(1001.604 316.138)">
      <g id="Group_5" data-name="Group 5" transform="translate(63.098 94.793)">
        <path id="Path_14" data-name="Path 14" stroke="#f1b156" d="M2511.5,841.732l-11.089,6.238" fill="none" transform="translate(-2479.621 -807.296)" stroke-linecap="round" stroke-linejoin="round" stroke-miterlimit="1.5" stroke-width="3" fill-rule="evenodd"/>
        <path id="Path_15" data-name="Path 15" stroke="#f1b156" d="M2468.178,1012.905a5.894,5.894,0,0,0-5.891-5.891h-58.22a5.891,5.891,0,1,0,0,11.782h58.22A5.894,5.894,0,0,0,2468.178,1012.905Z" fill="none" transform="translate(-2398.176 -938.963)" stroke-linecap="round" stroke-linejoin="round" stroke-miterlimit="1.5" stroke-width="3" fill-rule="evenodd"/>
        <path id="Path_16" data-name="Path 16" stroke="#f1b156" d="M2706.59,1376.845v-12.457" fill="none" transform="translate(-2643.865 -1223.655)" stroke-linecap="round" stroke-linejoin="round" stroke-miterlimit="1.5" stroke-width="3" fill-rule="evenodd"/>
        <path id="Path_17" data-name="Path 17" stroke="#f1b156" d="M2489.408,1118.71v-53.767h-55.448v43.089" fill="none" transform="translate(-2426.683 -985.111)" stroke-linecap="round" stroke-linejoin="round" stroke-miterlimit="1.5" stroke-width="3" fill-rule="evenodd"/>
        <path id="Path_18" data-name="Path 18" stroke="#f1b156" d="M2520.15,1143.3c1.378-8.29,10.193-18.714,10.193-18.714s8.815,10.424,10.193,18.714" fill="none" transform="translate(-2495.343 -1032.625)" stroke-linecap="round" stroke-linejoin="round" stroke-miterlimit="1.5" stroke-width="3" fill-rule="evenodd"/>
        <path id="Path_19" data-name="Path 19" stroke="#f1b156" d="M2420.471,846.838a30.082,30.082,0,0,1-1.846-10.4c0-18.419,30.843-30.488,30.843-30.488s30.843,12.069,30.843,30.488a30.082,30.082,0,0,1-1.846,10.4Z" fill="none" transform="translate(-2414.466 -778.788)" stroke-linecap="round" stroke-linejoin="round" stroke-miterlimit="1.5" stroke-width="3" fill-rule="evenodd"/>
        <g id="Group_4" data-name="Group 4" transform="translate(25.697)">
          <path id="Path_20" data-name="Path 20" stroke="#f1b156" d="M2570.27,777.444v-7.277" fill="none" transform="translate(-2560.967 -750.286)" stroke-linecap="round" stroke-linejoin="round" stroke-miterlimit="1.5" stroke-width="3" fill-rule="evenodd"/>
          <path id="Path_21" data-name="Path 21" stroke="#f1b156" d="M2528.357,672.415a11.22,11.22,0,1,0,14.776,16.889c-3.562.632-8.341-1.013-11.611-4.751S2527.258,675.861,2528.357,672.415Z" fill="none" transform="translate(-2524.527 -672.415)" stroke-linecap="round" stroke-linejoin="round" stroke-miterlimit="1.5" stroke-width="3" fill-rule="evenodd"/>
        </g>
        <path id="Path_22" data-name="Path 22" stroke="#f1b156" d="M2462.92,1064.95v14.208" fill="none" transform="translate(-2449.752 -985.116)" stroke-linecap="round" stroke-linejoin="round" stroke-miterlimit="1.5" stroke-width="3" fill-rule="evenodd"/>
        <path id="Path_23" data-name="Path 23" stroke="#f1b156" d="M2490.19,1064.95v7.1" fill="none" transform="translate(-2471.476 -985.116)" stroke-linecap="round" stroke-linejoin="round" stroke-miterlimit="1.5" stroke-width="3" fill-rule="evenodd"/>
        <path id="Path_24" data-name="Path 24" stroke="#f1b156" d="M2622.1,1216.6h.647a2.329,2.329,0,0,1,2.328,2.328v36.853" fill="none" transform="translate(-2576.558 -1105.923)" stroke-linecap="round" stroke-linejoin="round" stroke-miterlimit="1.5" stroke-width="3" fill-rule="evenodd"/>
        <path id="Path_25" data-name="Path 25" stroke="#f1b156" d="M2503.82,1232.288v-13.361a2.329,2.329,0,0,1,2.328-2.328" fill="none" transform="translate(-2482.334 -1105.923)" stroke-linecap="round" stroke-linejoin="round" stroke-miterlimit="1.5" stroke-width="3" fill-rule="evenodd"/>
      </g>
      <g id="Group_7" data-name="Group 7" transform="translate(0 60.831)">
        <g id="Group_6" data-name="Group 6" transform="translate(34.708)">
          <path id="Path_26" data-name="Path 26" stroke="#f1b156" d="M2304.33,610.458v-7.278" fill="none" transform="translate(-2295.027 -583.3)" stroke-linecap="round" stroke-linejoin="round" stroke-miterlimit="1.5" stroke-width="3" fill-rule="evenodd"/>
          <path id="Path_27" data-name="Path 27" stroke="#f1b156" d="M2262.417,505.429a11.221,11.221,0,0,0,14.776,16.89c-3.562.631-8.341-1.013-11.611-4.751S2261.318,508.875,2262.417,505.429Z" fill="none" transform="translate(-2258.587 -505.429)" stroke-linecap="round" stroke-linejoin="round" stroke-miterlimit="1.5" stroke-width="3" fill-rule="evenodd"/>
        </g>
        <path id="Path_28" data-name="Path 28" stroke="#f1b156" d="M2165.96,1167.1l.1-21.832" fill="none" transform="translate(-2150.09 -1015.141)" stroke-linecap="round" stroke-linejoin="round" stroke-miterlimit="1.5" stroke-width="3" fill-rule="evenodd"/>
        <path id="Path_29" data-name="Path 29" stroke="#f1b156" d="M2165.96,1114.875v-1.594" fill="none" transform="translate(-2150.09 -989.655)" stroke-linecap="round" stroke-linejoin="round" stroke-miterlimit="1.5" stroke-width="3" fill-rule="evenodd"/>
        <path id="Path_30" data-name="Path 30" stroke="#f1b156" d="M2171.206,703.561H2108.54a42.5,42.5,0,0,1-2.412-14.168c0-25.081,40.309-41.516,40.309-41.516s38.14,15.551,40.221,39.483" fill="none" transform="translate(-2102.427 -618.906)" stroke-linecap="round" stroke-linejoin="round" stroke-miterlimit="1.5" stroke-width="3" fill-rule="evenodd"/>
        <path id="Path_31" data-name="Path 31" stroke="#f1b156" d="M2232.876,1072.454a14.69,14.69,0,0,1-.115-1.842c0-8.733,14.555-29.11,14.555-29.11s14.555,20.377,14.555,29.11a14.69,14.69,0,0,1-.115,1.842Z" fill="none" transform="translate(-2203.305 -932.475)" stroke-linecap="round" stroke-linejoin="round" stroke-miterlimit="1.5" stroke-width="3" fill-rule="evenodd"/>
        <path id="Path_32" data-name="Path 32" stroke="#f1b156" d="M2189.135,1001.76h-60.312v44.814" fill="none" transform="translate(-2120.506 -900.816)" stroke-linecap="round" stroke-linejoin="round" stroke-miterlimit="1.5" stroke-width="3" fill-rule="evenodd"/>
        <path id="Path_33" data-name="Path 33" stroke="#f1b156" d="M2156.558,921.672h-60.485a8.144,8.144,0,0,0,0,16.288h60.485" fill="none" transform="translate(-2087.929 -837.016)" stroke-linecap="round" stroke-linejoin="round" stroke-miterlimit="1.5" stroke-width="3" fill-rule="evenodd"/>
        <path id="Path_34" data-name="Path 34" stroke="#f1b156" d="M2144.66,870.206s-2.14-7.619-2.079-13.139" fill="none" transform="translate(-2131.465 -785.551)" stroke-linecap="round" stroke-linejoin="round" stroke-miterlimit="1.5" stroke-width="3" fill-rule="evenodd"/>
        <path id="Path_35" data-name="Path 35" stroke="#f1b156" d="M2145.99,809.1s1.256-3.036,2.081-4.852" fill="none" transform="translate(-2134.181 -743.473)" stroke-linecap="round" stroke-linejoin="round" stroke-miterlimit="1.5" stroke-width="3" fill-rule="evenodd"/>
      </g>
      <g id="Group_8" data-name="Group 8" transform="translate(118.544)">
        <path id="Path_36" data-name="Path 36" stroke="#f1b156" d="M2827.57,823.184V749.716" fill="none" transform="translate(-2795.687 -639.201)" stroke-linecap="round" stroke-linejoin="round" stroke-miterlimit="1.5" stroke-width="3" fill-rule="evenodd"/>
        <path id="Path_37" data-name="Path 37" stroke="#f1b156" d="M2827.57,670.125v-9.01" fill="none" transform="translate(-2795.687 -568.62)" stroke-linecap="round" stroke-linejoin="round" stroke-miterlimit="1.5" stroke-width="3" fill-rule="evenodd"/>
        <path id="Path_38" data-name="Path 38" stroke="#f1b156" d="M2671.053,340.47a3.467,3.467,0,0,1,3.214-4.764h2.426V312.684h-2.426a3.465,3.465,0,1,1,0-6.931h2.426v-18.02h-2.426a3.465,3.465,0,1,1,0-6.931h2.951a16.68,16.68,0,0,1,11.6-11.857V257.8a12.661,12.661,0,0,1-8.144-11.822c0-15.253,11.648-29.928,12.649-39.646l.006.057c1.042,9.721,12.643,24.367,12.643,39.59a12.661,12.661,0,0,1-8.144,11.822v11.149a16.678,16.678,0,0,1,11.6,11.857h3.073a3.465,3.465,0,0,1,0,6.931h-2.547v18.02h2.426a3.465,3.465,0,0,1,0,6.931h-2.426v23.023h2.426a3.465,3.465,0,0,1,0,6.931h-2.426v23.022h2.426a3.466,3.466,0,0,1,0,6.931h-2.426v23.022h2.547a3.465,3.465,0,0,1,0,6.931h-2.547V409.3" fill="none" transform="translate(-2670.801 -206.327)" stroke-linecap="round" stroke-linejoin="round" stroke-miterlimit="1.5" stroke-width="3" fill-rule="evenodd"/>
        <path id="Path_39" data-name="Path 39" stroke="#f1b156" d="M2863.35,1241.7v12.463" fill="none" transform="translate(-2824.189 -1031.126)" stroke-linecap="round" stroke-linejoin="round" stroke-miterlimit="1.5" stroke-width="3" fill-rule="evenodd"/>
      </g>
    </g>
    <g id="Group_15" data-name="Group 15" transform="translate(913.386 521.355)">
      <g id="Group_14" data-name="Group 14">
        <path id="Path_44" data-name="Path 44" stroke="#0f3351" d="M1801.6,1256.853a24.557,24.557,0,0,1,37.461-26.895,20.765,20.765,0,0,1,19.816-14.594" fill="none" transform="translate(-1770.9 -1215.363)" stroke-linecap="round" stroke-linejoin="round" stroke-miterlimit="1.5" stroke-width="3" fill-rule="evenodd"/>
        <path id="Path_45" data-name="Path 45" stroke="#0f3351" d="M2086.73,1215.36a20.754,20.754,0,0,1,20.744,20.744" fill="none" transform="translate(-1998.755 -1215.36)" stroke-linecap="round" stroke-linejoin="round" stroke-miterlimit="1.5" stroke-width="3" fill-rule="evenodd"/>
        <path id="Path_46" data-name="Path 46" stroke="#0f3351" d="M1716.542,1381.87h-21.486" fill="none" transform="translate(-1686.74 -1348.005)" stroke-linecap="round" stroke-linejoin="round" stroke-miterlimit="1.5" stroke-width="3" fill-rule="evenodd"/>
        <path id="Path_47" data-name="Path 47" stroke="#0f3351" d="M1684.862,1419.36h-30.7" fill="none" transform="translate(-1654.165 -1377.87)" stroke-linecap="round" stroke-linejoin="round" stroke-miterlimit="1.5" stroke-width="3" fill-rule="evenodd"/>
      </g>
      <path id="Path_48" data-name="Path 48" stroke="#0f3351" d="M1772.7,1308.74h-14.5" fill="none" transform="translate(-1737.04 -1289.748)" stroke-linecap="round" stroke-linejoin="round" stroke-miterlimit="1.5" stroke-width="3" fill-rule="evenodd"/>
      <path id="Path_49" data-name="Path 49" stroke="#0f3351" d="M1739.818,1344.66h-17.494" fill="none" transform="translate(-1708.462 -1318.363)" stroke-linecap="round" stroke-linejoin="round" stroke-miterlimit="1.5" stroke-width="3" fill-rule="evenodd"/>
    </g>
    <g id="Group_16" data-name="Group 16" transform="translate(1133.322 538.709)">
      <path id="Path_50" data-name="Path 50" stroke="#0e304c" d="M2894.851,1342.183a24.558,24.558,0,0,0-37.461-26.895,20.765,20.765,0,0,0-19.816-14.594" fill="none" transform="translate(-2816.829 -1300.693)" stroke-linecap="round" stroke-linejoin="round" stroke-miterlimit="1.5" stroke-width="3" fill-rule="evenodd"/>
      <path id="Path_51" data-name="Path 51" stroke="#0e304c" d="M2756.316,1300.69a20.754,20.754,0,0,0-20.744,20.744" fill="none" transform="translate(-2735.572 -1300.69)" stroke-linecap="round" stroke-linejoin="round" stroke-miterlimit="1.5" stroke-width="3" fill-rule="evenodd"/>
      <path id="Path_52" data-name="Path 52" stroke="#0e304c" d="M3123.59,1467.2h21.486" fill="none" transform="translate(-3044.675 -1433.335)" stroke-linecap="round" stroke-linejoin="round" stroke-miterlimit="1.5" stroke-width="3" fill-rule="evenodd"/>
      <path id="Path_53" data-name="Path 53" stroke="#0e304c" d="M3119.2,1504.69h30.7" fill="none" transform="translate(-3041.177 -1463.2)" stroke-linecap="round" stroke-linejoin="round" stroke-miterlimit="1.5" stroke-width="3" fill-rule="evenodd"/>
    </g>
    <g id="Group_17" data-name="Group 17" transform="translate(996.229 534.452)">
      <path id="Path_54" data-name="Path 54" stroke="#0f3351" d="M2061.5,1481.11a25.67,25.67,0,0,1,24.263-17.327l1.346.068" fill="none" transform="translate(-2061.5 -1426.356)" stroke-linecap="round" stroke-linejoin="round" stroke-miterlimit="1.5" stroke-width="3" fill-rule="evenodd"/>
      <path id="Path_55" data-name="Path 55" stroke="#0f3351" d="M2642.37,1423.615a24.245,24.245,0,0,1,5.932-.719,25.656,25.656,0,0,1,25.644,25.644" fill="none" transform="translate(-2524.233 -1393.786)" stroke-linecap="round" stroke-linejoin="round" stroke-miterlimit="1.5" stroke-width="3" fill-rule="evenodd"/>
      <path id="Path_56" data-name="Path 56" stroke="#0f3351" d="M2201.928,1322.685a25.43,25.43,0,0,0-14.507-5.43,48.865,48.865,0,0,1,92.528-7.667" fill="none" transform="translate(-2161.812 -1279.76)" stroke-linecap="round" stroke-linejoin="round" stroke-miterlimit="1.5" stroke-width="3" fill-rule="evenodd"/>
      <path id="Path_57" data-name="Path 57" stroke="#0f3351" d="M2061.5,1548.98h149.713" fill="none" transform="translate(-2061.5 -1494.226)" stroke-linecap="round" stroke-linejoin="round" stroke-miterlimit="1.5" stroke-width="3" fill-rule="evenodd"/>
      <path id="Path_58" data-name="Path 58" stroke="#0f3351" d="M2721.493,1470.69h-12.474" fill="none" transform="translate(-2577.327 -1431.859)" stroke-linecap="round" stroke-linejoin="round" stroke-miterlimit="1.5" stroke-width="3" fill-rule="evenodd"/>
      <path id="Path_59" data-name="Path 59" stroke="#0f3351" d="M2696.1,1512.63h-24.561" fill="none" transform="translate(-2547.469 -1465.269)" stroke-linecap="round" stroke-linejoin="round" stroke-miterlimit="1.5" stroke-width="3" fill-rule="evenodd"/>
      <path id="Path_60" data-name="Path 60" stroke="#0f3351" d="M2357.53,1322.375a34.93,34.93,0,0,1,10.842-1.714" fill="none" transform="translate(-2297.323 -1312.342)" stroke-linecap="round" stroke-linejoin="round" stroke-miterlimit="1.5" stroke-width="3" fill-rule="evenodd"/>
      <path id="Path_61" data-name="Path 61" stroke="#0f3351" d="M2246.36,1365a34.792,34.792,0,0,1,1.459-3.886,35.18,35.18,0,0,1,13.932-15.773" fill="none" transform="translate(-2208.763 -1332.001)" stroke-linecap="round" stroke-linejoin="round" stroke-miterlimit="1.5" stroke-width="3" fill-rule="evenodd"/>
    </g>
  </g>
</svg>
